<?xml version="1.0" encoding="UTF-8"?><svg xmlns="http://www.w3.org/2000/svg" xmlns:xlink="http://www.w3.org/1999/xlink" contentScriptType="text/ecmascript" width="576pt" zoomAndPan="magnify" contentStyleType="text/css" viewBox="0 0 576 359.999987" height="359.999987pt" preserveAspectRatio="xMidYMid meet" version="1.2"><defs><clipPath xml:id="clip1" id="clip1"><path d="M 1 119.78125 L 575 119.78125 L 575 240.53125 L 1 240.53125 Z M 1 119.78125 "/></clipPath></defs><g xml:id="surface1" id="surface1"><g clip-rule="nonzero" clip-path="url(#clip1)"><path style=" stroke:none;fill-rule:nonzero;fill:rgb(96.469116%,20.388794%,25.099182%);fill-opacity:1;" d="M 400.4375 121.347656 L 380.378906 121.347656 C 379.238281 121.347656 378.667969 122.496094 378.667969 123.070312 L 378.667969 166.945312 L 358.609375 166.945312 L 358.609375 123.070312 C 358.609375 121.921875 357.46875 121.347656 356.894531 121.347656 L 336.835938 121.347656 C 335.695312 121.347656 335.125 122.496094 335.125 123.070312 L 335.125 235.683594 C 335.125 236.832031 336.265625 237.40625 336.835938 237.40625 L 356.894531 237.40625 C 358.039062 237.40625 358.609375 236.257812 358.609375 235.683594 L 358.609375 190.648438 L 378.667969 190.648438 L 378.667969 235.683594 C 378.667969 236.832031 379.808594 237.40625 380.378906 237.40625 L 400.4375 237.40625 C 401.582031 237.40625 402.152344 236.257812 402.152344 235.683594 L 402.152344 123.070312 C 402.152344 122.546875 401.632812 121.347656 400.4375 121.347656 M 231.390625 121.347656 L 211.332031 121.347656 C 210.191406 121.347656 209.621094 121.871094 209.621094 123.070312 L 209.621094 202.910156 C 209.621094 206.945312 208.476562 209.824219 206.753906 212.128906 C 205.03125 214.429688 202.742188 215.007812 199.875 215.007812 C 198.582031 215.011719 197.339844 214.761719 196.148438 214.261719 C 194.957031 213.761719 193.90625 213.050781 192.996094 212.128906 C 191.285156 209.820312 190.132812 206.941406 190.132812 202.910156 L 190.132812 123.070312 C 190.132812 121.921875 188.988281 121.347656 188.417969 121.347656 L 168.359375 121.347656 C 167.21875 121.347656 166.648438 121.871094 166.648438 123.070312 L 166.648438 203.433594 C 166.648438 213.804688 168.941406 223.597656 175.242188 230.027344 C 181.546875 236.363281 190.140625 239.820312 199.980469 239.820312 C 210.292969 239.820312 218.980469 236.367188 224.714844 230.027344 C 231.015625 223.691406 233.3125 214.476562 233.3125 203.433594 L 233.3125 123.070312 C 233.21875 122.546875 232.636719 121.347656 231.402344 121.347656 M 34.84375 119.625 C 24.53125 119.625 15.847656 123.082031 10.109375 129.421875 C 3.808594 135.757812 1.511719 144.972656 1.511719 156.015625 L 1.511719 204.023438 C 1.511719 214.390625 3.808594 224.1875 10.109375 230.617188 C 16.410156 236.949219 25.007812 240.410156 34.84375 240.410156 C 45.160156 240.410156 53.84375 236.957031 59.582031 230.617188 C 65.882812 224.28125 68.175781 215.066406 68.175781 204.023438 L 68.175781 177.523438 C 68.15625 177.226562 68.082031 176.941406 67.957031 176.667969 C 67.832031 176.394531 67.664062 176.15625 67.453125 175.941406 C 67.246094 175.730469 67.003906 175.5625 66.734375 175.4375 C 66.464844 175.3125 66.179688 175.238281 65.882812 175.21875 L 36.5625 175.21875 C 36.265625 175.238281 35.984375 175.3125 35.714844 175.4375 C 35.441406 175.5625 35.203125 175.730469 34.992188 175.941406 C 34.78125 176.152344 34.613281 176.394531 34.488281 176.667969 C 34.367188 176.941406 34.292969 177.226562 34.269531 177.523438 L 34.269531 197.207031 C 34.292969 197.503906 34.367188 197.789062 34.488281 198.0625 C 34.613281 198.335938 34.78125 198.574219 34.992188 198.789062 C 35.203125 199 35.441406 199.167969 35.714844 199.292969 C 35.984375 199.417969 36.265625 199.492188 36.5625 199.515625 L 44.105469 199.515625 L 44.105469 204.121094 C 44.105469 208.15625 42.964844 211.710938 41.242188 213.917969 C 39.527344 216.222656 37.226562 216.796875 34.363281 216.796875 C 33.070312 216.800781 31.828125 216.550781 30.636719 216.050781 C 29.445312 215.550781 28.394531 214.839844 27.484375 213.917969 C 25.769531 211.609375 24.617188 208.15625 24.617188 204.121094 L 24.617188 156.636719 C 24.617188 152.601562 25.761719 149.050781 27.484375 146.839844 C 29.199219 144.535156 31.496094 143.960938 34.363281 143.960938 C 35.65625 143.957031 36.898438 144.207031 38.089844 144.707031 C 39.28125 145.207031 40.332031 145.917969 41.242188 146.839844 C 42.953125 149.148438 44.105469 152.601562 44.105469 156.636719 L 44.105469 161.242188 C 44.105469 162.390625 45.25 162.964844 45.820312 162.964844 L 65.878906 162.964844 C 67.019531 162.964844 67.589844 162.441406 67.589844 161.242188 L 67.589844 156.636719 C 67.589844 146.265625 65.296875 136.472656 58.996094 130.042969 C 53.835938 123.035156 44.574219 119.578125 34.828125 119.578125 M 293.464844 211.460938 C 291.753906 213.765625 289.453125 214.339844 285.921875 214.339844 L 274.460938 214.339844 L 274.460938 189.953125 L 285.921875 189.953125 C 288.789062 189.953125 291.082031 191.101562 292.800781 192.835938 C 293.742188 194.078125 294.453125 195.4375 294.945312 196.917969 C 295.4375 198.398438 295.675781 199.917969 295.667969 201.476562 C 295.859375 206.277344 295.28125 209.058594 293.472656 211.460938 Z M 274.464844 145.019531 L 284.78125 145.019531 C 287.648438 145.019531 289.941406 145.539062 291.660156 147.898438 C 293.371094 149.621094 293.953125 152.507812 293.953125 156.0625 C 293.953125 159.613281 293.433594 162.394531 291.660156 164.703125 C 289.945312 166.425781 287.648438 167.582031 285.359375 167.582031 L 275.042969 167.582031 L 275.042969 145.019531 Z M 307.792969 177.894531 C 311.230469 174.441406 317.539062 166.371094 317.539062 155.910156 C 317.539062 143.71875 312.953125 136.226562 309.417969 132.199219 C 303.117188 125.285156 294.519531 121.828125 284.683594 121.828125 L 253.261719 121.828125 C 252.117188 121.828125 251.546875 122.976562 251.546875 123.550781 L 251.546875 236.269531 C 251.546875 237.414062 252.691406 237.988281 253.261719 237.988281 L 286.589844 237.988281 C 296.902344 237.988281 306.644531 233.957031 313.042969 225.792969 C 316.476562 221.1875 320.585938 213.605469 320.585938 202.082031 C 319.910156 188.253906 311.320312 180.097656 307.789062 177.890625 Z M 125.085938 166.851562 C 123.375 169.148438 120.503906 170.308594 116.96875 170.308594 L 107.226562 170.308594 L 107.226562 144.960938 L 116.96875 144.960938 C 120.40625 144.960938 123.269531 146.109375 125.085938 148.417969 C 127.382812 150.710938 127.953125 153.601562 127.953125 157.632812 C 127.953125 161.660156 127.476562 164.546875 125.085938 166.847656 Z M 137.789062 187.683594 C 140.085938 185.964844 141.804688 184.804688 143.519531 182.496094 C 147.535156 177.890625 152.6875 169.726562 152.6875 157.050781 C 152.6875 144.855469 148.105469 136.890625 143.519531 132.1875 C 137.789062 125.273438 129.195312 121.816406 119.355469 121.238281 L 86.03125 121.238281 C 84.886719 121.238281 84.316406 122.386719 84.316406 122.960938 L 84.316406 235.574219 C 84.316406 236.722656 85.457031 237.296875 86.03125 237.296875 L 106.089844 237.296875 C 107.230469 237.296875 107.800781 236.148438 107.800781 235.574219 L 107.800781 193.90625 L 114.679688 193.90625 L 127.382812 236.628906 C 127.382812 237.148438 128.523438 237.777344 129.09375 237.777344 L 150.296875 237.777344 C 150.816406 237.777344 151.4375 237.253906 152.007812 237.253906 C 152.578125 237.253906 152.527344 236.105469 152.527344 235.53125 Z M 546.953125 211.398438 C 545.238281 213.703125 542.941406 214.277344 539.410156 214.277344 L 527.949219 214.277344 L 527.949219 189.890625 L 539.410156 189.890625 C 542.277344 189.890625 544.570312 191.039062 546.289062 192.773438 C 547.226562 194.015625 547.941406 195.375 548.433594 196.855469 C 548.921875 198.335938 549.164062 199.855469 549.152344 201.414062 C 549.828125 206.214844 548.769531 208.996094 546.957031 211.398438 Z M 528.523438 144.957031 L 538.839844 144.957031 C 541.703125 144.957031 544 145.476562 545.71875 147.835938 C 547.429688 149.558594 548.011719 152.445312 548.011719 155.996094 C 548.011719 159.550781 547.492188 162.332031 545.71875 164.640625 C 544.003906 166.363281 541.703125 167.519531 539.414062 167.519531 L 529.101562 167.519531 L 529.101562 144.957031 Z M 561.851562 177.832031 C 565.289062 174.378906 571.59375 166.308594 571.59375 155.847656 C 571.59375 143.65625 567.011719 136.164062 563.476562 132.132812 C 557.175781 125.21875 548.578125 121.765625 538.742188 121.765625 L 507.035156 121.765625 C 505.890625 121.765625 505.320312 122.914062 505.320312 123.488281 L 505.320312 236.203125 C 505.320312 237.351562 506.460938 237.925781 507.035156 237.925781 L 540.558594 237.925781 C 550.871094 237.925781 560.617188 233.894531 567.011719 225.730469 C 570.449219 221.121094 574.554688 213.539062 574.554688 202.019531 C 573.410156 188.191406 564.808594 180.035156 561.851562 177.828125 Z M 484.867188 121.1875 L 464.808594 121.1875 C 463.667969 121.1875 463.097656 121.707031 463.097656 122.90625 L 463.097656 202.75 C 463.097656 206.785156 461.953125 209.664062 460.230469 211.964844 C 458.507812 214.265625 456.21875 214.847656 453.351562 214.847656 C 452.058594 214.847656 450.816406 214.597656 449.625 214.101562 C 448.433594 213.601562 447.382812 212.890625 446.472656 211.964844 C 444.761719 209.660156 443.609375 206.777344 443.609375 202.75 L 443.609375 122.90625 C 443.609375 121.761719 442.464844 121.1875 441.894531 121.1875 L 421.742188 121.1875 C 420.601562 121.1875 420.03125 121.707031 420.03125 122.90625 L 420.03125 203.273438 C 420.03125 213.640625 422.324219 223.4375 428.625 229.863281 C 434.929688 236.199219 443.523438 239.660156 453.363281 239.660156 C 463.675781 239.660156 472.363281 236.203125 478.097656 229.863281 C 484.398438 223.53125 486.695312 214.3125 486.695312 203.273438 L 486.695312 122.90625 C 487.214844 122.386719 486.175781 121.1875 484.878906 121.1875 "/></g></g></svg>