<?xml version="1.0" encoding="UTF-8"?><svg xmlns="http://www.w3.org/2000/svg" xmlns:xlink="http://www.w3.org/1999/xlink" contentScriptType="text/ecmascript" width="576pt" zoomAndPan="magnify" contentStyleType="text/css" viewBox="0 0 576 359.999987" height="359.999987pt" preserveAspectRatio="xMidYMid meet" version="1.2"><defs><clipPath xml:id="clip1" id="clip1"><path d="M 6.472656 129 L 165.222656 129 L 165.222656 277.390625 L 6.472656 277.390625 Z M 6.472656 129 "/></clipPath><clipPath xml:id="clip2" id="clip2"><path d="M 85 82.460938 L 125 82.460938 L 125 128 L 85 128 Z M 85 82.460938 "/></clipPath></defs><g xml:id="surface1" id="surface1"><g clip-rule="nonzero" clip-path="url(#clip1)"><path style=" stroke:none;fill-rule:nonzero;fill:rgb(0%,0%,0%);fill-opacity:1;" d="M 139.035156 186.140625 C 138.8125 161.507812 159.195312 149.667969 160.113281 149.089844 C 148.644531 132.328125 130.816406 130.046875 124.453125 129.777344 C 109.289062 128.234375 94.839844 138.707031 87.136719 138.707031 C 79.429688 138.707031 67.558594 130 54.96875 130.246094 C 38.414062 130.492188 23.160156 139.847656 14.628906 154.660156 C -2.554688 184.417969 10.238281 228.566406 26.992188 252.753906 C 35.191406 264.566406 44.933594 277.882812 57.769531 277.390625 C 70.132812 276.898438 74.792969 269.402344 89.710938 269.402344 C 104.628906 269.402344 108.839844 277.390625 121.878906 277.144531 C 135.160156 276.875 143.582031 265.058594 151.714844 253.203125 C 161.101562 239.484375 164.976562 226.195312 165.199219 225.5 C 164.90625 225.386719 139.304688 215.589844 139.035156 186.140625 "/></g><g clip-rule="nonzero" clip-path="url(#clip2)"><path style=" stroke:none;fill-rule:nonzero;fill:rgb(0%,0%,0%);fill-opacity:1;" d="M 114.511719 113.78125 C 121.320312 105.542969 125.914062 94.089844 124.660156 82.675781 C 114.847656 83.078125 102.976562 89.210938 95.945312 97.445312 C 89.648438 104.71875 84.117188 116.375 85.617188 127.5625 C 96.527344 128.410156 107.703125 121.988281 114.515625 113.773438 "/></g><path style=" stroke:none;fill-rule:nonzero;fill:rgb(0%,0%,0%);fill-opacity:1;" d="M 225.007812 210.375 L 213.714844 244.542969 L 199.203125 244.542969 L 236.140625 135.933594 L 253.074219 135.933594 L 290.167969 244.542969 L 275.164062 244.542969 L 263.539062 210.375 Z M 260.667969 199.410156 L 250.027344 168.152344 C 247.609375 161.058594 245.996094 154.617188 244.382812 148.324219 L 244.070312 148.324219 L 238.582031 167.992188 L 227.960938 199.414062 Z M 260.667969 199.410156 "/><path style=" stroke:none;fill-rule:nonzero;fill:rgb(0%,0%,0%);fill-opacity:1;" d="M 301.195312 192.003906 C 301.195312 182.027344 300.878906 173.949219 300.542969 166.542969 L 313.289062 166.542969 L 313.9375 179.921875 L 314.253906 179.921875 C 320.054688 170.414062 329.257812 164.773438 342.007812 164.773438 C 360.890625 164.773438 375.066406 180.730469 375.066406 204.421875 C 375.066406 232.460938 357.976562 246.3125 339.585938 246.3125 C 329.261719 246.3125 320.234375 241.769531 315.550781 234.046875 L 315.238281 234.046875 L 315.238281 276.425781 L 301.195312 276.425781 Z M 315.21875 212.792969 C 315.21875 214.894531 315.53125 216.820312 315.867188 218.585938 C 318.441406 228.410156 327 235.167969 337.171875 235.167969 C 352.175781 235.167969 360.890625 222.902344 360.890625 205.03125 C 360.890625 189.386719 352.671875 176.027344 337.664062 176.027344 C 327.988281 176.027344 318.960938 182.964844 316.203125 193.59375 C 315.707031 195.359375 315.238281 197.460938 315.238281 199.386719 L 315.238281 212.769531 Z M 389.738281 192.003906 C 389.738281 182.027344 389.425781 173.949219 389.089844 166.542969 L 401.835938 166.542969 L 402.484375 179.921875 L 402.796875 179.921875 C 408.601562 170.414062 417.804688 164.773438 430.550781 164.773438 C 449.4375 164.773438 463.613281 180.730469 463.613281 204.421875 C 463.613281 232.460938 446.523438 246.3125 428.132812 246.3125 C 417.804688 246.3125 408.78125 241.769531 404.097656 234.046875 L 403.78125 234.046875 L 403.78125 276.425781 L 389.738281 276.425781 Z M 403.78125 212.792969 C 403.78125 214.894531 404.097656 216.820312 404.433594 218.585938 C 407.007812 228.410156 415.566406 235.167969 425.738281 235.167969 C 440.742188 235.167969 449.457031 222.902344 449.457031 205.03125 C 449.457031 189.386719 441.238281 176.027344 426.230469 176.027344 C 416.554688 176.027344 407.523438 182.964844 404.765625 193.59375 C 404.273438 195.359375 403.804688 197.460938 403.804688 199.386719 L 403.804688 212.769531 Z M 478.265625 130.136719 L 492.464844 130.136719 L 492.464844 244.539062 L 478.253906 244.539062 Z M 521.007812 208.117188 C 521.320312 227.292969 533.597656 235.1875 547.777344 235.1875 C 557.945312 235.1875 564.0625 233.421875 569.394531 231.160156 L 571.8125 241.320312 C 566.816406 243.578125 558.261719 246.152344 545.847656 246.152344 C 521.8125 246.152344 507.453125 230.355469 507.453125 206.863281 C 507.453125 183.371094 521.324219 164.796875 544.058594 164.796875 C 569.550781 164.796875 576.3125 187.191406 576.3125 201.535156 C 576.3125 204.445312 576 206.683594 575.820312 208.136719 Z M 562.625 197.957031 C 562.785156 188.941406 558.910156 174.910156 542.9375 174.910156 C 528.582031 174.910156 522.285156 188.136719 521.164062 197.957031 Z M 562.625 197.957031 "/></g></svg>