<?xml version="1.0" encoding="UTF-8"?><svg xmlns="http://www.w3.org/2000/svg" xmlns:xlink="http://www.w3.org/1999/xlink" contentScriptType="text/ecmascript" width="576pt" zoomAndPan="magnify" contentStyleType="text/css" viewBox="0 0 576 359.999987" height="359.999987pt" preserveAspectRatio="xMidYMid meet" version="1.2"><defs><clipPath xml:id="clip1" id="clip1"><path d="M 2 86.269531 L 144 86.269531 L 144 232 L 2 232 Z M 2 86.269531 "/></clipPath><clipPath xml:id="clip2" id="clip2"><path d="M 354 138 L 445 138 L 445 273.769531 L 354 273.769531 Z M 354 138 "/></clipPath></defs><g xml:id="surface1" id="surface1"><g clip-rule="nonzero" clip-path="url(#clip1)"><path style=" stroke:none;fill-rule:nonzero;fill:rgb(28.239441%,52.159119%,92.939758%);fill-opacity:1;" d="M 142.761719 152.582031 L 76.085938 152.582031 L 76.085938 172.375 L 123.375 172.375 C 121.035156 200.082031 97.957031 211.972656 76.167969 211.972656 C 74.445312 211.980469 72.726562 211.902344 71.015625 211.738281 C 69.300781 211.578125 67.597656 211.328125 65.910156 210.996094 C 64.21875 210.664062 62.550781 210.25 60.902344 209.75 C 59.253906 209.253906 57.636719 208.671875 56.046875 208.015625 C 54.457031 207.355469 52.902344 206.617188 51.382812 205.804688 C 49.867188 204.992188 48.394531 204.105469 46.964844 203.144531 C 45.535156 202.183594 44.15625 201.15625 42.828125 200.058594 C 41.503906 198.960938 40.234375 197.800781 39.019531 196.578125 C 37.808594 195.351562 36.660156 194.074219 35.574219 192.734375 C 34.492188 191.398438 33.476562 190.007812 32.527344 188.570312 C 31.582031 187.132812 30.707031 185.648438 29.910156 184.125 C 29.109375 182.597656 28.386719 181.039062 27.742188 179.441406 C 27.097656 177.84375 26.535156 176.21875 26.050781 174.566406 C 25.570312 172.910156 25.167969 171.238281 24.851562 169.546875 C 24.535156 167.851562 24.300781 166.148438 24.15625 164.429688 C 24.007812 162.714844 23.945312 160.996094 23.96875 159.273438 C 23.96875 129.308594 47.15625 106.238281 76.230469 106.238281 C 98.660156 106.238281 111.878906 120.542969 111.878906 120.542969 L 125.726562 106.191406 C 125.726562 106.191406 107.9375 86.386719 75.507812 86.386719 C 34.207031 86.386719 2.261719 121.257812 2.261719 158.921875 C 2.261719 195.828125 32.3125 231.820312 76.550781 231.820312 C 115.464844 231.820312 143.949219 205.148438 143.949219 165.710938 C 143.949219 157.386719 142.738281 152.582031 142.738281 152.582031 Z M 142.761719 152.582031 "/></g><path style=" stroke:none;fill-rule:nonzero;fill:rgb(85.879517%,19.60907%,21.179199%);fill-opacity:1;" d="M 197.382812 138.242188 C 170.023438 138.242188 150.414062 159.648438 150.414062 184.597656 C 150.414062 209.925781 169.425781 231.722656 197.703125 231.722656 C 223.296875 231.722656 244.261719 212.15625 244.261719 185.140625 C 244.261719 154.238281 219.871094 138.238281 197.382812 138.238281 Z M 197.648438 156.605469 C 211.101562 156.605469 223.851562 167.488281 223.851562 185.023438 C 223.851562 202.179688 211.15625 213.378906 197.585938 213.378906 C 182.675781 213.378906 170.957031 201.433594 170.957031 184.886719 C 170.957031 168.6875 182.566406 156.605469 197.691406 156.605469 Z M 197.648438 156.605469 "/><path style=" stroke:none;fill-rule:nonzero;fill:rgb(95.689392%,76.078796%,5.099487%);fill-opacity:1;" d="M 299.53125 138.242188 C 272.167969 138.242188 252.558594 159.648438 252.558594 184.597656 C 252.558594 209.925781 271.570312 231.722656 299.847656 231.722656 C 325.441406 231.722656 346.410156 212.15625 346.410156 185.140625 C 346.410156 154.238281 322.019531 138.238281 299.53125 138.238281 Z M 299.796875 156.605469 C 313.246094 156.605469 325.996094 167.488281 325.996094 185.023438 C 325.996094 202.179688 313.300781 213.378906 299.730469 213.378906 C 284.820312 213.378906 273.105469 201.433594 273.105469 184.886719 C 273.105469 168.6875 284.714844 156.605469 299.839844 156.605469 Z M 299.796875 156.605469 "/><g clip-rule="nonzero" clip-path="url(#clip2)"><path style=" stroke:none;fill-rule:nonzero;fill:rgb(28.239441%,52.159119%,92.939758%);fill-opacity:1;" d="M 399.714844 138.296875 C 374.601562 138.296875 354.867188 160.300781 354.867188 185.003906 C 354.867188 213.136719 377.75 231.792969 399.277344 231.792969 C 412.59375 231.792969 419.675781 226.503906 424.839844 220.433594 L 424.839844 229.652344 C 424.839844 245.78125 415.054688 255.441406 400.28125 255.441406 C 386.007812 255.441406 378.851562 244.820312 376.316406 238.800781 L 358.359375 246.257812 C 364.726562 259.738281 377.550781 273.789062 400.429688 273.789062 C 425.457031 273.789062 444.425781 258.054688 444.425781 225.054688 L 444.425781 141.105469 L 424.914062 141.105469 L 424.914062 149.023438 C 418.898438 142.523438 410.652344 138.296875 399.726562 138.296875 Z M 401.527344 156.625 C 413.839844 156.625 426.480469 167.144531 426.480469 185.105469 C 426.480469 203.363281 413.859375 213.421875 401.253906 213.421875 C 387.867188 213.421875 375.410156 202.554688 375.410156 185.273438 C 375.410156 167.328125 388.351562 156.621094 401.527344 156.621094 Z M 401.527344 156.625 "/></g><path style=" stroke:none;fill-rule:nonzero;fill:rgb(85.879517%,19.60907%,21.179199%);fill-opacity:1;" d="M 531.636719 138.183594 C 507.949219 138.183594 488.058594 157.046875 488.058594 184.859375 C 488.058594 214.300781 510.226562 231.761719 533.855469 231.761719 C 553.625 231.761719 565.808594 220.945312 572.996094 211.25 L 556.847656 200.496094 C 552.65625 206.996094 545.648438 213.363281 533.957031 213.363281 C 520.824219 213.363281 514.785156 206.171875 511.042969 199.191406 L 573.683594 173.191406 L 570.488281 165.570312 C 564.441406 150.652344 550.324219 138.183594 531.640625 138.183594 Z M 532.449219 156.164062 C 540.988281 156.164062 547.128906 160.703125 549.738281 166.148438 L 507.902344 183.640625 C 506.089844 170.09375 518.925781 156.164062 532.398438 156.164062 Z M 532.449219 156.164062 "/><path style=" stroke:none;fill-rule:nonzero;fill:rgb(23.529053%,72.938538%,32.939148%);fill-opacity:1;" d="M 458.144531 228.992188 L 478.722656 228.992188 L 478.722656 91.222656 L 458.144531 91.222656 Z M 458.144531 228.992188 "/></g></svg>