<?xml version="1.0" encoding="UTF-8"?><svg xmlns="http://www.w3.org/2000/svg" xmlns:xlink="http://www.w3.org/1999/xlink" contentScriptType="text/ecmascript" width="576pt" zoomAndPan="magnify" contentStyleType="text/css" viewBox="0 0 576 359.999987" height="359.999987pt" preserveAspectRatio="xMidYMid meet" version="1.2"><defs><clipPath xml:id="clip1" id="clip1"><path d="M 81 197 L 387 197 L 387 265.808594 L 81 265.808594 Z M 81 197 "/></clipPath><clipPath xml:id="clip2" id="clip2"><path d="M 1 93.601562 L 575 93.601562 L 575 196 L 1 196 Z M 1 93.601562 "/></clipPath></defs><g xml:id="surface1" id="surface1"><g clip-rule="nonzero" clip-path="url(#clip1)"><path style=" stroke:none;fill-rule:evenodd;fill:rgb(100%,59.999084%,0%);fill-opacity:1;" d="M 357.105469 228.636719 C 323.808594 253.140625 275.394531 266.226562 233.761719 266.226562 C 175.390625 266.226562 122.835938 244.714844 83.082031 208.921875 C 79.960938 206.105469 82.753906 202.273438 86.503906 204.460938 C 129.410156 229.347656 182.457031 244.308594 237.253906 244.308594 C 274.210938 244.308594 314.867188 236.6875 352.25 220.875 C 357.898438 218.480469 362.617188 224.558594 357.09375 228.644531 M 370.976562 212.828125 C 366.726562 207.394531 342.847656 210.265625 332.042969 211.535156 C 328.769531 211.9375 328.269531 209.09375 331.214844 207.050781 C 350.273438 193.675781 381.5625 197.535156 385.21875 202.015625 C 388.875 206.496094 384.269531 237.773438 366.355469 252.695312 C 363.597656 254.984375 360.980469 253.765625 362.203125 250.726562 C 366.222656 240.714844 375.246094 218.277344 370.976562 212.824219 "/></g><g clip-rule="nonzero" clip-path="url(#clip2)"><path style=" stroke:none;fill-rule:evenodd;fill:rgb(13.328552%,12.159729%,12.159729%);fill-opacity:1;" d="M 332.792969 112.632812 L 332.792969 99.636719 C 332.78125 99.195312 332.859375 98.773438 333.019531 98.363281 C 333.183594 97.953125 333.421875 97.59375 333.734375 97.285156 C 334.046875 96.972656 334.40625 96.734375 334.816406 96.574219 C 335.226562 96.410156 335.652344 96.335938 336.09375 96.347656 L 394.488281 96.347656 C 396.359375 96.347656 397.863281 97.691406 397.863281 99.636719 L 397.863281 110.761719 C 397.839844 112.628906 396.257812 115.070312 393.46875 118.933594 L 363.214844 161.992188 C 374.464844 161.714844 386.324219 163.386719 396.519531 169.113281 C 398.816406 170.40625 399.390625 172.300781 399.621094 174.171875 L 399.621094 188.046875 C 399.621094 189.933594 397.519531 192.152344 395.316406 191.007812 C 377.347656 181.625 353.484375 180.597656 333.621094 191.105469 C 331.59375 192.203125 329.46875 190.007812 329.46875 188.121094 L 329.46875 174.945312 C 329.46875 172.828125 329.492188 169.222656 331.617188 166 L 366.675781 115.894531 L 336.222656 115.894531 C 334.351562 115.894531 332.847656 114.578125 332.847656 112.632812 M 119.765625 193.75 L 102.003906 193.75 C 100.304688 193.625 98.960938 192.351562 98.828125 190.734375 L 98.828125 99.859375 C 98.828125 98.039062 100.355469 96.597656 102.25 96.597656 L 118.816406 96.597656 C 120.539062 96.671875 121.917969 97.992188 122.042969 99.628906 L 122.042969 111.507812 L 122.371094 111.507812 C 126.695312 100.023438 134.816406 94.671875 145.757812 94.671875 C 156.878906 94.671875 163.824219 100.023438 168.824219 111.507812 C 173.128906 100.023438 182.890625 94.671875 193.367188 94.671875 C 200.8125 94.671875 208.957031 97.730469 213.929688 104.609375 C 219.554688 112.25 218.40625 123.363281 218.40625 133.097656 L 218.367188 190.460938 C 218.367188 192.277344 216.839844 193.75 214.945312 193.75 L 197.148438 193.75 C 195.425781 193.625 193.953125 192.203125 193.953125 190.460938 L 193.953125 142.230469 C 193.953125 138.398438 194.296875 128.832031 193.453125 125.199219 C 192.132812 119.097656 188.152344 117.378906 183.003906 117.378906 C 178.699219 117.378906 174.210938 120.238281 172.382812 124.828125 C 170.558594 129.414062 170.734375 137.082031 170.734375 142.234375 L 170.734375 190.40625 C 170.734375 192.226562 169.210938 193.699219 167.316406 193.699219 L 149.519531 193.699219 C 147.722656 193.570312 146.320312 192.152344 146.320312 190.40625 L 146.296875 142.234375 C 146.296875 132.097656 147.972656 117.175781 135.351562 117.175781 C 122.582031 117.175781 123.082031 131.71875 123.082031 142.234375 L 123.082031 190.40625 C 123.082031 192.226562 121.554688 193.699219 119.660156 193.699219 M 448.140625 94.746094 C 474.5 94.746094 488.773438 117.308594 488.773438 145.996094 C 488.773438 173.714844 473.003906 195.699219 448.140625 195.699219 C 422.308594 195.699219 408.15625 173.136719 408.15625 145.023438 C 408.15625 116.730469 422.429688 94.675781 448.140625 94.675781 M 448.289062 113.230469 C 435.203125 113.230469 434.367188 131.011719 434.367188 142.09375 C 434.367188 153.175781 434.195312 176.90625 448.136719 176.90625 C 461.902344 176.90625 462.554688 157.78125 462.554688 146.125 C 462.554688 138.460938 462.226562 129.289062 459.914062 122.015625 C 457.917969 115.691406 453.945312 113.222656 448.296875 113.222656 M 522.964844 193.75 L 505.269531 193.75 C 503.550781 193.625 502.074219 192.203125 502.074219 190.460938 L 502.050781 99.5625 C 502.199219 97.890625 503.675781 96.597656 505.472656 96.597656 L 521.949219 96.597656 C 523.496094 96.671875 524.773438 97.71875 525.121094 99.136719 L 525.121094 113.039062 L 525.449219 113.039062 C 530.421875 100.613281 537.390625 94.6875 549.664062 94.6875 C 557.699219 94.6875 565.40625 97.546875 570.40625 105.398438 C 574.996094 112.664062 574.996094 124.894531 574.996094 133.6875 L 574.996094 190.898438 C 574.796875 192.503906 573.320312 193.761719 571.574219 193.761719 L 553.835938 193.761719 C 552.210938 193.636719 550.863281 192.445312 550.691406 190.898438 L 550.691406 141.542969 C 550.691406 131.605469 551.839844 117.058594 539.570312 117.058594 C 535.25 117.058594 531.277344 119.945312 529.238281 124.324219 C 526.742188 129.871094 526.414062 135.40625 526.414062 141.53125 L 526.414062 190.472656 C 526.390625 192.289062 524.839844 193.761719 522.941406 193.761719 M 286.285156 150.28125 C 286.285156 157.179688 286.457031 162.867188 282.953125 169.058594 C 280.128906 174.035156 275.636719 177.101562 270.65625 177.101562 C 263.835938 177.101562 259.835938 171.921875 259.835938 164.273438 C 259.835938 149.179688 273.40625 146.441406 286.273438 146.441406 L 286.273438 150.273438 M 304.183594 193.433594 C 303.007812 194.480469 301.3125 194.554688 299.992188 193.859375 C 294.097656 188.976562 293.023438 186.707031 289.796875 182.054688 C 280.050781 191.964844 273.132812 194.929688 260.507812 194.929688 C 245.542969 194.929688 233.917969 185.738281 233.917969 167.335938 C 233.917969 152.964844 241.714844 143.179688 252.863281 138.398438 C 262.507812 134.164062 275.972656 133.417969 286.273438 132.246094 L 286.273438 129.957031 C 286.273438 125.746094 286.597656 120.769531 284.089844 117.132812 C 281.945312 113.871094 277.792969 112.527344 274.121094 112.527344 C 267.34375 112.527344 261.316406 115.988281 259.847656 123.167969 C 259.550781 124.769531 258.371094 126.332031 256.75 126.40625 L 239.527344 124.5625 C 238.078125 124.238281 236.453125 123.074219 236.886719 120.84375 C 240.835938 100.019531 259.734375 93.75 276.609375 93.75 C 285.257812 93.75 296.554688 96.039062 303.375 102.558594 C 312.019531 110.601562 311.191406 121.335938 311.191406 133.019531 L 311.191406 160.613281 C 311.191406 168.90625 314.636719 172.539062 317.890625 177.03125 C 319.015625 178.632812 319.269531 180.542969 317.816406 181.742188 L 304.222656 193.550781 L 304.199219 193.492188 M 53.359375 150.335938 C 53.359375 157.238281 53.53125 162.921875 50.027344 169.113281 C 47.203125 174.089844 42.738281 177.15625 37.730469 177.15625 C 30.910156 177.15625 26.9375 171.980469 26.9375 164.332031 C 26.9375 149.238281 40.511719 146.5 53.347656 146.5 L 53.347656 150.332031 M 71.257812 193.492188 C 70.078125 194.539062 68.386719 194.613281 67.066406 193.914062 C 61.171875 189.035156 60.175781 186.765625 56.871094 182.113281 C 47.125 192.023438 40.222656 194.984375 27.582031 194.984375 C 12.644531 194.992188 1.003906 185.800781 1.003906 167.402344 C 1.003906 153.03125 8.820312 143.25 19.945312 138.464844 C 29.589844 134.230469 43.058594 133.488281 53.359375 132.316406 L 53.359375 130.027344 C 53.359375 125.816406 53.683594 120.839844 51.210938 117.199219 C 49.027344 113.9375 44.894531 112.59375 41.238281 112.59375 C 34.464844 112.59375 28.421875 116.054688 26.886719 123.234375 C 26.589844 124.835938 25.414062 126.398438 23.816406 126.472656 L 6.570312 124.632812 C 5.125 124.304688 3.527344 123.144531 3.929688 120.914062 C 7.902344 100.089844 26.777344 93.816406 43.65625 93.816406 C 52.300781 93.816406 63.597656 96.105469 70.417969 102.628906 C 79.0625 110.671875 78.238281 121.40625 78.238281 133.085938 L 78.238281 160.679688 C 78.238281 168.976562 81.683594 172.609375 84.9375 177.101562 C 86.085938 178.703125 86.335938 180.613281 84.878906 181.808594 L 71.332031 193.550781 L 71.273438 193.492188 "/></g></g></svg>