<?xml version="1.0" encoding="UTF-8"?><svg xmlns="http://www.w3.org/2000/svg" xmlns:xlink="http://www.w3.org/1999/xlink" contentScriptType="text/ecmascript" width="576pt" zoomAndPan="magnify" contentStyleType="text/css" viewBox="0 0 576 359.999987" height="359.999987pt" preserveAspectRatio="xMidYMid meet" version="1.2"><g xml:id="surface1" id="surface1"><path style=" stroke:none;fill-rule:nonzero;fill:rgb(10.198975%,9.799194%,9.408569%);fill-opacity:1;" d="M 0 128.597656 L 22.511719 128.597656 L 22.511719 210.597656 L 64.199219 210.597656 L 64.199219 231.367188 L 0 231.367188 L 0 128.597656 "/><path style=" stroke:none;fill-rule:nonzero;fill:rgb(10.198975%,9.799194%,9.408569%);fill-opacity:1;" d="M 84.957031 127.070312 C 91.886719 127.070312 97.511719 132.695312 97.511719 139.617188 C 97.511719 146.554688 91.886719 152.164062 84.957031 152.164062 C 78.035156 152.164062 72.414062 146.554688 72.414062 139.617188 C 72.414062 132.695312 78.035156 127.070312 84.957031 127.070312 Z M 74.140625 161.695312 L 95.777344 161.695312 L 95.777344 231.34375 L 74.140625 231.34375 Z M 74.140625 161.695312 "/><path style=" stroke:none;fill-rule:nonzero;fill:rgb(10.198975%,9.799194%,9.408569%);fill-opacity:1;" d="M 107.746094 161.703125 L 128.511719 161.703125 L 128.511719 171.222656 L 128.804688 171.222656 C 131.6875 165.742188 138.761719 159.976562 149.292969 159.976562 C 171.210938 159.976562 175.253906 174.394531 175.253906 193.144531 L 175.253906 231.34375 L 153.617188 231.34375 L 153.617188 197.480469 C 153.617188 189.398438 153.472656 179.011719 142.355469 179.011719 C 131.113281 179.011719 129.378906 187.816406 129.378906 196.898438 L 129.378906 231.34375 L 107.746094 231.34375 L 107.746094 161.703125 "/><path style=" stroke:none;fill-rule:nonzero;fill:rgb(10.198975%,9.799194%,9.408569%);fill-opacity:1;" d="M 186.226562 128.589844 L 207.863281 128.589844 L 207.863281 190.011719 L 232.371094 161.664062 L 258.882812 161.664062 L 230.511719 193.910156 L 258.300781 231.367188 L 231.097656 231.367188 L 208.144531 196.941406 L 207.863281 196.941406 L 207.863281 231.367188 L 186.226562 231.367188 L 186.226562 128.589844 "/><path style=" stroke:none;fill-rule:nonzero;fill:rgb(10.198975%,9.799194%,9.408569%);fill-opacity:1;" d="M 322.746094 219.28125 C 315.820312 228.089844 304.433594 233.136719 293.179688 233.136719 C 271.542969 233.136719 254.234375 218.707031 254.234375 196.347656 C 254.234375 173.992188 271.542969 159.570312 293.179688 159.570312 C 313.386719 159.570312 326.070312 173.992188 326.070312 196.347656 L 326.070312 203.128906 L 275.871094 203.128906 C 277.59375 211.351562 283.796875 216.691406 292.167969 216.691406 C 299.242188 216.691406 303.992188 213.082031 307.609375 208.175781 Z M 304.433594 188.417969 C 304.578125 181.203125 298.949219 175.148438 291.152344 175.148438 C 281.636719 175.148438 276.445312 181.640625 275.871094 188.417969 Z M 304.433594 188.417969 "/><path style=" stroke:none;fill-rule:nonzero;fill:rgb(10.198975%,9.799194%,9.408569%);fill-opacity:1;" d="M 408.371094 231.335938 L 388.457031 231.335938 L 388.457031 222.097656 L 388.175781 222.097656 C 384.839844 227.144531 376.484375 233.058594 366.671875 233.058594 C 345.894531 233.058594 332.195312 218.0625 332.195312 196.855469 C 332.195312 177.378906 344.304688 159.492188 364.21875 159.492188 C 373.160156 159.492188 381.53125 161.945312 386.441406 168.722656 L 386.722656 168.722656 L 386.722656 128.589844 L 408.371094 128.589844 Z M 371.132812 178.535156 C 360.320312 178.535156 353.832031 185.753906 353.832031 196.273438 C 353.832031 206.816406 360.320312 214.019531 371.132812 214.019531 C 381.957031 214.019531 388.457031 206.816406 388.457031 196.273438 C 388.457031 185.753906 381.957031 178.535156 371.132812 178.535156 Z M 371.132812 178.535156 "/><path style=" stroke:none;fill-rule:nonzero;fill:rgb(0%,37.649536%,52.938843%);fill-opacity:1;" d="M 565.140625 107.011719 L 440.773438 107.011719 C 434.839844 107.011719 430.007812 111.722656 430.007812 117.53125 L 430.007812 242.417969 C 430.007812 248.238281 434.839844 252.949219 440.773438 252.949219 L 565.140625 252.949219 C 571.101562 252.949219 575.953125 248.238281 575.953125 242.417969 L 575.953125 117.53125 C 575.953125 111.722656 571.101562 107.011719 565.140625 107.011719 "/><path style=" stroke:none;fill-rule:nonzero;fill:rgb(100%,100%,100%);fill-opacity:1;" d="M 462.46875 127.101562 C 469.394531 127.101562 475.015625 132.726562 475.015625 139.652344 C 475.015625 146.578125 469.394531 152.203125 462.46875 152.203125 C 455.527344 152.203125 449.917969 146.578125 449.917969 139.652344 C 449.917969 132.726562 455.527344 127.101562 462.46875 127.101562 Z M 451.644531 161.726562 L 473.289062 161.726562 L 473.289062 231.367188 L 451.644531 231.367188 Z M 451.644531 161.726562 "/><path style=" stroke:none;fill-rule:nonzero;fill:rgb(100%,100%,100%);fill-opacity:1;" d="M 486.863281 161.726562 L 507.632812 161.726562 L 507.632812 171.242188 L 507.925781 171.242188 C 510.808594 165.765625 517.871094 159.992188 528.402344 159.992188 C 550.320312 159.992188 554.363281 174.417969 554.363281 193.167969 L 554.363281 231.367188 L 532.738281 231.367188 L 532.738281 197.503906 C 532.738281 189.421875 532.589844 179.035156 521.484375 179.035156 C 510.222656 179.035156 508.5 187.832031 508.5 196.917969 L 508.5 231.367188 L 486.863281 231.367188 L 486.863281 161.726562 "/></g></svg>