<?xml version="1.0" encoding="UTF-8"?><svg xmlns="http://www.w3.org/2000/svg" xmlns:xlink="http://www.w3.org/1999/xlink" contentScriptType="text/ecmascript" width="576pt" zoomAndPan="magnify" contentStyleType="text/css" viewBox="0 0 576 359.999987" height="359.999987pt" preserveAspectRatio="xMidYMid meet" version="1.2"><g xml:id="surface1" id="surface1"><path style=" stroke:none;fill-rule:nonzero;fill:rgb(13.729858%,12.159729%,12.548828%);fill-opacity:1;" d="M 252.726562 196.839844 L 252.726562 175.976562 C 252.726562 168.101562 247.703125 162.800781 239.621094 162.734375 C 238.472656 162.65625 237.332031 162.738281 236.199219 162.96875 C 235.070312 163.199219 233.992188 163.574219 232.964844 164.097656 C 231.933594 164.617188 230.992188 165.265625 230.136719 166.039062 C 229.28125 166.8125 228.542969 167.6875 227.921875 168.65625 C 227.359375 167.714844 226.675781 166.863281 225.882812 166.105469 C 225.085938 165.34375 224.203125 164.703125 223.238281 164.183594 C 222.269531 163.660156 221.25 163.277344 220.175781 163.03125 C 219.105469 162.785156 218.019531 162.6875 216.921875 162.734375 C 215.964844 162.6875 215.019531 162.761719 214.082031 162.964844 C 213.144531 163.164062 212.25 163.484375 211.394531 163.917969 C 210.542969 164.351562 209.757812 164.886719 209.042969 165.527344 C 208.332031 166.164062 207.710938 166.882812 207.183594 167.683594 L 207.183594 163.511719 L 199.9375 163.511719 L 199.9375 196.839844 L 207.253906 196.839844 L 207.253906 178.382812 C 207.253906 172.59375 210.453125 169.535156 215.40625 169.535156 C 220.355469 169.535156 222.652344 172.664062 222.652344 178.3125 L 222.652344 196.839844 L 229.925781 196.839844 L 229.925781 178.382812 C 229.925781 172.59375 233.265625 169.535156 238.078125 169.535156 C 242.890625 169.535156 245.394531 172.664062 245.394531 178.3125 L 245.394531 196.839844 Z M 360.984375 163.539062 L 349.148438 163.539062 L 349.148438 153.441406 L 341.832031 153.441406 L 341.832031 163.539062 L 335.070312 163.539062 L 335.070312 170.160156 L 341.832031 170.160156 L 341.832031 185.335938 C 341.832031 193.070312 344.820312 197.675781 353.390625 197.675781 C 356.65625 197.683594 359.671875 196.828125 362.445312 195.101562 L 360.359375 188.898438 C 358.382812 190.074219 356.246094 190.699219 353.945312 190.773438 C 350.328125 190.773438 349.132812 188.550781 349.132812 185.210938 L 349.132812 170.160156 L 360.96875 170.160156 Z M 422.785156 162.703125 C 421.902344 162.679688 421.03125 162.769531 420.171875 162.980469 C 419.3125 163.191406 418.5 163.507812 417.726562 163.9375 C 416.953125 164.367188 416.25 164.894531 415.621094 165.511719 C 414.988281 166.132812 414.453125 166.824219 414.007812 167.585938 L 414.007812 163.539062 L 406.832031 163.539062 L 406.832031 196.839844 L 414.078125 196.839844 L 414.078125 178.171875 C 414.078125 172.609375 416.441406 169.605469 421.1875 169.605469 C 422.753906 169.582031 424.265625 169.859375 425.71875 170.4375 L 427.945312 163.609375 C 426.277344 163.011719 424.558594 162.710938 422.785156 162.703125 Z M 329.355469 166.183594 C 327.300781 164.964844 325.121094 164.058594 322.808594 163.464844 C 320.496094 162.875 318.148438 162.621094 315.765625 162.703125 C 307.335938 162.703125 301.855469 166.753906 301.855469 173.359375 C 301.855469 178.796875 305.886719 182.136719 313.34375 183.179688 L 316.75 183.667969 C 320.714844 184.222656 322.609375 185.265625 322.609375 187.144531 C 322.609375 189.71875 319.964844 191.191406 315.011719 191.191406 C 313.015625 191.253906 311.0625 190.988281 309.15625 190.394531 C 307.246094 189.796875 305.492188 188.902344 303.886719 187.714844 L 300.589844 193.347656 C 302.699219 194.824219 304.988281 195.929688 307.453125 196.671875 C 309.917969 197.410156 312.4375 197.746094 315.011719 197.675781 C 324.625 197.675781 330.203125 193.140625 330.203125 186.808594 C 330.203125 180.953125 325.808594 177.894531 318.574219 176.851562 L 315.164062 176.363281 C 312.035156 175.945312 309.519531 175.320312 309.519531 173.09375 C 309.519531 170.660156 311.882812 169.199219 315.859375 169.199219 C 319.566406 169.253906 323.023438 170.207031 326.238281 172.050781 Z M 523.421875 162.703125 C 522.539062 162.679688 521.667969 162.769531 520.808594 162.980469 C 519.949219 163.191406 519.136719 163.507812 518.363281 163.9375 C 517.589844 164.367188 516.890625 164.894531 516.257812 165.511719 C 515.628906 166.132812 515.089844 166.824219 514.644531 167.585938 L 514.644531 163.539062 L 507.46875 163.539062 L 507.46875 196.839844 L 514.714844 196.839844 L 514.714844 178.171875 C 514.714844 172.609375 517.078125 169.605469 521.824219 169.605469 C 523.390625 169.582031 524.902344 169.859375 526.359375 170.4375 L 528.582031 163.609375 C 526.914062 163.011719 525.195312 162.710938 523.421875 162.703125 Z M 430.101562 180.1875 C 430.101562 190.289062 437.140625 197.675781 447.863281 197.675781 C 450.039062 197.78125 452.160156 197.492188 454.226562 196.804688 C 456.292969 196.121094 458.164062 195.082031 459.839844 193.695312 L 456.363281 187.839844 C 455.109375 188.792969 453.742188 189.527344 452.25 190.039062 C 450.761719 190.550781 449.230469 190.8125 447.65625 190.832031 C 441.871094 190.832031 437.628906 186.574219 437.628906 180.175781 C 437.628906 173.777344 441.882812 169.589844 447.65625 169.519531 C 449.230469 169.539062 450.761719 169.800781 452.25 170.3125 C 453.742188 170.824219 455.109375 171.558594 456.363281 172.511719 L 459.839844 166.65625 C 458.164062 165.269531 456.292969 164.230469 454.226562 163.546875 C 452.160156 162.859375 450.039062 162.570312 447.863281 162.675781 C 437.140625 162.675781 430.101562 170.0625 430.101562 180.160156 Z M 497.953125 180.1875 L 497.953125 163.496094 L 490.707031 163.496094 L 490.707031 167.546875 C 490.089844 166.75 489.386719 166.035156 488.597656 165.40625 C 487.808594 164.777344 486.957031 164.25 486.042969 163.828125 C 485.128906 163.402344 484.175781 163.089844 483.1875 162.894531 C 482.199219 162.699219 481.199219 162.621094 480.191406 162.664062 C 470.859375 162.664062 463.5 169.980469 463.5 180.148438 C 463.5 190.316406 470.816406 197.632812 480.191406 197.632812 C 481.199219 197.675781 482.199219 197.597656 483.1875 197.402344 C 484.175781 197.203125 485.128906 196.894531 486.042969 196.46875 C 486.957031 196.042969 487.808594 195.515625 488.597656 194.890625 C 489.386719 194.261719 490.089844 193.546875 490.707031 192.75 L 490.707031 196.785156 L 497.953125 196.785156 Z M 470.996094 180.1875 C 470.996094 174.332031 474.820312 169.535156 481.09375 169.535156 C 487.089844 169.535156 491.125 174.136719 491.125 180.1875 C 491.125 186.238281 487.089844 190.84375 481.09375 190.84375 C 474.820312 190.84375 470.996094 186.03125 470.996094 180.1875 Z M 383.558594 162.703125 C 373.824219 162.703125 366.980469 169.8125 366.980469 180.1875 C 366.980469 190.773438 374.085938 197.675781 384.046875 197.675781 C 386.535156 197.761719 388.953125 197.402344 391.308594 196.597656 C 393.660156 195.789062 395.792969 194.59375 397.707031 193 L 394.160156 187.632812 C 392.777344 188.738281 391.25 189.589844 389.582031 190.183594 C 387.914062 190.78125 386.195312 191.089844 384.421875 191.109375 C 379.75 191.109375 375.507812 188.953125 374.464844 182.957031 L 399.195312 182.957031 C 399.265625 182.054688 399.332031 181.148438 399.332031 180.175781 C 399.332031 169.796875 392.851562 162.691406 383.519531 162.691406 Z M 383.421875 169.1875 C 388.09375 169.1875 391.085938 172.109375 391.851562 177.269531 L 374.589844 177.269531 C 375.351562 172.457031 378.273438 169.1875 383.433594 169.1875 Z M 565.152344 180.1875 L 565.152344 150.15625 L 557.90625 150.15625 L 557.90625 167.574219 C 557.289062 166.777344 556.585938 166.0625 555.796875 165.433594 C 555.007812 164.804688 554.15625 164.277344 553.242188 163.855469 C 552.324219 163.429688 551.375 163.117188 550.382812 162.921875 C 549.394531 162.726562 548.398438 162.648438 547.390625 162.691406 C 538.054688 162.691406 530.699219 170.007812 530.699219 180.175781 C 530.699219 190.34375 538.015625 197.660156 547.390625 197.660156 C 548.398438 197.703125 549.394531 197.625 550.382812 197.429688 C 551.375 197.230469 552.324219 196.921875 553.242188 196.496094 C 554.15625 196.070312 555.007812 195.546875 555.796875 194.917969 C 556.585938 194.289062 557.289062 193.574219 557.90625 192.777344 L 557.90625 196.8125 L 565.152344 196.8125 Z M 573.625 193.765625 C 573.914062 193.765625 574.191406 193.820312 574.457031 193.933594 C 574.714844 194.042969 574.941406 194.195312 575.140625 194.390625 C 575.335938 194.585938 575.488281 194.808594 575.597656 195.058594 C 575.835938 195.605469 575.835938 196.152344 575.597656 196.699219 C 575.488281 196.953125 575.335938 197.175781 575.140625 197.367188 C 574.941406 197.5625 574.714844 197.714844 574.457031 197.828125 C 574.191406 197.941406 573.914062 197.996094 573.625 197.992188 C 573.191406 198 572.789062 197.882812 572.425781 197.648438 C 572.0625 197.414062 571.792969 197.097656 571.621094 196.699219 C 571.386719 196.152344 571.386719 195.605469 571.621094 195.058594 C 571.847656 194.527344 572.226562 194.152344 572.761719 193.933594 C 573.046875 193.8125 573.34375 193.757812 573.652344 193.765625 Z M 573.625 197.519531 C 573.84375 197.523438 574.058594 197.484375 574.261719 197.394531 C 574.457031 197.3125 574.628906 197.195312 574.777344 197.046875 C 574.933594 196.894531 575.050781 196.714844 575.136719 196.511719 C 575.21875 196.308594 575.261719 196.097656 575.261719 195.878906 C 575.261719 195.660156 575.21875 195.449219 575.136719 195.246094 C 575.050781 195.046875 574.933594 194.867188 574.777344 194.710938 C 574.628906 194.5625 574.457031 194.445312 574.261719 194.363281 C 574.058594 194.277344 573.84375 194.234375 573.625 194.238281 C 573.398438 194.234375 573.179688 194.277344 572.96875 194.363281 C 572.84375 194.417969 572.730469 194.484375 572.621094 194.566406 C 572.515625 194.644531 572.417969 194.738281 572.332031 194.84375 C 572.25 194.949219 572.175781 195.0625 572.121094 195.183594 C 572.0625 195.304688 572.023438 195.433594 571.996094 195.566406 C 571.96875 195.699219 571.960938 195.832031 571.964844 195.964844 C 571.972656 196.101562 571.996094 196.234375 572.035156 196.363281 C 572.074219 196.492188 572.125 196.613281 572.195312 196.730469 C 572.265625 196.847656 572.347656 196.953125 572.441406 197.046875 C 572.59375 197.199219 572.769531 197.3125 572.96875 197.394531 C 573.1875 197.488281 573.414062 197.527344 573.652344 197.519531 Z M 573.75 194.878906 C 573.964844 194.863281 574.15625 194.917969 574.332031 195.046875 C 574.480469 195.164062 574.550781 195.316406 574.542969 195.503906 C 574.546875 195.664062 574.492188 195.796875 574.375 195.90625 C 574.242188 196.023438 574.089844 196.089844 573.914062 196.101562 L 574.554688 196.839844 L 574.054688 196.839844 L 573.457031 196.101562 L 573.261719 196.101562 L 573.261719 196.839844 L 572.84375 196.839844 L 572.84375 194.890625 Z M 573.261719 195.238281 L 573.261719 195.769531 L 573.75 195.769531 C 573.835938 195.792969 573.925781 195.792969 574.011719 195.769531 C 574.082031 195.722656 574.113281 195.65625 574.109375 195.574219 C 574.113281 195.492188 574.082031 195.425781 574.011719 195.378906 C 573.925781 195.351562 573.835938 195.351562 573.75 195.378906 Z M 538.222656 180.1875 C 538.222656 174.332031 542.046875 169.535156 548.320312 169.535156 C 554.316406 169.535156 558.351562 174.136719 558.351562 180.1875 C 558.351562 186.238281 554.316406 190.84375 548.320312 190.84375 C 542.046875 190.84375 538.222656 186.03125 538.222656 180.1875 Z M 293.550781 180.1875 L 293.550781 163.496094 L 286.304688 163.496094 L 286.304688 167.546875 C 285.683594 166.753906 284.984375 166.046875 284.195312 165.425781 C 283.410156 164.800781 282.5625 164.28125 281.652344 163.859375 C 280.742188 163.4375 279.792969 163.128906 278.808594 162.933594 C 277.824219 162.738281 276.832031 162.664062 275.828125 162.703125 C 266.496094 162.703125 259.136719 170.019531 259.136719 180.1875 C 259.136719 190.355469 266.453125 197.675781 275.828125 197.675781 C 276.835938 197.714844 277.835938 197.640625 278.824219 197.441406 C 279.8125 197.246094 280.765625 196.933594 281.679688 196.511719 C 282.59375 196.085938 283.445312 195.558594 284.234375 194.929688 C 285.023438 194.300781 285.726562 193.589844 286.34375 192.792969 L 286.34375 196.824219 L 293.589844 196.824219 Z M 266.59375 180.1875 C 266.59375 174.332031 270.417969 169.535156 276.691406 169.535156 C 282.6875 169.535156 286.71875 174.136719 286.71875 180.1875 C 286.71875 186.238281 282.6875 190.84375 276.691406 190.84375 C 270.417969 190.84375 266.59375 186.046875 266.59375 180.1875 Z M 266.59375 180.1875 "/><path style=" stroke:none;fill-rule:nonzero;fill:rgb(100%,37.249756%,0%);fill-opacity:1;" d="M 63.648438 140.601562 L 107.464844 140.601562 L 107.464844 219.34375 L 63.648438 219.34375 Z M 63.648438 140.601562 "/><path style=" stroke:none;fill-rule:nonzero;fill:rgb(92.158508%,0%,10.5896%);fill-opacity:1;" d="M 66.429688 179.996094 C 66.429688 178.105469 66.535156 176.222656 66.746094 174.34375 C 66.960938 172.464844 67.277344 170.605469 67.699219 168.765625 C 68.121094 166.925781 68.648438 165.113281 69.277344 163.332031 C 69.90625 161.546875 70.632812 159.808594 71.457031 158.109375 C 72.285156 156.410156 73.203125 154.761719 74.214844 153.164062 C 75.226562 151.570312 76.328125 150.039062 77.511719 148.566406 C 78.699219 147.097656 79.964844 145.699219 81.308594 144.371094 C 82.65625 143.042969 84.070312 141.796875 85.558594 140.628906 C 84.332031 139.667969 83.066406 138.765625 81.757812 137.921875 C 80.449219 137.078125 79.105469 136.296875 77.722656 135.578125 C 76.34375 134.859375 74.933594 134.207031 73.488281 133.621094 C 72.046875 133.03125 70.582031 132.515625 69.089844 132.0625 C 67.601562 131.613281 66.09375 131.234375 64.566406 130.925781 C 63.042969 130.617188 61.503906 130.378906 59.957031 130.210938 C 58.40625 130.046875 56.855469 129.953125 55.300781 129.929688 C 53.742188 129.910156 52.1875 129.960938 50.636719 130.085938 C 49.085938 130.207031 47.542969 130.402344 46.007812 130.671875 C 44.472656 130.9375 42.957031 131.277344 41.453125 131.6875 C 39.953125 132.097656 38.472656 132.574219 37.015625 133.121094 C 35.558594 133.667969 34.128906 134.28125 32.726562 134.964844 C 31.328125 135.644531 29.960938 136.386719 28.632812 137.195312 C 27.300781 138.003906 26.011719 138.871094 24.761719 139.800781 C 23.511719 140.726562 22.304688 141.710938 21.148438 142.753906 C 19.988281 143.792969 18.882812 144.886719 17.828125 146.027344 C 16.769531 147.171875 15.769531 148.363281 14.824219 149.601562 C 13.878906 150.835938 12.992188 152.117188 12.167969 153.433594 C 11.34375 154.753906 10.578125 156.109375 9.878906 157.5 C 9.179688 158.890625 8.546875 160.3125 7.980469 161.761719 C 7.414062 163.210938 6.914062 164.683594 6.484375 166.183594 C 6.054688 167.679688 5.695312 169.191406 5.40625 170.722656 C 5.117188 172.25 4.902344 173.792969 4.757812 175.339844 C 4.613281 176.890625 4.539062 178.445312 4.539062 180 C 4.539062 181.558594 4.613281 183.113281 4.757812 184.660156 C 4.902344 186.210938 5.117188 187.753906 5.40625 189.28125 C 5.695312 190.8125 6.054688 192.324219 6.484375 193.820312 C 6.914062 195.316406 7.414062 196.789062 7.980469 198.242188 C 8.546875 199.691406 9.179688 201.109375 9.878906 202.5 C 10.578125 203.894531 11.34375 205.246094 12.167969 206.566406 C 12.992188 207.886719 13.878906 209.164062 14.824219 210.402344 C 15.769531 211.640625 16.769531 212.832031 17.828125 213.972656 C 18.882812 215.117188 19.988281 216.210938 21.148438 217.25 C 22.304688 218.289062 23.511719 219.273438 24.761719 220.203125 C 26.011719 221.132812 27.300781 222 28.632812 222.808594 C 29.960938 223.617188 31.328125 224.359375 32.726562 225.039062 C 34.128906 225.71875 35.558594 226.335938 37.015625 226.882812 C 38.472656 227.429688 39.953125 227.90625 41.453125 228.316406 C 42.957031 228.726562 44.472656 229.0625 46.007812 229.332031 C 47.542969 229.597656 49.085938 229.792969 50.636719 229.917969 C 52.1875 230.042969 53.742188 230.09375 55.300781 230.070312 C 56.855469 230.050781 58.410156 229.957031 59.957031 229.792969 C 61.503906 229.625 63.042969 229.386719 64.566406 229.078125 C 66.09375 228.769531 67.601562 228.390625 69.089844 227.9375 C 70.582031 227.488281 72.046875 226.96875 73.488281 226.382812 C 74.933594 225.796875 76.34375 225.144531 77.722656 224.425781 C 79.105469 223.707031 80.449219 222.925781 81.757812 222.082031 C 83.066406 221.238281 84.332031 220.335938 85.558594 219.375 C 84.070312 218.207031 82.65625 216.957031 81.308594 215.632812 C 79.964844 214.304688 78.699219 212.90625 77.511719 211.433594 C 76.324219 209.960938 75.226562 208.429688 74.210938 206.832031 C 73.199219 205.238281 72.28125 203.589844 71.453125 201.890625 C 70.628906 200.1875 69.902344 198.445312 69.273438 196.664062 C 68.644531 194.882812 68.121094 193.070312 67.695312 191.226562 C 67.273438 189.386719 66.957031 187.523438 66.746094 185.648438 C 66.535156 183.769531 66.429688 181.882812 66.429688 179.996094 Z M 66.429688 179.996094 "/><path style=" stroke:none;fill-rule:nonzero;fill:rgb(96.859741%,61.959839%,10.5896%);fill-opacity:1;" d="M 166.582031 179.996094 C 166.582031 182.332031 166.417969 184.660156 166.09375 186.972656 C 165.765625 189.289062 165.28125 191.570312 164.636719 193.816406 C 163.992188 196.0625 163.191406 198.253906 162.242188 200.386719 C 161.289062 202.523438 160.191406 204.582031 158.953125 206.5625 C 157.710938 208.542969 156.339844 210.429688 154.835938 212.21875 C 153.332031 214.007812 151.710938 215.683594 149.96875 217.246094 C 148.230469 218.808594 146.390625 220.242188 144.453125 221.546875 C 142.511719 222.851562 140.492188 224.011719 138.390625 225.035156 C 136.285156 226.054688 134.121094 226.925781 131.898438 227.644531 C 129.675781 228.363281 127.410156 228.921875 125.109375 229.324219 C 122.804688 229.726562 120.484375 229.964844 118.148438 230.042969 C 115.8125 230.117188 113.484375 230.03125 111.160156 229.78125 C 108.835938 229.53125 106.539062 229.121094 104.273438 228.550781 C 102.003906 227.980469 99.789062 227.253906 97.625 226.371094 C 95.460938 225.492188 93.367188 224.460938 91.34375 223.289062 C 89.324219 222.113281 87.394531 220.804688 85.558594 219.359375 C 86.300781 218.777344 87.023438 218.171875 87.734375 217.546875 C 88.441406 216.921875 89.128906 216.28125 89.800781 215.617188 C 90.472656 214.953125 91.125 214.269531 91.761719 213.570312 C 92.394531 212.871094 93.003906 212.152344 93.597656 211.417969 C 94.191406 210.683594 94.761719 209.929688 95.3125 209.164062 C 95.863281 208.398438 96.390625 207.613281 96.894531 206.816406 C 97.402344 206.019531 97.886719 205.210938 98.34375 204.386719 C 98.804688 203.5625 99.242188 202.722656 99.652344 201.875 C 100.066406 201.027344 100.453125 200.164062 100.820312 199.292969 C 101.183594 198.421875 101.523438 197.542969 101.835938 196.652344 C 102.148438 195.761719 102.4375 194.863281 102.703125 193.957031 C 102.964844 193.050781 103.203125 192.136719 103.414062 191.21875 C 103.625 190.296875 103.8125 189.371094 103.972656 188.441406 C 104.132812 187.511719 104.265625 186.578125 104.371094 185.636719 C 104.476562 184.699219 104.558594 183.761719 104.609375 182.816406 C 104.664062 181.875 104.691406 180.933594 104.691406 179.988281 C 104.691406 179.042969 104.664062 178.101562 104.609375 177.15625 C 104.558594 176.214844 104.476562 175.273438 104.371094 174.335938 C 104.265625 173.398438 104.132812 172.464844 103.972656 171.535156 C 103.8125 170.601562 103.625 169.679688 103.414062 168.757812 C 103.203125 167.839844 102.964844 166.925781 102.703125 166.019531 C 102.4375 165.113281 102.148438 164.214844 101.835938 163.324219 C 101.523438 162.433594 101.183594 161.550781 100.820312 160.679688 C 100.453125 159.808594 100.066406 158.949219 99.652344 158.101562 C 99.242188 157.25 98.804688 156.414062 98.34375 155.589844 C 97.886719 154.765625 97.402344 153.953125 96.894531 153.15625 C 96.390625 152.359375 95.863281 151.578125 95.3125 150.8125 C 94.761719 150.042969 94.191406 149.292969 93.597656 148.558594 C 93.003906 147.824219 92.394531 147.105469 91.761719 146.40625 C 91.125 145.703125 90.472656 145.023438 89.800781 144.359375 C 89.128906 143.695312 88.441406 143.050781 87.734375 142.425781 C 87.023438 141.804688 86.300781 141.199219 85.558594 140.617188 C 87.394531 139.171875 89.324219 137.859375 91.347656 136.6875 C 93.367188 135.511719 95.460938 134.484375 97.625 133.601562 C 99.792969 132.722656 102.007812 131.996094 104.273438 131.421875 C 106.542969 130.851562 108.835938 130.441406 111.160156 130.191406 C 113.484375 129.941406 115.816406 129.855469 118.152344 129.933594 C 120.488281 130.011719 122.808594 130.25 125.113281 130.652344 C 127.414062 131.054688 129.679688 131.613281 131.90625 132.332031 C 134.128906 133.050781 136.292969 133.921875 138.394531 134.945312 C 140.496094 135.964844 142.519531 137.128906 144.457031 138.433594 C 146.398438 139.738281 148.238281 141.171875 149.976562 142.734375 C 151.714844 144.296875 153.335938 145.976562 154.839844 147.765625 C 156.34375 149.554688 157.71875 151.441406 158.957031 153.421875 C 160.199219 155.402344 161.292969 157.460938 162.246094 159.597656 C 163.195312 161.734375 163.996094 163.925781 164.640625 166.171875 C 165.285156 168.417969 165.769531 170.699219 166.09375 173.015625 C 166.417969 175.332031 166.582031 177.65625 166.582031 179.996094 Z M 166.582031 179.996094 "/><path style=" stroke:none;fill-rule:nonzero;fill:rgb(96.859741%,61.959839%,10.5896%);fill-opacity:1;" d="M 161.769531 211 L 161.769531 209.386719 L 162.421875 209.386719 L 162.421875 209.066406 L 160.796875 209.066406 L 160.796875 209.398438 L 161.449219 209.398438 L 161.449219 211.011719 Z M 164.980469 211 L 164.980469 209.050781 L 164.550781 209.050781 L 163.964844 210.441406 L 163.382812 209.050781 L 162.867188 209.050781 L 162.867188 211 L 163.160156 211 L 163.160156 209.539062 L 163.703125 210.804688 L 164.078125 210.804688 L 164.621094 209.539062 L 164.621094 211.011719 Z M 164.980469 211 "/></g></svg>