<?xml version="1.0" encoding="UTF-8"?><svg xmlns="http://www.w3.org/2000/svg" xmlns:xlink="http://www.w3.org/1999/xlink" contentScriptType="text/ecmascript" width="576pt" zoomAndPan="magnify" contentStyleType="text/css" viewBox="0 0 576 359.999987" height="359.999987pt" preserveAspectRatio="xMidYMid meet" version="1.2"><defs><clipPath xml:id="clip1" id="clip1"><path d="M 11 122.398438 L 565 122.398438 L 565 237.898438 L 11 237.898438 Z M 11 122.398438 "/></clipPath></defs><g xml:id="surface1" id="surface1"><g clip-rule="nonzero" clip-path="url(#clip1)"><path style=" stroke:none;fill-rule:nonzero;fill:rgb(0%,0%,0%);fill-opacity:1;" d="M 171.695312 122.398438 C 168.625 122.398438 166.160156 124.878906 166.160156 127.96875 L 166.160156 228.183594 C 166.160156 231.273438 168.625 233.75 171.695312 233.75 L 243.695312 233.75 C 257.0625 233.75 276.921875 224.835938 276.921875 200.347656 C 276.921875 186.121094 270.171875 177.292969 261.996094 172.289062 C 264.332031 167.808594 265.847656 162.417969 265.847656 155.804688 C 265.847656 131.316406 245.988281 122.398438 232.617188 122.398438 Z M 326.769531 122.398438 C 323.695312 122.398438 321.230469 124.878906 321.230469 127.96875 L 321.230469 228.183594 C 321.230469 231.273438 323.695312 233.75 326.769531 233.75 L 408.585938 233.75 C 409.796875 233.75 410.964844 233.054688 411.527344 231.882812 L 420.789062 213.046875 C 421.175781 212.351562 420.65625 211.480469 419.835938 211.480469 L 343.382812 211.480469 L 343.382812 194.777344 C 343.382812 191.691406 345.847656 189.210938 348.921875 189.210938 L 386.304688 189.210938 C 387.558594 189.210938 388.683594 188.515625 389.246094 187.339844 L 398.636719 168.550781 C 399.023438 167.808594 398.460938 166.941406 397.683594 166.941406 L 343.382812 166.941406 L 343.382812 144.671875 L 408.285156 144.671875 C 409.496094 144.671875 410.621094 143.972656 411.226562 142.886719 L 420.789062 124.007812 C 421.175781 123.269531 420.65625 122.398438 419.835938 122.398438 Z M 459.640625 122.398438 C 456.570312 122.398438 454.148438 124.878906 454.148438 127.96875 L 454.148438 230.402344 C 454.148438 232.230469 455.660156 233.75 457.480469 233.75 L 476.300781 233.75 L 476.300781 211.480469 C 476.300781 205.347656 481.277344 200.347656 487.375 200.347656 L 520.433594 200.347656 L 539.253906 232.054688 C 539.859375 233.097656 540.941406 233.75 542.109375 233.75 L 563.832031 233.75 C 564.652344 233.75 565.171875 232.839844 564.738281 232.054688 L 543.925781 196.5625 C 556.992188 190.777344 564.910156 178.292969 564.910156 161.371094 C 564.910156 137.710938 549.679688 122.398438 526.144531 122.398438 Z M 14.417969 123.226562 C 12.601562 123.226562 11.089844 124.75 11.089844 126.574219 L 11.089844 189.210938 C 11.089844 206.042969 22.683594 237.925781 66.46875 237.925781 C 110.257812 237.925781 121.851562 206.042969 121.851562 189.210938 L 121.851562 123.226562 L 103.03125 123.226562 C 101.214844 123.226562 99.699219 124.75 99.699219 126.574219 L 99.699219 189.082031 C 99.613281 193.515625 97.625 215.65625 66.46875 215.65625 C 35.316406 215.65625 33.328125 193.558594 33.242188 189.210938 L 33.242188 123.226562 Z M 188.3125 144.671875 L 232.488281 144.671875 C 237.59375 144.800781 243.695312 146.84375 243.695312 155.804688 C 243.695312 164.113281 238.457031 166.460938 233.742188 166.898438 C 233.136719 166.898438 232.878906 166.898438 232.488281 166.941406 L 188.3125 166.941406 Z M 476.300781 144.671875 L 526.144531 144.671875 C 541.027344 144.671875 542.757812 154.195312 542.757812 161.371094 C 542.757812 168.550781 541.027344 178.074219 526.144531 178.074219 L 476.300781 178.074219 Z M 193.851562 189.210938 L 243.5625 189.210938 C 248.667969 189.339844 254.769531 191.386719 254.769531 200.347656 C 254.769531 209.304688 248.667969 211.351562 243.5625 211.480469 L 188.3125 211.480469 L 188.3125 194.777344 C 188.3125 191.691406 190.777344 189.210938 193.851562 189.210938 Z M 193.851562 189.210938 "/></g></g></svg>