<?xml version="1.0" encoding="UTF-8"?><svg xmlns="http://www.w3.org/2000/svg" xmlns:xlink="http://www.w3.org/1999/xlink" contentScriptType="text/ecmascript" width="576pt" zoomAndPan="magnify" contentStyleType="text/css" viewBox="0 0 576 359.999987" height="359.999987pt" preserveAspectRatio="xMidYMid meet" version="1.2"><g xml:id="surface1" id="surface1"><path style=" stroke:none;fill-rule:nonzero;fill:rgb(12.159729%,43.919373%,75.689697%);fill-opacity:1;" d="M 0 64.789062 L 0 80.519531 L 112.140625 80.519531 L 112.140625 64.789062 Z M 127.980469 64.789062 L 127.980469 80.519531 L 287.746094 80.519531 C 287.746094 80.519531 271.421875 64.789062 249.820312 64.789062 Z M 319.105469 64.789062 L 319.105469 80.519531 L 415.765625 80.519531 L 410.003906 64.789062 Z M 485.0625 64.789062 L 479.304688 80.519531 L 575.0625 80.519531 L 575.0625 64.789062 Z M 0 95.371094 L 0 111.101562 L 112.140625 111.101562 L 112.140625 95.371094 Z M 127.980469 95.390625 L 127.980469 111.101562 L 306.289062 111.101562 C 306.289062 111.101562 304.199219 99 300.582031 95.390625 Z M 319.105469 95.390625 L 319.105469 111.101562 L 426.382812 111.101562 L 421.074219 95.390625 Z M 473.597656 95.390625 L 468.289062 111.101562 L 575.117188 111.101562 L 575.117188 95.390625 Z M 32.398438 125.953125 L 32.398438 141.699219 L 80.945312 141.699219 L 80.945312 125.953125 Z M 160.378906 125.953125 L 160.378906 141.699219 L 208.800781 141.699219 L 208.800781 125.953125 Z M 256.140625 125.953125 L 256.140625 141.699219 L 304.703125 141.699219 C 304.703125 141.699219 307.765625 133.386719 307.765625 125.953125 Z M 351.46875 125.953125 L 351.46875 141.699219 L 437.398438 141.699219 L 431.640625 125.953125 Z M 463.15625 125.953125 L 457.398438 141.699219 L 543.601562 141.699219 L 543.601562 125.953125 Z M 32.398438 156.550781 L 32.398438 172.28125 L 80.945312 172.28125 L 80.945312 156.550781 Z M 160.378906 156.550781 L 160.378906 172.28125 L 284.578125 172.28125 C 284.578125 172.28125 294.949219 164.199219 298.261719 156.550781 Z M 351.503906 156.550781 L 351.503906 172.28125 L 400.050781 172.28125 L 400.050781 163.550781 L 403.109375 172.296875 L 492.03125 172.296875 L 495.34375 163.550781 L 495.34375 172.296875 L 543.601562 172.296875 L 543.601562 156.566406 L 452.449219 156.566406 L 447.589844 169.890625 L 442.726562 156.566406 Z M 32.398438 187.148438 L 32.398438 202.878906 L 80.945312 202.878906 L 80.945312 187.148438 Z M 160.378906 187.148438 L 160.378906 202.878906 L 298.078125 202.878906 C 294.769531 195.246094 284.398438 187.148438 284.398438 187.148438 Z M 351.503906 187.148438 L 351.503906 202.878906 L 400.050781 202.878906 L 400.050781 187.148438 Z M 408.886719 187.148438 L 414.757812 202.878906 L 481.445312 202.878906 L 486.847656 187.148438 Z M 495.394531 187.148438 L 495.394531 202.878906 L 543.601562 202.878906 L 543.601562 187.148438 Z M 32.398438 217.726562 L 32.398438 233.457031 L 80.945312 233.457031 L 80.945312 217.726562 Z M 160.378906 217.726562 L 160.378906 233.457031 L 208.800781 233.457031 L 208.800781 217.726562 Z M 256.140625 217.726562 L 256.140625 233.457031 L 307.800781 233.457031 C 307.800781 226.042969 304.738281 217.726562 304.738281 217.726562 Z M 351.46875 217.726562 L 351.46875 233.457031 L 400.015625 233.457031 L 400.015625 217.726562 Z M 419.867188 217.726562 L 425.554688 233.457031 L 470.269531 233.457031 L 476.027344 217.726562 Z M 495.359375 217.726562 L 495.359375 233.457031 L 543.601562 233.457031 L 543.601562 217.726562 Z M 0.898438 248.308594 L 0.898438 264.054688 L 113.039062 264.054688 L 113.039062 248.308594 Z M 128.035156 248.308594 L 128.035156 264.054688 L 300.652344 264.054688 C 304.289062 260.464844 306.359375 248.308594 306.359375 248.308594 Z M 320.023438 248.308594 L 320.023438 264.054688 L 399.941406 264.054688 L 399.941406 248.308594 Z M 430.8125 248.308594 L 436.660156 264.054688 L 459.414062 264.054688 L 464.902344 248.308594 Z M 495.253906 248.308594 L 495.253906 264.054688 L 576 264.054688 L 576 248.308594 Z M 0.898438 278.90625 L 0.898438 294.636719 L 113.039062 294.636719 L 113.039062 278.90625 Z M 128.035156 278.90625 L 128.035156 294.617188 L 249.894531 294.617188 C 271.492188 294.617188 287.839844 278.90625 287.839844 278.90625 Z M 320.023438 278.90625 L 320.023438 294.636719 L 399.941406 294.636719 L 399.941406 278.90625 Z M 441.882812 278.90625 L 447.515625 294.582031 L 448.488281 294.601562 L 454.210938 278.886719 Z M 495.234375 278.90625 L 495.234375 294.636719 L 576 294.636719 L 576 278.90625 Z M 495.234375 278.90625 "/></g></svg>