<?xml version="1.0" encoding="UTF-8"?><svg xmlns="http://www.w3.org/2000/svg" xmlns:xlink="http://www.w3.org/1999/xlink" contentScriptType="text/ecmascript" width="810pt" zoomAndPan="magnify" contentStyleType="text/css" viewBox="0 0 810 809.999993" height="809.999993pt" preserveAspectRatio="xMidYMid meet" version="1.2"><defs><clipPath xml:id="clip1" id="clip1"><path d="M 0.589844 74.25 L 780 74.25 L 780 750 L 0.589844 750 Z M 0.589844 74.25 "/></clipPath><clipPath xml:id="clip2" id="clip2"><path d="M 12 74.25 L 808 74.25 L 808 750 L 12 750 Z M 12 74.25 "/></clipPath><clipPath xml:id="clip3" id="clip3"><path d="M 41.152344 59.644531 L 784 59.644531 L 784 750 L 41.152344 750 Z M 41.152344 59.644531 "/></clipPath><clipPath xml:id="clip4" id="clip4"><path d="M 1 116 L 809.441406 116 L 809.441406 750 L 1 750 Z M 1 116 "/></clipPath><clipPath xml:id="clip5" id="clip5"><path d="M 166.085938 76 L 780 76 L 780 750.394531 L 166.085938 750.394531 Z M 166.085938 76 "/></clipPath></defs><g xml:id="surface1" id="surface1"><g clip-rule="nonzero" clip-path="url(#clip1)"><path style=" stroke:none;fill-rule:nonzero;fill:rgb(81.959534%,79.60968%,92.939758%);fill-opacity:1;" d="M 432.542969 165.007812 L 592.144531 165.007812 C 597.691406 165.007812 602.210938 160.496094 602.210938 154.941406 C 602.210938 149.390625 597.691406 144.871094 592.144531 144.871094 L 432.542969 144.871094 C 426.992188 144.871094 422.472656 149.390625 422.472656 154.941406 C 422.472656 160.496094 426.992188 165.007812 432.542969 165.007812 Z M 518.296875 96.992188 C 524.433594 96.992188 529.421875 91.996094 529.421875 85.859375 C 529.421875 79.730469 524.433594 74.738281 518.296875 74.738281 C 512.160156 74.738281 507.171875 79.730469 507.171875 85.859375 C 507.171875 91.996094 512.160156 96.992188 518.296875 96.992188 Z M 761.78125 749.511719 L 0.589844 749.511719 C 0.589844 749.511719 42.957031 608.933594 120.140625 540.816406 C 197.320312 472.703125 181.429688 492.472656 225.3125 383.371094 C 269.203125 274.261719 380.429688 285.050781 459.121094 280.601562 C 504.734375 278.015625 539.160156 229.285156 583.914062 195.425781 L 530.351562 195.425781 C 524.800781 195.425781 520.285156 190.90625 520.285156 185.355469 C 520.285156 179.808594 524.800781 175.289062 530.351562 175.289062 L 616.472656 175.289062 C 641.601562 163.429688 670.488281 158.667969 705.792969 168.527344 C 828.367188 202.746094 761.78125 749.511719 761.78125 749.511719 "/></g><g clip-rule="nonzero" clip-path="url(#clip2)"><path style=" stroke:none;fill-rule:nonzero;fill:rgb(33.729553%,34.899902%,61.959839%);fill-opacity:1;" d="M 550.878906 74.738281 C 544.75 74.738281 539.757812 79.730469 539.757812 85.859375 C 539.757812 91.996094 544.75 96.992188 550.878906 96.992188 C 557.015625 96.992188 562.007812 91.996094 562.007812 85.859375 C 562.007812 79.730469 557.015625 74.738281 550.878906 74.738281 Z M 709.023438 154.941406 C 709.023438 149.390625 704.503906 144.871094 698.953125 144.871094 L 617.898438 144.871094 C 612.34375 144.871094 607.832031 149.390625 607.832031 154.941406 C 607.832031 160.496094 612.34375 165.007812 617.898438 165.007812 L 698.953125 165.007812 C 704.503906 165.007812 709.023438 160.496094 709.023438 154.941406 Z M 336.773438 434.292969 C 336.390625 428.316406 331.4375 423.664062 325.445312 423.664062 L 23.78125 423.664062 C 17.226562 423.664062 12.035156 429.191406 12.453125 435.734375 L 27.152344 667.285156 C 27.53125 673.261719 32.488281 677.914062 38.476562 677.914062 L 121.6875 677.914062 L 94.414062 749.511719 L 139.8125 749.511719 L 167.085938 677.914062 L 340.144531 677.914062 C 346.699219 677.914062 351.886719 672.382812 351.476562 665.847656 Z M 33.691406 337.242188 L 49.199219 337.242188 C 50.773438 337.242188 52.039062 335.972656 52.039062 334.402344 C 52.039062 332.835938 50.773438 331.5625 49.199219 331.5625 L 33.691406 331.5625 C 32.125 331.5625 30.851562 332.835938 30.851562 334.402344 C 30.851562 335.972656 32.125 337.242188 33.691406 337.242188 Z M 33.691406 368.90625 L 49.199219 368.90625 C 50.773438 368.90625 52.039062 367.632812 52.039062 366.066406 C 52.039062 364.503906 50.773438 363.234375 49.199219 363.234375 L 33.691406 363.234375 C 32.125 363.234375 30.851562 364.503906 30.851562 366.066406 C 30.851562 367.632812 32.125 368.90625 33.691406 368.90625 Z M 443.851562 531.878906 C 442.558594 531.46875 441.296875 531.300781 440.074219 531.367188 C 423.714844 531.386719 413.722656 571.273438 413.722656 571.273438 L 519.601562 571.273438 C 520.222656 557.910156 523.894531 544.820312 530.421875 533.039062 C 530.410156 533.046875 530.390625 533.050781 530.378906 533.066406 C 530.390625 533.050781 530.410156 533.039062 530.425781 533.03125 L 530.425781 533.039062 C 530.421875 533.039062 530.421875 533.039062 530.421875 533.039062 C 532.125 532.242188 533.964844 531.859375 535.796875 531.886719 L 535.796875 531.878906 Z M 33.691406 321.40625 L 49.199219 321.40625 C 50.773438 321.40625 52.039062 320.132812 52.039062 318.566406 C 52.039062 317.003906 50.773438 315.734375 49.199219 315.734375 L 33.691406 315.734375 C 32.125 315.734375 30.851562 317.003906 30.851562 318.566406 C 30.851562 320.132812 32.125 321.40625 33.691406 321.40625 Z M 671.097656 275.074219 L 671.097656 337 L 807.554688 337 L 807.554688 275.074219 Z M 642.304688 416.988281 L 778.753906 416.988281 L 778.753906 355.070312 L 642.304688 355.070312 Z M 33.691406 353.074219 L 49.199219 353.074219 C 50.773438 353.074219 52.039062 351.804688 52.039062 350.234375 C 52.039062 348.667969 50.773438 347.402344 49.199219 347.402344 L 33.691406 347.402344 C 32.125 347.402344 30.851562 348.667969 30.851562 350.234375 C 30.851562 351.804688 32.125 353.074219 33.691406 353.074219 Z M 33.691406 210.574219 L 49.199219 210.574219 C 50.773438 210.574219 52.039062 209.308594 52.039062 207.734375 C 52.039062 206.167969 50.773438 204.894531 49.199219 204.894531 L 33.691406 204.894531 C 32.125 204.894531 30.851562 206.167969 30.851562 207.734375 C 30.851562 209.308594 32.125 210.574219 33.691406 210.574219 Z M 33.691406 226.40625 L 49.199219 226.40625 C 50.773438 226.40625 52.039062 225.132812 52.039062 223.570312 C 52.039062 222.003906 50.773438 220.730469 49.199219 220.730469 L 33.691406 220.730469 C 32.125 220.730469 30.851562 222.003906 30.851562 223.570312 C 30.851562 225.132812 32.125 226.40625 33.691406 226.40625 Z M 240.664062 366.992188 L 327.277344 366.992188 C 333.550781 366.992188 338.628906 361.910156 338.628906 355.640625 L 338.628906 239.363281 C 338.628906 233.09375 333.550781 228.011719 327.277344 228.011719 L 240.664062 228.011719 C 234.394531 228.011719 229.3125 233.09375 229.3125 239.363281 L 229.3125 355.640625 C 229.3125 361.910156 234.394531 366.992188 240.664062 366.992188 Z M 33.691406 242.242188 L 49.199219 242.242188 C 50.773438 242.242188 52.039062 240.96875 52.039062 239.402344 C 52.039062 237.835938 50.773438 236.5625 49.199219 236.5625 L 33.691406 236.5625 C 32.125 236.5625 30.851562 237.835938 30.851562 239.402344 C 30.851562 240.96875 32.125 242.242188 33.691406 242.242188 Z M 194.296875 197.867188 L 187.480469 197.867188 L 187.480469 375.941406 L 194.296875 375.941406 Z M 33.691406 289.742188 L 49.199219 289.742188 C 50.773438 289.742188 52.039062 288.46875 52.039062 286.902344 C 52.039062 285.335938 50.773438 284.066406 49.199219 284.066406 L 33.691406 284.066406 C 32.125 284.066406 30.851562 285.335938 30.851562 286.902344 C 30.851562 288.46875 32.125 289.742188 33.691406 289.742188 Z M 33.691406 273.90625 L 49.199219 273.90625 C 50.773438 273.90625 52.039062 272.640625 52.039062 271.066406 C 52.039062 269.503906 50.773438 268.234375 49.199219 268.234375 L 33.691406 268.234375 C 32.125 268.234375 30.851562 269.503906 30.851562 271.066406 C 30.851562 272.640625 32.125 273.90625 33.691406 273.90625 Z M 33.691406 305.574219 L 49.199219 305.574219 C 50.773438 305.574219 52.039062 304.300781 52.039062 302.734375 C 52.039062 301.167969 50.773438 299.894531 49.199219 299.894531 L 33.691406 299.894531 C 32.125 299.894531 30.851562 301.167969 30.851562 302.734375 C 30.851562 304.300781 32.125 305.574219 33.691406 305.574219 Z M 30.851562 255.234375 C 30.851562 253.667969 32.125 252.394531 33.691406 252.394531 L 49.199219 252.394531 C 50.773438 252.394531 52.039062 253.667969 52.039062 255.234375 C 52.039062 256.800781 50.773438 258.074219 49.199219 258.074219 L 33.691406 258.074219 C 32.125 258.074219 30.851562 256.800781 30.851562 255.234375 "/></g><g clip-rule="nonzero" clip-path="url(#clip3)"><path style=" stroke:none;fill-rule:nonzero;fill:rgb(100%,100%,100%);fill-opacity:1;" d="M 41.449219 204.894531 L 49.199219 204.894531 C 50.773438 204.894531 52.039062 206.167969 52.039062 207.734375 C 52.039062 209.308594 50.773438 210.574219 49.199219 210.574219 L 41.449219 210.574219 L 41.449219 220.730469 L 49.199219 220.730469 C 50.773438 220.730469 52.039062 222.003906 52.039062 223.570312 C 52.039062 225.132812 50.773438 226.40625 49.199219 226.40625 L 41.449219 226.40625 L 41.449219 236.5625 L 49.199219 236.5625 C 50.773438 236.5625 52.039062 237.835938 52.039062 239.402344 C 52.039062 240.96875 50.773438 242.242188 49.199219 242.242188 L 41.449219 242.242188 L 41.449219 252.394531 L 49.199219 252.394531 C 50.773438 252.394531 52.039062 253.667969 52.039062 255.234375 C 52.039062 256.800781 50.773438 258.074219 49.199219 258.074219 L 41.449219 258.074219 L 41.449219 268.234375 L 49.199219 268.234375 C 50.773438 268.234375 52.039062 269.503906 52.039062 271.066406 C 52.039062 272.640625 50.773438 273.90625 49.199219 273.90625 L 41.449219 273.90625 L 41.449219 284.066406 L 49.199219 284.066406 C 50.773438 284.066406 52.039062 285.335938 52.039062 286.902344 C 52.039062 288.46875 50.773438 289.742188 49.199219 289.742188 L 41.449219 289.742188 L 41.449219 299.894531 L 49.199219 299.894531 C 50.773438 299.894531 52.039062 301.167969 52.039062 302.734375 C 52.039062 304.300781 50.773438 305.574219 49.199219 305.574219 L 41.449219 305.574219 L 41.449219 315.734375 L 49.199219 315.734375 C 50.773438 315.734375 52.039062 317.003906 52.039062 318.566406 C 52.039062 320.132812 50.773438 321.40625 49.199219 321.40625 L 41.449219 321.40625 L 41.449219 331.5625 L 49.199219 331.5625 C 50.773438 331.5625 52.039062 332.835938 52.039062 334.402344 C 52.039062 335.972656 50.773438 337.242188 49.199219 337.242188 L 41.449219 337.242188 L 41.449219 347.402344 L 49.199219 347.402344 C 50.773438 347.402344 52.039062 348.667969 52.039062 350.234375 C 52.039062 351.804688 50.773438 353.074219 49.199219 353.074219 L 41.449219 353.074219 L 41.449219 363.234375 L 49.199219 363.234375 C 50.773438 363.234375 52.039062 364.503906 52.039062 366.066406 C 52.039062 367.632812 50.773438 368.90625 49.199219 368.90625 L 41.449219 368.90625 L 41.449219 382.25 L 187.480469 382.25 L 187.480469 191.558594 L 41.449219 191.558594 Z M 707.128906 154.941406 C 707.128906 150.421875 703.472656 146.765625 698.953125 146.765625 L 617.898438 146.765625 C 613.378906 146.765625 609.722656 150.421875 609.722656 154.941406 C 609.722656 159.457031 613.378906 163.121094 617.898438 163.121094 L 698.953125 163.121094 C 703.472656 163.121094 707.128906 159.457031 707.128906 154.941406 Z M 707.128906 185.355469 C 707.128906 180.839844 703.472656 177.179688 698.953125 177.179688 L 530.351562 177.179688 C 525.839844 177.179688 522.175781 180.839844 522.175781 185.355469 C 522.175781 189.875 525.839844 193.53125 530.351562 193.53125 L 698.953125 193.53125 C 703.472656 193.53125 707.128906 189.875 707.128906 185.355469 Z M 432.542969 163.121094 L 592.144531 163.121094 C 596.660156 163.121094 600.324219 159.457031 600.324219 154.941406 C 600.324219 150.421875 596.660156 146.765625 592.144531 146.765625 L 432.542969 146.765625 C 428.027344 146.765625 424.367188 150.421875 424.367188 154.941406 C 424.367188 159.457031 428.027344 163.121094 432.542969 163.121094 Z M 509.070312 85.859375 C 509.070312 90.964844 513.199219 95.097656 518.296875 95.097656 C 523.398438 95.097656 527.53125 90.964844 527.53125 85.859375 C 527.53125 80.765625 523.398438 76.632812 518.296875 76.632812 C 513.199219 76.632812 509.070312 80.765625 509.070312 85.859375 Z M 541.652344 85.859375 C 541.652344 90.964844 545.785156 95.097656 550.878906 95.097656 C 555.980469 95.097656 560.113281 90.964844 560.113281 85.859375 C 560.113281 80.765625 555.980469 76.632812 550.878906 76.632812 C 545.785156 76.632812 541.652344 80.765625 541.652344 85.859375 Z M 725.222656 220.058594 L 376.542969 220.058594 C 370.273438 220.058594 365.191406 214.980469 365.191406 208.710938 L 365.191406 70.992188 C 365.191406 64.722656 370.273438 59.640625 376.542969 59.640625 L 725.222656 59.640625 C 731.492188 59.640625 736.574219 64.722656 736.574219 70.992188 L 736.574219 208.710938 C 736.574219 214.980469 731.492188 220.058594 725.222656 220.058594 Z M 559.976562 253.769531 C 559.976562 257.839844 563.277344 261.148438 567.351562 261.148438 C 571.429688 261.148438 574.730469 257.839844 574.730469 253.769531 C 574.730469 249.695312 571.429688 246.394531 567.351562 246.394531 C 563.277344 246.394531 559.976562 249.695312 559.976562 253.769531 Z M 687.511719 528.285156 C 687.511719 532.359375 690.816406 535.664062 694.890625 535.664062 C 698.964844 535.664062 702.269531 532.359375 702.269531 528.285156 C 702.269531 524.210938 698.964844 520.90625 694.890625 520.90625 C 690.816406 520.90625 687.511719 524.210938 687.511719 528.285156 Z M 584.585938 586.527344 C 578.253906 579.421875 563.675781 572.070312 563.675781 572.070312 C 563.675781 572.070312 563.664062 572.082031 563.664062 572.082031 C 565.734375 577.722656 567.664062 583.417969 569.507812 589.140625 C 559.925781 593.160156 549.148438 598.039062 543.238281 601.910156 C 540.378906 603.789062 538.65625 605.421875 538.761719 606.613281 C 539.046875 609.71875 542.050781 611.007812 545.019531 611.519531 C 547.027344 611.863281 548.992188 611.855469 550.105469 611.804688 C 550.082031 611.34375 550.386719 610.914062 550.855469 610.824219 L 574.773438 606.175781 L 577.828125 605.589844 C 578.347656 605.492188 578.835938 605.824219 578.9375 606.335938 C 579.039062 606.847656 578.703125 607.34375 578.191406 607.445312 L 575.324219 608.003906 L 551.214844 612.679688 C 551.171875 612.6875 551.121094 612.6875 551.078125 612.691406 C 551.214844 614.816406 551.886719 620.007812 555.03125 622.023438 C 555.089844 622.0625 555.132812 622.097656 555.183594 622.136719 C 555.328125 621.949219 555.550781 621.8125 555.8125 621.78125 L 578.4375 618.898438 L 581.980469 618.449219 C 582.003906 618.441406 582.03125 618.453125 582.054688 618.453125 C 582.542969 618.429688 582.976562 618.777344 583.039062 619.265625 C 583.0625 619.488281 583 619.683594 582.898438 619.863281 C 582.753906 620.101562 582.519531 620.285156 582.214844 620.324219 L 578.964844 620.738281 L 556.71875 623.570312 C 557.003906 623.945312 557.242188 624.335938 557.445312 624.734375 C 558.652344 627.105469 558.683594 629.800781 560.886719 631.203125 C 562.007812 631.917969 565.039062 631.992188 568.644531 631.707031 C 568.625 631.652344 568.59375 631.59375 568.589844 631.53125 C 568.507812 631.015625 568.855469 630.53125 569.367188 630.445312 L 572.0625 630.007812 L 581.082031 628.550781 L 586.640625 627.652344 L 590.347656 627.054688 C 590.867188 626.960938 591.347656 627.324219 591.429688 627.835938 C 591.511719 628.347656 591.164062 628.835938 590.644531 628.917969 L 585.453125 629.761719 C 588.28125 630.597656 590.21875 630.109375 590.246094 630.105469 C 590.746094 629.964844 591.265625 630.261719 591.40625 630.769531 C 591.542969 631.269531 591.246094 631.785156 590.746094 631.925781 C 590.585938 631.976562 586.816406 632.96875 581.921875 630.332031 L 581.574219 630.390625 C 581.859375 631.472656 582.164062 632.558594 582.449219 633.640625 C 584.6875 634.996094 586.726562 636.570312 588.496094 638.191406 C 593.699219 642.953125 601.621094 643.097656 606.820312 638.320312 L 606.996094 638.15625 C 611.894531 633.648438 612.757812 626.238281 609.011719 620.738281 C 601.265625 609.339844 588.824219 591.289062 584.585938 586.527344 Z M 772.257812 696.675781 C 772.257812 692.910156 769.195312 689.851562 765.433594 689.851562 L 746.660156 689.851562 L 746.660156 722.785156 L 765.433594 722.785156 C 769.195312 722.785156 772.257812 719.722656 772.257812 715.953125 Z M 783.609375 696.675781 L 783.609375 715.953125 C 783.609375 725.980469 775.453125 734.136719 765.433594 734.136719 L 746.660156 734.136719 L 746.660156 749.511719 L 664.4375 749.511719 L 664.4375 660.464844 L 746.660156 660.464844 L 746.660156 678.5 L 765.433594 678.5 C 775.453125 678.5 783.609375 686.65625 783.609375 696.675781 Z M 534.605469 359.375 C 529.671875 340.0625 542.816406 298.460938 509.132812 295.996094 C 488.078125 294.457031 472.644531 301.695312 462.523438 313.066406 C 453.933594 322.699219 449.59375 335.390625 449.695312 348.292969 C 449.859375 369.546875 453.859375 412.738281 484.070312 406.511719 L 486.132812 422.941406 C 486.132812 422.941406 523.925781 415.957031 544.878906 386.789062 C 544.878906 386.789062 539.535156 378.679688 534.605469 359.375 Z M 389.320312 384.519531 C 385.246094 384.519531 381.941406 387.820312 381.941406 391.894531 C 381.941406 395.972656 385.246094 399.273438 389.320312 399.273438 C 393.394531 399.273438 396.695312 395.972656 396.695312 391.894531 C 396.695312 387.820312 393.394531 384.519531 389.320312 384.519531 Z M 282.277344 722.890625 C 269.886719 723.277344 267.675781 738.574219 260.375 737.140625 C 255.074219 736.101562 257.730469 727.011719 259.976562 720.75 C 260.824219 718.390625 261.609375 716.414062 261.890625 715.449219 C 262.898438 711.921875 244.230469 703.84375 239.1875 704.351562 C 236.101562 704.65625 226.226562 708.929688 218.214844 711.160156 C 213.117188 712.578125 208.777344 713.175781 207.410156 711.414062 C 203.878906 706.875 228.089844 690.730469 239.695312 689.925781 C 251.292969 689.128906 278.027344 694.261719 278.027344 694.261719 C 303.757812 706.875 294.675781 722.511719 282.277344 722.890625 "/></g><g clip-rule="nonzero" clip-path="url(#clip4)"><path style=" stroke:none;fill-rule:nonzero;fill:rgb(33.729553%,34.899902%,61.959839%);fill-opacity:1;" d="M 464.164062 348.046875 C 464.691406 348.046875 465.210938 347.824219 465.585938 347.40625 C 466.273438 346.621094 466.199219 345.421875 465.414062 344.734375 C 460.363281 340.28125 453.390625 343.421875 453.097656 343.554688 C 452.152344 343.992188 451.742188 345.113281 452.171875 346.058594 C 452.605469 347.007812 453.730469 347.421875 454.675781 346.996094 C 454.726562 346.96875 459.722656 344.757812 462.914062 347.570312 C 463.269531 347.890625 463.722656 348.046875 464.164062 348.046875 Z M 490.492188 348.046875 C 491.253906 348.046875 491.976562 347.578125 492.261719 346.816406 C 492.628906 345.835938 492.128906 344.746094 491.152344 344.382812 L 479.191406 339.910156 C 478.222656 339.546875 477.121094 340.042969 476.757812 341.019531 C 476.390625 342 476.890625 343.089844 477.867188 343.453125 L 489.828125 347.925781 C 490.042969 348.007812 490.269531 348.046875 490.492188 348.046875 Z M 247.78125 293.5625 L 256.4375 293.5625 C 258.601562 293.5625 260.347656 291.8125 260.347656 289.652344 L 260.347656 280.992188 C 260.347656 278.832031 258.601562 277.082031 256.4375 277.082031 L 247.78125 277.082031 C 245.621094 277.082031 243.871094 278.832031 243.871094 280.992188 L 243.871094 289.652344 C 243.871094 291.8125 245.621094 293.5625 247.78125 293.5625 Z M 68.195312 737.140625 C 61.363281 737.140625 55.824219 742.679688 55.824219 749.511719 L 292.40625 749.511719 C 281.25 741.46875 267.851562 737.140625 254.105469 737.140625 Z M 209.050781 731.65625 C 213.207031 733.546875 219.070312 730.898438 219.070312 730.898438 C 219.070312 730.898438 222.289062 732.601562 228.34375 731.46875 C 234.394531 730.332031 243.148438 722.386719 250.777344 721.820312 C 253.546875 721.613281 256.925781 721.378906 259.976562 720.75 C 260.824219 718.390625 261.609375 716.414062 261.890625 715.449219 C 262.898438 711.921875 244.230469 703.84375 239.1875 704.351562 C 236.101562 704.65625 226.226562 708.929688 218.214844 711.160156 C 214.273438 714.742188 211.140625 717.984375 210.75 719.546875 C 209.613281 724.089844 209.996094 725.035156 209.996094 725.035156 C 209.996094 725.035156 204.886719 729.761719 209.050781 731.65625 Z M 530.414062 533.039062 C 530.421875 533.039062 530.421875 533.039062 530.421875 533.039062 C 530.421875 533.039062 530.421875 533.039062 530.425781 533.039062 L 530.425781 533.03125 C 530.421875 533.03125 530.421875 533.039062 530.414062 533.039062 Z M 247.78125 313.695312 L 256.4375 313.695312 C 258.601562 313.695312 260.347656 311.945312 260.347656 309.78125 L 260.347656 301.125 C 260.347656 298.964844 258.601562 297.214844 256.4375 297.214844 L 247.78125 297.214844 C 245.621094 297.214844 243.871094 298.964844 243.871094 301.125 L 243.871094 309.78125 C 243.871094 311.945312 245.621094 313.695312 247.78125 313.695312 Z M 247.78125 353.953125 L 256.4375 353.953125 C 258.601562 353.953125 260.347656 352.199219 260.347656 350.039062 L 260.347656 341.386719 C 260.347656 339.222656 258.601562 337.46875 256.4375 337.46875 L 247.78125 337.46875 C 245.621094 337.46875 243.871094 339.222656 243.871094 341.386719 L 243.871094 350.039062 C 243.871094 352.199219 245.621094 353.953125 247.78125 353.953125 Z M 247.78125 333.824219 L 256.4375 333.824219 C 258.601562 333.824219 260.347656 332.074219 260.347656 329.914062 L 260.347656 321.253906 C 260.347656 319.09375 258.601562 317.339844 256.4375 317.339844 L 247.78125 317.339844 C 245.621094 317.339844 243.871094 319.09375 243.871094 321.253906 L 243.871094 329.914062 C 243.871094 332.074219 245.621094 333.824219 247.78125 333.824219 Z M 163.019531 226.40625 L 65.914062 226.40625 L 65.914062 252.394531 L 163.019531 252.394531 Z M 761.421875 358.855469 L 659.632812 358.855469 C 657.71875 365.359375 652.589844 370.484375 646.089844 372.398438 L 646.089844 399.660156 C 652.589844 401.574219 657.71875 406.703125 659.632812 413.210938 L 761.421875 413.210938 C 763.339844 406.703125 768.460938 401.574219 774.96875 399.660156 L 774.96875 372.398438 C 768.460938 370.484375 763.339844 365.359375 761.421875 358.855469 Z M 760.589844 353.175781 L 780.644531 353.175781 L 780.644531 418.886719 L 640.410156 418.886719 L 640.410156 353.175781 Z M 739.324219 285.03125 C 730.6875 285.03125 723.683594 294.4375 723.683594 306.035156 C 723.683594 317.636719 730.6875 327.042969 739.324219 327.042969 C 747.964844 327.042969 754.960938 317.636719 754.960938 306.035156 C 754.960938 294.4375 747.964844 285.03125 739.324219 285.03125 Z M 578.191406 607.445312 C 578.703125 607.34375 579.039062 606.847656 578.9375 606.335938 C 578.835938 605.824219 578.347656 605.492188 577.828125 605.589844 L 574.773438 606.175781 L 550.855469 610.824219 C 550.386719 610.914062 550.082031 611.34375 550.105469 611.804688 C 550.113281 611.851562 550.101562 611.886719 550.105469 611.933594 C 550.195312 612.382812 550.589844 612.691406 551.03125 612.691406 C 551.046875 612.691406 551.0625 612.691406 551.078125 612.691406 C 551.121094 612.6875 551.171875 612.6875 551.214844 612.679688 L 575.324219 608.003906 Z M 803.769531 292.410156 C 797.261719 290.488281 792.132812 285.367188 790.21875 278.859375 L 688.433594 278.859375 C 686.511719 285.367188 681.390625 290.488281 674.882812 292.410156 L 674.882812 319.664062 C 681.390625 321.585938 686.511719 326.707031 688.433594 333.214844 L 790.21875 333.214844 C 792.132812 326.707031 797.261719 321.585938 803.769531 319.664062 Z M 809.441406 273.183594 L 809.441406 338.886719 L 669.210938 338.886719 L 669.210938 273.183594 Z M 582.214844 620.324219 C 582.519531 620.285156 582.753906 620.101562 582.898438 619.863281 C 583 619.683594 583.0625 619.488281 583.039062 619.265625 C 582.976562 618.777344 582.542969 618.429688 582.054688 618.453125 C 582.03125 618.453125 582.003906 618.441406 581.980469 618.449219 L 578.4375 618.898438 L 555.8125 621.78125 C 555.550781 621.8125 555.328125 621.949219 555.183594 622.136719 C 555.03125 622.328125 554.957031 622.582031 554.988281 622.839844 C 555 622.9375 555.039062 623.023438 555.074219 623.113281 C 555.214844 623.40625 555.488281 623.601562 555.8125 623.644531 C 555.847656 623.652344 555.886719 623.664062 555.925781 623.664062 C 555.96875 623.664062 556.007812 623.664062 556.046875 623.660156 L 556.71875 623.570312 L 578.964844 620.738281 Z M 609.011719 620.738281 C 601.265625 609.339844 588.824219 591.289062 584.585938 586.527344 C 578.253906 579.421875 563.675781 572.070312 563.675781 572.070312 C 563.675781 572.070312 563.664062 572.082031 563.664062 572.082031 C 562.441406 568.738281 561.179688 565.410156 559.835938 562.105469 C 557.636719 556.699219 555.273438 551.332031 552.484375 546.199219 C 551.058594 543.59375 548.074219 539.664062 545.90625 536.894531 C 543.382812 533.6875 539.597656 531.929688 535.796875 531.886719 L 535.796875 531.878906 L 443.851562 531.878906 C 442.558594 531.46875 441.296875 531.300781 440.074219 531.367188 C 423.714844 531.386719 413.722656 571.273438 413.722656 571.273438 L 519.601562 571.273438 C 519.515625 573.085938 519.488281 574.910156 519.515625 576.730469 C 519.515625 576.832031 519.519531 576.925781 519.519531 577.027344 C 519.550781 578.816406 519.632812 580.613281 519.78125 582.410156 L 471.433594 582.410156 C 478.011719 601.808594 483.527344 621.574219 488.617188 641.414062 C 490.226562 647.679688 491.785156 653.960938 493.273438 660.261719 C 493.375 660.6875 493.488281 662.324219 493.800781 662.898438 C 493.921875 662.957031 494.015625 663 494.136719 663.058594 L 525.363281 663.058594 C 539.59375 663.058594 553.816406 663.058594 568.042969 663.058594 C 575.289062 663.058594 582.527344 663.058594 589.769531 663.058594 C 588.671875 658.285156 587.5 653.523438 586.320312 648.769531 C 584.910156 643.078125 583.4375 637.40625 581.9375 631.738281 C 582.105469 632.375 582.285156 633.007812 582.449219 633.640625 C 584.6875 634.996094 586.726562 636.570312 588.496094 638.191406 C 593.699219 642.953125 601.621094 643.097656 606.820312 638.320312 L 606.996094 638.15625 C 611.894531 633.648438 612.757812 626.238281 609.011719 620.738281 Z M 650.417969 448.078125 C 664.019531 471.074219 686.847656 580.109375 702.375 660.464844 L 664.4375 660.464844 L 664.4375 749.511719 L 419.273438 749.511719 L 419.273438 703.210938 C 419.363281 702.039062 419.273438 701.324219 419.273438 701.324219 L 419.273438 703.210938 C 418.898438 707.992188 415.46875 720.484375 390.214844 724.527344 C 358.738281 729.574219 301.234375 737.140625 301.234375 737.140625 C 301.234375 737.140625 267.941406 721.917969 269.957031 689.925781 C 269.957031 689.925781 279.285156 685.117188 292.632812 677.914062 L 167.085938 677.914062 L 185.214844 630.34375 L 139.8125 630.34375 L 121.6875 677.914062 L 27.386719 677.914062 C 21.394531 677.914062 16.433594 673.261719 16.054688 667.285156 L 1.355469 435.734375 C 0.9375 429.191406 6.128906 423.664062 12.683594 423.664062 L 314.347656 423.664062 C 320.335938 423.664062 325.292969 428.316406 325.675781 434.292969 L 340.378906 665.847656 C 340.789062 672.382812 335.597656 677.914062 329.046875 677.914062 L 340.144531 677.914062 C 346.699219 677.914062 351.886719 672.382812 351.476562 665.847656 L 350.15625 645.125 C 367.847656 634.226562 382.203125 624.121094 384.964844 618.59375 C 393.039062 602.449219 421.289062 451.109375 471.730469 427.90625 C 477.429688 425.28125 481.878906 426.300781 487.175781 424 C 528.75 405.917969 557.992188 394.101562 557.992188 394.101562 C 557.992188 394.101562 628.335938 410.753906 650.417969 448.078125 Z M 710.527344 407.039062 C 719.164062 407.039062 726.164062 397.632812 726.164062 386.035156 C 726.164062 374.429688 719.164062 365.023438 710.527344 365.023438 C 701.894531 365.023438 694.890625 374.429688 694.890625 386.035156 C 694.890625 397.632812 701.894531 407.039062 710.527344 407.039062 Z M 590.246094 630.105469 C 590.21875 630.109375 588.28125 630.597656 585.453125 629.761719 L 590.644531 628.917969 C 591.164062 628.835938 591.511719 628.347656 591.429688 627.835938 C 591.347656 627.324219 590.867188 626.960938 590.347656 627.054688 L 586.640625 627.652344 L 581.082031 628.550781 L 572.0625 630.007812 L 569.367188 630.445312 C 568.855469 630.53125 568.507812 631.015625 568.589844 631.53125 C 568.59375 631.59375 568.625 631.652344 568.644531 631.707031 C 568.785156 632.070312 569.128906 632.328125 569.519531 632.328125 C 569.570312 632.328125 569.621094 632.324219 569.671875 632.3125 L 577.074219 631.117188 L 581.574219 630.390625 L 581.921875 630.332031 C 586.816406 632.96875 590.585938 631.976562 590.746094 631.925781 C 591.246094 631.785156 591.542969 631.269531 591.40625 630.769531 C 591.265625 630.261719 590.746094 629.964844 590.246094 630.105469 Z M 290.265625 333.824219 L 298.921875 333.824219 C 301.082031 333.824219 302.832031 332.074219 302.832031 329.914062 L 302.832031 321.253906 C 302.832031 319.09375 301.082031 317.339844 298.921875 317.339844 L 290.265625 317.339844 C 288.101562 317.339844 286.355469 319.09375 286.355469 321.253906 L 286.355469 329.914062 C 286.355469 332.074219 288.101562 333.824219 290.265625 333.824219 Z M 311.507812 293.5625 L 320.160156 293.5625 C 322.320312 293.5625 324.078125 291.8125 324.078125 289.652344 L 324.078125 280.992188 C 324.078125 278.832031 322.320312 277.082031 320.160156 277.082031 L 311.507812 277.082031 C 309.347656 277.082031 307.59375 278.832031 307.59375 280.992188 L 307.59375 289.652344 C 307.59375 291.8125 309.347656 293.5625 311.507812 293.5625 Z M 269.019531 353.953125 L 277.675781 353.953125 C 279.839844 353.953125 281.59375 352.199219 281.59375 350.039062 L 281.59375 341.386719 C 281.59375 339.222656 279.839844 337.46875 277.675781 337.46875 L 269.019531 337.46875 C 266.859375 337.46875 265.109375 339.222656 265.109375 341.386719 L 265.109375 350.039062 C 265.109375 352.199219 266.859375 353.953125 269.019531 353.953125 Z M 311.507812 313.695312 L 320.160156 313.695312 C 322.320312 313.695312 324.078125 311.945312 324.078125 309.78125 L 324.078125 301.125 C 324.078125 298.964844 322.320312 297.214844 320.160156 297.214844 L 311.507812 297.214844 C 309.347656 297.214844 307.59375 298.964844 307.59375 301.125 L 307.59375 309.78125 C 307.59375 311.945312 309.347656 313.695312 311.507812 313.695312 Z M 311.507812 353.953125 L 320.160156 353.953125 C 322.320312 353.953125 324.078125 352.199219 324.078125 350.039062 L 324.078125 321.253906 C 324.078125 319.09375 322.320312 317.339844 320.160156 317.339844 L 311.507812 317.339844 C 309.347656 317.339844 307.59375 319.09375 307.59375 321.253906 L 307.59375 350.039062 C 307.59375 352.199219 309.347656 353.953125 311.507812 353.953125 Z M 493.414062 290.652344 C 462.496094 293.121094 436.828125 273.804688 430.667969 301.949219 C 424.507812 330.097656 452.332031 331.015625 452.332031 331.015625 C 458.25 332.003906 479.148438 326.394531 490.238281 330.914062 C 501.332031 335.433594 502.972656 353.921875 502.972656 353.921875 L 507.492188 354.746094 C 507.492188 354.746094 509.132812 334.617188 518.171875 334.363281 C 527.207031 334.117188 519.40625 351.34375 519.40625 351.34375 C 520.636719 358.207031 525.976562 363.109375 525.976562 363.109375 L 534.605469 359.375 C 532.609375 352.191406 533.296875 336.773438 533.296875 336.773438 C 537.328125 306.070312 524.335938 288.1875 493.414062 290.652344 Z M 461.832031 358.707031 C 463.105469 358.671875 464.101562 357.359375 464.058594 355.773438 C 464.007812 354.191406 462.941406 352.941406 461.671875 352.972656 C 460.398438 353.011719 459.40625 354.324219 459.449219 355.902344 C 459.492188 357.484375 460.558594 358.742188 461.832031 358.707031 Z M 480.097656 355.070312 C 479.972656 356.648438 480.890625 358.019531 482.15625 358.121094 C 483.433594 358.226562 484.558594 357.027344 484.691406 355.449219 C 484.828125 353.871094 483.902344 352.511719 482.632812 352.410156 C 481.367188 352.300781 480.230469 353.492188 480.097656 355.070312 Z M 469.714844 371.042969 L 471.109375 357.699219 C 471.109375 357.699219 460.363281 366.0625 461.769531 367.859375 C 463.167969 369.660156 469.714844 371.042969 469.714844 371.042969 Z M 432.542969 132.703125 L 504.601562 132.703125 C 509.113281 132.703125 512.777344 129.039062 512.777344 124.523438 C 512.777344 120.011719 509.113281 116.347656 504.601562 116.347656 L 432.542969 116.347656 C 428.027344 116.347656 424.367188 120.011719 424.367188 124.523438 C 424.367188 129.039062 428.027344 132.703125 432.542969 132.703125 Z M 269.019531 293.5625 L 277.675781 293.5625 C 279.839844 293.5625 281.59375 291.8125 281.59375 289.652344 L 281.59375 280.992188 C 281.59375 278.832031 279.839844 277.082031 277.675781 277.082031 L 269.019531 277.082031 C 266.859375 277.082031 265.109375 278.832031 265.109375 280.992188 L 265.109375 289.652344 C 265.109375 291.8125 266.859375 293.5625 269.019531 293.5625 Z M 290.265625 353.953125 L 298.921875 353.953125 C 301.082031 353.953125 302.832031 352.199219 302.832031 350.039062 L 302.832031 341.386719 C 302.832031 339.222656 301.082031 337.46875 298.921875 337.46875 L 290.265625 337.46875 C 288.101562 337.46875 286.355469 339.222656 286.355469 341.386719 L 286.355469 350.039062 C 286.355469 352.199219 288.101562 353.953125 290.265625 353.953125 Z M 269.019531 333.824219 L 277.675781 333.824219 C 279.839844 333.824219 281.59375 332.074219 281.59375 329.914062 L 281.59375 321.253906 C 281.59375 319.09375 279.839844 317.339844 277.675781 317.339844 L 269.019531 317.339844 C 266.859375 317.339844 265.109375 319.09375 265.109375 321.253906 L 265.109375 329.914062 C 265.109375 332.074219 266.859375 333.824219 269.019531 333.824219 Z M 290.265625 293.5625 L 298.921875 293.5625 C 301.082031 293.5625 302.832031 291.8125 302.832031 289.652344 L 302.832031 280.992188 C 302.832031 278.832031 301.082031 277.082031 298.921875 277.082031 L 290.265625 277.082031 C 288.101562 277.082031 286.355469 278.832031 286.355469 280.992188 L 286.355469 289.652344 C 286.355469 291.8125 288.101562 293.5625 290.265625 293.5625 Z M 269.019531 313.695312 L 277.675781 313.695312 C 279.839844 313.695312 281.59375 311.945312 281.59375 309.78125 L 281.59375 301.125 C 281.59375 298.964844 279.839844 297.214844 277.675781 297.214844 L 269.019531 297.214844 C 266.859375 297.214844 265.109375 298.964844 265.109375 301.125 L 265.109375 309.78125 C 265.109375 311.945312 266.859375 313.695312 269.019531 313.695312 Z M 286.355469 309.78125 L 286.355469 301.125 C 286.355469 298.964844 288.101562 297.214844 290.265625 297.214844 L 298.921875 297.214844 C 301.082031 297.214844 302.832031 298.964844 302.832031 301.125 L 302.832031 309.78125 C 302.832031 311.945312 301.082031 313.695312 298.921875 313.695312 L 290.265625 313.695312 C 288.101562 313.695312 286.355469 311.945312 286.355469 309.78125 "/></g><g clip-rule="nonzero" clip-path="url(#clip5)"><path style=" stroke:none;fill-rule:nonzero;fill:rgb(81.959534%,79.60968%,92.939758%);fill-opacity:1;" d="M 582.988281 635.667969 C 583.414062 637.300781 583.8125 638.929688 584.230469 640.558594 C 603.074219 665.230469 645.574219 704.09375 664.4375 720.925781 L 664.4375 718.390625 C 643.996094 700.105469 599.585938 659.3125 582.988281 635.667969 Z M 505.53125 408.730469 L 486.132812 422.941406 L 484.207031 407.582031 L 469.335938 422.160156 L 469.335938 439.378906 L 480.1875 436.257812 L 483.902344 456.359375 L 513.980469 428.59375 L 523.816406 440.511719 L 570.722656 391.140625 L 551.429688 371.652344 Z M 485.765625 630.503906 C 486.144531 671.804688 488.21875 714.125 493.453125 749.652344 C 493.523438 750.121094 493.925781 750.457031 494.382812 750.457031 C 494.429688 750.457031 494.480469 750.457031 494.523438 750.453125 C 495.042969 750.375 495.398438 749.894531 495.320312 749.375 C 490.417969 716.097656 488.300781 676.832031 487.742188 638.039062 C 487.089844 635.523438 486.429688 633.015625 485.765625 630.503906 Z M 493.941406 456.230469 C 493.984375 455.710938 493.597656 455.253906 493.078125 455.210938 C 492.546875 455.164062 492.101562 455.550781 492.058594 456.074219 C 491.996094 456.8125 489.414062 487.832031 487.558594 531.878906 L 489.445312 531.878906 C 491.304688 487.929688 493.875 456.972656 493.941406 456.230469 Z M 681.929688 640.957031 L 638.875 623.660156 C 636.316406 618.0625 603.628906 546.03125 599.828125 510.785156 C 595.898438 474.390625 610.445312 439.210938 610.597656 438.863281 C 610.800781 438.382812 610.570312 437.824219 610.089844 437.621094 C 609.609375 437.417969 609.050781 437.648438 608.847656 438.128906 C 608.703125 438.484375 593.964844 474.09375 597.945312 510.988281 C 601.539062 544.308594 630.597656 609.921875 636.335938 622.636719 L 600.410156 608.199219 C 601.070312 609.144531 601.714844 610.082031 602.363281 611.019531 L 637.804688 625.261719 C 637.816406 625.269531 637.832031 625.273438 637.84375 625.28125 L 681.226562 642.710938 C 681.339844 642.757812 681.460938 642.78125 681.582031 642.78125 C 681.949219 642.78125 682.304688 642.558594 682.457031 642.1875 C 682.644531 641.703125 682.417969 641.152344 681.929688 640.957031 Z M 628.367188 306.035156 C 628.367188 301.960938 625.066406 298.660156 620.992188 298.660156 C 616.914062 298.660156 613.613281 301.960938 613.613281 306.035156 C 613.613281 310.113281 616.914062 313.414062 620.992188 313.414062 C 625.066406 313.414062 628.367188 310.113281 628.367188 306.035156 Z M 751.652344 577.523438 C 743.40625 588.5 735.613281 598.871094 732.710938 606.679688 C 731.011719 611.230469 730.679688 616.453125 730.300781 622.503906 C 729.65625 632.773438 728.84375 645.152344 721.167969 660.464844 L 723.140625 660.464844 C 734.21875 642.34375 736.085938 628.027344 737.496094 617.195312 C 738.03125 613.027344 738.503906 609.429688 739.363281 606.109375 C 741.960938 596.117188 752.921875 583.09375 764.511719 569.300781 C 768.925781 564.058594 773.386719 558.746094 777.429688 553.539062 C 777.867188 544.011719 778.253906 534.324219 778.582031 524.546875 C 777.726562 533.300781 775.984375 541.730469 770.996094 549.957031 C 765.230469 559.464844 758.332031 568.648438 751.652344 577.523438 Z M 763.480469 526.296875 C 762.695312 556.492188 737.246094 574.042969 725.253906 596.511719 C 713.265625 618.980469 724.691406 642.910156 716.894531 660.464844 L 719.039062 660.464844 C 726.953125 645.074219 727.765625 632.660156 728.410156 622.382812 C 728.804688 616.1875 729.140625 610.835938 730.933594 606.011719 C 733.933594 597.949219 741.441406 587.953125 750.144531 576.386719 C 756.785156 567.546875 763.664062 558.40625 769.378906 548.972656 C 776.0625 537.957031 776.726562 526.363281 777.429688 514.09375 C 777.804688 507.628906 778.191406 501.035156 779.414062 494.210938 C 779.648438 482.476562 779.792969 470.667969 779.824219 458.855469 C 774.28125 473.863281 764.054688 504.339844 763.480469 526.296875 Z M 443.65625 476.914062 C 443.148438 476.816406 442.648438 477.160156 442.550781 477.667969 C 442.46875 478.128906 439.261719 495.484375 435.207031 524.578125 C 429.992188 509.695312 433.261719 500.339844 433.300781 500.238281 C 433.476562 499.75 433.222656 499.203125 432.734375 499.027344 C 432.246094 498.84375 431.703125 499.097656 431.519531 499.585938 C 431.351562 500.046875 427.472656 511.027344 434.667969 528.476562 C 434.453125 530.027344 434.238281 531.621094 434.019531 533.234375 C 434.691406 532.824219 435.378906 532.476562 436.074219 532.195312 C 440.582031 498.753906 444.320312 478.515625 444.414062 478.015625 C 444.511719 477.503906 444.167969 477.015625 443.65625 476.914062 Z M 682.257812 242.242188 C 682.257812 238.164062 678.957031 234.863281 674.882812 234.863281 C 670.804688 234.863281 667.503906 238.164062 667.503906 242.242188 C 667.503906 246.316406 670.804688 249.617188 674.882812 249.617188 C 678.957031 249.617188 682.257812 246.316406 682.257812 242.242188 Z M 741.195312 606.582031 C 740.367188 609.796875 739.902344 613.332031 739.371094 617.433594 C 737.96875 628.253906 736.085938 642.488281 725.339844 660.464844 L 728.488281 660.464844 C 728.488281 660.464844 740.617188 641.457031 740.21875 625.308594 C 739.820312 609.15625 755.863281 601.429688 774.648438 576.152344 C 775.25 575.339844 775.839844 574.550781 776.433594 573.75 C 776.734375 568.160156 777.011719 562.507812 777.277344 556.796875 C 773.664062 561.351562 769.796875 565.960938 765.964844 570.519531 C 754.503906 584.140625 743.6875 597.007812 741.195312 606.582031 Z M 243.871094 270.605469 L 324.078125 270.605469 L 324.078125 248.167969 L 243.871094 248.167969 Z M 374.84375 543.410156 C 370.769531 543.410156 367.464844 546.710938 367.464844 550.785156 C 367.464844 554.863281 370.769531 558.164062 374.84375 558.164062 C 378.917969 558.164062 382.222656 554.863281 382.222656 550.785156 C 382.222656 546.710938 378.917969 543.410156 374.84375 543.410156 Z M 237.855469 399.660156 C 233.78125 399.660156 230.480469 402.964844 230.480469 407.039062 C 230.480469 411.113281 233.78125 414.417969 237.855469 414.417969 C 241.925781 414.417969 245.234375 411.113281 245.234375 407.039062 C 245.234375 402.964844 241.925781 399.660156 237.855469 399.660156 Z M 748.578125 457.910156 C 752.648438 457.910156 755.957031 454.609375 755.957031 450.53125 C 755.957031 446.457031 752.648438 443.15625 748.578125 443.15625 C 744.503906 443.15625 741.203125 446.457031 741.203125 450.53125 C 741.203125 454.609375 744.503906 457.910156 748.578125 457.910156 Z M 174.117188 706.164062 C 170.039062 706.164062 166.738281 709.46875 166.738281 713.542969 C 166.738281 717.613281 170.039062 720.921875 174.117188 720.921875 C 178.191406 720.921875 181.492188 717.613281 181.492188 713.542969 C 181.492188 709.46875 178.191406 706.164062 174.117188 706.164062 Z M 418.328125 749.507812 C 418.324219 750.027344 418.742188 750.457031 419.265625 750.457031 C 419.265625 750.457031 419.273438 750.457031 419.273438 750.457031 C 419.785156 750.457031 420.210938 750.039062 420.21875 749.519531 C 420.671875 682.1875 425.8125 619.445312 431.246094 571.273438 L 429.335938 571.273438 C 423.914062 619.476562 418.785156 682.207031 418.328125 749.507812 Z M 473.441406 389.164062 C 483.601562 392.574219 488.503906 380.539062 488.503906 380.539062 L 466.859375 378.390625 C 466.859375 378.390625 470.050781 388.03125 473.441406 389.164062 Z M 583.46875 95.097656 C 588.566406 95.097656 592.699219 90.964844 592.699219 85.859375 C 592.699219 80.765625 588.566406 76.632812 583.46875 76.632812 C 578.367188 76.632812 574.234375 80.765625 574.234375 85.859375 C 574.234375 90.964844 578.367188 95.097656 583.46875 95.097656 Z M 402.8125 177.179688 C 398.292969 177.179688 394.636719 180.839844 394.636719 185.355469 C 394.636719 189.875 398.292969 193.53125 402.8125 193.53125 C 407.324219 193.53125 410.988281 189.875 410.988281 185.355469 C 410.988281 180.839844 407.324219 177.179688 402.8125 177.179688 Z M 402.8125 146.765625 C 398.292969 146.765625 394.636719 150.421875 394.636719 154.941406 C 394.636719 159.457031 398.292969 163.121094 402.8125 163.121094 C 407.324219 163.121094 410.988281 159.457031 410.988281 154.941406 C 410.988281 150.421875 407.324219 146.765625 402.8125 146.765625 Z M 402.8125 116.347656 C 398.292969 116.347656 394.636719 120.011719 394.636719 124.523438 C 394.636719 129.039062 398.292969 132.703125 402.8125 132.703125 C 407.324219 132.703125 410.988281 129.039062 410.988281 124.523438 C 410.988281 120.011719 407.324219 116.347656 402.8125 116.347656 Z M 432.542969 193.53125 L 504.601562 193.53125 C 509.113281 193.53125 512.777344 189.875 512.777344 185.355469 C 512.777344 180.839844 509.113281 177.179688 504.601562 177.179688 L 432.542969 177.179688 C 428.027344 177.179688 424.367188 180.839844 424.367188 185.355469 C 424.367188 189.875 428.027344 193.53125 432.542969 193.53125 Z M 707.128906 124.523438 C 707.128906 129.039062 703.472656 132.703125 698.953125 132.703125 L 530.351562 132.703125 C 525.839844 132.703125 522.175781 129.039062 522.175781 124.523438 C 522.175781 120.011719 525.839844 116.347656 530.351562 116.347656 L 698.953125 116.347656 C 703.472656 116.347656 707.128906 120.011719 707.128906 124.523438 "/></g></g></svg>