<?xml version="1.0" encoding="UTF-8"?><svg xmlns="http://www.w3.org/2000/svg" xmlns:xlink="http://www.w3.org/1999/xlink" width="710" zoomAndPan="magnify" viewBox="0 0 810 374.999991" height="374.999991" preserveAspectRatio="xMidYMid meet" version="1.0"><defs><filter x="0%" y="0%" width="100%" xmlns:xlink="http://www.w3.org/1999/xlink" xlink:type="simple" xlink:actuate="onLoad" height="100%" id="filter-remove-color" xlink:show="other"><feColorMatrix values="0 0 0 0 1 0 0 0 0 1 0 0 0 0 1 0 0 0 1 0" color-interpolation-filters="sRGB"/></filter><clipPath id="clip-0"><path d="M 294.648438 285.066406 L 316.398438 285.066406 L 316.398438 311.316406 L 294.648438 311.316406 Z M 294.648438 285.066406 " clip-rule="nonzero"/></clipPath><clipPath id="clip-1"><path d="M 377.6875 285.066406 L 391.1875 285.066406 L 391.1875 301.566406 L 377.6875 301.566406 Z M 377.6875 285.066406 " clip-rule="nonzero"/></clipPath><clipPath id="clip-2"><path d="M 516.664062 331.554688 L 531.664062 331.554688 L 531.664062 350.304688 L 516.664062 350.304688 Z M 516.664062 331.554688 " clip-rule="nonzero"/></clipPath><clipPath id="clip-3"><path d="M 6 258 L 183 258 L 183 360.339844 L 6 360.339844 Z M 6 258 " clip-rule="nonzero"/></clipPath><clipPath id="clip-4"><path d="M 375 14.402344 L 482 14.402344 L 482 110 L 375 110 Z M 375 14.402344 " clip-rule="nonzero"/></clipPath><clipPath id="clip-5"><path d="M 306.011719 191 L 553.511719 191 L 553.511719 345 L 306.011719 345 Z M 306.011719 191 " clip-rule="nonzero"/></clipPath><clipPath id="clip-6"><path d="M 646 14.402344 L 737 14.402344 L 737 72 L 646 72 Z M 646 14.402344 " clip-rule="nonzero"/></clipPath><mask id="mask-0"><g filter="url(#filter-remove-color)"><rect x="-81" width="972" fill="rgb(0%, 0%, 0%)" y="-37.499999" height="449.999989" fill-opacity="0.7373"/></g></mask><clipPath id="clip-7"><path d="M 1 1 L 87.519531 1 L 87.519531 27 L 1 27 Z M 1 1 " clip-rule="nonzero"/></clipPath><clipPath id="clip-8"><rect x="0" width="88" y="0" height="28"/></clipPath><clipPath id="clip-9"><path d="M 627 349 L 734 349 L 734 360.339844 L 627 360.339844 Z M 627 349 " clip-rule="nonzero"/></clipPath></defs><rect x="-81" width="972" fill="rgb(100%, 100%, 100%)" y="-37.499999" height="449.999989" fill-opacity="1"/><rect x="-81" width="972" fill="rgb(100%, 100%, 100%)" y="-37.499999" height="449.999989" fill-opacity="1"/><rect x="-81" width="972" fill="rgb(100%, 100%, 100%)" y="-37.499999" height="449.999989" fill-opacity="1"/><g clip-path="url(#clip-0)"><path fill="rgb(81.959534%, 79.60968%, 92.939758%)" d="M 305.671875 311.316406 L 305.378906 311.316406 C 305.378906 304.179688 300.617188 298.371094 294.761719 298.371094 L 294.761719 298.015625 C 300.617188 298.015625 305.378906 292.207031 305.378906 285.066406 L 305.671875 285.066406 C 305.671875 292.207031 310.433594 298.015625 316.289062 298.015625 L 316.289062 298.371094 C 310.433594 298.371094 305.671875 304.179688 305.671875 311.316406 Z M 296.546875 298.191406 C 301.113281 299.113281 304.769531 303.542969 305.527344 309.160156 C 306.285156 303.558594 309.914062 299.128906 314.527344 298.207031 C 309.929688 297.28125 306.300781 292.855469 305.527344 287.257812 C 304.769531 292.839844 301.113281 297.265625 296.546875 298.191406 Z M 296.546875 298.191406 " fill-opacity="1" fill-rule="nonzero"/></g><g clip-path="url(#clip-1)"><path fill="rgb(81.959534%, 79.60968%, 92.939758%)" d="M 384.527344 301.566406 L 384.347656 301.566406 C 384.347656 297.078125 381.390625 293.429688 377.757812 293.429688 L 377.757812 293.203125 C 381.390625 293.203125 384.347656 289.554688 384.347656 285.066406 L 384.527344 285.066406 C 384.527344 289.554688 387.484375 293.203125 391.117188 293.203125 L 391.117188 293.429688 C 387.484375 293.429688 384.527344 297.078125 384.527344 301.566406 Z M 378.863281 293.316406 C 381.699219 293.894531 383.96875 296.679688 384.4375 300.210938 C 384.90625 296.691406 387.160156 293.90625 390.023438 293.328125 C 387.171875 292.742188 384.917969 289.960938 384.4375 286.441406 C 383.96875 289.953125 381.699219 292.734375 378.863281 293.316406 Z M 378.863281 293.316406 " fill-opacity="1" fill-rule="nonzero"/></g><g clip-path="url(#clip-2)"><path fill="rgb(81.959534%, 79.60968%, 92.939758%)" d="M 524.265625 350.304688 L 524.066406 350.304688 C 524.066406 345.207031 520.78125 341.058594 516.742188 341.058594 L 516.742188 340.800781 C 520.78125 340.800781 524.066406 336.652344 524.066406 331.554688 L 524.265625 331.554688 C 524.265625 336.652344 527.550781 340.800781 531.589844 340.800781 L 531.589844 341.058594 C 527.550781 341.058594 524.265625 345.207031 524.265625 350.304688 Z M 517.972656 340.929688 C 521.121094 341.589844 523.644531 344.753906 524.167969 348.761719 C 524.6875 344.765625 527.191406 341.597656 530.371094 340.941406 C 527.203125 340.277344 524.699219 337.117188 524.167969 333.117188 C 523.644531 337.105469 521.121094 340.265625 517.972656 340.929688 Z M 517.972656 340.929688 " fill-opacity="1" fill-rule="nonzero"/></g><path fill="rgb(13.328552%, 7.839966%, 6.269836%)" d="M 174.824219 158.070312 C 181.046875 151.847656 183.699219 142.632812 182.539062 134.085938 C 181.292969 124.539062 173.164062 119.226562 173 109.433594 C 172.832031 101.050781 175.488281 93 177.644531 84.867188 C 180.050781 75.652344 180.632812 66.855469 178.640625 57.558594 C 176.566406 47.683594 170.757812 38.800781 163.125 32.328125 C 142.054688 14.402344 100.328125 21.039062 85.976562 45.109375 C 84.8125 47.019531 83.984375 49.011719 83.402344 51.167969 C 83.070312 52.414062 83.070312 57.3125 82.078125 57.890625 C 77.015625 61.128906 75.355469 67.6875 74.695312 73.660156 C 73.78125 81.546875 74.03125 89.429688 73.117188 97.316406 C 72.203125 105.199219 70.046875 113.167969 65.152344 119.3125 C 61.835938 123.460938 57.4375 126.613281 53.871094 130.597656 C 48.894531 136.242188 45.824219 143.710938 46.074219 151.265625 C 46.320312 158.816406 49.804688 166.289062 55.863281 170.769531 C 81.910156 190.109375 121.066406 181.808594 152.09375 172.511719 C 155.910156 171.351562 159.644531 170.105469 163.125 168.113281 C 167.359375 165.707031 171.339844 161.558594 174.824219 158.070312 Z M 174.824219 158.070312 " fill-opacity="1" fill-rule="nonzero"/><g clip-path="url(#clip-3)"><path fill="rgb(98.039246%, 73.329163%, 60.389709%)" d="M 56.195312 264.058594 L 43.417969 312.28125 L 121.980469 335.023438 C 121.980469 335.023438 128.949219 333.945312 131.519531 331.621094 C 134.089844 329.296875 139.234375 329.214844 140.8125 328.964844 C 142.386719 328.714844 154.582031 327.386719 154.582031 327.386719 C 154.582031 327.386719 157.238281 328.882812 155.742188 330.789062 C 155.742188 330.789062 147.199219 334.609375 145.125 335.191406 C 143.050781 335.769531 140.148438 338.59375 139.402344 340.75 C 138.652344 342.910156 140.394531 345.648438 140.394531 345.648438 L 160.304688 350.628906 L 170.757812 352.371094 L 180.796875 352.289062 C 180.796875 352.289062 182.871094 353.285156 182.953125 354.941406 C 183.035156 356.601562 170.757812 357.683594 170.757812 357.683594 L 144.460938 360.339844 C 144.460938 360.339844 119.90625 354.445312 117.25 353.699219 C 114.597656 352.953125 25 343.15625 25 343.15625 C 25 343.15625 5.089844 339.589844 6.417969 321.496094 L 18.363281 258.832031 Z M 56.195312 264.058594 " fill-opacity="1" fill-rule="nonzero"/></g><path fill="rgb(33.729553%, 34.899902%, 61.959839%)" d="M 192.742188 257.667969 L 186.519531 243.972656 C 186.9375 249.617188 186.4375 245.46875 182.871094 265.886719 C 179.136719 287.300781 179.386719 297.839844 179.386719 297.839844 L 74.777344 298.253906 C 74.859375 291.53125 69.382812 230.859375 69.382812 230.859375 L 61.003906 265.054688 L 48.394531 313.777344 L 105.222656 330.210938 L 100.992188 352.785156 L 32.714844 346.0625 C 0.195312 344.570312 4.429688 320.832031 4.429688 320.832031 C 7.25 305.226562 9.738281 289.292969 12.722656 273.605469 C 15.792969 257.753906 19.859375 242.230469 23.757812 226.628906 C 26.410156 216.085938 29.066406 205.464844 31.636719 194.921875 C 39.933594 160.976562 60.507812 158.734375 60.507812 158.734375 L 108.125 149.355469 C 112.023438 168.28125 126.542969 167.699219 126.542969 167.699219 C 147.449219 168.195312 143.714844 149.855469 143.714844 149.855469 C 143.714844 149.855469 157.816406 155.828125 174.824219 158.238281 C 200.957031 161.890625 205.1875 190.523438 213.8125 210.941406 C 217.464844 219.65625 221.113281 228.371094 224.847656 237.085938 Z M 192.742188 257.667969 " fill-opacity="1" fill-rule="nonzero"/><path fill="rgb(98.039246%, 73.329163%, 60.389709%)" d="M 143.632812 122.214844 C 144.046875 123.210938 143.796875 153.175781 143.796875 153.175781 L 108.042969 153.339844 L 107.875 112.253906 Z M 143.632812 122.214844 " fill-opacity="1" fill-rule="nonzero"/><path fill="rgb(13.328552%, 7.839966%, 6.269836%)" d="M 147.03125 146.949219 L 116.007812 121.054688 L 148.859375 122.214844 Z M 147.03125 146.949219 " fill-opacity="1" fill-rule="nonzero"/><path fill="rgb(98.039246%, 73.329163%, 60.389709%)" d="M 78.09375 89.515625 C 78.757812 85.945312 81 82.957031 85.0625 80.882812 C 87.71875 79.554688 90.871094 78.890625 93.773438 79.472656 C 95.265625 79.71875 96.84375 80.300781 98.003906 81.214844 C 99.496094 82.460938 100.824219 84.203125 101.15625 84.699219 C 101.238281 84.785156 101.324219 84.785156 101.40625 84.785156 L 104.0625 84.285156 C 104.226562 84.285156 104.308594 84.121094 104.226562 84.035156 L 102.402344 73.828125 C 102.402344 73.746094 102.402344 73.660156 102.484375 73.578125 C 110.863281 68.929688 114.015625 60.714844 115.675781 52.664062 C 115.675781 52.496094 115.839844 52.414062 116.007812 52.496094 C 130.605469 58.722656 146.203125 54.820312 162.132812 51.832031 C 162.710938 56.316406 168.019531 93.082031 168.019531 93.082031 C 168.351562 95.738281 168.019531 98.644531 167.605469 101.300781 C 164.539062 118.480469 145.871094 128.605469 129.527344 126.78125 C 118.164062 125.535156 107.542969 118.398438 102.152344 108.1875 C 101.738281 107.359375 101.324219 106.527344 101.074219 105.699219 C 100.992188 105.53125 100.824219 105.449219 100.660156 105.53125 C 92.695312 112.753906 82.242188 106.527344 79.007812 97.730469 C 77.929688 94.824219 77.597656 92.085938 78.09375 89.515625 Z M 78.09375 89.515625 " fill-opacity="1" fill-rule="nonzero"/><path fill="rgb(13.328552%, 7.839966%, 6.269836%)" d="M 150.269531 93.25 C 150.683594 93.167969 151.179688 93 151.59375 92.917969 C 151.761719 92.917969 152.011719 92.835938 152.257812 92.835938 C 152.175781 92.75 152.175781 92.585938 152.09375 92.503906 C 152.011719 92.171875 151.84375 91.921875 151.761719 91.589844 C 151.511719 91.007812 151.347656 90.425781 151.097656 89.761719 C 150.683594 88.601562 150.183594 87.355469 149.769531 86.195312 C 149.4375 85.28125 150.847656 84.699219 151.179688 85.613281 C 151.925781 87.523438 152.675781 89.515625 153.421875 91.421875 C 153.753906 92.171875 154.5 93.582031 153.421875 94.078125 C 153.007812 94.246094 152.425781 94.328125 152.011719 94.410156 L 150.515625 94.742188 C 150.101562 94.824219 149.6875 94.410156 149.6875 94.078125 C 149.605469 93.664062 149.855469 93.414062 150.269531 93.25 Z M 150.269531 93.25 " fill-opacity="1" fill-rule="nonzero"/><path fill="rgb(13.328552%, 7.839966%, 6.269836%)" d="M 165.449219 68.515625 C 165.449219 68.515625 165.53125 68.515625 165.53125 68.597656 C 165.78125 68.765625 166.03125 69.011719 166.113281 69.34375 C 166.195312 69.675781 165.949219 70.007812 165.699219 70.257812 C 164.785156 70.921875 163.210938 71.253906 162.132812 71.421875 C 160.804688 71.753906 159.394531 71.835938 157.984375 72 C 155.910156 72.167969 153.917969 72.167969 151.925781 71.585938 C 151.59375 71.503906 151.347656 71.421875 151.097656 71.171875 C 150.515625 70.671875 150.683594 69.925781 151.265625 69.511719 C 153.089844 68.347656 156.074219 68.019531 158.148438 67.769531 C 160.472656 67.519531 163.375 67.519531 165.449219 68.515625 Z M 165.449219 68.515625 " fill-opacity="1" fill-rule="nonzero"/><path fill="rgb(13.328552%, 7.839966%, 6.269836%)" d="M 134.671875 73.328125 C 134.671875 73.328125 134.753906 73.328125 134.753906 73.328125 C 135.085938 73.414062 135.417969 73.578125 135.585938 73.910156 C 135.75 74.242188 135.585938 74.65625 135.335938 74.988281 C 134.507812 75.902344 132.929688 76.566406 131.851562 77.148438 C 130.441406 77.8125 129.03125 78.308594 127.539062 78.722656 C 125.382812 79.386719 123.222656 79.96875 120.984375 79.886719 C 120.652344 79.886719 120.320312 79.804688 119.988281 79.71875 C 119.242188 79.386719 119.242188 78.558594 119.824219 77.976562 C 121.480469 76.316406 124.632812 75.238281 126.792969 74.492188 C 129.03125 73.578125 132.183594 72.832031 134.671875 73.328125 Z M 134.671875 73.328125 " fill-opacity="1" fill-rule="nonzero"/><path fill="rgb(13.328552%, 7.839966%, 6.269836%)" d="M 86.390625 85.117188 C 89.128906 86.027344 91.203125 88.019531 92.859375 90.34375 C 94.769531 93 96.429688 95.988281 97.671875 99.058594 C 98.003906 99.804688 97.425781 100.46875 96.84375 100.554688 C 96.761719 100.554688 96.761719 100.636719 96.675781 100.636719 L 96.429688 100.636719 C 96.179688 100.71875 95.929688 100.636719 95.683594 100.46875 C 93.855469 99.140625 92.113281 97.648438 90.703125 95.90625 C 90.039062 95.074219 89.378906 93.996094 89.292969 92.917969 C 89.210938 92.003906 89.460938 91.007812 90.207031 90.425781 C 88.960938 89.015625 87.550781 87.855469 85.726562 87.191406 C 84.316406 86.691406 85.0625 84.699219 86.390625 85.117188 Z M 86.390625 85.117188 " fill-opacity="1" fill-rule="nonzero"/><path fill="rgb(98.039246%, 73.329163%, 60.389709%)" d="M 108.789062 153.421875 L 114.761719 173.257812 L 145.125 169.027344 L 144.296875 149.855469 C 144.296875 149.855469 116.753906 141.304688 108.789062 153.421875 Z M 108.789062 153.421875 " fill-opacity="1" fill-rule="nonzero"/><path fill="rgb(81.959534%, 79.60968%, 92.939758%)" d="M 171.753906 323.652344 C 162.046875 325.8125 152.425781 328.050781 142.636719 329.960938 C 124.136719 333.613281 103.976562 335.9375 87.136719 327.636719 C 83.070312 325.644531 73.699219 323.070312 70.628906 319.835938 C 71.871094 312.945312 75.191406 304.148438 74.695312 296.925781 C 73.035156 274.433594 70.960938 252.273438 69.136719 229.78125 C 72.785156 222.476562 74.195312 214.261719 74.941406 206.128906 C 76.4375 189.527344 76.601562 172.429688 72.953125 156.078125 C 79.671875 154.832031 86.472656 153.507812 93.191406 152.09375 C 103.066406 171.351562 119.40625 191.351562 134.339844 206.128906 C 145.042969 188.945312 151.015625 173.34375 155.910156 153.753906 C 161.964844 155.082031 168.351562 156.246094 174.410156 157.488281 C 176.234375 157.820312 177.480469 158.152344 178.972656 158.652344 C 186.1875 192.765625 191.914062 227.042969 184.613281 260.324219 C 183.535156 265.054688 182.207031 269.785156 181.460938 274.601562 C 180.714844 279.582031 180.632812 284.644531 180.546875 289.707031 C 180.382812 300.496094 180.300781 311.367188 182.207031 321.992188 C 182.457031 321.410156 182.207031 320.582031 181.625 320.332031 " fill-opacity="1" fill-rule="nonzero"/><path fill="rgb(13.328552%, 7.839966%, 6.269836%)" d="M 122.558594 340.667969 L 75.191406 324.066406 C 71.625 322.824219 72.703125 318.339844 76.519531 318.339844 L 189.257812 318.339844 C 193.324219 318.339844 194.152344 323.15625 190.253906 324.152344 L 124.882812 340.75 C 124.21875 341 123.308594 341 122.558594 340.667969 Z M 122.558594 340.667969 " fill-opacity="1" fill-rule="nonzero"/><path fill="rgb(13.328552%, 7.839966%, 6.269836%)" d="M 253.136719 222.230469 L 149.023438 222.230469 C 152.34375 218.742188 155.660156 215.257812 158.980469 211.769531 C 160.140625 210.527344 161.300781 209.28125 162.546875 208.035156 C 163.625 206.875 164.867188 205.710938 165.863281 204.46875 C 166.695312 203.472656 167.359375 202.226562 167.027344 200.898438 C 166.695312 199.570312 165.53125 198.574219 164.539062 197.660156 C 161.964844 195.089844 159.476562 192.597656 156.90625 190.023438 C 159.558594 188.945312 162.214844 187.867188 164.867188 186.789062 C 166.277344 186.207031 167.691406 185.625 169.183594 185.046875 C 169.847656 184.796875 170.425781 184.546875 171.089844 184.296875 C 171.589844 184.050781 172.085938 183.800781 172.253906 183.21875 C 172.417969 182.636719 172.335938 182.058594 172.167969 181.476562 C 172.003906 180.730469 171.835938 179.984375 171.671875 179.234375 C 171.339844 177.742188 170.925781 176.246094 170.59375 174.671875 C 169.847656 171.765625 169.101562 168.777344 168.269531 165.871094 C 167.359375 162.554688 166.363281 159.316406 165.285156 155.996094 C 165.117188 155.414062 164.121094 155.664062 164.371094 156.246094 C 166.113281 161.722656 167.773438 167.199219 169.183594 172.761719 C 169.847656 175.5 170.511719 178.238281 171.171875 180.976562 C 171.257812 181.476562 171.671875 182.472656 171.257812 182.886719 C 171.007812 183.136719 170.675781 183.21875 170.34375 183.300781 C 169.929688 183.46875 169.597656 183.632812 169.183594 183.800781 C 167.855469 184.382812 166.445312 184.878906 165.117188 185.460938 L 155.992188 189.195312 C 155.660156 189.359375 155.496094 189.691406 155.742188 190.023438 L 162.546875 196.832031 C 163.125 197.414062 163.707031 197.992188 164.207031 198.574219 C 164.703125 199.070312 165.285156 199.570312 165.699219 200.152344 C 166.609375 201.480469 165.863281 202.890625 164.953125 203.96875 C 162.878906 206.375 160.554688 208.617188 158.316406 210.941406 C 156.074219 213.347656 153.835938 215.671875 151.59375 218.078125 C 150.269531 219.40625 149.023438 220.816406 147.695312 222.144531 L 126.957031 222.144531 C 123.058594 222.144531 119.574219 223.722656 117.003906 226.378906 C 110.199219 221.980469 103.644531 217.164062 97.507812 211.855469 C 96.59375 211.105469 95.683594 210.277344 94.769531 209.53125 C 94.355469 209.199219 93.855469 208.78125 93.609375 208.285156 C 93.277344 207.621094 93.941406 206.957031 94.273438 206.460938 C 95.683594 204.21875 97.175781 201.976562 98.585938 199.820312 C 100.078125 197.578125 101.570312 195.335938 102.980469 193.097656 C 103.480469 192.265625 103.894531 191.269531 103.3125 190.441406 C 102.898438 189.691406 101.988281 189.359375 101.238281 189.195312 C 99.914062 188.945312 98.503906 188.78125 97.175781 188.613281 C 95.683594 188.367188 94.1875 188.199219 92.695312 187.949219 C 89.875 187.535156 87.054688 187.121094 84.152344 186.707031 C 84.566406 177.992188 84.730469 169.277344 84.730469 160.476562 C 84.730469 157.988281 84.730469 155.414062 84.648438 152.925781 C 84.648438 152.261719 83.652344 152.261719 83.652344 152.925781 C 83.820312 161.804688 83.734375 170.6875 83.402344 179.566406 C 83.320312 182.058594 83.238281 184.628906 83.15625 187.121094 C 83.15625 187.285156 83.320312 187.535156 83.488281 187.617188 C 88.714844 188.367188 93.941406 189.195312 99.082031 189.941406 C 99.996094 190.109375 101.15625 190.109375 101.988281 190.6875 C 103.148438 191.519531 101.820312 193.011719 101.324219 193.84375 C 99.914062 196.085938 98.417969 198.324219 97.007812 200.484375 C 96.261719 201.5625 95.597656 202.640625 94.851562 203.804688 C 94.105469 204.882812 93.359375 205.960938 92.695312 207.121094 C 92.199219 208.035156 92.363281 208.867188 93.109375 209.613281 C 93.941406 210.441406 94.933594 211.273438 95.847656 212.019531 C 99.496094 215.171875 103.3125 218.160156 107.128906 221.066406 C 110.117188 223.226562 113.101562 225.300781 116.171875 227.292969 C 114.097656 229.699219 112.9375 232.851562 112.9375 236.253906 L 112.9375 327.222656 C 112.9375 334.859375 119.160156 341.082031 126.792969 341.082031 L 253.136719 341.082031 C 260.769531 341.082031 266.992188 334.859375 266.992188 327.222656 L 266.992188 236.089844 C 266.992188 228.453125 260.769531 222.230469 253.136719 222.230469 Z M 253.136719 222.230469 " fill-opacity="1" fill-rule="nonzero"/><path fill="rgb(100%, 100%, 100%)" d="M 205.269531 285.804688 C 205.269531 286.621094 205.191406 287.433594 205.03125 288.234375 C 204.871094 289.035156 204.636719 289.816406 204.324219 290.570312 C 204.007812 291.324219 203.625 292.042969 203.171875 292.722656 C 202.71875 293.402344 202.203125 294.03125 201.625 294.609375 C 201.046875 295.1875 200.417969 295.703125 199.738281 296.15625 C 199.058594 296.609375 198.34375 296.996094 197.585938 297.308594 C 196.832031 297.621094 196.054688 297.855469 195.253906 298.015625 C 194.453125 298.175781 193.644531 298.253906 192.824219 298.253906 C 192.007812 298.253906 191.199219 298.175781 190.398438 298.015625 C 189.597656 297.855469 188.820312 297.621094 188.0625 297.308594 C 187.308594 296.996094 186.59375 296.609375 185.914062 296.15625 C 185.234375 295.703125 184.605469 295.1875 184.027344 294.609375 C 183.449219 294.03125 182.933594 293.402344 182.480469 292.722656 C 182.023438 292.042969 181.640625 291.324219 181.328125 290.570312 C 181.015625 289.816406 180.78125 289.035156 180.621094 288.234375 C 180.460938 287.433594 180.382812 286.621094 180.382812 285.804688 C 180.382812 284.988281 180.460938 284.179688 180.621094 283.375 C 180.78125 282.574219 181.015625 281.796875 181.328125 281.042969 C 181.640625 280.285156 182.023438 279.570312 182.480469 278.890625 C 182.933594 278.210938 183.449219 277.582031 184.027344 277.003906 C 184.605469 276.425781 185.234375 275.90625 185.914062 275.453125 C 186.59375 275 187.308594 274.617188 188.0625 274.304688 C 188.820312 273.992188 189.597656 273.753906 190.398438 273.59375 C 191.199219 273.433594 192.007812 273.355469 192.824219 273.355469 C 193.644531 273.355469 194.453125 273.433594 195.253906 273.59375 C 196.054688 273.753906 196.832031 273.992188 197.585938 274.304688 C 198.34375 274.617188 199.058594 275 199.738281 275.453125 C 200.417969 275.90625 201.046875 276.425781 201.625 277.003906 C 202.203125 277.582031 202.71875 278.210938 203.171875 278.890625 C 203.625 279.570312 204.007812 280.285156 204.324219 281.042969 C 204.636719 281.796875 204.871094 282.574219 205.03125 283.375 C 205.191406 284.179688 205.269531 284.988281 205.269531 285.804688 Z M 205.269531 285.804688 " fill-opacity="1" fill-rule="nonzero"/><path fill="rgb(98.039246%, 73.329163%, 60.389709%)" d="M 239.199219 343.40625 L 226.007812 331.871094 C 226.007812 331.871094 226.007812 331.871094 225.925781 331.871094 C 225.59375 331.703125 222.027344 330.210938 221.113281 333.363281 C 221.113281 333.445312 221.113281 333.445312 221.113281 333.53125 L 223.023438 337.84375 L 219.207031 333.777344 C 219.207031 333.777344 216.21875 330.625 212.570312 333.945312 C 212.488281 334.027344 212.402344 334.027344 212.320312 333.945312 C 211.574219 333.53125 207.507812 331.371094 205.519531 334.859375 C 205.519531 334.859375 205.519531 334.941406 205.519531 334.941406 L 205.433594 336.847656 C 205.433594 337.015625 205.1875 337.097656 205.105469 337.015625 L 202.53125 334.691406 C 202.53125 334.691406 202.53125 334.691406 202.449219 334.691406 C 202.117188 334.527344 198.714844 333.113281 197.96875 336.351562 C 197.96875 336.351562 197.96875 336.433594 197.96875 336.433594 L 201.703125 347.222656 C 201.703125 347.222656 201.703125 347.308594 201.785156 347.308594 C 202.199219 347.640625 205.019531 349.714844 208.671875 347.640625 C 208.753906 347.554688 208.835938 347.640625 208.917969 347.640625 C 209.667969 348.46875 214.230469 353.117188 219.371094 348.46875 C 219.457031 348.386719 219.539062 348.386719 219.621094 348.46875 C 220.449219 348.882812 225.84375 351.125 229.078125 347.058594 C 229.160156 346.976562 229.246094 346.976562 229.328125 347.058594 C 230.238281 347.886719 235.050781 351.707031 238.371094 347.722656 C 238.371094 347.722656 240.027344 345.980469 239.28125 343.488281 C 239.28125 343.488281 239.199219 343.40625 239.199219 343.40625 Z M 239.199219 343.40625 " fill-opacity="1" fill-rule="nonzero"/><path fill="rgb(13.328552%, 7.839966%, 6.269836%)" d="M 224.019531 337.84375 C 225.675781 340.417969 227.503906 342.910156 229.410156 345.398438 C 229.90625 345.980469 228.996094 346.808594 228.582031 346.226562 C 226.589844 343.738281 224.765625 341.164062 223.023438 338.507812 C 222.855469 338.261719 223.023438 337.84375 223.269531 337.679688 C 223.519531 337.429688 223.851562 337.597656 224.019531 337.84375 Z M 224.019531 337.84375 " fill-opacity="1" fill-rule="nonzero"/><path fill="rgb(13.328552%, 7.839966%, 6.269836%)" d="M 213.480469 334.609375 C 215.472656 338.675781 217.628906 342.660156 219.457031 346.726562 C 219.789062 347.390625 218.707031 347.886719 218.378906 347.222656 C 216.304688 343.242188 214.3125 339.171875 212.488281 335.105469 C 212.070312 334.527344 213.152344 333.945312 213.480469 334.609375 Z M 213.480469 334.609375 " fill-opacity="1" fill-rule="nonzero"/><path fill="rgb(13.328552%, 7.839966%, 6.269836%)" d="M 206.265625 338.175781 C 207.09375 340.667969 208.089844 343.15625 209.25 345.5625 C 209.582031 346.226562 208.503906 346.808594 208.171875 346.144531 C 207.011719 343.65625 205.933594 341.082031 205.105469 338.425781 C 205.019531 338.09375 205.269531 337.761719 205.519531 337.761719 C 205.933594 337.679688 206.183594 337.84375 206.265625 338.175781 Z M 206.265625 338.175781 " fill-opacity="1" fill-rule="nonzero"/><path fill="rgb(13.328552%, 7.839966%, 6.269836%)" d="M 153.335938 100.054688 C 149.855469 102.296875 145.539062 102.960938 141.558594 101.964844 C 140.3125 101.632812 139.816406 103.539062 141.058594 103.871094 C 145.539062 104.953125 150.433594 104.203125 154.332031 101.714844 C 155.410156 101.050781 154.417969 99.390625 153.335938 100.054688 Z M 153.335938 100.054688 " fill-opacity="1" fill-rule="nonzero"/><path fill="rgb(13.328552%, 7.839966%, 6.269836%)" d="M 135.417969 82.128906 C 132.929688 82.042969 130.359375 83.039062 128.617188 84.699219 C 128.203125 85.117188 128.035156 85.53125 128.035156 86.109375 C 128.035156 86.609375 128.285156 87.191406 128.617188 87.523438 C 129.03125 87.855469 129.527344 88.101562 130.109375 88.101562 C 130.691406 88.101562 131.1875 87.9375 131.601562 87.523438 C 131.769531 87.355469 132.015625 87.191406 132.265625 86.941406 C 132.597656 86.691406 132.929688 86.527344 133.34375 86.359375 C 133.675781 86.195312 134.089844 86.109375 134.507812 86.027344 C 134.839844 86.027344 135.171875 85.945312 135.5 86.027344 C 136.582031 86.109375 137.660156 85.117188 137.574219 84.035156 C 137.410156 82.957031 136.582031 82.128906 135.417969 82.128906 Z M 135.417969 82.128906 " fill-opacity="1" fill-rule="nonzero"/><path fill="rgb(13.328552%, 7.839966%, 6.269836%)" d="M 161.882812 77.0625 C 159.808594 76.484375 157.570312 76.734375 155.742188 77.8125 C 155.328125 78.058594 154.996094 78.476562 154.832031 78.972656 C 154.664062 79.472656 154.75 80.050781 154.996094 80.46875 C 155.578125 81.378906 156.738281 81.710938 157.652344 81.132812 C 157.816406 81.046875 157.902344 80.964844 158.066406 80.964844 C 158.398438 80.800781 158.730469 80.714844 159.144531 80.632812 C 159.476562 80.632812 159.890625 80.632812 160.222656 80.632812 C 160.390625 80.632812 160.636719 80.714844 160.804688 80.714844 C 161.300781 80.882812 161.882812 80.800781 162.296875 80.550781 C 162.710938 80.300781 163.125 79.886719 163.210938 79.386719 C 163.542969 78.390625 162.960938 77.3125 161.882812 77.0625 Z M 161.882812 77.0625 " fill-opacity="1" fill-rule="nonzero"/><path fill="rgb(100%, 100%, 100%)" d="M 113.019531 318.507812 L 113.019531 336.515625 C 113.019531 337.179688 114.015625 337.179688 114.015625 336.515625 L 114.015625 318.507812 C 113.933594 317.925781 113.019531 317.925781 113.019531 318.507812 Z M 113.019531 318.507812 " fill-opacity="1" fill-rule="nonzero"/><path fill="rgb(100%, 100%, 100%)" d="M 132.433594 173.257812 L 144.296875 149.855469 L 155.910156 153.839844 C 155.910156 153.839844 150.101562 178.820312 145.125 186.707031 L 132.347656 174.585938 L 116.585938 187.453125 C 116.585938 187.453125 98.335938 165.707031 93.191406 152.09375 L 108.125 149.105469 Z M 132.433594 173.257812 " fill-opacity="1" fill-rule="nonzero"/><path fill="rgb(98.039246%, 73.329163%, 60.389709%)" d="M 132.433594 173.257812 L 124.964844 165.871094 L 136.910156 164.378906 Z M 132.433594 173.257812 " fill-opacity="1" fill-rule="nonzero"/><path fill="rgb(13.328552%, 7.839966%, 6.269836%)" d="M 123.722656 181.726562 L 130.359375 190.023438 L 127.621094 200.234375 L 134.339844 207.289062 L 139.648438 197.992188 L 134.839844 189.527344 L 139.816406 181.726562 L 132.433594 174.671875 Z M 123.722656 181.726562 " fill-opacity="1" fill-rule="nonzero"/><g clip-path="url(#clip-4)"><path fill="rgb(12.548828%, 6.269836%, 6.269836%)" d="M 450.910156 102.332031 C 458.886719 100.90625 466.773438 95.457031 471.640625 89.085938 C 476.59375 82.714844 478.105469 73.410156 474.160156 66.371094 C 479.363281 61.175781 482.636719 53.292969 480.707031 46.167969 C 478.777344 39.128906 472.816406 33.261719 465.683594 31.5 C 465.261719 27.8125 462.914062 23.621094 460.058594 21.273438 C 454.941406 17 448.308594 14.402344 441.679688 14.484375 C 437.652344 14.566406 433.707031 15.65625 430.265625 17.667969 C 428.503906 18.675781 427.246094 20.183594 425.566406 21.359375 C 424.726562 22.027344 424.894531 22.449219 423.972656 22.617188 C 423.300781 22.699219 421.285156 21.859375 420.363281 21.609375 C 413.226562 20.015625 405.339844 21.105469 399.378906 25.296875 C 393.421875 29.574219 389.894531 37.285156 391.574219 44.410156 C 383.433594 48.097656 376.636719 56.0625 375.460938 64.945312 C 374.285156 73.832031 379.320312 83.554688 387.796875 86.40625 C 386.121094 90.175781 387.460938 95.039062 390.148438 98.140625 C 392.832031 101.242188 396.945312 102.917969 400.976562 103.335938 C 403.492188 103.589844 406.09375 103.421875 408.613281 103.839844 C 412.640625 104.425781 416.332031 106.4375 419.101562 109.457031 C 420.867188 108.199219 423.972656 109.121094 426.152344 108.703125 C 434.796875 107.191406 442.351562 103.839844 450.910156 102.332031 Z M 450.910156 102.332031 " fill-opacity="1" fill-rule="nonzero"/></g><path fill="rgb(81.959534%, 79.60968%, 92.939758%)" d="M 458.296875 77.015625 C 457.375 76.679688 456.953125 78.105469 457.792969 78.441406 C 459.640625 79.195312 461.066406 80.871094 461.570312 82.800781 C 462.074219 84.726562 461.570312 86.738281 460.3125 88.25 C 457.878906 91.433594 452.589844 91.519531 450.324219 88.25 C 449.148438 86.488281 448.898438 84.058594 449.90625 82.128906 C 450.324219 81.292969 449.066406 80.535156 448.644531 81.375 C 447.472656 83.554688 447.472656 86.070312 448.5625 88.25 C 449.652344 90.34375 451.75 91.769531 454.101562 92.105469 C 459.222656 92.859375 463.835938 88.164062 463.164062 83.21875 C 462.914062 80.453125 460.898438 78.105469 458.296875 77.015625 Z M 458.296875 77.015625 " fill-opacity="1" fill-rule="nonzero"/><path fill="rgb(87.838745%, 47.059631%, 31.369019%)" d="M 453.847656 49.691406 C 454.183594 49.4375 467.027344 86.65625 445.289062 99.648438 C 445.289062 99.648438 433.539062 107.945312 416.417969 95.207031 L 407.773438 86.320312 C 407.773438 86.320312 396.191406 85.902344 396.023438 76.511719 C 395.855469 67.125 401.140625 63.1875 407.773438 64.695312 C 414.488281 66.203125 414.90625 71.234375 414.90625 71.234375 C 414.90625 71.234375 419.691406 58.324219 416.753906 46.335938 C 416.835938 46.253906 447.050781 55.390625 453.847656 49.691406 Z M 453.847656 49.691406 " fill-opacity="1" fill-rule="nonzero"/><path fill="rgb(87.838745%, 47.059631%, 31.369019%)" d="M 443.441406 146.839844 L 415.914062 144.578125 L 415.914062 88.25 L 443.441406 90.511719 Z M 443.441406 146.839844 " fill-opacity="1" fill-rule="nonzero"/><path fill="rgb(12.548828%, 6.269836%, 6.269836%)" d="M 438.238281 70.308594 C 438.238281 70.609375 438.179688 70.898438 438.066406 71.175781 C 437.953125 71.453125 437.789062 71.699219 437.574219 71.910156 C 437.363281 72.125 437.117188 72.285156 436.839844 72.402344 C 436.5625 72.515625 436.273438 72.574219 435.972656 72.574219 C 435.671875 72.574219 435.382812 72.515625 435.105469 72.402344 C 434.828125 72.285156 434.582031 72.125 434.371094 71.910156 C 434.15625 71.699219 433.992188 71.453125 433.878906 71.175781 C 433.765625 70.898438 433.707031 70.609375 433.707031 70.308594 C 433.707031 70.011719 433.765625 69.722656 433.878906 69.445312 C 433.992188 69.167969 434.15625 68.921875 434.371094 68.710938 C 434.582031 68.496094 434.828125 68.335938 435.105469 68.21875 C 435.382812 68.105469 435.671875 68.046875 435.972656 68.046875 C 436.273438 68.046875 436.5625 68.105469 436.839844 68.21875 C 437.117188 68.335938 437.363281 68.496094 437.574219 68.710938 C 437.789062 68.921875 437.953125 69.167969 438.066406 69.445312 C 438.179688 69.722656 438.238281 70.011719 438.238281 70.308594 Z M 438.238281 70.308594 " fill-opacity="1" fill-rule="nonzero"/><path fill="rgb(12.548828%, 6.269836%, 6.269836%)" d="M 454.351562 70.394531 C 454.351562 70.695312 454.296875 70.984375 454.179688 71.261719 C 454.066406 71.539062 453.902344 71.78125 453.6875 71.996094 C 453.476562 72.207031 453.230469 72.371094 452.953125 72.484375 C 452.675781 72.601562 452.386719 72.65625 452.085938 72.65625 C 451.785156 72.65625 451.496094 72.601562 451.21875 72.484375 C 450.941406 72.371094 450.695312 72.207031 450.484375 71.996094 C 450.273438 71.78125 450.109375 71.539062 449.992188 71.261719 C 449.878906 70.984375 449.820312 70.695312 449.820312 70.394531 C 449.820312 70.09375 449.878906 69.804688 449.992188 69.527344 C 450.109375 69.25 450.273438 69.007812 450.484375 68.792969 C 450.695312 68.582031 450.941406 68.417969 451.21875 68.304688 C 451.496094 68.1875 451.785156 68.132812 452.085938 68.132812 C 452.386719 68.132812 452.675781 68.1875 452.953125 68.304688 C 453.230469 68.417969 453.476562 68.582031 453.6875 68.792969 C 453.902344 69.007812 454.066406 69.25 454.179688 69.527344 C 454.296875 69.804688 454.351562 70.09375 454.351562 70.394531 Z M 454.351562 70.394531 " fill-opacity="1" fill-rule="nonzero"/><path fill="rgb(12.548828%, 6.269836%, 6.269836%)" d="M 448.140625 77.101562 C 447.636719 76.09375 447.136719 75.089844 446.632812 74.082031 C 446.296875 73.410156 447.304688 72.910156 447.636719 73.578125 C 448.226562 74.753906 448.898438 75.925781 449.484375 77.101562 C 449.652344 77.433594 449.652344 77.769531 449.570312 78.023438 C 449.402344 78.273438 449.148438 78.523438 448.898438 78.609375 C 448.308594 78.859375 447.554688 79.027344 446.96875 79.195312 C 446.632812 79.28125 446.378906 79.027344 446.296875 78.777344 C 446.210938 78.441406 446.378906 78.191406 446.714844 78.105469 C 447.21875 77.9375 447.804688 77.769531 448.308594 77.601562 C 448.394531 77.601562 448.394531 77.519531 448.476562 77.519531 C 448.394531 77.433594 448.226562 77.183594 448.140625 77.101562 Z M 448.140625 77.101562 " fill-opacity="1" fill-rule="nonzero"/><path fill="rgb(12.548828%, 6.269836%, 6.269836%)" d="M 437.0625 61.175781 C 434.546875 62.347656 431.777344 63.101562 429.007812 62.933594 C 428.335938 62.933594 427.496094 62.765625 427.160156 62.179688 C 425.230469 58.996094 436.054688 56.394531 437.902344 57.570312 C 439.496094 58.660156 438.492188 60.503906 437.0625 61.175781 Z M 437.0625 61.175781 " fill-opacity="1" fill-rule="nonzero"/><path fill="rgb(12.548828%, 6.269836%, 6.269836%)" d="M 457.039062 63.019531 C 454.605469 62.765625 452.253906 62.179688 450.242188 60.839844 C 449.738281 60.503906 449.148438 60.085938 449.148438 59.414062 C 449.066406 56.144531 458.382812 58.910156 459.222656 60.585938 C 459.976562 62.261719 458.382812 63.1875 457.039062 63.019531 Z M 457.039062 63.019531 " fill-opacity="1" fill-rule="nonzero"/><path fill="rgb(100%, 100%, 100%)" d="M 449.402344 83.136719 C 449.402344 83.136719 434.210938 84.058594 434.210938 84.058594 C 434.292969 84.058594 434.796875 85.148438 434.882812 85.230469 C 435.46875 86.152344 436.222656 86.992188 437.148438 87.660156 C 440 90.007812 444.535156 90.761719 447.386719 87.914062 C 448.644531 86.738281 449.234375 84.980469 449.402344 83.136719 Z M 449.402344 83.136719 " fill-opacity="1" fill-rule="nonzero"/><path fill="rgb(12.548828%, 6.269836%, 6.269836%)" d="M 405.171875 67.628906 C 406.765625 69.222656 407.519531 71.316406 407.855469 73.496094 C 408.277344 76.011719 408.359375 78.609375 408.191406 81.207031 C 408.109375 81.878906 407.519531 82.046875 407.101562 81.960938 C 407.101562 81.960938 407.015625 81.960938 407.015625 81.960938 L 406.851562 81.878906 C 406.683594 81.792969 406.515625 81.710938 406.347656 81.460938 C 405.507812 79.949219 404.835938 78.273438 404.5 76.511719 C 404.332031 75.675781 404.246094 74.753906 404.582031 73.914062 C 404.835938 73.246094 405.339844 72.65625 406.09375 72.488281 C 405.757812 71.066406 405.171875 69.722656 404.078125 68.71875 C 403.242188 68.046875 404.414062 66.875 405.171875 67.628906 Z M 405.171875 67.628906 " fill-opacity="1" fill-rule="nonzero"/><path fill="rgb(33.729553%, 34.899902%, 61.959839%)" d="M 429.511719 143.402344 L 431.1875 134.015625 C 431.1875 134.015625 440.253906 131.921875 443.105469 122.699219 L 488.59375 136.027344 C 488.59375 136.027344 509.578125 142.648438 516.878906 167.292969 C 524.265625 191.9375 527.707031 205.433594 527.707031 205.433594 L 494.554688 211.71875 L 483.222656 175.425781 L 475 239.464844 L 387.796875 239.464844 L 376.214844 174.835938 L 363.207031 214.152344 L 331.902344 202.667969 L 347.175781 160.335938 C 347.175781 160.335938 350.785156 146.925781 375.039062 138.457031 L 415.996094 122.53125 C 415.996094 122.53125 419.523438 133.597656 427.410156 133.847656 Z M 429.511719 143.402344 " fill-opacity="1" fill-rule="nonzero"/><path fill="rgb(81.959534%, 79.60968%, 92.939758%)" d="M 487.589844 195.960938 C 488.59375 211.132812 477.433594 222.617188 477.097656 222.953125 L 474.914062 239.550781 L 387.042969 239.550781 L 383.769531 220.941406 C 380.914062 217.921875 372.773438 208.117188 373.027344 195.375 C 373.277344 183.972656 372.691406 165.367188 372.355469 156.398438 L 369.5 140.386719 L 397.113281 129.742188 C 397.113281 129.742188 401.226562 149.105469 429.257812 148.433594 C 429.257812 148.433594 453.765625 147.261719 461.90625 128.316406 L 488.511719 136.027344 L 486.414062 151.871094 C 486.414062 151.871094 486.582031 180.621094 487.589844 195.960938 Z M 487.589844 195.960938 " fill-opacity="1" fill-rule="nonzero"/><path fill="rgb(100%, 100%, 100%)" d="M 401.394531 199.3125 C 399.042969 199.3125 396.609375 199.230469 394.175781 198.980469 C 392.582031 198.8125 391.15625 199.0625 389.644531 198.894531 C 386.203125 198.476562 376.046875 198.644531 373.109375 198.308594 L 373.109375 186.574219 C 377.558594 186.65625 387.292969 186.992188 391.492188 186.910156 C 392.832031 186.910156 394.007812 186.742188 395.351562 186.910156 C 399.378906 187.242188 403.492188 187.160156 407.773438 186.992188 L 487.085938 184.8125 L 487.671875 197.050781 L 408.109375 199.0625 C 405.925781 199.230469 403.660156 199.3125 401.394531 199.3125 Z M 401.394531 199.3125 " fill-opacity="1" fill-rule="nonzero"/><path fill="rgb(100%, 100%, 100%)" d="M 394.597656 192.273438 C 392.917969 184.8125 390.820312 177.269531 388.722656 170.058594 C 385.53125 158.660156 382.59375 148.015625 380.746094 135.945312 L 391.238281 132.089844 C 392.917969 143.488281 396.023438 156.0625 399.128906 167.125 C 401.226562 174.585938 403.410156 182.214844 405.085938 189.925781 Z M 394.597656 192.273438 " fill-opacity="1" fill-rule="nonzero"/><path fill="rgb(100%, 100%, 100%)" d="M 467.78125 186.65625 L 457.039062 185.566406 C 458.800781 167.628906 462.828125 147.261719 466.859375 129.742188 L 476.84375 132.589844 C 472.902344 149.691406 469.460938 169.136719 467.78125 186.65625 Z M 467.78125 186.65625 " fill-opacity="1" fill-rule="nonzero"/><g clip-path="url(#clip-5)"><path fill="rgb(100%, 100%, 100%)" d="M 306.136719 191.183594 C 306.136719 191.183594 441.679688 250.109375 553.386719 191.183594 C 553.386719 191.183594 513.355469 266.457031 524.769531 332.257812 C 524.769531 332.257812 435.21875 360.339844 338.953125 331.335938 C 338.953125 331.417969 341.300781 231.503906 306.136719 191.183594 Z M 306.136719 191.183594 " fill-opacity="1" fill-rule="nonzero"/></g><path fill="rgb(33.729553%, 34.899902%, 61.959839%)" d="M 431.691406 336.449219 C 402.066406 336.449219 373.613281 332.675781 347.09375 325.300781 C 347.007812 306.019531 345.078125 247.09375 325.773438 206.941406 C 350.28125 214.820312 392.078125 225.46875 439.664062 225.46875 C 475.082031 225.46875 507.648438 219.515625 536.855469 207.78125 C 526.027344 233.933594 510.332031 281.210938 515.703125 326.390625 C 502.613281 329.742188 471.136719 336.449219 431.691406 336.449219 Z M 431.691406 336.449219 " fill-opacity="1" fill-rule="nonzero"/><path fill="rgb(81.959534%, 79.60968%, 92.939758%)" d="M 408.191406 82.714844 C 407.519531 82.128906 406.765625 83.304688 407.4375 83.890625 C 408.863281 85.148438 409.789062 87.160156 409.789062 89.085938 C 409.789062 91.015625 408.863281 92.773438 407.4375 93.949219 C 404.5 96.210938 399.882812 94.785156 398.707031 91.015625 C 398.039062 89.003906 398.457031 86.65625 399.800781 85.0625 C 400.386719 84.394531 399.464844 83.304688 398.875 83.972656 C 397.367188 85.734375 396.695312 88.082031 397.199219 90.511719 C 397.617188 92.859375 399.210938 94.785156 401.226562 95.792969 C 405.507812 97.972656 410.625 94.953125 411.214844 90.007812 C 411.382812 87.242188 410.207031 84.476562 408.191406 82.714844 Z M 408.191406 82.714844 " fill-opacity="1" fill-rule="nonzero"/><path fill="rgb(87.838745%, 47.059631%, 31.369019%)" d="M 324.769531 240.640625 L 337.105469 248.519531 C 337.105469 248.519531 339.457031 251.199219 337.023438 252.792969 L 333.078125 252.289062 L 337.1875 254.386719 C 337.1875 254.386719 340.460938 256.0625 338.53125 259.835938 C 338.53125 259.835938 342.058594 262.9375 339.457031 265.535156 L 337.609375 266.203125 L 340.378906 267.882812 C 340.378906 267.882812 342.644531 270.480469 340.125 271.90625 L 330.476562 271.402344 C 330.476562 271.402344 327.621094 269.558594 328.542969 265.785156 C 328.542969 265.785156 322.585938 263.1875 325.355469 257.488281 C 325.355469 257.488281 321.410156 253.296875 324.347656 249.441406 C 324.347656 249.441406 318.894531 246.253906 321.578125 242.316406 C 321.578125 242.316406 322.585938 240.554688 324.769531 240.640625 Z M 324.769531 240.640625 " fill-opacity="1" fill-rule="nonzero"/><path fill="rgb(12.548828%, 6.269836%, 6.269836%)" d="M 332.824219 251.453125 C 330.390625 250.699219 327.957031 249.859375 325.605469 248.9375 C 325.019531 248.6875 324.601562 249.609375 325.1875 249.777344 C 327.621094 250.78125 330.140625 251.621094 332.65625 252.375 C 332.910156 252.457031 333.160156 252.207031 333.246094 251.953125 C 333.246094 251.703125 333.078125 251.535156 332.824219 251.453125 Z M 332.824219 251.453125 " fill-opacity="1" fill-rule="nonzero"/><path fill="rgb(12.548828%, 6.269836%, 6.269836%)" d="M 337.777344 259.078125 C 334.085938 258.492188 330.390625 257.90625 326.78125 257.152344 C 326.195312 257.066406 325.941406 257.988281 326.613281 258.074219 C 330.308594 258.746094 334 259.414062 337.609375 260.003906 C 338.195312 260.167969 338.449219 259.164062 337.777344 259.078125 Z M 337.777344 259.078125 " fill-opacity="1" fill-rule="nonzero"/><path fill="rgb(12.548828%, 6.269836%, 6.269836%)" d="M 336.6875 265.703125 C 334.503906 265.617188 332.238281 265.367188 330.054688 265.03125 C 329.46875 264.949219 329.214844 265.871094 329.886719 265.953125 C 332.152344 266.289062 334.417969 266.539062 336.769531 266.625 C 337.023438 266.625 337.273438 266.371094 337.1875 266.121094 C 337.1875 265.871094 336.9375 265.703125 336.6875 265.703125 Z M 336.6875 265.703125 " fill-opacity="1" fill-rule="nonzero"/><path fill="rgb(87.838745%, 47.059631%, 31.369019%)" d="M 536.9375 235.441406 L 524.601562 243.320312 C 524.601562 243.320312 522.25 246.003906 524.683594 247.597656 L 528.628906 247.09375 L 524.515625 249.1875 C 524.515625 249.1875 521.242188 250.867188 523.175781 254.636719 C 523.175781 254.636719 519.648438 257.738281 522.25 260.335938 L 524.097656 261.007812 L 521.328125 262.683594 C 521.328125 262.683594 519.0625 265.28125 521.578125 266.707031 L 531.148438 266.289062 C 531.148438 266.289062 534 264.445312 533.078125 260.671875 C 533.078125 260.671875 539.035156 258.074219 536.265625 252.375 C 536.265625 252.375 540.210938 248.183594 537.273438 244.328125 C 537.273438 244.328125 542.730469 241.140625 540.042969 237.203125 C 540.128906 237.203125 539.035156 235.441406 536.9375 235.441406 Z M 536.9375 235.441406 " fill-opacity="1" fill-rule="nonzero"/><path fill="rgb(12.548828%, 6.269836%, 6.269836%)" d="M 528.882812 246.253906 C 531.316406 245.5 533.75 244.664062 536.097656 243.742188 C 536.6875 243.488281 537.105469 244.410156 536.519531 244.578125 C 534.085938 245.585938 531.566406 246.421875 529.050781 247.175781 C 528.796875 247.261719 528.546875 247.007812 528.460938 246.757812 C 528.460938 246.589844 528.628906 246.339844 528.882812 246.253906 Z M 528.882812 246.253906 " fill-opacity="1" fill-rule="nonzero"/><path fill="rgb(12.548828%, 6.269836%, 6.269836%)" d="M 523.84375 253.964844 C 527.539062 253.378906 531.230469 252.792969 534.839844 252.039062 C 535.425781 251.953125 535.679688 252.878906 535.007812 252.960938 C 531.316406 253.632812 527.621094 254.300781 524.011719 254.890625 C 523.425781 254.972656 523.257812 254.050781 523.84375 253.964844 Z M 523.84375 253.964844 " fill-opacity="1" fill-rule="nonzero"/><path fill="rgb(12.548828%, 6.269836%, 6.269836%)" d="M 525.019531 260.503906 C 527.203125 260.421875 529.46875 260.167969 531.652344 259.835938 C 532.238281 259.75 532.488281 260.671875 531.820312 260.757812 C 529.550781 261.089844 527.285156 261.34375 524.9375 261.425781 C 524.683594 261.425781 524.433594 261.175781 524.515625 260.925781 C 524.515625 260.671875 524.683594 260.503906 525.019531 260.503906 Z M 525.019531 260.503906 " fill-opacity="1" fill-rule="nonzero"/><path fill="rgb(100%, 100%, 100%)" d="M 500.847656 301.578125 C 484.398438 298.558594 467.445312 298.226562 450.828125 300.65625 C 446.378906 301.328125 442.015625 302.164062 437.566406 303.171875 C 439.414062 287.832031 439.582031 272.324219 438.070312 256.902344 C 437.652344 252.625 437.0625 248.351562 436.390625 244.074219 C 436.308594 243.65625 435.636719 243.824219 435.722656 244.242188 C 438.15625 259.5 438.910156 275.007812 437.988281 290.429688 C 437.734375 294.703125 437.316406 298.980469 436.8125 303.253906 C 436.726562 303.253906 436.726562 303.253906 436.644531 303.253906 C 436.222656 303.339844 436.390625 304.007812 436.8125 303.925781 C 452.925781 299.984375 469.710938 298.726562 486.246094 300.238281 C 491.03125 300.65625 495.8125 301.328125 500.511719 302.164062 C 501.101562 302.332031 501.269531 301.660156 500.847656 301.578125 Z M 500.847656 301.578125 " fill-opacity="1" fill-rule="nonzero"/><path fill="rgb(100%, 100%, 100%)" d="M 405.171875 282.800781 C 392.664062 282.300781 380.160156 281.542969 367.738281 280.539062 C 367.488281 280.539062 367.402344 280.789062 367.488281 281.042969 C 367.320312 281.042969 367.152344 281.125 367.234375 281.375 C 367.90625 293.699219 368.578125 306.019531 369.25 318.34375 C 369.25 318.34375 369.164062 318.34375 369.164062 318.34375 C 368.746094 318.34375 368.746094 319.011719 369.164062 319.011719 C 369.25 319.011719 369.25 319.011719 369.332031 319.011719 C 369.332031 319.097656 369.332031 319.179688 369.332031 319.265625 C 369.332031 319.683594 370.003906 319.683594 370.003906 319.265625 C 370.003906 319.179688 370.003906 319.097656 370.003906 319.011719 C 381.585938 318.761719 393.085938 319.265625 404.582031 320.605469 C 404.75 320.605469 404.835938 320.523438 404.835938 320.4375 C 405.003906 320.523438 405.339844 320.523438 405.339844 320.1875 L 405.339844 283.472656 C 405.589844 283.386719 405.589844 282.886719 405.171875 282.800781 Z M 369.835938 318.34375 C 369.164062 306.019531 368.496094 293.699219 367.824219 281.375 C 367.824219 281.292969 367.824219 281.292969 367.738281 281.292969 C 379.992188 282.214844 392.246094 282.96875 404.582031 283.554688 L 404.582031 320.101562 C 404.5 320.101562 404.5 320.019531 404.414062 320.019531 C 393 318.59375 381.417969 318.089844 369.835938 318.34375 Z M 369.835938 318.34375 " fill-opacity="1" fill-rule="nonzero"/><path fill="rgb(100%, 100%, 100%)" d="M 493.546875 266.121094 C 493.464844 266.121094 493.464844 266.121094 493.546875 266.121094 L 456.703125 266.121094 C 456.617188 266.121094 456.617188 266.121094 456.535156 266.203125 C 456.535156 266.203125 456.449219 266.203125 456.449219 266.203125 C 456.449219 266.203125 456.449219 266.289062 456.449219 266.289062 C 456.449219 266.371094 456.367188 266.371094 456.367188 266.457031 L 456.367188 288.921875 C 456.367188 289.339844 457.039062 289.339844 457.039062 288.921875 L 457.039062 266.792969 L 493.464844 266.792969 L 493.464844 288.921875 C 493.464844 289.339844 494.136719 289.339844 494.136719 288.921875 L 494.136719 266.371094 C 494.050781 266.039062 493.714844 266.039062 493.546875 266.121094 Z M 493.546875 266.121094 " fill-opacity="1" fill-rule="nonzero"/><path fill="rgb(100%, 100%, 100%)" d="M 517.886719 230.160156 C 496.066406 232.257812 474.074219 234.269531 452.085938 233.429688 C 445.875 233.179688 439.664062 232.675781 433.539062 231.921875 C 433.117188 231.835938 433.117188 232.507812 433.539062 232.59375 C 437.398438 233.09375 441.261719 233.429688 445.203125 233.679688 C 445.203125 233.765625 445.121094 233.765625 445.121094 233.847656 C 445.203125 236.449219 445.289062 239.046875 445.371094 241.5625 C 445.371094 241.980469 446.042969 241.980469 446.042969 241.5625 C 445.960938 238.960938 445.875 236.363281 445.792969 233.847656 C 445.792969 233.765625 445.792969 233.765625 445.707031 233.679688 C 450.996094 234.015625 456.285156 234.183594 461.570312 234.183594 C 461.570312 234.269531 461.488281 234.269531 461.488281 234.351562 L 461.488281 241.894531 C 461.488281 242.316406 462.15625 242.316406 462.15625 241.894531 L 462.15625 234.351562 C 462.15625 234.269531 462.15625 234.269531 462.074219 234.183594 C 467.109375 234.183594 472.144531 234.015625 477.265625 233.847656 C 477.097656 233.847656 477.011719 233.933594 477.011719 234.183594 L 477.011719 241.226562 C 477.011719 241.644531 477.683594 241.644531 477.683594 241.226562 L 477.683594 234.183594 C 477.683594 234.015625 477.515625 233.933594 477.433594 233.847656 C 482.21875 233.679688 486.917969 233.347656 491.699219 233.011719 L 491.699219 240.136719 C 491.699219 240.554688 492.371094 240.554688 492.371094 240.136719 L 492.371094 232.925781 C 494.722656 232.757812 496.988281 232.59375 499.339844 232.425781 C 501.773438 232.257812 504.289062 232.003906 506.722656 231.753906 L 506.722656 239.464844 C 506.722656 239.882812 507.394531 239.882812 507.394531 239.464844 L 507.394531 231.753906 C 510.921875 231.417969 514.445312 231.082031 517.886719 230.746094 C 518.304688 230.746094 518.304688 230.078125 517.886719 230.160156 Z M 517.886719 230.160156 " fill-opacity="1" fill-rule="nonzero"/><path fill="rgb(100%, 100%, 100%)" d="M 494.804688 316.164062 C 474.410156 317 454.015625 317.757812 433.621094 318.59375 C 427.914062 318.84375 422.207031 319.011719 416.5 319.265625 C 416.082031 319.265625 416.082031 319.933594 416.5 319.933594 C 436.894531 319.097656 457.289062 318.34375 477.683594 317.503906 C 483.390625 317.253906 489.097656 317.085938 494.804688 316.832031 C 495.226562 316.832031 495.226562 316.164062 494.804688 316.164062 Z M 494.804688 316.164062 " fill-opacity="1" fill-rule="nonzero"/><path fill="rgb(100%, 100%, 100%)" d="M 393.925781 238.542969 L 366.5625 238.542969 C 366.480469 238.207031 365.894531 238.292969 365.976562 238.628906 C 366.0625 246.421875 366.144531 254.21875 366.226562 262.015625 C 366.226562 262.433594 366.898438 262.433594 366.898438 262.015625 C 366.816406 254.386719 366.730469 246.757812 366.648438 239.128906 L 393.335938 239.128906 C 393.335938 239.128906 393.253906 239.214844 393.253906 239.214844 C 393.421875 249.777344 386.539062 259.332031 376.46875 262.515625 C 373.699219 263.355469 370.761719 263.691406 367.90625 263.605469 C 367.488281 263.605469 367.488281 264.277344 367.90625 264.277344 C 378.648438 264.863281 388.804688 258.242188 392.414062 248.097656 C 393.421875 245.25 393.925781 242.316406 393.839844 239.296875 C 393.839844 239.214844 393.839844 239.214844 393.757812 239.214844 C 394.34375 239.214844 394.34375 238.542969 393.925781 238.542969 Z M 393.925781 238.542969 " fill-opacity="1" fill-rule="nonzero"/><path fill="rgb(100%, 100%, 100%)" d="M 349.863281 226.554688 L 349.863281 232.003906 C 349.863281 232.425781 350.535156 232.425781 350.535156 232.003906 L 350.535156 226.554688 C 350.535156 226.136719 349.863281 226.136719 349.863281 226.554688 Z M 349.863281 226.554688 " fill-opacity="1" fill-rule="nonzero"/><path fill="rgb(100%, 100%, 100%)" d="M 350.113281 238.460938 L 350.113281 246.253906 C 350.113281 246.675781 350.785156 246.675781 350.785156 246.253906 L 350.785156 238.460938 C 350.785156 238.039062 350.113281 238.039062 350.113281 238.460938 Z M 350.113281 238.460938 " fill-opacity="1" fill-rule="nonzero"/><path fill="rgb(100%, 100%, 100%)" d="M 350.785156 254.554688 L 350.785156 260.085938 C 350.785156 260.503906 351.457031 260.503906 351.457031 260.085938 L 351.457031 254.554688 C 351.457031 254.050781 350.785156 254.050781 350.785156 254.554688 Z M 350.785156 254.554688 " fill-opacity="1" fill-rule="nonzero"/><path fill="rgb(100%, 100%, 100%)" d="M 352.210938 271.234375 L 352.210938 277.6875 C 352.210938 278.109375 352.882812 278.109375 352.882812 277.6875 L 352.882812 271.234375 C 352.882812 270.816406 352.210938 270.816406 352.210938 271.234375 Z M 352.210938 271.234375 " fill-opacity="1" fill-rule="nonzero"/><path fill="rgb(100%, 100%, 100%)" d="M 352.882812 285.734375 L 352.882812 291.6875 C 352.882812 292.105469 353.554688 292.105469 353.554688 291.6875 L 353.554688 285.734375 C 353.554688 285.316406 352.882812 285.316406 352.882812 285.734375 Z M 352.882812 285.734375 " fill-opacity="1" fill-rule="nonzero"/><path fill="rgb(100%, 100%, 100%)" d="M 353.304688 299.0625 L 353.304688 304.34375 C 353.304688 304.761719 353.976562 304.761719 353.976562 304.34375 L 353.976562 299.0625 C 354.058594 298.644531 353.304688 298.644531 353.304688 299.0625 Z M 353.304688 299.0625 " fill-opacity="1" fill-rule="nonzero"/><path fill="rgb(100%, 100%, 100%)" d="M 354.226562 313.480469 L 354.226562 319.433594 C 354.226562 319.851562 354.898438 319.851562 354.898438 319.433594 L 354.898438 313.480469 C 354.898438 313.0625 354.226562 313.0625 354.226562 313.480469 Z M 354.226562 313.480469 " fill-opacity="1" fill-rule="nonzero"/><path fill="rgb(100%, 100%, 100%)" d="M 369.082031 272.324219 L 363.125 272.324219 C 362.703125 272.324219 362.703125 272.996094 363.125 272.996094 L 369.082031 272.996094 C 369.5 272.996094 369.5 272.324219 369.082031 272.324219 Z M 369.082031 272.324219 " fill-opacity="1" fill-rule="nonzero"/><path fill="rgb(100%, 100%, 100%)" d="M 376.886719 272.074219 L 373.195312 272.074219 C 372.773438 272.074219 372.773438 272.742188 373.195312 272.742188 L 376.886719 272.742188 C 377.308594 272.742188 377.308594 272.074219 376.886719 272.074219 Z M 376.886719 272.074219 " fill-opacity="1" fill-rule="nonzero"/><path fill="rgb(100%, 100%, 100%)" d="M 385.195312 272.574219 L 381.753906 272.574219 C 381.335938 272.574219 381.335938 273.246094 381.753906 273.246094 L 385.195312 273.246094 C 385.617188 273.246094 385.617188 272.574219 385.195312 272.574219 Z M 385.195312 272.574219 " fill-opacity="1" fill-rule="nonzero"/><path fill="rgb(100%, 100%, 100%)" d="M 398.039062 272.574219 L 394.09375 272.574219 C 393.671875 272.574219 393.671875 273.246094 394.09375 273.246094 L 398.039062 273.246094 C 398.457031 273.246094 398.457031 272.574219 398.039062 272.574219 Z M 398.039062 272.574219 " fill-opacity="1" fill-rule="nonzero"/><path fill="rgb(100%, 100%, 100%)" d="M 411.382812 273.246094 L 407.015625 273.246094 C 406.597656 273.246094 406.597656 273.917969 407.015625 273.917969 L 411.382812 273.917969 C 411.800781 273.917969 411.800781 273.246094 411.382812 273.246094 Z M 411.382812 273.246094 " fill-opacity="1" fill-rule="nonzero"/><path fill="rgb(100%, 100%, 100%)" d="M 424.472656 273.496094 L 420.109375 273.496094 C 419.691406 273.496094 419.691406 274.167969 420.109375 274.167969 L 424.472656 274.167969 C 424.894531 274.167969 424.894531 273.496094 424.472656 273.496094 Z M 424.472656 273.496094 " fill-opacity="1" fill-rule="nonzero"/><path fill="rgb(100%, 100%, 100%)" d="M 434.378906 272.742188 L 431.859375 272.742188 C 431.441406 272.742188 431.441406 273.414062 431.859375 273.414062 L 434.378906 273.414062 C 434.796875 273.414062 434.796875 272.742188 434.378906 272.742188 Z M 434.378906 272.742188 " fill-opacity="1" fill-rule="nonzero"/><path fill="rgb(12.548828%, 6.269836%, 6.269836%)" d="M 443.527344 100.570312 C 443.527344 100.570312 436.222656 104.007812 427.832031 101.074219 L 443.527344 115.324219 Z M 443.527344 100.570312 " fill-opacity="1" fill-rule="nonzero"/><path fill="rgb(14.509583%, 6.669617%, 6.669617%)" d="M 749.992188 98.070312 C 749.992188 98.769531 749.957031 99.46875 749.890625 100.167969 C 749.820312 100.863281 749.71875 101.558594 749.582031 102.246094 C 749.445312 102.933594 749.273438 103.609375 749.070312 104.28125 C 748.867188 104.953125 748.632812 105.613281 748.363281 106.257812 C 748.09375 106.90625 747.796875 107.539062 747.464844 108.15625 C 747.132812 108.773438 746.773438 109.375 746.386719 109.957031 C 745.996094 110.539062 745.578125 111.101562 745.132812 111.644531 C 744.6875 112.1875 744.21875 112.707031 743.722656 113.199219 C 743.226562 113.695312 742.707031 114.167969 742.167969 114.609375 C 741.625 115.054688 741.0625 115.472656 740.480469 115.863281 C 739.894531 116.25 739.296875 116.609375 738.675781 116.941406 C 738.058594 117.273438 737.425781 117.570312 736.777344 117.839844 C 736.128906 118.109375 735.472656 118.34375 734.800781 118.546875 C 734.128906 118.75 733.449219 118.921875 732.761719 119.058594 C 732.074219 119.195312 731.382812 119.296875 730.683594 119.363281 C 729.988281 119.433594 729.289062 119.46875 728.585938 119.46875 C 727.886719 119.46875 727.1875 119.433594 726.488281 119.363281 C 725.792969 119.296875 725.097656 119.195312 724.410156 119.058594 C 723.722656 118.921875 723.042969 118.75 722.375 118.546875 C 721.703125 118.34375 721.042969 118.109375 720.394531 117.839844 C 719.746094 117.570312 719.113281 117.273438 718.496094 116.941406 C 717.878906 116.609375 717.277344 116.25 716.695312 115.863281 C 716.113281 115.472656 715.550781 115.054688 715.007812 114.609375 C 714.464844 114.167969 713.945312 113.695312 713.449219 113.199219 C 712.957031 112.707031 712.484375 112.1875 712.039062 111.644531 C 711.59375 111.101562 711.179688 110.539062 710.789062 109.957031 C 710.398438 109.375 710.039062 108.773438 709.707031 108.15625 C 709.378906 107.539062 709.078125 106.90625 708.8125 106.257812 C 708.542969 105.613281 708.304688 104.953125 708.101562 104.28125 C 707.898438 103.609375 707.730469 102.933594 707.59375 102.246094 C 707.457031 101.558594 707.351562 100.863281 707.285156 100.167969 C 707.214844 99.46875 707.179688 98.769531 707.179688 98.070312 C 707.179688 97.371094 707.214844 96.671875 707.285156 95.972656 C 707.351562 95.273438 707.457031 94.582031 707.59375 93.894531 C 707.730469 93.207031 707.898438 92.527344 708.101562 91.859375 C 708.304688 91.1875 708.542969 90.527344 708.8125 89.882812 C 709.078125 89.234375 709.378906 88.601562 709.707031 87.984375 C 710.039062 87.363281 710.398438 86.765625 710.789062 86.183594 C 711.179688 85.597656 711.59375 85.035156 712.039062 84.496094 C 712.484375 83.953125 712.957031 83.433594 713.449219 82.9375 C 713.945312 82.445312 714.464844 81.972656 715.007812 81.527344 C 715.550781 81.085938 716.113281 80.667969 716.695312 80.277344 C 717.277344 79.890625 717.878906 79.527344 718.496094 79.199219 C 719.113281 78.867188 719.746094 78.570312 720.394531 78.300781 C 721.042969 78.03125 721.703125 77.796875 722.375 77.59375 C 723.042969 77.390625 723.722656 77.21875 724.410156 77.082031 C 725.097656 76.945312 725.792969 76.84375 726.488281 76.773438 C 727.1875 76.707031 727.886719 76.671875 728.585938 76.671875 C 729.289062 76.671875 729.988281 76.707031 730.683594 76.773438 C 731.382812 76.84375 732.074219 76.945312 732.761719 77.082031 C 733.449219 77.21875 734.128906 77.390625 734.800781 77.59375 C 735.472656 77.796875 736.128906 78.03125 736.777344 78.300781 C 737.425781 78.570312 738.058594 78.867188 738.675781 79.199219 C 739.296875 79.527344 739.894531 79.890625 740.480469 80.277344 C 741.0625 80.667969 741.625 81.085938 742.167969 81.527344 C 742.707031 81.972656 743.226562 82.445312 743.722656 82.9375 C 744.21875 83.433594 744.6875 83.953125 745.132812 84.496094 C 745.578125 85.035156 745.996094 85.597656 746.386719 86.183594 C 746.773438 86.765625 747.132812 87.363281 747.464844 87.984375 C 747.796875 88.601562 748.09375 89.234375 748.363281 89.882812 C 748.632812 90.527344 748.867188 91.1875 749.070312 91.859375 C 749.273438 92.527344 749.445312 93.207031 749.582031 93.894531 C 749.71875 94.582031 749.820312 95.273438 749.890625 95.972656 C 749.957031 96.671875 749.992188 97.371094 749.992188 98.070312 Z M 749.992188 98.070312 " fill-opacity="1" fill-rule="nonzero"/><g clip-path="url(#clip-6)"><path fill="rgb(14.509583%, 6.669617%, 6.669617%)" d="M 691.589844 40.445312 C 694.625 48.28125 699.257812 56.03125 708.359375 59.148438 C 708.359375 62.265625 708.359375 66.984375 708.359375 70.101562 C 709.878906 70.101562 709.878906 70.101562 711.394531 70.101562 C 715.609375 58.726562 732.800781 61.253906 734.992188 71.113281 C 736.59375 62.097656 737.855469 51.398438 735.496094 42.132812 C 733.304688 33.203125 726.648438 24.777344 718.390625 20.480469 C 709.035156 15.59375 698.078125 14.414062 687.882812 14.5 C 679.960938 14.5 671.535156 16.4375 664.117188 19.890625 C 653.835938 24.609375 645.914062 35.898438 646.421875 47.859375 C 646.421875 47.859375 646.421875 48.113281 646.421875 48.28125 C 662.601562 48.28125 678.359375 49.375 691.589844 40.445312 Z M 691.589844 40.445312 " fill-opacity="1" fill-rule="nonzero"/></g><path fill="rgb(97.24884%, 67.059326%, 58.039856%)" d="M 672.546875 115.171875 C 672.125 116.605469 672.292969 161.421875 672.292969 161.421875 L 706.761719 161.757812 L 707.097656 100.511719 Z M 672.546875 115.171875 " fill-opacity="1" fill-rule="nonzero"/><path fill="rgb(14.509583%, 6.669617%, 6.669617%)" d="M 672.207031 129.410156 L 699.847656 107.84375 L 672.292969 108.9375 Z M 672.207031 129.410156 " fill-opacity="1" fill-rule="nonzero"/><path fill="rgb(97.24884%, 67.059326%, 58.039856%)" d="M 735.917969 68.078125 C 734.570312 64.710938 731.789062 62.183594 727.492188 61.003906 C 724.625 60.246094 721.421875 60.160156 718.640625 61.339844 C 717.210938 61.929688 715.777344 62.6875 714.851562 63.867188 C 713.671875 65.382812 712.660156 67.320312 712.40625 67.828125 C 712.40625 67.910156 712.320312 67.996094 712.152344 67.996094 L 709.457031 68.078125 C 709.289062 68.078125 709.203125 67.996094 709.203125 67.828125 L 709.035156 57.464844 C 709.035156 57.378906 708.949219 57.296875 708.867188 57.210938 C 699.765625 54.261719 695.046875 46.847656 691.84375 39.351562 C 691.757812 39.183594 691.589844 39.183594 691.507812 39.265625 C 678.445312 48.199219 662.433594 47.4375 646.25 47.609375 C 646.503906 52.074219 648.527344 89.054688 648.527344 89.054688 C 648.695312 91.667969 649.621094 94.53125 650.550781 96.976562 C 656.871094 113.148438 677.097656 119.46875 692.769531 114.496094 C 703.640625 111.042969 712.660156 102.03125 715.945312 90.992188 C 716.199219 90.152344 716.453125 89.222656 716.535156 88.296875 C 716.535156 88.128906 716.703125 87.960938 716.871094 88.128906 C 726.058594 93.605469 735.074219 85.519531 736.507812 76.25 C 737.097656 73.21875 736.84375 70.4375 735.917969 68.078125 Z M 735.917969 68.078125 " fill-opacity="1" fill-rule="nonzero"/><path fill="rgb(14.509583%, 6.669617%, 6.669617%)" d="M 669.003906 87.539062 C 668.585938 87.457031 668.078125 87.457031 667.65625 87.371094 C 667.488281 87.371094 667.234375 87.371094 666.984375 87.371094 C 666.984375 87.285156 667.066406 87.117188 667.066406 87.035156 C 667.152344 86.695312 667.234375 86.445312 667.320312 86.105469 C 667.488281 85.519531 667.574219 84.84375 667.742188 84.253906 C 667.996094 82.992188 668.332031 81.726562 668.585938 80.546875 C 668.835938 79.621094 667.320312 79.199219 667.066406 80.125 C 666.644531 82.148438 666.140625 84.167969 665.71875 86.191406 C 665.550781 87.035156 664.960938 88.464844 666.140625 88.804688 C 666.5625 88.972656 667.152344 88.886719 667.574219 88.972656 L 669.089844 89.140625 C 669.511719 89.140625 669.847656 88.71875 669.847656 88.382812 C 669.765625 87.875 669.425781 87.625 669.003906 87.539062 Z M 669.003906 87.539062 " fill-opacity="1" fill-rule="nonzero"/><path fill="rgb(14.509583%, 6.669617%, 6.669617%)" d="M 726.984375 65.382812 C 724.457031 66.730469 722.855469 69.175781 721.675781 71.703125 C 720.328125 74.734375 719.316406 77.9375 718.640625 81.136719 C 718.472656 81.980469 719.148438 82.484375 719.738281 82.402344 C 719.824219 82.402344 719.824219 82.402344 719.90625 82.402344 L 720.160156 82.316406 C 720.414062 82.316406 720.664062 82.230469 720.917969 81.980469 C 722.433594 80.378906 723.867188 78.527344 724.878906 76.503906 C 725.382812 75.492188 725.804688 74.398438 725.722656 73.300781 C 725.636719 72.375 725.214844 71.449219 724.375 71.027344 C 725.300781 69.425781 726.480469 67.996094 728.164062 67.066406 C 729.261719 66.5625 728.164062 64.710938 726.984375 65.382812 Z M 726.984375 65.382812 " fill-opacity="1" fill-rule="nonzero"/><path fill="rgb(81.959534%, 79.60968%, 92.939758%)" d="M 667.488281 142.128906 L 632.769531 149.121094 C 632.769531 149.121094 611.699219 152.15625 604.535156 170.941406 C 597.371094 189.726562 586.417969 210.621094 586.417969 210.621094 L 630.410156 229.492188 L 745.527344 244.824219 L 753.195312 221.910156 L 764.992188 240.273438 L 801.398438 220.140625 L 780.753906 178.859375 C 780.753906 178.859375 777.632812 163.863281 753.195312 157.96875 L 709.035156 142.296875 C 709.035156 142.296875 702.125 156.113281 688.726562 155.863281 C 688.726562 155.777344 668.332031 157.378906 667.488281 142.128906 Z M 667.488281 142.128906 " fill-opacity="1" fill-rule="nonzero"/><path fill="rgb(81.959534%, 79.60968%, 92.939758%)" d="M 764.910156 240.191406 L 801.316406 220.054688 L 797.691406 212.8125 L 761.03125 234.210938 Z M 764.910156 240.191406 " fill-opacity="1" fill-rule="nonzero"/><path fill="rgb(81.959534%, 79.60968%, 92.939758%)" d="M 586.417969 210.621094 L 590.292969 202.703125 L 631.671875 220.140625 L 629.648438 229.15625 Z M 586.417969 210.621094 " fill-opacity="1" fill-rule="nonzero"/><path fill="rgb(81.959534%, 79.60968%, 92.939758%)" d="M 742.660156 345.582031 C 742.578125 345.328125 742.40625 344.992188 742.324219 344.738281 C 742.238281 344.570312 742.238281 344.316406 742.238281 344.148438 C 741.984375 343.558594 741.816406 342.886719 741.734375 342.296875 C 740.554688 337.832031 739.625 332.859375 739.375 331.597656 C 732.96875 302.027344 735.835938 272.792969 745.441406 244.824219 C 745.441406 244.824219 722.6875 236.230469 735.246094 193.773438 L 745.695312 155.1875 L 730.019531 149.628906 C 730.019531 149.628906 714.851562 206.578125 714.851562 206.578125 C 714.851562 206.746094 656.785156 197.648438 656.617188 198.574219 C 656.617188 198.574219 665.128906 142.550781 665.128906 142.550781 C 665.128906 142.550781 647.429688 146.171875 647.429688 146.171875 C 646.25 146.425781 644.058594 166.730469 643.722656 168.835938 C 639.089844 192.761719 625.265625 218.371094 631 243.308594 C 634.957031 260.660156 635.210938 278.773438 633.105469 296.382812 C 632.515625 301.519531 626.195312 350.046875 624.761719 350.046875 L 744.597656 350.046875 C 743.839844 348.613281 743.167969 347.179688 742.660156 345.582031 Z M 742.660156 345.582031 " fill-opacity="1" fill-rule="nonzero"/><path fill="rgb(97.24884%, 67.059326%, 58.039856%)" d="M 665.128906 142.550781 C 665.128906 142.550781 671.363281 160.074219 686.789062 163.191406 C 686.789062 163.191406 706.675781 166.308594 714.765625 144.234375 C 714.765625 144.234375 706.675781 141.371094 706.675781 141.371094 C 707.097656 141.539062 704.316406 146.425781 704.0625 146.847656 C 700.945312 151.398438 695.890625 154.765625 690.410156 155.355469 C 686.195312 155.863281 681.984375 154.175781 678.445312 151.902344 C 674.734375 149.460938 672.292969 145.667969 672.292969 141.117188 Z M 665.128906 142.550781 " fill-opacity="1" fill-rule="nonzero"/><path fill="rgb(14.509583%, 6.669617%, 6.669617%)" d="M 754.289062 221.824219 C 752.351562 218.203125 750.246094 214.664062 748.054688 211.125 C 747.546875 210.285156 746.199219 211.042969 746.707031 211.882812 C 748.980469 215.339844 751.003906 218.875 752.941406 222.582031 C 753.449219 223.511719 754.796875 222.667969 754.289062 221.824219 Z M 754.289062 221.824219 " fill-opacity="1" fill-rule="nonzero"/><path fill="rgb(81.959534%, 79.60968%, 92.939758%)" d="M 753.027344 222.582031 L 754.457031 350.046875 L 720.832031 350.046875 L 734.738281 215.84375 C 734.65625 215.929688 747.378906 214.832031 753.027344 222.582031 Z M 753.027344 222.582031 " fill-opacity="1" fill-rule="nonzero"/><path fill="rgb(81.959534%, 79.60968%, 92.939758%)" d="M 629.648438 229.15625 L 624.675781 350.128906 L 642.796875 350.128906 L 646.167969 226.457031 Z M 629.648438 229.15625 " fill-opacity="1" fill-rule="nonzero"/><path fill="rgb(14.509583%, 6.669617%, 6.669617%)" d="M 630.828125 201.015625 C 630.492188 211.042969 630.15625 221.152344 629.816406 231.175781 C 629.816406 231.851562 630.828125 231.851562 630.828125 231.175781 C 631.167969 221.152344 631.503906 211.042969 631.839844 201.015625 C 631.839844 200.34375 630.828125 200.34375 630.828125 201.015625 Z M 630.828125 201.015625 " fill-opacity="1" fill-rule="nonzero"/><path fill="rgb(97.24884%, 67.059326%, 58.039856%)" d="M 748.644531 191.582031 C 743.585938 187.621094 739.375 191.835938 739.375 191.835938 C 732.800781 189.726562 731.285156 194.277344 731.285156 194.277344 L 727.070312 195.121094 L 709.203125 205.144531 C 707.855469 208.597656 712.070312 210.117188 712.070312 210.117188 L 727.324219 205.652344 L 731.367188 222.753906 L 720.414062 213.0625 C 715.273438 211.125 715.777344 214.832031 715.777344 214.832031 L 726.816406 234.125 L 731.703125 237.074219 L 745.273438 248.195312 L 747.128906 257.125 L 771.652344 250.046875 C 770.300781 245.667969 768.953125 241.285156 767.773438 236.90625 C 767.269531 235.136719 766.679688 233.28125 766.511719 231.429688 C 766.257812 229.238281 766.425781 226.964844 766.171875 224.691406 C 765.75 221.234375 765.246094 217.867188 764.65625 214.496094 C 763.476562 207.839844 762.128906 201.183594 760.609375 194.613281 C 754.207031 188.128906 748.644531 191.582031 748.644531 191.582031 Z M 748.644531 191.582031 " fill-opacity="1" fill-rule="nonzero"/><path fill="rgb(14.509583%, 6.669617%, 6.669617%)" d="M 730.863281 195.457031 C 732.292969 201.269531 734.148438 207 736.253906 212.644531 C 736.507812 213.316406 737.605469 212.980469 737.351562 212.222656 C 735.246094 206.578125 733.390625 200.847656 731.957031 195.035156 C 731.789062 194.363281 730.695312 194.699219 730.863281 195.457031 Z M 730.863281 195.457031 " fill-opacity="1" fill-rule="nonzero"/><path fill="rgb(14.509583%, 6.669617%, 6.669617%)" d="M 739.121094 192.507812 C 739.878906 198.742188 740.636719 204.890625 741.394531 211.125 C 741.480469 211.882812 742.660156 211.800781 742.578125 211.042969 C 741.816406 204.808594 741.058594 198.65625 740.300781 192.425781 C 740.214844 191.664062 739.035156 191.75 739.121094 192.507812 Z M 739.121094 192.507812 " fill-opacity="1" fill-rule="nonzero"/><path fill="rgb(14.509583%, 6.669617%, 6.669617%)" d="M 736.507812 212.894531 C 737.183594 213.992188 738.53125 214.664062 739.878906 214.496094 C 741.226562 214.328125 742.324219 213.316406 742.746094 211.96875 C 742.828125 211.632812 742.578125 211.378906 742.238281 211.292969 C 741.902344 211.210938 741.648438 211.464844 741.566406 211.800781 C 741.566406 211.714844 741.566406 211.882812 741.480469 211.96875 C 741.480469 212.054688 741.394531 212.054688 741.394531 212.136719 C 741.394531 212.222656 741.3125 212.222656 741.3125 212.304688 C 741.3125 212.304688 741.3125 212.390625 741.226562 212.390625 C 741.226562 212.390625 741.226562 212.304688 741.226562 212.390625 C 741.144531 212.472656 741.058594 212.558594 740.976562 212.726562 C 740.976562 212.8125 740.890625 212.8125 740.890625 212.894531 C 740.804688 212.980469 740.804688 212.980469 740.890625 212.894531 C 740.890625 212.894531 740.804688 212.980469 740.804688 212.980469 C 740.722656 213.0625 740.636719 213.148438 740.554688 213.148438 C 740.46875 213.148438 740.46875 213.234375 740.386719 213.234375 C 740.386719 213.234375 740.300781 213.234375 740.300781 213.316406 C 740.214844 213.402344 740.046875 213.402344 739.964844 213.402344 C 739.964844 213.402344 739.878906 213.402344 739.878906 213.402344 C 739.964844 213.402344 739.878906 213.402344 739.878906 213.402344 C 739.796875 213.402344 739.796875 213.402344 739.710938 213.402344 C 739.457031 213.402344 739.375 213.402344 739.035156 213.402344 C 738.953125 213.402344 738.953125 213.402344 738.867188 213.402344 C 738.867188 213.402344 738.785156 213.402344 738.785156 213.402344 C 738.867188 213.402344 738.867188 213.402344 738.785156 213.402344 C 738.699219 213.402344 738.53125 213.316406 738.445312 213.234375 C 738.363281 213.234375 738.363281 213.148438 738.277344 213.148438 C 738.277344 213.148438 738.195312 213.148438 738.195312 213.0625 C 738.277344 213.0625 738.277344 213.0625 738.195312 213.0625 C 738.109375 212.980469 738.023438 212.894531 737.941406 212.894531 C 737.855469 212.8125 737.855469 212.8125 737.773438 212.726562 C 737.6875 212.644531 737.773438 212.8125 737.6875 212.644531 C 737.605469 212.558594 737.519531 212.472656 737.433594 212.304688 C 737.265625 212.054688 736.84375 211.96875 736.59375 212.136719 C 736.339844 212.222656 736.339844 212.558594 736.507812 212.894531 Z M 736.507812 212.894531 " fill-opacity="1" fill-rule="nonzero"/><path fill="rgb(14.509583%, 6.669617%, 6.669617%)" d="M 742.15625 211.96875 C 742.914062 212.390625 743.671875 212.8125 744.515625 212.894531 C 745.1875 212.980469 745.863281 212.8125 746.453125 212.558594 C 747.71875 211.96875 748.644531 210.789062 748.8125 209.441406 C 748.8125 209.105469 748.644531 208.851562 748.308594 208.765625 C 748.054688 208.683594 747.71875 208.9375 747.632812 209.273438 C 747.546875 210.285156 746.875 211.125 745.945312 211.546875 C 745.527344 211.714844 745.019531 211.882812 744.515625 211.800781 C 743.757812 211.714844 743.167969 211.378906 742.492188 210.957031 C 742.238281 210.789062 741.816406 210.957031 741.734375 211.210938 C 741.734375 211.464844 741.902344 211.800781 742.15625 211.96875 Z M 742.15625 211.96875 " fill-opacity="1" fill-rule="nonzero"/><path fill="rgb(14.509583%, 6.669617%, 6.669617%)" d="M 748.308594 192.675781 C 748.136719 197.984375 747.96875 203.375 747.800781 208.683594 C 747.800781 209.441406 748.898438 209.273438 748.980469 208.597656 C 749.148438 203.292969 749.316406 197.898438 749.488281 192.59375 C 749.488281 191.835938 748.308594 191.917969 748.308594 192.675781 Z M 748.308594 192.675781 " fill-opacity="1" fill-rule="nonzero"/><path fill="rgb(14.509583%, 6.669617%, 6.669617%)" d="M 748.222656 209.355469 C 749.148438 210.621094 750.835938 211.378906 752.4375 211.125 C 754.039062 210.875 755.46875 209.695312 755.976562 208.09375 C 756.058594 207.757812 755.976562 207.503906 755.722656 207.335938 C 755.46875 207.25 755.046875 207.335938 754.964844 207.589844 C 754.628906 208.765625 753.617188 209.695312 752.351562 209.945312 C 751.171875 210.117188 749.90625 209.609375 749.234375 208.597656 C 748.726562 208.09375 747.800781 208.765625 748.222656 209.355469 Z M 748.222656 209.355469 " fill-opacity="1" fill-rule="nonzero"/><path fill="rgb(14.509583%, 6.669617%, 6.669617%)" d="M 756.566406 195.710938 C 756.144531 199.835938 755.554688 203.882812 754.796875 207.925781 C 754.628906 208.683594 755.808594 208.851562 755.890625 208.09375 C 756.648438 204.050781 757.238281 200.007812 757.660156 195.878906 C 757.828125 195.203125 756.648438 195.035156 756.566406 195.710938 Z M 756.566406 195.710938 " fill-opacity="1" fill-rule="nonzero"/><path fill="rgb(14.509583%, 6.669617%, 6.669617%)" d="M 738.445312 224.773438 C 737.773438 224.4375 737.351562 225.449219 737.941406 225.785156 C 742.15625 228.058594 745.863281 231.175781 748.980469 234.882812 C 749.488281 235.472656 750.414062 234.800781 749.90625 234.210938 C 746.707031 230.417969 742.828125 227.21875 738.445312 224.773438 Z M 738.445312 224.773438 " fill-opacity="1" fill-rule="nonzero"/><path fill="rgb(14.509583%, 6.669617%, 6.669617%)" d="M 679.457031 95.039062 C 676.085938 96.976562 672.039062 96.636719 668.5 95.796875 C 667.574219 95.542969 667.234375 96.976562 668.078125 97.226562 C 672.039062 98.238281 676.503906 98.40625 680.214844 96.386719 C 680.972656 95.878906 680.214844 94.617188 679.457031 95.039062 Z M 679.457031 95.039062 " fill-opacity="1" fill-rule="nonzero"/><path fill="rgb(14.509583%, 6.669617%, 6.669617%)" d="M 650.382812 61.929688 C 650.296875 61.929688 650.296875 61.929688 650.382812 61.929688 C 650.042969 62.183594 649.792969 62.433594 649.792969 62.773438 C 649.792969 63.109375 650.042969 63.445312 650.296875 63.613281 C 651.308594 64.203125 652.824219 64.289062 653.921875 64.457031 C 655.269531 64.625 656.703125 64.625 658.050781 64.539062 C 660.074219 64.457031 662.09375 64.289062 664.035156 63.53125 C 664.285156 63.445312 664.625 63.277344 664.792969 63.023438 C 665.382812 62.433594 665.042969 61.761719 664.453125 61.421875 C 662.515625 60.414062 659.566406 60.414062 657.460938 60.414062 C 655.183594 60.414062 652.320312 60.664062 650.382812 61.929688 Z M 650.382812 61.929688 " fill-opacity="1" fill-rule="nonzero"/><path fill="rgb(14.509583%, 6.669617%, 6.669617%)" d="M 679.285156 60.664062 C 679.285156 60.664062 679.203125 60.664062 679.203125 60.75 C 678.949219 60.917969 678.695312 61.171875 678.613281 61.507812 C 678.613281 61.84375 678.78125 62.265625 679.117188 62.433594 C 680.128906 63.109375 681.730469 63.363281 682.910156 63.53125 C 684.34375 63.78125 685.777344 63.867188 687.292969 63.949219 C 689.398438 64.035156 691.589844 63.949219 693.613281 63.277344 C 693.949219 63.191406 694.203125 63.023438 694.457031 62.855469 C 695.046875 62.265625 694.878906 61.507812 694.203125 61.171875 C 692.265625 59.992188 689.148438 59.824219 686.871094 59.65625 C 684.597656 59.402344 681.476562 59.484375 679.285156 60.664062 Z M 679.285156 60.664062 " fill-opacity="1" fill-rule="nonzero"/><g mask="url(#mask-0)"><g transform="matrix(1, 0, 0, 1, 638, 57)"><g id="source-5" clip-path="url(#clip-8)"><g clip-path="url(#clip-7)"><path fill="rgb(81.959534%, 79.60968%, 92.939758%)" d="M 87.214844 3.582031 C 87.214844 3.582031 80.8125 2.738281 76.851562 6.867188 L 60.921875 14.703125 L 60.921875 18.15625 C 60.921875 22.789062 57.128906 26.578125 52.496094 26.578125 L 38.503906 26.578125 C 33.871094 26.578125 30.078125 22.789062 30.078125 18.15625 L 30.078125 18.492188 C 30.078125 23.042969 26.453125 26.664062 21.902344 26.664062 L 9.515625 26.664062 C 5.050781 26.664062 1.339844 23.042969 1.339844 18.492188 L 1.339844 5.601562 L 60.921875 5.601562 L 77.777344 1.308594 C 77.777344 1.308594 85.53125 -0.125 87.214844 3.582031 Z M 87.214844 3.582031 " fill-opacity="1" fill-rule="nonzero"/></g></g></g></g><path fill="rgb(14.509583%, 6.669617%, 6.669617%)" d="M 660.242188 73.808594 C 660.242188 74.175781 660.171875 74.53125 660.03125 74.871094 C 659.886719 75.210938 659.6875 75.511719 659.425781 75.773438 C 659.164062 76.035156 658.863281 76.234375 658.523438 76.375 C 658.183594 76.515625 657.828125 76.585938 657.460938 76.585938 C 657.089844 76.585938 656.738281 76.515625 656.394531 76.375 C 656.054688 76.234375 655.753906 76.035156 655.492188 75.773438 C 655.234375 75.511719 655.03125 75.210938 654.890625 74.871094 C 654.75 74.53125 654.679688 74.175781 654.679688 73.808594 C 654.679688 73.4375 654.75 73.085938 654.890625 72.742188 C 655.03125 72.402344 655.234375 72.101562 655.492188 71.84375 C 655.753906 71.582031 656.054688 71.378906 656.394531 71.238281 C 656.738281 71.097656 657.089844 71.027344 657.460938 71.027344 C 657.828125 71.027344 658.183594 71.097656 658.523438 71.238281 C 658.863281 71.378906 659.164062 71.582031 659.425781 71.84375 C 659.6875 72.101562 659.886719 72.402344 660.03125 72.742188 C 660.171875 73.085938 660.242188 73.4375 660.242188 73.808594 Z M 660.242188 73.808594 " fill-opacity="1" fill-rule="nonzero"/><path fill="rgb(14.509583%, 6.669617%, 6.669617%)" d="M 686.703125 73.050781 C 686.703125 73.417969 686.632812 73.773438 686.492188 74.113281 C 686.351562 74.453125 686.148438 74.753906 685.886719 75.015625 C 685.628906 75.277344 685.328125 75.476562 684.984375 75.617188 C 684.644531 75.757812 684.289062 75.828125 683.921875 75.828125 C 683.554688 75.828125 683.199219 75.757812 682.859375 75.617188 C 682.515625 75.476562 682.214844 75.277344 681.957031 75.015625 C 681.695312 74.753906 681.492188 74.453125 681.351562 74.113281 C 681.210938 73.773438 681.140625 73.417969 681.140625 73.050781 C 681.140625 72.679688 681.210938 72.328125 681.351562 71.984375 C 681.492188 71.644531 681.695312 71.34375 681.957031 71.082031 C 682.214844 70.824219 682.515625 70.621094 682.859375 70.480469 C 683.199219 70.339844 683.554688 70.269531 683.921875 70.269531 C 684.289062 70.269531 684.644531 70.339844 684.984375 70.480469 C 685.328125 70.621094 685.628906 70.824219 685.886719 71.082031 C 686.148438 71.34375 686.351562 71.644531 686.492188 71.984375 C 686.632812 72.328125 686.703125 72.679688 686.703125 73.050781 Z M 686.703125 73.050781 " fill-opacity="1" fill-rule="nonzero"/><path fill="rgb(97.24884%, 67.059326%, 58.039856%)" d="M 663.863281 183.492188 L 651.222656 185.011719 C 651.222656 185.011719 654.425781 187.621094 653.246094 191.664062 C 653.246094 191.664062 658.894531 192.085938 657.796875 198.40625 C 657.796875 198.40625 661.589844 198.488281 661.757812 203.125 L 660.578125 217.023438 C 660.578125 217.023438 658.472656 219.972656 656.113281 217.191406 L 655.183594 210.285156 C 655.183594 210.285156 653.582031 212.390625 650.886719 213.316406 C 650.886719 213.316406 650.972656 244.488281 637.738281 247.4375 L 621.726562 237.664062 L 622.316406 227.132812 L 623.667969 202.871094 L 645.578125 177.511719 L 664.453125 178.101562 C 664.203125 178.101562 667.574219 180.714844 663.863281 183.492188 Z M 663.863281 183.492188 " fill-opacity="1" fill-rule="nonzero"/><path fill="rgb(14.509583%, 6.669617%, 6.669617%)" d="M 651.140625 184.421875 C 648.527344 183.410156 646.167969 185.433594 644.3125 186.949219 C 642.039062 188.800781 639.847656 190.824219 637.738281 192.84375 C 637.320312 193.265625 637.910156 193.855469 638.328125 193.519531 C 640.183594 191.664062 642.207031 189.898438 644.230469 188.210938 C 646 186.695312 648.359375 184.253906 650.972656 185.261719 C 651.390625 185.433594 651.644531 184.589844 651.140625 184.421875 Z M 651.140625 184.421875 " fill-opacity="1" fill-rule="nonzero"/><path fill="rgb(14.509583%, 6.669617%, 6.669617%)" d="M 653.078125 190.992188 C 650.042969 192.929688 647.011719 194.953125 643.976562 196.890625 C 643.554688 197.226562 643.890625 197.984375 644.398438 197.648438 C 647.429688 195.710938 650.464844 193.6875 653.5 191.75 C 653.921875 191.496094 653.582031 190.738281 653.078125 190.992188 Z M 653.078125 190.992188 " fill-opacity="1" fill-rule="nonzero"/><path fill="rgb(14.509583%, 6.669617%, 6.669617%)" d="M 657.542969 197.5625 C 656.703125 197.730469 655.941406 198.152344 655.183594 198.65625 C 654.34375 199.164062 653.414062 199.667969 652.570312 200.175781 C 650.800781 201.183594 649.03125 202.28125 647.261719 203.292969 C 646.757812 203.542969 647.179688 204.300781 647.683594 204.050781 C 649.371094 203.039062 651.140625 202.027344 652.824219 201.015625 C 653.667969 200.511719 654.511719 200.007812 655.351562 199.5 C 656.113281 199.078125 656.871094 198.488281 657.796875 198.40625 C 658.304688 198.320312 658.132812 197.480469 657.542969 197.5625 Z M 657.542969 197.5625 " fill-opacity="1" fill-rule="nonzero"/><path fill="rgb(14.509583%, 6.669617%, 6.669617%)" d="M 655.523438 207.417969 C 655.523438 207.167969 655.351562 207 655.101562 207 C 654.847656 207 654.59375 207.167969 654.679688 207.417969 C 654.679688 208.179688 654.761719 208.9375 654.761719 209.695312 C 654.761719 209.945312 654.933594 210.117188 655.183594 210.117188 C 655.4375 210.117188 655.691406 209.945312 655.605469 209.695312 C 655.523438 208.851562 655.523438 208.179688 655.523438 207.417969 Z M 655.523438 207.417969 " fill-opacity="1" fill-rule="nonzero"/><path fill="rgb(14.509583%, 6.669617%, 6.669617%)" d="M 642.207031 239.09375 C 642.207031 238.84375 642.039062 238.675781 641.785156 238.675781 C 641.617188 238.675781 641.28125 238.84375 641.363281 239.09375 C 641.449219 240.191406 641.027344 241.285156 640.183594 242.128906 C 639.761719 242.464844 640.351562 243.140625 640.773438 242.800781 C 641.699219 241.792969 642.289062 240.445312 642.207031 239.09375 Z M 642.207031 239.09375 " fill-opacity="1" fill-rule="nonzero"/><path fill="rgb(14.509583%, 6.669617%, 6.669617%)" d="M 641.449219 208.347656 C 640.519531 208.007812 639.679688 207.417969 639.003906 206.746094 C 638.835938 206.578125 638.582031 206.578125 638.414062 206.746094 C 638.246094 206.914062 638.246094 207.167969 638.414062 207.335938 C 639.171875 208.179688 640.183594 208.765625 641.195312 209.1875 C 641.363281 209.273438 641.699219 209.105469 641.699219 208.9375 C 641.785156 208.683594 641.699219 208.429688 641.449219 208.347656 Z M 641.449219 208.347656 " fill-opacity="1" fill-rule="nonzero"/><path fill="rgb(97.24884%, 67.059326%, 58.039856%)" d="M 639.089844 246.675781 L 629.816406 307.839844 C 620.714844 340.527344 596.53125 336.398438 596.53125 336.398438 C 576.472656 331.175781 582.035156 302.277344 582.035156 302.277344 L 591.640625 212.8125 L 622.148438 225.867188 L 621.558594 236.148438 Z M 639.089844 246.675781 " fill-opacity="1" fill-rule="nonzero"/><path fill="rgb(97.24884%, 67.059326%, 58.039856%)" d="M 794.910156 223.511719 L 804.347656 311.796875 C 804.347656 311.796875 809.910156 340.777344 789.855469 346 C 789.855469 346 765.75 350.046875 756.648438 317.441406 L 747.378906 256.28125 L 764.910156 245.835938 L 764.320312 235.558594 Z M 794.910156 223.511719 " fill-opacity="1" fill-rule="nonzero"/><path fill="rgb(14.509583%, 6.669617%, 6.669617%)" d="M 790.359375 288.546875 C 784.460938 274.648438 778.476562 260.660156 772.492188 246.847656 C 770.808594 242.886719 769.039062 238.925781 767.351562 234.96875 C 767.101562 234.292969 766.171875 234.882812 766.425781 235.558594 C 772.492188 249.457031 778.476562 263.359375 784.375 277.257812 C 786.0625 281.21875 787.746094 285.175781 789.433594 289.222656 C 789.683594 289.8125 790.613281 289.222656 790.359375 288.546875 Z M 790.359375 288.546875 " fill-opacity="1" fill-rule="nonzero"/><path fill="rgb(14.509583%, 6.669617%, 6.669617%)" d="M 793.054688 293.6875 C 792.71875 293.097656 791.792969 293.601562 792.128906 294.277344 C 795.078125 300.425781 796.679688 307.082031 796.847656 313.90625 C 796.847656 314.578125 797.945312 314.578125 797.945312 313.90625 C 797.773438 306.828125 796.089844 299.921875 793.054688 293.6875 Z M 793.054688 293.6875 " fill-opacity="1" fill-rule="nonzero"/><path fill="rgb(14.509583%, 6.669617%, 6.669617%)" d="M 622.066406 226.375 C 621.980469 229.996094 621.644531 233.535156 620.96875 237.074219 C 614.394531 251.226562 607.570312 265.210938 600.492188 279.027344 C 598.46875 282.902344 596.445312 286.777344 594.421875 290.652344 C 594.339844 290.738281 594.339844 290.90625 594.339844 290.988281 C 594.253906 290.988281 594.085938 291.074219 594.003906 291.242188 C 591.390625 295.539062 589.535156 300.257812 588.523438 305.226562 C 588.355469 305.902344 589.453125 306.238281 589.535156 305.480469 C 590.546875 300.679688 592.316406 296.042969 594.929688 291.832031 C 595.011719 291.75 595.011719 291.578125 595.011719 291.496094 C 595.097656 291.496094 595.265625 291.410156 595.351562 291.242188 C 602.597656 277.425781 609.675781 263.441406 616.417969 249.375 C 618.105469 245.835938 619.789062 242.296875 621.390625 238.757812 C 621.644531 238.757812 621.8125 238.675781 621.898438 238.335938 C 622.738281 234.378906 623.160156 230.335938 623.246094 226.289062 C 623.160156 225.699219 622.066406 225.699219 622.066406 226.375 Z M 622.066406 226.375 " fill-opacity="1" fill-rule="nonzero"/><path fill="rgb(14.509583%, 6.669617%, 6.669617%)" d="M 763.140625 239.09375 C 762.886719 238.925781 762.550781 239.011719 762.378906 239.265625 C 761.539062 240.527344 760.609375 241.707031 759.769531 242.972656 C 759.597656 243.222656 759.683594 243.558594 759.9375 243.730469 C 760.1875 243.898438 760.527344 243.8125 760.695312 243.558594 L 763.308594 239.855469 C 763.476562 239.601562 763.308594 239.179688 763.140625 239.09375 Z M 763.140625 239.09375 " fill-opacity="1" fill-rule="nonzero"/><path fill="rgb(14.509583%, 6.669617%, 6.669617%)" d="M 669.335938 259.863281 L 655.617188 255.175781 L 656.761719 251.828125 L 670.480469 256.511719 Z M 669.335938 259.863281 " fill-opacity="1" fill-rule="nonzero"/><path fill="rgb(52.938843%, 36.079407%, 64.709473%)" d="M 671.054688 266.988281 L 650 259.792969 L 652.042969 253.816406 L 673.097656 261.007812 Z M 671.054688 266.988281 " fill-opacity="1" fill-rule="nonzero"/><path fill="rgb(14.509583%, 6.669617%, 6.669617%)" d="M 692.832031 148.023438 L 706.546875 152.710938 L 696.570312 181.886719 L 682.855469 177.199219 Z M 692.832031 148.023438 " fill-opacity="1" fill-rule="nonzero"/><path fill="rgb(14.509583%, 6.669617%, 6.669617%)" d="M 689.941406 247.992188 L 679.816406 244.53125 L 698.621094 189.523438 L 708.746094 192.984375 Z M 689.941406 247.992188 " fill-opacity="1" fill-rule="nonzero"/><path fill="rgb(14.509583%, 6.669617%, 6.669617%)" d="M 695.550781 325.53125 C 717.378906 324.183594 735.414062 306.828125 737.519531 285.007812 C 739.710938 262.515625 725.214844 243.054688 705.074219 237.242188 L 705.074219 218.625 C 735.664062 224.691406 758.417969 253.078125 755.636719 286.019531 C 753.027344 316.601562 728.25 341.117188 697.660156 343.472656 C 670.945312 345.496094 647.347656 330.753906 636.222656 308.679688 L 657.542969 308.679688 C 666.308594 319.71875 680.214844 326.457031 695.550781 325.53125 Z M 695.550781 325.53125 " fill-opacity="1" fill-rule="nonzero"/><g clip-path="url(#clip-9)"><path fill="rgb(14.509583%, 6.669617%, 6.669617%)" d="M 627.039062 360.324219 L 733.136719 360.324219 L 733.136719 349.878906 L 637.488281 349.878906 C 631.671875 349.792969 627.039062 354.511719 627.039062 360.324219 Z M 627.039062 360.324219 " fill-opacity="1" fill-rule="nonzero"/></g><path fill="rgb(14.509583%, 6.669617%, 6.669617%)" d="M 681.816406 349.792969 L 710.046875 349.792969 L 710.046875 341.621094 C 710.046875 334.125 703.980469 327.972656 696.394531 327.972656 L 695.128906 327.972656 C 687.796875 327.972656 681.816406 333.953125 681.816406 341.285156 Z M 681.816406 349.792969 " fill-opacity="1" fill-rule="nonzero"/><path fill="rgb(14.509583%, 6.669617%, 6.669617%)" d="M 671.523438 309.539062 L 622.8125 309.539062 L 622.8125 303.222656 L 671.523438 303.222656 Z M 671.523438 309.539062 " fill-opacity="1" fill-rule="nonzero"/><path fill="rgb(14.509583%, 6.669617%, 6.669617%)" d="M 722.265625 226.628906 C 722.265625 227.15625 722.242188 227.683594 722.1875 228.210938 C 722.136719 228.738281 722.058594 229.261719 721.957031 229.78125 C 721.851562 230.300781 721.722656 230.816406 721.570312 231.324219 C 721.414062 231.828125 721.238281 232.328125 721.035156 232.816406 C 720.832031 233.304688 720.605469 233.785156 720.355469 234.253906 C 720.105469 234.71875 719.832031 235.171875 719.539062 235.613281 C 719.246094 236.054688 718.929688 236.480469 718.59375 236.886719 C 718.257812 237.296875 717.902344 237.691406 717.527344 238.066406 C 717.152344 238.4375 716.761719 238.792969 716.351562 239.128906 C 715.941406 239.464844 715.515625 239.78125 715.074219 240.078125 C 714.632812 240.371094 714.179688 240.644531 713.714844 240.890625 C 713.246094 241.140625 712.765625 241.367188 712.277344 241.570312 C 711.789062 241.773438 711.289062 241.953125 710.78125 242.105469 C 710.277344 242.257812 709.761719 242.386719 709.242188 242.492188 C 708.722656 242.59375 708.199219 242.671875 707.671875 242.722656 C 707.144531 242.777344 706.617188 242.800781 706.085938 242.800781 C 705.554688 242.800781 705.027344 242.777344 704.5 242.722656 C 703.972656 242.671875 703.449219 242.59375 702.929688 242.492188 C 702.410156 242.386719 701.894531 242.257812 701.390625 242.105469 C 700.882812 241.953125 700.382812 241.773438 699.894531 241.570312 C 699.402344 241.367188 698.925781 241.140625 698.457031 240.890625 C 697.992188 240.644531 697.535156 240.371094 697.097656 240.078125 C 696.65625 239.78125 696.230469 239.464844 695.820312 239.128906 C 695.410156 238.792969 695.019531 238.4375 694.644531 238.066406 C 694.269531 237.691406 693.914062 237.296875 693.578125 236.886719 C 693.242188 236.480469 692.925781 236.054688 692.632812 235.613281 C 692.335938 235.171875 692.066406 234.71875 691.816406 234.253906 C 691.566406 233.785156 691.339844 233.304688 691.136719 232.816406 C 690.933594 232.328125 690.753906 231.828125 690.601562 231.324219 C 690.449219 230.816406 690.320312 230.300781 690.214844 229.78125 C 690.113281 229.261719 690.035156 228.738281 689.984375 228.210938 C 689.929688 227.683594 689.90625 227.15625 689.90625 226.628906 C 689.90625 226.097656 689.929688 225.570312 689.984375 225.042969 C 690.035156 224.515625 690.113281 223.992188 690.214844 223.472656 C 690.320312 222.953125 690.449219 222.4375 690.601562 221.933594 C 690.753906 221.425781 690.933594 220.925781 691.136719 220.4375 C 691.339844 219.949219 691.566406 219.46875 691.816406 219.003906 C 692.066406 218.535156 692.335938 218.082031 692.632812 217.640625 C 692.925781 217.199219 693.242188 216.777344 693.578125 216.367188 C 693.914062 215.957031 694.269531 215.566406 694.644531 215.191406 C 695.019531 214.816406 695.410156 214.460938 695.820312 214.125 C 696.230469 213.789062 696.65625 213.472656 697.097656 213.179688 C 697.535156 212.882812 697.992188 212.613281 698.457031 212.363281 C 698.925781 212.113281 699.402344 211.886719 699.894531 211.683594 C 700.382812 211.480469 700.882812 211.300781 701.390625 211.148438 C 701.894531 210.996094 702.410156 210.867188 702.929688 210.761719 C 703.449219 210.660156 703.972656 210.582031 704.5 210.53125 C 705.027344 210.476562 705.554688 210.453125 706.085938 210.453125 C 706.617188 210.453125 707.144531 210.476562 707.671875 210.53125 C 708.199219 210.582031 708.722656 210.660156 709.242188 210.761719 C 709.761719 210.867188 710.277344 210.996094 710.78125 211.148438 C 711.289062 211.300781 711.789062 211.480469 712.277344 211.683594 C 712.765625 211.886719 713.246094 212.113281 713.714844 212.363281 C 714.179688 212.613281 714.632812 212.882812 715.074219 213.179688 C 715.515625 213.472656 715.941406 213.789062 716.351562 214.125 C 716.761719 214.460938 717.152344 214.816406 717.527344 215.191406 C 717.902344 215.566406 718.257812 215.957031 718.59375 216.367188 C 718.929688 216.777344 719.246094 217.199219 719.539062 217.640625 C 719.832031 218.082031 720.105469 218.535156 720.355469 219.003906 C 720.605469 219.46875 720.832031 219.949219 721.035156 220.4375 C 721.238281 220.925781 721.414062 221.425781 721.570312 221.933594 C 721.722656 222.4375 721.851562 222.953125 721.957031 223.472656 C 722.058594 223.992188 722.136719 224.515625 722.1875 225.042969 C 722.242188 225.570312 722.265625 226.097656 722.265625 226.628906 Z M 722.265625 226.628906 " fill-opacity="1" fill-rule="nonzero"/><path fill="rgb(52.938843%, 36.079407%, 64.709473%)" d="M 706.085938 237.917969 C 712.320312 237.917969 717.378906 232.863281 717.378906 226.628906 C 717.378906 220.394531 712.320312 215.339844 706.085938 215.339844 C 699.847656 215.339844 694.792969 220.394531 694.792969 226.628906 C 694.792969 232.863281 699.847656 237.917969 706.085938 237.917969 Z M 706.085938 237.917969 " fill-opacity="1" fill-rule="nonzero"/><path fill="rgb(52.938843%, 36.079407%, 64.709473%)" d="M 700.019531 338.082031 C 700.019531 338.347656 699.992188 338.609375 699.941406 338.871094 C 699.886719 339.132812 699.8125 339.386719 699.710938 339.628906 C 699.609375 339.875 699.484375 340.109375 699.335938 340.328125 C 699.1875 340.550781 699.019531 340.753906 698.832031 340.941406 C 698.644531 341.128906 698.441406 341.296875 698.21875 341.445312 C 698 341.59375 697.765625 341.71875 697.519531 341.820312 C 697.277344 341.921875 697.023438 341.996094 696.761719 342.050781 C 696.5 342.101562 696.238281 342.125 695.972656 342.125 C 695.707031 342.125 695.445312 342.101562 695.183594 342.050781 C 694.921875 341.996094 694.671875 341.921875 694.425781 341.820312 C 694.179688 341.71875 693.945312 341.59375 693.726562 341.445312 C 693.503906 341.296875 693.300781 341.128906 693.113281 340.941406 C 692.925781 340.753906 692.757812 340.550781 692.609375 340.328125 C 692.460938 340.109375 692.335938 339.875 692.234375 339.628906 C 692.132812 339.386719 692.058594 339.132812 692.003906 338.871094 C 691.953125 338.609375 691.929688 338.347656 691.929688 338.082031 C 691.929688 337.816406 691.953125 337.554688 692.003906 337.292969 C 692.058594 337.035156 692.132812 336.78125 692.234375 336.535156 C 692.335938 336.289062 692.460938 336.058594 692.609375 335.835938 C 692.757812 335.617188 692.925781 335.410156 693.113281 335.222656 C 693.300781 335.035156 693.503906 334.867188 693.726562 334.71875 C 693.945312 334.574219 694.179688 334.449219 694.425781 334.347656 C 694.671875 334.246094 694.921875 334.167969 695.183594 334.117188 C 695.445312 334.066406 695.707031 334.039062 695.972656 334.039062 C 696.238281 334.039062 696.5 334.066406 696.761719 334.117188 C 697.023438 334.167969 697.277344 334.246094 697.519531 334.347656 C 697.765625 334.449219 698 334.574219 698.21875 334.71875 C 698.441406 334.867188 698.644531 335.035156 698.832031 335.222656 C 699.019531 335.410156 699.1875 335.617188 699.335938 335.835938 C 699.484375 336.058594 699.609375 336.289062 699.710938 336.535156 C 699.8125 336.78125 699.886719 337.035156 699.941406 337.292969 C 699.992188 337.554688 700.019531 337.816406 700.019531 338.082031 Z M 700.019531 338.082031 " fill-opacity="1" fill-rule="nonzero"/><path fill="rgb(14.509583%, 6.669617%, 6.669617%)" d="M 655.605469 251.902344 L 672.039062 257.460938 C 673.976562 258.136719 676.085938 257.125 676.757812 255.1875 L 703.304688 177.511719 C 703.640625 176.585938 703.136719 175.574219 702.210938 175.238281 L 682.40625 168.5 C 681.5625 168.246094 680.636719 168.667969 680.296875 169.507812 L 653.582031 247.773438 C 652.992188 249.375 653.921875 251.3125 655.605469 251.902344 Z M 655.605469 251.902344 " fill-opacity="1" fill-rule="nonzero"/><path fill="rgb(97.24884%, 67.059326%, 58.039856%)" d="M 692.722656 141.15625 L 710.902344 147.367188 L 708.640625 153.984375 L 690.460938 147.773438 Z M 692.722656 141.15625 " fill-opacity="1" fill-rule="nonzero"/><path fill="rgb(97.24884%, 67.059326%, 58.039856%)" d="M 665.355469 303.257812 L 627.683594 303.257812 L 627.683594 301.65625 L 665.355469 301.65625 Z M 665.355469 303.257812 " fill-opacity="1" fill-rule="nonzero"/></svg>