<?xml version="1.0" encoding="UTF-8"?><svg xmlns="http://www.w3.org/2000/svg" xmlns:xlink="http://www.w3.org/1999/xlink" contentScriptType="text/ecmascript" width="810pt" zoomAndPan="magnify" contentStyleType="text/css" viewBox="0 0 810 809.999993" height="809.999993pt" preserveAspectRatio="xMidYMid meet" version="1.2"><defs><clipPath xml:id="clip1" id="clip1"><path d="M 23 445 L 141 445 L 141 717.445312 L 23 717.445312 Z M 23 445 "/></clipPath></defs><g xml:id="surface1" id="surface1"><path style=" stroke:none;fill-rule:nonzero;fill:rgb(68.629456%,69.40918%,90.979004%);fill-opacity:1;" d="M 444.421875 213.15625 C 414.253906 214.402344 266.675781 125.820312 230.691406 103.921875 C 230.910156 103.464844 231.035156 103.167969 231.070312 103.054688 C 232.289062 99.074219 232.066406 97.847656 228.300781 95.277344 C 224.53125 92.707031 220.398438 95.128906 219.210938 97.117188 C 218.023438 99.109375 202.613281 125.71875 193.6875 142.285156 C 156.605469 211.140625 117.71875 296.960938 81.65625 392.167969 C 66.726562 432.226562 66.105469 432.746094 49.464844 471.929688 C 49.464844 471.929688 47.636719 476.375 52.417969 478.765625 C 57.191406 481.152344 59.503906 478.296875 59.503906 478.296875 C 76.144531 439.113281 80.714844 433.429688 95.648438 393.375 C 110.019531 355.421875 132.914062 304.84375 155.8125 256.535156 C 160.4375 275.183594 211.753906 298.382812 267.644531 318.011719 C 267.320312 318.859375 267.1875 319.703125 267.367188 320.519531 C 268.5 323.917969 277.5625 323.917969 279.828125 325.621094 C 279.828125 329.019531 279.261719 336.953125 280.960938 339.21875 C 283.792969 342.050781 296.242188 338.085938 296.808594 333.550781 C 298.394531 327.21875 289.164062 326.78125 285.152344 324 C 338.992188 341.964844 393.023438 355.90625 410.53125 358.765625 C 449.121094 365.074219 415.339844 305.769531 419.863281 281.40625 C 424.378906 257.035156 478.847656 211.734375 444.421875 213.15625 "/><path style=" stroke:none;fill-rule:nonzero;fill:rgb(68.629456%,69.40918%,90.979004%);fill-opacity:1;" d="M 587.289062 681.082031 C 581.167969 668.128906 577.074219 657.195312 573.65625 643.558594 C 569.5625 627.1875 563.421875 610.121094 560.691406 593.757812 C 558.433594 581.992188 558.332031 569.925781 559.78125 557.960938 C 559.78125 557.960938 559.78125 557.953125 559.78125 557.953125 C 559.78125 557.953125 559.78125 557.953125 559.789062 557.953125 C 559.863281 557.933594 559.910156 557.917969 559.9375 557.914062 C 559.957031 557.90625 559.957031 557.90625 559.964844 557.90625 C 559.964844 557.90625 559.964844 557.90625 559.949219 557.90625 C 559.929688 557.914062 559.875 557.925781 559.800781 557.945312 C 559.789062 557.945312 559.789062 557.945312 559.78125 557.953125 C 559.847656 557.367188 559.902344 556.800781 559.984375 556.234375 C 560.089844 555.402344 560.191406 554.59375 560.3125 553.765625 C 562.234375 546.480469 567.472656 530.566406 571.695312 513.292969 C 571.800781 512.839844 571.910156 512.390625 572.019531 511.9375 C 572.160156 511.351562 572.300781 510.761719 572.4375 510.175781 C 572.597656 509.496094 572.753906 508.820312 572.90625 508.140625 C 572.988281 507.773438 573.070312 507.417969 573.152344 507.054688 C 573.351562 506.15625 573.546875 505.257812 573.742188 504.363281 C 573.796875 504.113281 573.851562 503.863281 573.898438 503.605469 C 574.335938 501.542969 574.742188 499.476562 575.121094 497.421875 C 575.144531 497.300781 575.167969 497.171875 575.195312 497.050781 C 575.382812 495.996094 575.5625 494.945312 575.738281 493.898438 C 575.753906 493.8125 575.765625 493.726562 575.78125 493.636719 C 576.324219 490.296875 576.777344 487.011719 577.09375 483.824219 C 577.09375 483.824219 577.09375 483.816406 577.09375 483.816406 C 577.957031 475.195312 577.863281 467.332031 576.183594 461.265625 C 571.707031 445.140625 566.167969 414.125 553.867188 400.996094 C 552.667969 399.722656 551.410156 398.601562 550.082031 397.691406 L 550.019531 397.699219 L 480.511719 401.613281 C 478.105469 403.019531 476.851562 405.710938 476.210938 409.085938 C 476.203125 409.085938 476.195312 409.09375 476.195312 409.09375 C 476.175781 409.1875 476.167969 409.289062 476.148438 409.382812 C 476.035156 410.042969 475.933594 410.730469 475.859375 411.445312 C 475.851562 411.535156 475.839844 411.621094 475.824219 411.710938 C 475.65625 413.429688 475.597656 415.265625 475.582031 417.167969 C 475.582031 417.226562 475.582031 417.28125 475.582031 417.339844 C 475.574219 420.613281 475.710938 424.054688 475.746094 427.386719 C 475.746094 427.566406 475.75 427.75 475.75 427.925781 C 475.75 428.558594 475.75 429.179688 475.746094 429.800781 C 475.746094 430.023438 475.738281 430.246094 475.730469 430.46875 C 475.71875 431.019531 475.703125 431.582031 475.683594 432.128906 C 475.683594 432.128906 491.835938 463.039062 502.996094 473.457031 C 503.332031 473.777344 503.664062 474.128906 503.980469 474.519531 C 504.019531 474.566406 504.058594 474.628906 504.101562 474.683594 C 504.363281 475.011719 504.621094 475.363281 504.871094 475.742188 C 504.945312 475.855469 505.019531 475.984375 505.09375 476.105469 C 505.292969 476.4375 505.496094 476.773438 505.691406 477.132812 C 505.773438 477.285156 505.847656 477.449219 505.929688 477.605469 C 506.101562 477.953125 506.277344 478.320312 506.445312 478.691406 C 506.519531 478.863281 506.59375 479.046875 506.667969 479.230469 C 506.832031 479.605469 506.988281 480 507.132812 480.394531 C 507.203125 480.585938 507.277344 480.78125 507.34375 480.976562 C 507.492188 481.386719 507.625 481.8125 507.769531 482.246094 C 507.828125 482.441406 507.890625 482.636719 507.949219 482.835938 C 508.085938 483.289062 508.214844 483.761719 508.339844 484.234375 C 508.386719 484.429688 508.441406 484.617188 508.496094 484.8125 C 508.625 485.320312 508.746094 485.839844 508.859375 486.367188 C 508.902344 486.542969 508.941406 486.710938 508.980469 486.886719 C 509.117188 487.5 509.238281 488.121094 509.359375 488.753906 C 509.378906 488.847656 509.398438 488.941406 509.414062 489.035156 C 509.554688 489.773438 509.683594 490.527344 509.804688 491.289062 C 509.816406 491.378906 509.824219 491.464844 509.839844 491.546875 C 509.9375 492.199219 510.039062 492.859375 510.128906 493.523438 C 510.175781 493.867188 510.214844 494.21875 510.257812 494.566406 C 510.308594 494.972656 510.355469 495.371094 510.40625 495.78125 C 510.457031 496.21875 510.503906 496.664062 510.546875 497.105469 C 510.578125 497.414062 510.613281 497.730469 510.640625 498.042969 C 510.695312 498.546875 510.734375 499.058594 510.78125 499.574219 C 510.800781 499.800781 510.824219 500.039062 510.84375 500.273438 C 510.890625 500.859375 510.929688 501.449219 510.972656 502.035156 C 510.976562 502.101562 510.984375 502.167969 510.984375 502.238281 L 510.574219 502.324219 L 510.574219 507.75 C 510.574219 515.382812 510.75 522.980469 510.871094 530.527344 C 511.09375 543.476562 511.832031 556.308594 513.382812 568.949219 C 515.628906 587.144531 519.898438 604.980469 527.972656 622.402344 C 535.476562 640.15625 557.347656 669.324219 568.257812 685.707031 C 569.738281 687.785156 570.769531 689.632812 571.566406 691.320312 C 577.539062 689.667969 583.09375 685.484375 587.222656 681.277344 C 587.273438 681.257812 587.289062 681.203125 587.34375 681.167969 C 587.320312 681.128906 587.308594 681.113281 587.289062 681.082031 "/><path style=" stroke:none;fill-rule:nonzero;fill:rgb(76.078796%,48.239136%,40.779114%);fill-opacity:1;" d="M 88.164062 180.96875 L 96.066406 171.417969 C 93.757812 159.96875 89.472656 149.367188 78.085938 152.355469 C 74.742188 153.3125 68.789062 155.855469 66.921875 158.0625 C 61.25 164.003906 64.59375 163.746094 69.171875 169.527344 C 75.21875 176.5625 83.308594 171.78125 88.164062 180.96875 "/><g clip-rule="nonzero" clip-path="url(#clip1)"><path style=" stroke:none;fill-rule:nonzero;fill:rgb(76.078796%,48.239136%,40.779114%);fill-opacity:1;" d="M 115.359375 445.960938 L 62.242188 558.269531 C 58.742188 584.542969 49.335938 617.84375 42.332031 649.507812 C 38.421875 667.179688 35.253906 684.339844 34.28125 699.496094 C 34.046875 703.097656 23.171875 711.46875 23.582031 713.429688 C 25.523438 722.625 45.164062 714.523438 50.652344 704.269531 C 55.066406 696.019531 58.558594 680.917969 60.191406 676.292969 C 73.832031 638.769531 90.199219 601.925781 109.292969 567.132812 C 122.925781 541.886719 128.148438 484.289062 140.425781 458.359375 L 115.359375 445.960938 "/></g><path style=" stroke:none;fill-rule:nonzero;fill:rgb(76.078796%,48.239136%,40.779114%);fill-opacity:1;" d="M 193.167969 643.558594 C 189.074219 627.179688 182.941406 610.121094 180.210938 593.75 C 177.84375 581.433594 177.863281 568.785156 179.515625 556.238281 C 180.359375 549.867188 181.140625 543.714844 181.882812 537.695312 C 194.144531 542.175781 196.132812 523.140625 198.117188 514.695312 C 194.535156 515.207031 191.46875 517.257812 187.890625 517.773438 L 185.328125 518.277344 C 184.914062 518.546875 184.503906 518.824219 184.09375 519.121094 C 185.191406 509.542969 186.222656 500.140625 187.234375 490.609375 L 130.429688 502.324219 C 130.429688 543.941406 129.746094 584.199219 147.476562 622.402344 C 154.976562 640.144531 176.859375 669.324219 187.765625 685.699219 C 195.953125 697.296875 191.71875 702.234375 196.492188 706.328125 C 201.269531 710.421875 205.101562 705.808594 207.488281 699.757812 C 209.875 693.699219 209.535156 686.199219 206.804688 681.082031 C 200.671875 668.117188 196.578125 657.203125 193.167969 643.558594 "/><path style=" stroke:none;fill-rule:nonzero;fill:rgb(76.078796%,48.239136%,40.779114%);fill-opacity:1;" d="M 139.570312 265.390625 C 141.054688 266.289062 142.570312 266.890625 144.09375 267.238281 C 144.539062 280.554688 140.539062 293.855469 135.875 306.511719 C 135.875 306.511719 181.800781 310.921875 182.496094 310.921875 C 183.183594 310.921875 174.417969 242.058594 174.417969 242.058594 L 173.609375 242.699219 C 179.703125 227.894531 180.082031 210.417969 168.613281 202.132812 C 143.378906 194.628906 121.15625 255.160156 139.570312 265.390625 "/><path style=" stroke:none;fill-rule:nonzero;fill:rgb(76.078796%,48.239136%,40.779114%);fill-opacity:1;" d="M 84.214844 340.609375 L 100.136719 337.039062 C 100.136719 337.039062 106.542969 327.414062 111.738281 324.945312 C 116.9375 322.46875 119.0625 320.511719 119.316406 319.277344 C 119.566406 318.042969 110.4375 319.710938 110.4375 319.710938 L 114.207031 310.914062 C 114.207031 310.914062 99.632812 307.945312 95.140625 317.167969 C 90.65625 326.382812 84.214844 340.609375 84.214844 340.609375 "/><path style=" stroke:none;fill-rule:nonzero;fill:rgb(76.078796%,48.239136%,40.779114%);fill-opacity:1;" d="M 112.601562 396.261719 L 105.03125 403.742188 L 169.585938 397.699219 C 169.273438 396.316406 169.363281 394.832031 169.726562 393.316406 L 112.601562 396.261719 "/><path style=" stroke:none;fill-rule:nonzero;fill:rgb(76.078796%,48.239136%,40.779114%);fill-opacity:1;" d="M 468.660156 180.96875 L 476.554688 171.417969 C 474.246094 159.96875 469.960938 149.367188 458.574219 152.355469 C 455.230469 153.3125 449.28125 155.855469 447.410156 158.0625 C 441.738281 164.003906 445.082031 163.746094 449.660156 169.527344 C 455.707031 176.5625 463.796875 171.78125 468.660156 180.96875 "/><path style=" stroke:none;fill-rule:nonzero;fill:rgb(76.078796%,48.239136%,40.779114%);fill-opacity:1;" d="M 442.730469 558.269531 C 439.222656 584.535156 429.832031 617.84375 422.828125 649.511719 C 418.910156 667.179688 415.75 684.339844 414.773438 699.480469 C 414.542969 703.097656 409.59375 705.722656 410.003906 707.691406 C 411.941406 716.878906 425.660156 714.523438 431.148438 704.269531 C 435.550781 696.015625 439.050781 680.917969 440.695312 676.292969 C 454.324219 638.773438 470.6875 601.917969 489.773438 567.125 C 496.421875 554.816406 503.738281 542.851562 510.871094 530.796875 L 510.871094 530.519531 C 510.75 523.058594 510.574219 515.546875 510.574219 508.003906 L 442.730469 558.269531 "/><path style=" stroke:none;fill-rule:nonzero;fill:rgb(76.078796%,48.239136%,40.779114%);fill-opacity:1;" d="M 559.539062 586.1875 C 558.984375 581.394531 558.777344 576.535156 558.84375 571.664062 C 558.761719 576.523438 558.984375 581.371094 559.539062 586.1875 "/><path style=" stroke:none;fill-rule:nonzero;fill:rgb(76.078796%,48.239136%,40.779114%);fill-opacity:1;" d="M 559.984375 556.234375 C 559.902344 556.800781 559.847656 557.371094 559.78125 557.9375 C 559.847656 557.371094 559.9375 556.800781 560.003906 556.234375 C 560.105469 555.382812 560.226562 554.539062 560.335938 553.691406 C 560.335938 553.710938 560.3125 553.742188 560.3125 553.765625 C 560.191406 554.59375 560.089844 555.402344 559.984375 556.234375 "/><path style=" stroke:none;fill-rule:nonzero;fill:rgb(76.078796%,48.239136%,40.779114%);fill-opacity:1;" d="M 587.34375 681.160156 C 587.289062 681.203125 587.273438 681.25 587.222656 681.269531 C 583.09375 685.480469 577.554688 689.660156 571.585938 691.320312 C 575.226562 699.035156 573.070312 702.957031 576.988281 706.320312 C 581.765625 710.414062 585.597656 705.800781 587.984375 699.765625 C 590.34375 693.734375 590.019531 686.273438 587.34375 681.160156 "/><path style=" stroke:none;fill-rule:nonzero;fill:rgb(76.078796%,48.239136%,40.779114%);fill-opacity:1;" d="M 554.105469 242.699219 C 560.191406 227.894531 560.570312 210.417969 549.101562 202.132812 C 523.875 194.628906 501.648438 255.160156 520.058594 265.390625 C 521.546875 266.289062 523.058594 266.890625 524.582031 267.238281 C 525.027344 280.554688 521.03125 293.855469 516.371094 306.511719 C 516.371094 306.511719 562.289062 310.921875 562.984375 310.921875 C 563.679688 310.921875 554.914062 242.058594 554.914062 242.058594 L 554.105469 242.699219 "/><path style=" stroke:none;fill-rule:nonzero;fill:rgb(76.078796%,48.239136%,40.779114%);fill-opacity:1;" d="M 464.703125 340.609375 L 480.625 337.039062 C 480.625 337.039062 487.03125 327.414062 492.226562 324.945312 C 497.425781 322.46875 499.550781 320.511719 499.804688 319.277344 C 500.054688 318.042969 490.925781 319.710938 490.925781 319.710938 L 494.695312 310.914062 C 494.695312 310.914062 480.121094 307.945312 475.628906 317.167969 C 471.148438 326.382812 464.703125 340.609375 464.703125 340.609375 "/><path style=" stroke:none;fill-rule:nonzero;fill:rgb(76.078796%,48.239136%,40.779114%);fill-opacity:1;" d="M 493.089844 396.261719 L 485.527344 403.742188 L 550.074219 397.699219 C 549.769531 396.316406 549.851562 394.832031 550.222656 393.316406 L 493.089844 396.261719 "/><path style=" stroke:none;fill-rule:nonzero;fill:rgb(76.078796%,48.239136%,40.779114%);fill-opacity:1;" d="M 280.453125 175.152344 L 288.355469 165.601562 C 286.050781 154.15625 281.761719 143.550781 270.375 146.539062 C 267.03125 147.496094 261.085938 150.039062 259.210938 152.246094 C 253.539062 158.1875 256.882812 157.925781 261.460938 163.714844 C 267.511719 170.75 275.601562 165.964844 280.453125 175.152344 "/><path style=" stroke:none;fill-rule:nonzero;fill:rgb(76.078796%,48.239136%,40.779114%);fill-opacity:1;" d="M 380.003906 637.742188 C 375.910156 621.363281 369.777344 604.304688 367.046875 587.933594 C 364.679688 575.617188 364.691406 562.972656 366.351562 550.425781 C 369.472656 526.832031 371.800781 506.167969 374.070312 484.792969 L 317.265625 496.511719 C 317.265625 505.722656 317.230469 514.871094 317.371094 523.945312 L 295.0625 537.042969 L 276.316406 543.101562 C 276.484375 544.652344 276.652344 546.203125 276.828125 547.753906 L 271.496094 550.878906 C 266.695312 570.574219 258.023438 593.980469 249.589844 617.648438 C 251.875 604.171875 254.558594 590.789062 257.707031 577.589844 C 263.179688 553.90625 271.191406 530.730469 275.398438 506.804688 L 217.296875 580.914062 C 220.332031 603.160156 220.121094 632.460938 221.503906 659.894531 C 222.097656 671.71875 222.992188 683.183594 224.570312 693.601562 C 223.648438 694.449219 222.960938 695.207031 223.039062 695.953125 C 223.277344 698.292969 224.320312 699.996094 225.867188 701.082031 C 225.960938 701.558594 226.039062 702.050781 226.140625 702.523438 C 226.753906 705.519531 223.304688 708.777344 224.078125 710.289062 C 227.726562 717.355469 238.398438 712.351562 240.578125 702.746094 C 240.886719 701.410156 241.117188 699.894531 241.296875 698.300781 C 242.445312 697.308594 243.507812 696.15625 244.417969 694.8125 C 249.683594 687.082031 254.773438 672.445312 256.882812 668.015625 C 266.398438 648.589844 276.710938 629.464844 287.75 610.828125 C 291.097656 621.75 295.535156 632.386719 301.722656 642.632812 C 309.671875 656.878906 330.78125 679.429688 341.472656 692.210938 C 349.429688 701.222656 346.320312 705.761719 350.71875 708.769531 C 355.113281 711.777344 357.917969 707.550781 359.367188 702.226562 C 360.824219 696.910156 359.847656 690.625 357.074219 686.566406 C 350.71875 676.21875 346.269531 667.40625 342.140625 656.230469 C 337.1875 642.820312 330.453125 629.027344 326.648438 615.488281 C 323.519531 605.339844 322.367188 594.6875 322.609375 583.96875 C 322.636719 582.957031 322.652344 581.972656 322.671875 580.96875 C 325.199219 593.019531 328.894531 604.90625 334.320312 616.597656 C 341.816406 634.335938 363.703125 663.515625 374.609375 679.894531 C 382.796875 691.488281 378.5625 696.417969 383.335938 700.515625 C 388.109375 704.609375 391.945312 700 394.332031 693.949219 C 396.71875 687.894531 396.375 680.394531 393.648438 675.273438 C 387.507812 662.300781 383.414062 651.386719 380.003906 637.742188 "/><path style=" stroke:none;fill-rule:nonzero;fill:rgb(76.078796%,48.239136%,40.779114%);fill-opacity:1;" d="M 331.859375 259.578125 C 333.351562 260.46875 334.859375 261.074219 336.382812 261.417969 C 336.828125 274.742188 332.832031 288.042969 328.171875 300.695312 C 328.171875 300.695312 374.089844 305.105469 374.785156 305.105469 C 375.472656 305.105469 366.710938 236.238281 366.710938 236.238281 L 365.898438 236.886719 C 371.996094 222.074219 372.371094 204.601562 360.90625 196.3125 C 335.667969 188.8125 313.449219 249.34375 331.859375 259.578125 "/><path style=" stroke:none;fill-rule:nonzero;fill:rgb(76.078796%,48.239136%,40.779114%);fill-opacity:1;" d="M 342.019531 371.769531 C 341.003906 375.183594 339.976562 379.277344 341.003906 382.691406 L 342.363281 386.097656 C 354.640625 386.777344 363.84375 368.019531 357.363281 359.148438 C 354.976562 362.21875 352.246094 369.382812 347.476562 368.703125 C 349.1875 359.832031 343.046875 368.019531 342.019531 371.769531 "/><path style=" stroke:none;fill-rule:nonzero;fill:rgb(76.078796%,48.239136%,40.779114%);fill-opacity:1;" d="M 255.773438 385.140625 C 259.730469 386.535156 263.476562 386.246094 266.902344 384.714844 C 267.902344 397.902344 258.1875 416.378906 256.269531 428.894531 C 256.269531 428.894531 302.144531 424.046875 302.824219 423.910156 C 303.382812 423.796875 288.023438 378.273438 282.855469 363 C 283.867188 359.8125 284.628906 356.472656 285.097656 353.101562 C 285.097656 353.101562 273.441406 341.78125 271.320312 337.371094 C 269.203125 332.953125 266.140625 320.535156 266.324219 317.800781 C 244.167969 323.722656 237.105469 379.238281 255.773438 385.140625 "/><path style=" stroke:none;fill-rule:nonzero;fill:rgb(81.959534%,79.60968%,92.939758%);fill-opacity:1;" d="M 169.585938 397.691406 C 169.464844 397.125 169.394531 396.519531 169.394531 395.917969 C 169.394531 396.519531 169.449219 397.125 169.585938 397.691406 "/><path style=" stroke:none;fill-rule:nonzero;fill:rgb(81.959534%,79.60968%,92.939758%);fill-opacity:1;" d="M 487.726562 258.066406 C 490.933594 269.5 496.609375 282.863281 501.027344 295.554688 C 506.003906 283.933594 510.992188 272.542969 515.972656 261.363281 C 511.558594 254.113281 512.886719 240.765625 517.652344 228.523438 C 513.921875 222.132812 510.109375 215.8125 506.136719 209.636719 C 496.597656 194.628906 486.355469 175.511719 474.085938 162.558594 C 470 165.285156 466.582031 168.015625 463.851562 172.113281 L 463.179688 174.835938 C 463.851562 182.332031 467.945312 189.84375 470.667969 196.664062 C 478.179688 216.453125 480.902344 237.609375 487.726562 258.066406 "/><path style=" stroke:none;fill-rule:nonzero;fill:rgb(81.959534%,79.60968%,92.939758%);fill-opacity:1;" d="M 292.125 623.234375 C 286.980469 623.3125 282.152344 623.28125 277.917969 623.28125 C 268.347656 623.28125 258.609375 622.679688 248.890625 621.882812 C 245.867188 640.394531 243.609375 659.078125 242.09375 677.761719 C 242.039062 678.589844 242.003906 679.765625 241.984375 681.183594 C 261.246094 683.925781 286.449219 685.324219 300.222656 684.804688 C 312.058594 684.371094 322.636719 683.441406 332.714844 682.046875 C 321.761719 669.472656 307.847656 653.585938 301.722656 642.621094 C 297.910156 636.304688 294.765625 629.832031 292.125 623.234375 "/><path style=" stroke:none;fill-rule:nonzero;fill:rgb(81.959534%,79.60968%,92.939758%);fill-opacity:1;" d="M 107.230469 258.066406 C 110.4375 269.5 116.117188 282.863281 120.539062 295.554688 C 125.507812 283.933594 130.496094 272.542969 135.484375 261.363281 C 131.0625 254.101562 132.390625 240.765625 137.171875 228.523438 C 133.429688 222.132812 129.613281 215.835938 125.640625 209.636719 C 116.101562 194.628906 105.867188 175.511719 93.589844 162.558594 C 89.503906 165.285156 86.109375 168.015625 83.355469 172.113281 L 82.6875 174.835938 C 83.355469 182.332031 87.46875 189.84375 90.191406 196.664062 C 97.683594 216.453125 100.414062 237.609375 107.230469 258.066406 "/><path style=" stroke:none;fill-rule:nonzero;fill:rgb(81.959534%,79.60968%,92.939758%);fill-opacity:1;" d="M 170.015625 290.273438 C 158.628906 286.09375 148.132812 290.121094 139.160156 296.992188 C 140.367188 293.15625 141.4375 289.289062 142.28125 285.40625 C 140.023438 290.242188 137.808594 295.089844 135.605469 299.90625 C 130.234375 304.621094 125.488281 310.144531 121.535156 315.226562 C 115.648438 322.734375 109.089844 330.679688 104.296875 338.949219 C 103.65625 340.109375 103.050781 341.214844 102.484375 342.246094 C 102.738281 339.300781 102.914062 336.789062 103.003906 335.136719 L 102.550781 334.117188 C 96.875 333.597656 90.644531 334.511719 84.707031 334.71875 L 84.292969 337.917969 C 76.164062 352.386719 38.726562 424.6875 75.457031 416.085938 C 86.15625 413.941406 96.144531 409.613281 105.050781 403.703125 L 105.039062 403.738281 L 112.597656 396.261719 L 169.726562 393.308594 C 171.222656 387.097656 177.40625 380.035156 180.527344 375.023438 C 193.957031 353.523438 202.066406 332.0625 189.277344 308.265625 C 185.070312 300.425781 178.523438 293.398438 170.015625 290.273438 "/><path style=" stroke:none;fill-rule:nonzero;fill:rgb(81.959534%,79.60968%,92.939758%);fill-opacity:1;" d="M 550.082031 397.691406 C 549.957031 397.125 549.890625 396.519531 549.890625 395.917969 C 549.890625 396.519531 549.9375 397.125 550.082031 397.691406 "/><path style=" stroke:none;fill-rule:nonzero;fill:rgb(81.959534%,79.60968%,92.939758%);fill-opacity:1;" d="M 569.773438 308.265625 C 565.558594 300.425781 559.019531 293.398438 550.511719 290.273438 C 539.117188 286.09375 528.628906 290.121094 519.652344 296.972656 C 520.859375 293.15625 521.945312 289.289062 522.777344 285.40625 C 520.515625 290.253906 518.285156 295.089844 516.082031 299.90625 L 516.027344 299.960938 C 515.109375 300.757812 514.214844 301.578125 513.351562 302.429688 C 513.304688 302.484375 513.25 302.53125 513.195312 302.566406 C 512.332031 303.414062 511.488281 304.277344 510.660156 305.140625 C 510.605469 305.195312 510.558594 305.242188 510.519531 305.277344 C 509.65625 306.171875 508.832031 307.089844 508.019531 307.988281 L 508.019531 308.007812 C 505.859375 310.421875 503.859375 312.878906 502.011719 315.226562 C 496.125 322.734375 489.585938 330.679688 484.785156 338.949219 C 484.132812 340.109375 483.53125 341.214844 482.980469 342.246094 C 483.234375 339.300781 483.410156 336.789062 483.476562 335.136719 L 483.046875 334.117188 C 477.371094 333.597656 471.140625 334.511719 465.179688 334.71875 L 464.78125 337.917969 C 456.636719 352.386719 419.199219 424.6875 455.949219 416.085938 C 466.648438 413.941406 476.640625 409.613281 485.546875 403.703125 L 485.535156 403.738281 L 493.089844 396.261719 L 550.214844 393.308594 C 551.71875 387.097656 557.878906 380.035156 561.023438 375.023438 C 574.453125 353.523438 582.5625 332.0625 569.773438 308.265625 "/><path style=" stroke:none;fill-rule:nonzero;fill:rgb(81.959534%,79.60968%,92.939758%);fill-opacity:1;" d="M 361.867188 391.878906 C 360.316406 384.851562 368.914062 375.453125 372.808594 369.199219 C 386.238281 347.703125 394.351562 326.242188 381.5625 302.441406 C 377.347656 294.605469 370.808594 287.578125 362.300781 284.453125 C 348.113281 279.253906 341.933594 279.804688 332.117188 289.046875 C 334.839844 279.996094 336.6875 270.707031 336.378906 261.417969 C 334.859375 261.074219 333.335938 260.46875 331.855469 259.570312 C 322.933594 254.613281 323.554688 237.832031 329.441406 222.722656 C 325.710938 216.332031 321.917969 209.992188 317.945312 203.8125 C 308.386719 188.804688 298.164062 169.710938 285.894531 156.738281 C 281.800781 159.472656 278.382812 162.195312 275.660156 166.289062 L 274.972656 169.015625 C 275.660156 176.53125 279.753906 184.023438 282.476562 190.84375 C 289.988281 210.632812 292.710938 231.785156 299.527344 252.25 C 304.050781 268.425781 313.542969 288.425781 317.414062 304.984375 C 317.359375 305.054688 317.324219 305.105469 317.269531 305.15625 C 312.511719 310.613281 308.882812 318.367188 306.121094 327.125 C 306.847656 328.035156 307.535156 328.972656 308.210938 329.917969 C 312.667969 336.289062 317.027344 343.617188 320.515625 350.914062 C 324.871094 359.359375 331.199219 372.433594 329.144531 382.914062 C 327.714844 390.117188 322.625 395.464844 316.628906 398.355469 C 319.394531 401.269531 323.554688 407.054688 326.574219 412.578125 C 329.097656 400.890625 334.960938 385.292969 336.464844 382.605469 C 338.050781 380.035156 339.085938 378.496094 340.691406 377.753906 C 340.914062 375.695312 341.46875 373.640625 342.019531 371.777344 C 343.039062 368.027344 349.1875 359.824219 347.476562 368.703125 C 352.253906 369.394531 354.984375 362.226562 357.363281 359.15625 C 361.214844 364.417969 359.523438 373.171875 354.964844 379.269531 C 355.417969 379.617188 355.761719 380.011719 355.914062 380.480469 C 356.878906 383.054688 353.425781 393.671875 352.71875 396.640625 C 351.304688 403.980469 350.117188 412.324219 347.199219 419.316406 C 344.886719 425.828125 339.828125 446.648438 336.289062 452.382812 C 332.90625 457.386719 331.144531 466.886719 323.933594 462.988281 C 318 460.03125 313.542969 451.222656 310.003906 441.125 C 309.195312 452.4375 306.074219 463.363281 309.058594 474.296875 C 314.714844 496.382812 327.183594 515.082031 332.839844 536.617188 C 339.066406 557.574219 346.421875 579.09375 349.820312 600.625 L 351.535156 602.316406 C 346.523438 610.796875 337.792969 615.839844 327.679688 618.863281 C 331.578125 631.3125 337.605469 643.933594 342.140625 656.230469 C 345.183594 664.46875 348.40625 671.40625 352.429688 678.644531 C 367.03125 675.671875 381.628906 671.664062 398.753906 666.835938 C 398.753906 630.671875 388.828125 530.761719 380.886719 502.082031 C 375.984375 484.382812 374.832031 430.433594 361.867188 391.878906 "/><path style=" stroke:none;fill-rule:nonzero;fill:rgb(81.959534%,79.60968%,92.939758%);fill-opacity:1;" d="M 432.90625 478.769531 C 437.671875 481.152344 439.984375 478.304688 439.984375 478.304688 C 453.5625 446.304688 459.105469 436.632812 468.839844 412.335938 C 464.679688 413.941406 460.367188 415.203125 455.949219 416.085938 C 454.859375 416.34375 453.859375 416.519531 452.910156 416.640625 C 445.839844 435.082031 442.296875 442.867188 429.953125 471.929688 C 429.953125 471.929688 428.128906 476.371094 432.90625 478.769531 "/><path style=" stroke:none;fill-rule:nonzero;fill:rgb(81.959534%,79.60968%,92.939758%);fill-opacity:1;" d="M 495.957031 322.941406 C 494.9375 323.5625 493.730469 324.238281 492.226562 324.945312 C 490.535156 325.753906 488.710938 327.328125 486.996094 329.09375 C 485.769531 332.09375 484.53125 335.117188 483.300781 338.160156 C 483.222656 339.367188 483.113281 340.75 482.980469 342.246094 C 483.53125 341.214844 484.132812 340.109375 484.785156 338.949219 C 487.96875 333.457031 491.933594 328.121094 495.957031 322.941406 "/><path style=" stroke:none;fill-rule:nonzero;fill:rgb(81.959534%,79.60968%,92.939758%);fill-opacity:1;" d="M 515.972656 261.363281 C 508.792969 277.425781 501.632812 293.949219 494.539062 310.910156 C 494.640625 310.910156 494.695312 310.921875 494.695312 310.921875 L 490.933594 319.710938 C 490.933594 319.710938 497.097656 318.589844 499.144531 318.867188 C 500.117188 317.640625 501.082031 316.433594 502.011719 315.226562 C 505.980469 310.167969 510.714844 304.621094 516.082031 299.90625 C 518.285156 295.070312 520.53125 290.21875 522.796875 285.351562 C 524.070312 279.359375 524.777344 273.296875 524.589844 267.238281 C 523.050781 266.890625 521.546875 266.289062 520.050781 265.390625 C 518.359375 264.441406 516.992188 263.078125 515.972656 261.363281 "/><path style=" stroke:none;fill-rule:nonzero;fill:rgb(81.959534%,79.60968%,92.939758%);fill-opacity:1;" d="M 544.328125 200.601562 C 544.503906 200.570312 544.695312 200.527344 544.921875 200.496094 L 544.726562 199.792969 C 544.605469 200.0625 544.472656 200.328125 544.328125 200.601562 "/><path style=" stroke:none;fill-rule:nonzero;fill:rgb(81.959534%,79.60968%,92.939758%);fill-opacity:1;" d="M 560.625 288.195312 C 560.902344 288.425781 561.175781 288.628906 561.472656 288.859375 C 561.15625 288.492188 560.867188 288.148438 560.570312 287.785156 L 560.625 288.195312 "/><path style=" stroke:none;fill-rule:nonzero;fill:rgb(81.959534%,79.60968%,92.939758%);fill-opacity:1;" d="M 764.886719 172.902344 C 727.328125 174.457031 638.121094 120.859375 611.128906 104.039062 C 611.371094 103.527344 611.523438 103.175781 611.558594 103.054688 C 612.777344 99.082031 612.554688 97.839844 608.792969 95.269531 C 605.011719 92.714844 600.894531 95.128906 599.699219 97.117188 C 598.507812 99.101562 583.09375 125.710938 574.175781 142.289062 C 564.664062 159.9375 555.046875 178.6875 545.402344 198.445312 C 553.742188 192.3125 561.765625 186.824219 573.191406 188.136719 C 580.902344 189.046875 589.554688 192.246094 593.175781 199.511719 C 596.371094 204.523438 595.90625 209.0625 598.648438 213.15625 C 603.183594 218.160156 610 221.339844 612.28125 228.628906 C 613.175781 230.890625 614.09375 234.984375 613.175781 237.265625 C 612.28125 239.535156 609.089844 241.351562 609.089844 242.714844 C 607.277344 247.261719 610.917969 253.183594 609.089844 258.640625 C 606.359375 265.910156 599.09375 266.820312 592.277344 266.375 C 590.449219 274.558594 589.089844 291.847656 575.914062 288.195312 C 575.757812 293.972656 574.035156 296.023438 571.652344 295.988281 C 609.777344 320.925781 669.066406 342.457031 701.285156 347.722656 C 751.183594 355.871094 707.5 279.171875 713.355469 247.65625 C 719.199219 216.125 809.417969 171.074219 764.886719 172.902344 "/><path style=" stroke:none;fill-rule:nonzero;fill:rgb(81.959534%,79.60968%,92.939758%);fill-opacity:1;" d="M 395.765625 214.605469 C 392.402344 205.316406 387.070312 193.433594 376.660156 190.554688 C 371.191406 189.015625 360.714844 185.90625 354.898438 188.207031 C 342.210938 187.097656 333.855469 201.863281 329.441406 212.359375 C 328.515625 214.445312 327.753906 216.582031 327.109375 218.761719 C 327.890625 220.078125 328.671875 221.390625 329.445312 222.714844 C 335.347656 207.558594 346.539062 194.066406 358.707031 195.839844 C 366.628906 202.75 367.152344 221.683594 365.109375 230.160156 C 361.976562 243.996094 351.621094 254.976562 347.21875 268.5 C 345.335938 275.089844 321.5 293.828125 317.269531 305.15625 C 315.769531 309.179688 322.238281 308.371094 329.109375 307.746094 C 331.542969 302.207031 335.082031 297.371094 340.589844 293.972656 C 346.167969 290.585938 358.417969 287.042969 363.316406 292.8125 C 363.316406 292.8125 368.460938 295.378906 366.757812 309.835938 C 365.683594 318.710938 363.492188 330.347656 361.160156 342.125 C 369.515625 352.9375 377.664062 360.742188 378.695312 359.050781 C 383.894531 350.605469 389.707031 340.59375 390.089844 330.609375 C 390.488281 320.230469 389.242188 309.871094 389.691406 299.496094 C 390.554688 279.132812 392.765625 266.445312 395.832031 246.53125 C 397.304688 237.054688 396.785156 228.210938 396.042969 218.699219 C 395.941406 217.332031 395.855469 215.96875 395.765625 214.605469 "/><path style=" stroke:none;fill-rule:nonzero;fill:rgb(81.959534%,79.60968%,92.939758%);fill-opacity:1;" d="M 228.65625 505.453125 C 219.59375 523.011719 214.503906 547.9375 209.410156 567.765625 C 207.144531 577.398438 204.878906 587.023438 201.480469 596.089844 C 200.457031 598.132812 196.984375 603.859375 194.746094 608.722656 C 193.699219 602.59375 192.777344 596.441406 192.351562 590.214844 C 191.078125 571.820312 191.042969 554.054688 191.042969 535.679688 C 188.65625 538.324219 185.378906 539.375 180.722656 537.21875 C 172.382812 533.25 175.457031 526.804688 180.601562 521.960938 C 180.582031 522.121094 180.546875 522.285156 180.535156 522.445312 C 185.625 523.578125 190.71875 525.277344 194.683594 529.246094 C 211.949219 515.019531 239.113281 482.703125 252.300781 459.019531 Z M 345.707031 377.269531 C 340.34375 376.78125 339.25 378.089844 336.457031 382.605469 C 334.96875 385.292969 329.089844 400.898438 326.566406 412.574219 C 322.589844 405.292969 316.597656 397.523438 314.519531 396.539062 C 311.648438 395.238281 309.101562 393.867188 306.855469 393.988281 L 266.027344 393.855469 C 260.363281 397.820312 254.234375 401.226562 250.269531 406.328125 C 236.6875 424.457031 226.390625 445.96875 214.5 465.234375 C 207.703125 476.558594 200.347656 488.457031 193.550781 500.355469 C 192.957031 501.433594 192.195312 502.59375 191.332031 503.796875 C 191.449219 484.363281 190.949219 464.511719 187.121094 446.617188 C 182.859375 427.953125 171.742188 413.273438 169.496094 394.570312 C 158.832031 396.398438 154.160156 396.605469 137.378906 397.921875 C 120.605469 399.25 106.816406 402.894531 105.039062 403.738281 C 105.039062 403.738281 84.738281 438.070312 78.253906 456.289062 C 64.683594 494.445312 59.039062 535.027344 43.59375 573.898438 C 36.414062 591.523438 30.546875 611.105469 22.054688 628.722656 C 14.875 643.089844 3.796875 656.796875 0.535156 673.113281 C 21.417969 680.296875 29.234375 674.429688 40.332031 657.457031 C 54.675781 635.265625 61.195312 611.765625 71.640625 588.921875 C 80.789062 567.371094 86 544.523438 96.441406 523.632812 C 104.917969 506.015625 113.40625 488.390625 122.539062 471.410156 C 129.058594 482.515625 119.277344 509.277344 117.960938 522.339844 C 116.015625 545.175781 116.667969 568.679688 116.667969 592.183594 C 116.015625 624.164062 113.40625 661.378906 106.226562 692.695312 C 123.195312 690.09375 144.058594 681.59375 160.367188 675.726562 C 175.382812 671.164062 200.171875 662.671875 199.511719 646.347656 C 199.511719 636.710938 197.988281 627.238281 196.324219 617.761719 C 203.21875 619.683594 218.113281 619.3125 221.292969 619.3125 C 239.984375 621.015625 259.230469 623.28125 277.917969 623.28125 C 300 623.28125 338.5 624.414062 351.519531 602.324219 L 349.828125 600.625 C 346.429688 579.097656 339.066406 557.570312 332.839844 536.609375 C 327.175781 515.085938 314.714844 496.390625 309.058594 474.296875 C 306.074219 463.363281 309.195312 452.429688 310.003906 441.117188 C 313.550781 451.230469 317.992188 460.03125 323.925781 462.980469 C 331.152344 466.886719 332.90625 457.386719 336.285156 452.382812 C 339.835938 446.644531 344.886719 425.828125 347.203125 419.324219 C 350.109375 412.328125 351.296875 403.984375 352.726562 396.640625 C 353.425781 393.671875 356.878906 383.046875 355.921875 380.472656 C 354.964844 377.894531 348.855469 377.226562 345.707031 377.269531 "/><path style=" stroke:none;fill-rule:nonzero;fill:rgb(81.959534%,79.60968%,92.939758%);fill-opacity:1;" d="M 510.984375 502.238281 C 510.902344 501.023438 510.800781 499.808594 510.6875 498.59375 C 510.660156 498.277344 510.632812 497.960938 510.601562 497.644531 C 510.558594 497.207031 510.503906 496.765625 510.457031 496.320312 C 510.425781 495.972656 510.382812 495.621094 510.34375 495.277344 C 510.289062 494.84375 510.234375 494.425781 510.183594 494 C 510.136719 493.636719 510.085938 493.28125 510.035156 492.921875 C 509.980469 492.515625 509.917969 492.113281 509.859375 491.714844 C 509.796875 491.335938 509.738281 490.964844 509.675781 490.59375 C 509.617188 490.21875 509.554688 489.839844 509.488281 489.460938 C 509.414062 489.070312 509.339844 488.6875 509.265625 488.292969 C 509.199219 487.957031 509.128906 487.613281 509.0625 487.277344 C 508.960938 486.8125 508.855469 486.359375 508.753906 485.90625 C 508.691406 485.65625 508.636719 485.40625 508.578125 485.164062 C 508.414062 484.492188 508.242188 483.835938 508.058594 483.203125 C 507.984375 482.960938 507.910156 482.738281 507.84375 482.5 C 507.714844 482.089844 507.585938 481.675781 507.453125 481.285156 C 507.363281 481.035156 507.277344 480.792969 507.1875 480.550781 C 507.054688 480.195312 506.917969 479.835938 506.785156 479.492188 C 506.691406 479.257812 506.589844 479.027344 506.488281 478.796875 C 506.339844 478.46875 506.191406 478.144531 506.042969 477.832031 C 505.933594 477.617188 505.828125 477.402344 505.71875 477.199219 C 505.558594 476.886719 505.386719 476.597656 505.214844 476.308594 C 505.105469 476.125 504.996094 475.945312 504.882812 475.769531 C 504.6875 475.472656 504.484375 475.1875 504.277344 474.917969 C 504.175781 474.785156 504.082031 474.640625 503.980469 474.515625 C 503.664062 474.128906 503.332031 473.773438 502.996094 473.449219 C 491.84375 463.035156 475.683594 432.121094 475.683594 432.121094 C 475.515625 435.953125 474.988281 439.398438 473.621094 441.941406 C 463.542969 463.972656 448.730469 532.078125 443.328125 557.824219 L 442.738281 558.261719 C 442.332031 561.367188 441.828125 564.554688 441.265625 567.828125 C 437.054688 592.359375 429.003906 621.5625 422.828125 649.507812 C 419.335938 665.257812 416.457031 680.574219 415.175781 694.441406 C 420.898438 697.371094 426.90625 699.421875 433.042969 700.167969 C 436.546875 691.738281 439.296875 680.238281 440.679688 676.292969 C 453.632812 640.628906 469.058594 605.585938 486.976562 572.332031 C 487.894531 570.585938 488.832031 568.867188 489.789062 567.132812 C 496.429688 554.828125 503.730469 542.84375 510.875 530.796875 C 510.875 530.703125 510.871094 530.609375 510.871094 530.511719 C 510.75 522.964844 510.574219 515.382812 510.574219 507.742188 L 510.574219 502.324219 L 510.984375 502.238281 "/><path style=" stroke:none;fill-rule:nonzero;fill:rgb(33.729553%,34.899902%,61.959839%);fill-opacity:1;" d="M 164.75 200.441406 C 163.765625 200.570312 163.152344 200.757812 163.152344 200.757812 C 157.253906 209.027344 167.402344 245.304688 172.699219 246.132812 C 171.65625 260.480469 167.757812 275.152344 164.050781 284.789062 C 182.460938 284.109375 204.441406 273.621094 207.691406 252.722656 C 213.027344 218.402344 189.042969 195.882812 164.75 200.441406 "/><path style=" stroke:none;fill-rule:nonzero;fill:rgb(33.729553%,34.899902%,61.959839%);fill-opacity:1;" d="M 613.183594 237.265625 C 614.09375 234.992188 613.183594 230.894531 612.273438 228.617188 C 610 221.34375 603.183594 218.160156 598.640625 213.15625 C 595.910156 209.0625 596.363281 204.515625 593.179688 199.511719 C 589.546875 192.238281 580.910156 189.046875 573.183594 188.136719 C 561.359375 186.777344 553.179688 192.691406 544.539062 199.058594 L 544.921875 200.488281 C 544.132812 200.617188 543.640625 200.757812 543.640625 200.757812 C 537.964844 208.71875 547.140625 242.578125 552.566406 245.882812 C 552.566406 248.421875 552.613281 250.992188 552.722656 253.632812 C 553.179688 264.097656 552.722656 272.738281 556.816406 282.289062 C 559.996094 288.65625 575.457031 305.9375 575.90625 288.195312 C 589.089844 291.839844 590.457031 274.558594 592.269531 266.371094 C 599.09375 266.820312 606.367188 265.917969 609.089844 258.632812 C 610.910156 253.175781 607.277344 247.265625 609.089844 242.714844 C 609.089844 241.351562 612.273438 239.535156 613.183594 237.265625 "/><path style=" stroke:none;fill-rule:nonzero;fill:rgb(33.729553%,34.899902%,61.959839%);fill-opacity:1;" d="M 259.175781 385.921875 C 260.351562 390.0625 261.785156 393.773438 263.492188 395.574219 L 263.511719 395.589844 C 264.355469 395.023438 265.203125 394.449219 266.027344 393.863281 L 266.222656 393.863281 C 266.820312 390.652344 267.117188 387.5625 266.910156 384.707031 C 264.476562 385.800781 261.886719 386.246094 259.175781 385.921875 "/><path style=" stroke:none;fill-rule:nonzero;fill:rgb(33.729553%,34.899902%,61.959839%);fill-opacity:1;" d="M 308.210938 329.917969 C 300.707031 319.210938 290.796875 311.40625 280.285156 310.578125 C 281.335938 315.824219 280.816406 319.820312 284.359375 323.359375 C 287.742188 326.757812 298.507812 326.757812 296.804688 333.546875 C 296.25 338.085938 283.792969 342.042969 280.960938 339.210938 C 279.246094 336.945312 279.820312 329.019531 279.820312 325.621094 C 277.5625 323.925781 268.5 323.925781 267.363281 320.527344 C 266.632812 317.207031 270.671875 313.429688 274.519531 311.03125 C 270.308594 312.082031 266.890625 314.808594 264.132812 318.613281 C 264.652344 318.382812 265.183594 318.179688 265.714844 318.023438 C 263.613281 325.949219 273.570312 346.460938 280.871094 355.582031 C 275.484375 367.460938 265.546875 379.285156 276.125 391.21875 C 280.425781 396.121094 290.054688 399.40625 296.582031 397.4375 C 305.675781 405.449219 326.054688 398.542969 329.144531 382.914062 C 331.199219 372.433594 324.871094 359.359375 320.515625 350.914062 C 317.027344 343.617188 312.667969 336.289062 308.210938 329.917969 "/><path style=" stroke:none;fill-rule:nonzero;fill:rgb(33.729553%,34.899902%,61.959839%);fill-opacity:1;" d="M 357.277344 195.671875 C 357.195312 195.664062 357.117188 195.660156 357.035156 195.652344 C 356.570312 195.625 356.109375 195.625 355.671875 195.644531 C 355.605469 195.644531 355.542969 195.652344 355.476562 195.660156 C 355.050781 195.6875 354.640625 195.734375 354.25 195.792969 C 354.230469 195.800781 354.203125 195.800781 354.175781 195.808594 C 353.773438 195.875 353.402344 195.960938 353.042969 196.050781 C 352.984375 196.070312 352.921875 196.085938 352.863281 196.097656 C 352.523438 196.191406 352.214844 196.285156 351.9375 196.378906 C 351.910156 196.386719 351.890625 196.394531 351.863281 196.40625 C 351.601562 196.503906 351.378906 196.589844 351.183594 196.664062 C 351.15625 196.675781 351.128906 196.691406 351.09375 196.703125 C 350.90625 196.785156 350.757812 196.851562 350.648438 196.898438 C 350.609375 196.921875 350.609375 196.921875 350.582031 196.941406 C 350.5 196.972656 350.449219 197 350.449219 197 C 350.265625 197.40625 350.136719 197.871094 350.035156 198.363281 C 350.003906 198.503906 349.984375 198.660156 349.957031 198.816406 C 349.894531 199.199219 349.855469 199.597656 349.835938 200.023438 C 349.820312 200.191406 349.808594 200.355469 349.808594 200.527344 C 349.800781 201.117188 349.8125 201.722656 349.867188 202.378906 C 349.867188 202.417969 349.875 202.457031 349.882812 202.5 C 349.933594 203.121094 350.023438 203.78125 350.132812 204.449219 C 350.164062 204.664062 350.207031 204.886719 350.246094 205.101562 C 350.347656 205.648438 350.453125 206.203125 350.582031 206.769531 C 350.636719 206.984375 350.675781 207.195312 350.730469 207.410156 C 350.917969 208.183594 351.121094 208.96875 351.351562 209.777344 C 351.363281 209.824219 351.378906 209.871094 351.390625 209.910156 C 351.621094 210.6875 351.871094 211.476562 352.132812 212.265625 C 352.207031 212.480469 352.28125 212.699219 352.355469 212.914062 C 352.585938 213.59375 352.828125 214.28125 353.082031 214.96875 C 353.152344 215.144531 353.210938 215.320312 353.28125 215.503906 C 353.945312 217.265625 354.683594 219.039062 355.464844 220.785156 C 355.523438 220.914062 355.578125 221.035156 355.640625 221.164062 C 356.011719 221.992188 356.394531 222.800781 356.777344 223.613281 C 356.804688 223.652344 356.824219 223.699219 356.847656 223.738281 C 357.707031 225.527344 358.613281 227.246094 359.515625 228.859375 C 359.527344 228.886719 359.542969 228.90625 359.550781 228.925781 C 360.925781 231.367188 362.300781 233.539062 363.59375 235.292969 C 364.199219 233.621094 364.714844 231.914062 365.109375 230.160156 C 367.152344 221.710938 366.628906 202.855469 358.765625 195.910156 C 358.269531 195.792969 357.761719 195.71875 357.277344 195.671875 "/></g></svg>