<svg xmlns="http://www.w3.org/2000/svg" viewBox="0 0 465.66 454.32"><g id="freepik--Plants--inject-82"><g id="freepik--plants--inject-82"><g id="freepik--Leaves--inject-82"><g id="freepik--leaves--inject-82" style="opacity:0.2"><path d="M434.2,236.6a18.57,18.57,0,0,1,1.83,6.5c.23,2.35.15,6,.77,8.32,1.1,4.21,2.79,6.49,5.65,9.83a51.6,51.6,0,0,0,5.71,5.12.61.61,0,0,0,.77.07c.23-.2.11-.44-.08-.61a47.77,47.77,0,0,1-9.06-9.68,18.41,18.41,0,0,1-2.39-5.88c-.57-2.4-.44-4.79-.78-7.19a15.91,15.91,0,0,0-2.3-6.55c-.08-.12-.18,0-.12.07Z" transform="translate(-17.17 -34.11)" style="fill:#D1CBED"></path><path d="M432.43,235.26a11.59,11.59,0,0,0,1.46,1.33c.54.42,1.12.8,1.69,1.2,1.15.82,2.38,1.5,3.48,2.41a33.37,33.37,0,0,1,5.23,5.06,22.06,22.06,0,0,1,3.56,6.33,27.09,27.09,0,0,1,1.16,7.3c.09,1.38,0,2.84-.06,4.24,0,.7-.1,1.42-.15,2.12a8,8,0,0,0,0,1.09c0,.34.08.71.1,1s.51.72.67.38a7.06,7.06,0,0,0,.42-2,16.78,16.78,0,0,0,.19-2,36.29,36.29,0,0,0,.12-3.9,31.52,31.52,0,0,0-.95-7.5,21.46,21.46,0,0,0-3.48-6.73,29.4,29.4,0,0,0-5.57-5.23c-1.22-1-2.59-1.61-3.87-2.46-.68-.44-1.36-.85-2-1.32s-1.27-1-1.93-1.41c-.07,0-.06.06,0,.09Z" transform="translate(-17.17 -34.11)" style="fill:#D1CBED"></path><path d="M436.76,269.78a29.81,29.81,0,0,1,1.78,5.41,18.85,18.85,0,0,0,2.13,5.48,21.19,21.19,0,0,0,4.23,4.5,24.41,24.41,0,0,0,2.6,1.82c.94.62,2.07,1.21,3,2a17.49,17.49,0,0,1,2.6,2.63,11.93,11.93,0,0,1,1.07,1.59,13.57,13.57,0,0,0,1.06,1.79c.13.16.62.23.56-.09a8.36,8.36,0,0,0-1.44-3.18,13.7,13.7,0,0,0-2.19-2.51c-1.73-1.52-3.85-2.62-5.63-3.91a22.16,22.16,0,0,1-4.62-4.26,18.76,18.76,0,0,1-2.58-5.28c-.4-1-.58-2.1-1-3.12a16.06,16.06,0,0,0-1.47-2.82c0-.06-.2-.12-.15,0S436.77,269.81,436.76,269.78Z" transform="translate(-17.17 -34.11)" style="fill:#D1CBED"></path><path d="M437.29,270.44a5.65,5.65,0,0,0,2.33,2.77c1.5,1.05,3,1.86,4.49,2.91a34.37,34.37,0,0,1,7.22,6.35,20.87,20.87,0,0,1,2.58,5c.1.23.66.28.58,0a16.9,16.9,0,0,0-4.44-7.74c-2.48-2.44-5.34-4-8.22-5.8-.87-.54-1.78-.92-2.61-1.46a4.76,4.76,0,0,1-1.8-1.95s-.15-.11-.13,0S437.29,270.42,437.29,270.44Z" transform="translate(-17.17 -34.11)" style="fill:#D1CBED"></path><path d="M442.34,277.53a42.65,42.65,0,0,0,5.73,5.08,24.35,24.35,0,0,1,5.2,5.61,16,16,0,0,1,1.52,4.11c.07.26.61.29.56,0a12.86,12.86,0,0,0-2.8-6.38,33.71,33.71,0,0,0-6.38-5.39,24.24,24.24,0,0,1-3.72-3s-.16-.06-.11,0S442.34,277.56,442.34,277.53Z" transform="translate(-17.17 -34.11)" style="fill:#D1CBED"></path><path d="M459,259.62a31.64,31.64,0,0,0,1,6.27c.27,1.09.62,2.15.88,3.26a24.51,24.51,0,0,1,.78,3.31,15.42,15.42,0,0,1-.42,7,27,27,0,0,1-3.82,6.45c-.6.85-1.37,1.51-1.95,2.4a6.35,6.35,0,0,0-.8,1.63,3.28,3.28,0,0,0-.08,2.33.42.42,0,0,0,.73,0,12.42,12.42,0,0,0,.69-2.14,5.6,5.6,0,0,1,.66-1.23c.48-.7,1.12-1.26,1.61-1.95a28.06,28.06,0,0,0,3.93-6.55,15.08,15.08,0,0,0,.7-7.13,29.66,29.66,0,0,0-1.8-6.21,37.84,37.84,0,0,1-1.88-7.32c0-.1-.24-.25-.23-.1S458.94,259.66,459,259.62Z" transform="translate(-17.17 -34.11)" style="fill:#D1CBED"></path><path d="M459,260.2a20.87,20.87,0,0,0-.36,2.41c-.1.82-.09,1.65-.24,2.48a19,19,0,0,1-1.44,4.79,42.57,42.57,0,0,0-3.42,9.41,11.53,11.53,0,0,0-.09,2.69,8.73,8.73,0,0,0,.19,1.36,6.93,6.93,0,0,0,.41,1.29.38.38,0,0,0,.73-.11,29.51,29.51,0,0,1-.11-5.14,19.67,19.67,0,0,1,1.24-4.62c1.2-3.12,2.6-6,3.21-9.28a18.81,18.81,0,0,0,.09-2.5c0-.85,0-1.78,0-2.64,0-.1-.2-.28-.23-.14S459,260.18,459,260.2Z" transform="translate(-17.17 -34.11)" style="fill:#D1CBED"></path><path d="M459,273.16a26.68,26.68,0,0,1-1.88,7.07,53.29,53.29,0,0,0-2.48,6.88,9.77,9.77,0,0,0-.24,1.85,4.84,4.84,0,0,0,0,.87,2.88,2.88,0,0,0,.11.57,1.35,1.35,0,0,0,.27.5c.13.17.4.34.5,0a4.06,4.06,0,0,0,.11-1c0-.36,0-.62,0-1.07a13.76,13.76,0,0,1,.18-1.57,27.36,27.36,0,0,1,.89-3.24c.78-2.25,1.7-4.46,2.3-6.78a17.3,17.3,0,0,0,.33-4c0-.07-.15-.2-.16-.09S459,273.18,459,273.16Z" transform="translate(-17.17 -34.11)" style="fill:#D1CBED"></path><path d="M453.89,317.35a10,10,0,0,0,6.4-1.24,14.11,14.11,0,0,0,4.94-5.07c2.59-4.63,4.06-9.62,6.63-14.26a14,14,0,0,1,2.45-3.08,22,22,0,0,1,3.46-2.45c.26-.17-.1-.39-.28-.27a23.84,23.84,0,0,0-8.67,10.19c-1.33,2.72-2.15,5.45-3.54,8.08a19.14,19.14,0,0,1-4.42,5.62,8.88,8.88,0,0,1-3.15,1.61,11.12,11.12,0,0,1-3.58.34c-.37,0-.74.48-.24.53C453.93,317.35,453.8,317.43,453.89,317.35Z" transform="translate(-17.17 -34.11)" style="fill:#D1CBED"></path><path d="M455.32,308.59c.47-.87,1-1.76,1.45-2.6s.91-1.7,1.44-2.5a28.58,28.58,0,0,1,3.27-4.52,27.05,27.05,0,0,1,8.89-6.18c2.35-1,4.88-1.07,7.34-1.58.2,0,0-.23-.11-.23a25.39,25.39,0,0,0-6.6,1,19,19,0,0,0-5.28,2.5,33.12,33.12,0,0,0-7.64,8.07,19.92,19.92,0,0,0-1.53,2.85c-.49,1-.84,2.14-1.26,3.18,0,0,0,.05,0,0Z" transform="translate(-17.17 -34.11)" style="fill:#D1CBED"></path><path d="M454.44,314.94a6.51,6.51,0,0,1,.76-2c.41-.71.8-1.5,1.25-2.25a46.33,46.33,0,0,1,2.83-4.36,58.9,58.9,0,0,1,6.76-7.37c.72-.66,1.53-1.18,2.29-1.8a29.85,29.85,0,0,1,2.44-1.73s0-.09,0-.07c-1.45.9-2.87,1.68-4.26,2.72a35.53,35.53,0,0,0-4.09,3.39,48.59,48.59,0,0,0-6.44,8.34,26.89,26.89,0,0,0-1.34,2.61,5.88,5.88,0,0,0-.65,2.5c0,.23.44.32.5.05Z" transform="translate(-17.17 -34.11)" style="fill:#D1CBED"></path><path d="M443,314a36.08,36.08,0,0,0,1.39,10c.46,1.76,1,3.43,1.4,5.26a26.18,26.18,0,0,1,.44,5.62,24.13,24.13,0,0,1-.33,3.2c-.16,1.1-.5,2.36-.68,3.48a.52.52,0,0,0,.52.58c.27,0,.38-.12.56-.21a.7.7,0,0,0,.3-.45c0-.15-.09.2,0,.09a1.67,1.67,0,0,0,.14-.32c0-.15.09-.23.17-.48a7.82,7.82,0,0,0,.27-.87c.09-.4.26-1,.34-1.55a27.67,27.67,0,0,0,.36-2.9,28.37,28.37,0,0,0-.33-5.85,37,37,0,0,0-1.53-5.21c-.57-1.71-1.24-3.21-1.72-4.93a26.21,26.21,0,0,1-.86-5.28c0-.17-.39-.36-.4-.14S443,314,443,314Z" transform="translate(-17.17 -34.11)" style="fill:#D1CBED"></path><path d="M440.08,300.92a25.18,25.18,0,0,0,2.64,4.62,20.7,20.7,0,0,1,2.53,4.73,26,26,0,0,1,1,10.35c-.09,1.16-.38,2.29-.43,3.48a13.16,13.16,0,0,0,.07,3.6c.14.56,1,.23,1.08-.24.13-1.11.11-2.32.19-3.38s.26-2.05.34-3.06a26.66,26.66,0,0,0,.11-5.28,19,19,0,0,0-1.23-5.08,23.35,23.35,0,0,0-2.67-4.64c-.59-.84-1.29-1.61-1.89-2.45a22.72,22.72,0,0,1-1.61-2.62s-.17-.13-.13,0S440.06,300.94,440.08,300.92Z" transform="translate(-17.17 -34.11)" style="fill:#D1CBED"></path><path d="M440,300.9a18.12,18.12,0,0,1,.06,2.76c-.07.94-.28,1.88-.41,2.84a45.6,45.6,0,0,0-.88,6.17,22.42,22.42,0,0,0,3.2,11.62,13.12,13.12,0,0,0,2.2,2.51,10.36,10.36,0,0,1,2.13,2.58c.18.35.83.33.76-.12a4.56,4.56,0,0,0-1.48-2.41,23.69,23.69,0,0,1-2.09-2.16,20.18,20.18,0,0,1-2.85-5.22,18.64,18.64,0,0,1-.93-6.09,53.17,53.17,0,0,1,.61-6.28c.12-1.05.3-2.12.34-3.17a8.9,8.9,0,0,0-.41-3c0-.08-.26-.2-.25,0S440,300.88,440,300.9Z" transform="translate(-17.17 -34.11)" style="fill:#D1CBED"></path><path d="M440.53,248.5a66,66,0,0,1,5.86,12.19,141,141,0,0,1,5.3,16.55,103.82,103.82,0,0,1,3,17.59,65.61,65.61,0,0,1-1,17,162.52,162.52,0,0,1-11.3,36.29c-2.28,5.17-4.78,10.24-7.15,15.38-2.55,5.52-4.87,11.12-6.87,16.86-4.71,13.49-8.08,27.82-7.47,42.19a41,41,0,0,0,.63,5.74c.05.26.43.38.43,0,0-3.65-.18-7.29,0-10.94A101.31,101.31,0,0,1,423,406.69,135.37,135.37,0,0,1,428.31,385,179.17,179.17,0,0,1,435.18,367c2.35-5.24,4.89-10.39,7.28-15.62a172.33,172.33,0,0,0,12.08-36.21,72.65,72.65,0,0,0,1.8-17.2,92,92,0,0,0-2.36-17.4,98,98,0,0,0-11.75-30c-.48-.79-1-1.56-1.51-2.32-.16-.23-.3.1-.19.26Z" transform="translate(-17.17 -34.11)" style="fill:#D1CBED"></path></g><g id="freepik--leaves--inject-82" style="opacity:0.2"><path d="M473,312a18.57,18.57,0,0,1-1.71,6.53c-1,2.15-2.89,5.2-3.56,7.56-1.18,4.19-.89,7-.12,11.33a51.85,51.85,0,0,0,2.33,7.32.61.61,0,0,0,.63.45c.29-.05.31-.32.23-.57a48.21,48.21,0,0,1-2.89-12.94,18.43,18.43,0,0,1,.92-6.28c.73-2.35,2.05-4.34,3-6.59a15.81,15.81,0,0,0,1.33-6.81c0-.14-.13-.12-.14,0S473,312,473,312Z" transform="translate(-17.17 -34.11)" style="fill:#D1CBED"></path><path d="M472.15,309.94a11.87,11.87,0,0,0,.58,1.9c.25.63.57,1.26.85,1.89.58,1.29,1.29,2.5,1.78,3.83a33.53,33.53,0,0,1,1.94,7,22.12,22.12,0,0,1-.14,7.26,27.2,27.2,0,0,1-2.7,6.88c-.63,1.24-1.46,2.44-2.21,3.62-.38.6-.81,1.18-1.2,1.76a7.77,7.77,0,0,0-.58.92c-.15.31-.3.65-.43.93s.07.87.38.66a7.05,7.05,0,0,0,1.4-1.54,16.49,16.49,0,0,0,1.17-1.61,37.86,37.86,0,0,0,2.08-3.29,32.09,32.09,0,0,0,3-6.95,21.37,21.37,0,0,0,.42-7.56,28.85,28.85,0,0,0-2.15-7.33c-.57-1.44-1.41-2.72-2.09-4.09-.36-.73-.74-1.43-1.06-2.16s-.6-1.48-.95-2.2c0-.07-.08,0-.07.06Z" transform="translate(-17.17 -34.11)" style="fill:#D1CBED"></path><path d="M458.38,341.89a30.78,30.78,0,0,1-1.21,5.57,18.86,18.86,0,0,0-.95,5.81,21.25,21.25,0,0,0,1.36,6,28.14,28.14,0,0,0,1.32,2.88c.49,1,1.17,2.1,1.61,3.22a17.82,17.82,0,0,1,.91,3.59,13.39,13.39,0,0,1,.11,1.92,13.15,13.15,0,0,0,0,2.08c0,.2.42.51.53.2a8.37,8.37,0,0,0,.37-3.47,14.33,14.33,0,0,0-.62-3.28c-.72-2.18-2-4.2-2.87-6.22a22.64,22.64,0,0,1-1.82-6,18.5,18.5,0,0,1,.46-5.85c.18-1.09.57-2.11.74-3.18a15.46,15.46,0,0,0,.16-3.18c0-.08-.1-.21-.11-.09S458.37,341.92,458.38,341.89Z" transform="translate(-17.17 -34.11)" style="fill:#D1CBED"></path><path d="M458.5,342.74a5.58,5.58,0,0,0,.6,3.56c.76,1.66,1.65,3.13,2.4,4.79a34.31,34.31,0,0,1,3,9.13,20.51,20.51,0,0,1-.29,5.58c0,.25.43.58.5.3a16.92,16.92,0,0,0,.1-8.93c-.9-3.35-2.57-6.15-4.15-9.16-.47-.91-1.06-1.7-1.5-2.58a4.64,4.64,0,0,1-.56-2.59s-.08-.18-.09-.1S458.5,342.72,458.5,342.74Z" transform="translate(-17.17 -34.11)" style="fill:#D1CBED"></path><path d="M459.25,351.41a42.94,42.94,0,0,0,2.36,7.28,24.44,24.44,0,0,1,1.64,7.48,16,16,0,0,1-.78,4.31c-.06.25.38.55.49.28a12.77,12.77,0,0,0,.82-6.92A33.65,33.65,0,0,0,461,356a24.17,24.17,0,0,1-1.67-4.5c0-.06-.11-.14-.1,0S459.23,351.43,459.25,351.41Z" transform="translate(-17.17 -34.11)" style="fill:#D1CBED"></path><path d="M482.67,344.41a32.2,32.2,0,0,0-2.31,5.91c-.32,1.08-.56,2.17-.89,3.26a25.4,25.4,0,0,1-1,3.25,15.33,15.33,0,0,1-3.93,5.82,26.83,26.83,0,0,1-6.55,3.63c-1,.42-2,.6-2.91,1.08a6.17,6.17,0,0,0-1.51,1,3.27,3.27,0,0,0-1.25,1.95.42.42,0,0,0,.65.35,12.52,12.52,0,0,0,1.68-1.49,5,5,0,0,1,1.19-.73c.77-.36,1.6-.52,2.38-.86a28.6,28.6,0,0,0,6.7-3.65,15.11,15.11,0,0,0,4.23-5.79,30.26,30.26,0,0,0,1.59-6.26,37.83,37.83,0,0,1,2.09-7.27c0-.1-.08-.33-.15-.2S482.63,344.42,482.67,344.41Z" transform="translate(-17.17 -34.11)" style="fill:#D1CBED"></path><path d="M482.4,344.92a21.75,21.75,0,0,0-1.53,1.89c-.51.65-.92,1.38-1.46,2a19.51,19.51,0,0,1-3.68,3.4A43.25,43.25,0,0,0,468,358.6a11.7,11.7,0,0,0-1.44,2.28,7.61,7.61,0,0,0-.52,1.26,6.28,6.28,0,0,0-.3,1.32c-.05.42.5.61.67.28a30.11,30.11,0,0,1,2.51-4.49,20,20,0,0,1,3.42-3.35c2.62-2.08,5.28-3.84,7.48-6.37a18,18,0,0,0,1.34-2.11c.46-.71.89-1.54,1.36-2.27.05-.08,0-.33-.13-.23S482.41,344.9,482.4,344.92Z" transform="translate(-17.17 -34.11)" style="fill:#D1CBED"></path><path d="M475.81,356.07a26.7,26.7,0,0,1-5.2,5.15,55,55,0,0,0-5.64,4.67,10,10,0,0,0-1.14,1.47,3.61,3.61,0,0,0-.4.78,2.77,2.77,0,0,0-.2.54,1.37,1.37,0,0,0,0,.57c0,.21.18.49.42.27a3.87,3.87,0,0,0,.6-.81c.21-.31.31-.55.57-.92a13.36,13.36,0,0,1,.95-1.25,26.93,26.93,0,0,1,2.42-2.35c1.81-1.54,3.72-3,5.42-4.67a17.47,17.47,0,0,0,2.31-3.28c0-.07,0-.25-.09-.17S475.78,356.09,475.81,356.07Z" transform="translate(-17.17 -34.11)" style="fill:#D1CBED"></path><path d="M472.41,325.38a58.1,58.1,0,0,1-.68,9.13c-.5,3.85-1.1,7.68-1.88,11.49a115.79,115.79,0,0,1-7.66,24.35,66.86,66.86,0,0,1-6,10.79c-2.81,4-5.83,8-8.79,11.89-3.93,5.2-8,10.32-11.94,15.49-3.63,4.73-7.18,9.54-10.41,14.56a16.18,16.18,0,0,0-1.23,2.19c-.08.18.17.62.37.4a48.06,48.06,0,0,0,3.49-4.64c.92-1.29,1.84-2.58,2.78-3.86,1.63-2.22,3.31-4.41,5-6.59,3.88-5,7.86-10,11.7-15q4.36-5.73,8.6-11.55a72.5,72.5,0,0,0,6.57-10.71,107.28,107.28,0,0,0,8.31-24.21c1.59-7.09,2.75-14.45,2.23-21.73-.05-.64-.1-1.28-.16-1.92,0-.23-.31-.34-.3-.05Z" transform="translate(-17.17 -34.11)" style="fill:#D1CBED"></path></g><g id="freepik--plants--inject-82"><g id="freepik--leaves--inject-82"><path d="M456,393.41s1.62-8.44,11.42-15.32c7.85-5.52,13.44-5.26,13.87-4.34s-1.88,4.45-10.55,10.71C467.17,387.07,456,393.41,456,393.41Z" transform="translate(-17.17 -34.11)" style="fill:#D1CBED"></path><path d="M444.24,408.37c.51-.85,7.37-7.59,16.39-12.35,4.81-2.53,8-2.4,8.11-1.2.06.71-2.29,4.2-9.6,8S443.73,409.21,444.24,408.37Z" transform="translate(-17.17 -34.11)" style="fill:#D1CBED"></path><path d="M444.24,408.37c.51-.85,7.37-7.59,16.39-12.35,4.81-2.53,8-2.4,8.11-1.2.06.71-2.29,4.2-9.6,8S443.73,409.21,444.24,408.37Z" transform="translate(-17.17 -34.11)" style="fill:#fff;opacity:0.30000000000000004"></path><path d="M450.4,399.57c.68-.76,1.68-4.06,2.38-9.74.48-3.84,1.32-8.29.13-8.73s-4.14,3.57-4.7,8S449.72,400.34,450.4,399.57Z" transform="translate(-17.17 -34.11)" style="fill:#D1CBED"></path><path d="M440,414.57c.67-1,1.09-7.73,1.26-10.84s-.27-6.75-1.63-7.62-3.39,2.91-3.25,8.17S439.33,415.53,440,414.57Z" transform="translate(-17.17 -34.11)" style="fill:#D1CBED"></path><path d="M440,414.57c.67-1,1.09-7.73,1.26-10.84s-.27-6.75-1.63-7.62-3.39,2.91-3.25,8.17S439.33,415.53,440,414.57Z" transform="translate(-17.17 -34.11)" style="fill:#fff;opacity:0.30000000000000004"></path><path d="M438.38,417.74c.14-.93,4.73-4.06,9.74-6.31,6.46-2.9,9.34-2.56,9.41-.57s-2.76,5.08-8.29,6.84C441.29,420.22,438.23,418.66,438.38,417.74Z" transform="translate(-17.17 -34.11)" style="fill:#D1CBED"></path><path d="M476.05,376.37A103.58,103.58,0,0,0,458.68,390a123.18,123.18,0,0,0-14.49,16.76,113.56,113.56,0,0,0-11.54,20.92h1.77a133.41,133.41,0,0,1,10.83-20.19,121.09,121.09,0,0,1,14-16.92,103.54,103.54,0,0,1,16.88-14.09.08.08,0,0,0-.08-.14Z" transform="translate(-17.17 -34.11)" style="fill:#263238"></path></g><g id="freepik--leaves--inject-82"><path d="M443.33,364.5S443,355.92,451,347c6.41-7.16,11.91-8.17,12.54-7.37s-.82,4.76-7.85,12.82C452.74,355.81,443.33,364.5,443.33,364.5Z" transform="translate(-17.17 -34.11)" style="fill:#D1CBED"></path><path d="M435.22,381.74c.31-.94,5.47-9.06,13.18-15.73,4.1-3.56,7.25-4.15,7.62-3,.22.68-1.28,4.6-7.53,10S434.92,382.68,435.22,381.74Z" transform="translate(-17.17 -34.11)" style="fill:#D1CBED"></path><path d="M435.22,381.74c.31-.94,5.47-9.06,13.18-15.73,4.1-3.56,7.25-4.15,7.62-3,.22.68-1.28,4.6-7.53,10S434.92,382.68,435.22,381.74Z" transform="translate(-17.17 -34.11)" style="fill:#fff;opacity:0.30000000000000004"></path><path d="M439.34,371.44c.58-.84,1.17-4.24,1.16-10,0-3.87-.16-9.94-1.4-10.21-2.15-.47-3.21,5.59-3.22,10.07S438.76,372.28,439.34,371.44Z" transform="translate(-17.17 -34.11)" style="fill:#D1CBED"></path><path d="M439.34,371.44c.58-.84,1.17-4.24,1.16-10,0-3.87-.16-9.94-1.4-10.21-2.15-.47-3.21,5.59-3.22,10.07S438.76,372.28,439.34,371.44Z" transform="translate(-17.17 -34.11)" style="fill:#fff;opacity:0.30000000000000004"></path><path d="M435.19,381.07c.44-1.08-.68-7.77-1.23-10.84s-1.78-6.51-3.3-7.05-2.65,3.59-1.32,8.69S434.76,382.16,435.19,381.07Z" transform="translate(-17.17 -34.11)" style="fill:#D1CBED"></path><path d="M430.94,396.83c-.15-.92,3.36-5.49,7.07-9.53s9.11-7.93,9.81-6.07-1.35,5.27-5.69,9.12C437.33,394.62,431.1,397.76,430.94,396.83Z" transform="translate(-17.17 -34.11)" style="fill:#D1CBED"></path><path d="M429.29,404.62c.36-.48-1.68-4.92-3.42-9.64s-2.46-6.68-4-6.63-2.79,3.23-.37,8.25S428.93,405.1,429.29,404.62Z" transform="translate(-17.17 -34.11)" style="fill:#D1CBED"></path><path d="M432.08,427.72c-2.1-6.79-2.4-18.94-1.49-25.89A91,91,0,0,1,436,380.69,121.3,121.3,0,0,1,445.82,361a103.34,103.34,0,0,1,13.26-17.54.08.08,0,0,0-.12-.12,104.32,104.32,0,0,0-13.82,17.23,122.52,122.52,0,0,0-10.32,19.6A76.07,76.07,0,0,0,429,401.65c-.66,7.1-.09,19.51,2.79,26.05Z" transform="translate(-17.17 -34.11)" style="fill:#263238"></path></g></g></g><g id="freepik--leaves--inject-82"><g id="freepik--leaves--inject-82" style="opacity:0.2"><path d="M65.8,236.6A18.57,18.57,0,0,0,64,243.1c-.23,2.35-.15,6-.77,8.32-1.1,4.21-2.79,6.49-5.65,9.83a51.6,51.6,0,0,1-5.71,5.12.61.61,0,0,1-.77.07c-.23-.2-.11-.44.08-.61a47.77,47.77,0,0,0,9.06-9.68,18.41,18.41,0,0,0,2.39-5.88c.57-2.4.44-4.79.78-7.19a15.91,15.91,0,0,1,2.3-6.55c.08-.12.18,0,.12.07Z" transform="translate(-17.17 -34.11)" style="fill:#D1CBED"></path><path d="M67.57,235.26a11.59,11.59,0,0,1-1.46,1.33c-.54.42-1.12.8-1.69,1.2-1.15.82-2.38,1.5-3.48,2.41a33.37,33.37,0,0,0-5.23,5.06,22.06,22.06,0,0,0-3.56,6.33,27.09,27.09,0,0,0-1.16,7.3c-.09,1.38,0,2.84.06,4.24,0,.7.1,1.42.15,2.12a8,8,0,0,1,0,1.09c0,.34-.08.71-.1,1s-.51.72-.67.38a7.06,7.06,0,0,1-.42-2,16.78,16.78,0,0,1-.19-2,36.29,36.29,0,0,1-.12-3.9,31.52,31.52,0,0,1,1-7.5,21.46,21.46,0,0,1,3.48-6.73,29.4,29.4,0,0,1,5.57-5.23c1.22-1,2.59-1.61,3.87-2.46.68-.44,1.36-.85,2-1.32s1.27-1,1.93-1.41c.07,0,.06.06,0,.09Z" transform="translate(-17.17 -34.11)" style="fill:#D1CBED"></path><path d="M63.24,269.78a29.81,29.81,0,0,0-1.78,5.41,18.85,18.85,0,0,1-2.13,5.48,21.19,21.19,0,0,1-4.23,4.5A24.41,24.41,0,0,1,52.5,287c-.94.62-2.07,1.21-3,2a17.49,17.49,0,0,0-2.6,2.63,11.93,11.93,0,0,0-1.07,1.59A13.57,13.57,0,0,1,44.75,295c-.13.16-.62.23-.56-.09a8.36,8.36,0,0,1,1.44-3.18,13.7,13.7,0,0,1,2.19-2.51c1.73-1.52,3.85-2.62,5.63-3.91A22.16,22.16,0,0,0,58.07,281a18.76,18.76,0,0,0,2.58-5.28c.4-1,.58-2.1,1-3.12a16.06,16.06,0,0,1,1.47-2.82c0-.06.2-.12.15,0S63.23,269.81,63.24,269.78Z" transform="translate(-17.17 -34.11)" style="fill:#D1CBED"></path><path d="M62.71,270.44a5.65,5.65,0,0,1-2.33,2.77c-1.5,1.05-3,1.86-4.49,2.91a34.37,34.37,0,0,0-7.22,6.35,20.87,20.87,0,0,0-2.58,5c-.1.23-.66.28-.58,0A16.9,16.9,0,0,1,50,279.69c2.48-2.44,5.34-4,8.22-5.8.87-.54,1.78-.92,2.61-1.46a4.76,4.76,0,0,0,1.8-1.95s.15-.11.13,0S62.71,270.42,62.71,270.44Z" transform="translate(-17.17 -34.11)" style="fill:#D1CBED"></path><path d="M57.66,277.53a42.65,42.65,0,0,1-5.73,5.08,24.35,24.35,0,0,0-5.2,5.61,16,16,0,0,0-1.52,4.11c-.07.26-.61.29-.56,0a12.86,12.86,0,0,1,2.8-6.38,34,34,0,0,1,6.37-5.39,23.85,23.85,0,0,0,3.73-3s.16-.06.11,0S57.66,277.56,57.66,277.53Z" transform="translate(-17.17 -34.11)" style="fill:#D1CBED"></path><path d="M41,259.62a31.64,31.64,0,0,1-1,6.27c-.27,1.09-.62,2.15-.88,3.26a24.51,24.51,0,0,0-.78,3.31,15.42,15.42,0,0,0,.42,7,27,27,0,0,0,3.82,6.45c.6.85,1.37,1.51,1.95,2.4a6.35,6.35,0,0,1,.8,1.63,3.28,3.28,0,0,1,.08,2.33.42.42,0,0,1-.73,0,12.42,12.42,0,0,1-.69-2.14,5.6,5.6,0,0,0-.66-1.23c-.48-.7-1.12-1.26-1.61-1.95a28.06,28.06,0,0,1-3.93-6.55,15.08,15.08,0,0,1-.7-7.13,29.66,29.66,0,0,1,1.8-6.21,37.84,37.84,0,0,0,1.88-7.32c0-.1.24-.25.23-.1S41.06,259.66,41,259.62Z" transform="translate(-17.17 -34.11)" style="fill:#D1CBED"></path><path d="M41,260.2a20.87,20.87,0,0,1,.36,2.41c.1.82.09,1.65.24,2.48A19,19,0,0,0,43,269.88a42.57,42.57,0,0,1,3.42,9.41,11.53,11.53,0,0,1,.09,2.69,8.73,8.73,0,0,1-.19,1.36,6.93,6.93,0,0,1-.41,1.29.38.38,0,0,1-.73-.11,30.54,30.54,0,0,0,.12-5.14,20.18,20.18,0,0,0-1.25-4.62c-1.2-3.12-2.6-6-3.21-9.28a18.81,18.81,0,0,1-.09-2.5c0-.85,0-1.78,0-2.64,0-.1.2-.28.23-.14S41,260.18,41,260.2Z" transform="translate(-17.17 -34.11)" style="fill:#D1CBED"></path><path d="M41,273.16a26.68,26.68,0,0,0,1.88,7.07,53.29,53.29,0,0,1,2.48,6.88,9.77,9.77,0,0,1,.24,1.85,4.84,4.84,0,0,1,0,.87,2.88,2.88,0,0,1-.11.57,1.35,1.35,0,0,1-.27.5c-.13.17-.4.34-.5,0a4.06,4.06,0,0,1-.11-1c0-.36,0-.62,0-1.07a13.76,13.76,0,0,0-.18-1.57,27.36,27.36,0,0,0-.89-3.24c-.78-2.25-1.7-4.46-2.3-6.78a17.3,17.3,0,0,1-.33-4c0-.07.15-.2.16-.09S41,273.18,41,273.16Z" transform="translate(-17.17 -34.11)" style="fill:#D1CBED"></path><path d="M46.11,317.35a10,10,0,0,1-6.4-1.24A14.11,14.11,0,0,1,34.77,311c-2.59-4.63-4.06-9.62-6.63-14.26a14,14,0,0,0-2.45-3.08,22,22,0,0,0-3.46-2.45c-.26-.17.1-.39.28-.27a23.84,23.84,0,0,1,8.67,10.19c1.33,2.72,2.15,5.45,3.54,8.08a19.14,19.14,0,0,0,4.42,5.62,8.88,8.88,0,0,0,3.15,1.61,11.12,11.12,0,0,0,3.58.34c.37,0,.74.48.24.53C46.07,317.35,46.2,317.43,46.11,317.35Z" transform="translate(-17.17 -34.11)" style="fill:#D1CBED"></path><path d="M44.68,308.59c-.47-.87-1-1.76-1.45-2.6s-.91-1.7-1.44-2.5A28.58,28.58,0,0,0,38.52,299a27.05,27.05,0,0,0-8.89-6.18c-2.35-1-4.88-1.07-7.34-1.58-.2,0,0-.23.11-.23a25.39,25.39,0,0,1,6.6,1,19,19,0,0,1,5.28,2.5,33.12,33.12,0,0,1,7.64,8.07,19.92,19.92,0,0,1,1.53,2.85c.49,1,.84,2.14,1.26,3.18,0,0,0,.05,0,0Z" transform="translate(-17.17 -34.11)" style="fill:#D1CBED"></path><path d="M45.56,314.94a6.51,6.51,0,0,0-.76-2c-.41-.71-.8-1.5-1.25-2.25a46.33,46.33,0,0,0-2.83-4.36A58.9,58.9,0,0,0,34,298.93c-.72-.66-1.53-1.18-2.29-1.8a29.85,29.85,0,0,0-2.44-1.73s0-.09.05-.07c1.45.9,2.87,1.68,4.26,2.72a35.53,35.53,0,0,1,4.09,3.39,48.59,48.59,0,0,1,6.44,8.34,26.89,26.89,0,0,1,1.34,2.61,5.88,5.88,0,0,1,.65,2.5c0,.23-.44.32-.5.05Z" transform="translate(-17.17 -34.11)" style="fill:#D1CBED"></path><path d="M57,314a36.45,36.45,0,0,1-1.38,10c-.47,1.76-1.06,3.43-1.41,5.26a26.18,26.18,0,0,0-.44,5.62,24.13,24.13,0,0,0,.33,3.2c.16,1.1.5,2.36.68,3.48a.52.52,0,0,1-.52.58c-.27,0-.38-.12-.56-.21a.7.7,0,0,1-.3-.45c0-.15.09.2,0,.09a1.67,1.67,0,0,1-.14-.32c-.05-.15-.09-.23-.17-.48a7.82,7.82,0,0,1-.27-.87c-.09-.4-.26-1-.34-1.55a27.67,27.67,0,0,1-.36-2.9,28.37,28.37,0,0,1,.33-5.85A37,37,0,0,1,54,324.33c.57-1.71,1.24-3.21,1.72-4.93a26.21,26.21,0,0,0,.86-5.28c0-.17.39-.36.4-.14S57,314,57,314Z" transform="translate(-17.17 -34.11)" style="fill:#D1CBED"></path><path d="M59.92,300.92a25.18,25.18,0,0,1-2.64,4.62,20.7,20.7,0,0,0-2.53,4.73,26,26,0,0,0-1,10.35c.09,1.16.38,2.29.43,3.48a13.16,13.16,0,0,1-.07,3.6c-.14.56-1,.23-1.08-.24-.13-1.11-.11-2.32-.19-3.38S52.58,322,52.5,321a26.66,26.66,0,0,1-.11-5.28,19,19,0,0,1,1.23-5.08A23.35,23.35,0,0,1,56.29,306c.59-.84,1.29-1.61,1.89-2.45A22.72,22.72,0,0,0,59.79,301s.17-.13.13,0S59.94,300.94,59.92,300.92Z" transform="translate(-17.17 -34.11)" style="fill:#D1CBED"></path><path d="M60,300.9a18.12,18.12,0,0,0-.06,2.76c.07.94.28,1.88.41,2.84a45.6,45.6,0,0,1,.88,6.17A22.42,22.42,0,0,1,58,324.29a13.12,13.12,0,0,1-2.2,2.51,10.36,10.36,0,0,0-2.13,2.58c-.18.35-.83.33-.76-.12a4.56,4.56,0,0,1,1.48-2.41,23.69,23.69,0,0,0,2.09-2.16,20.18,20.18,0,0,0,2.85-5.22,18.64,18.64,0,0,0,.93-6.09,53.17,53.17,0,0,0-.61-6.28c-.12-1.05-.3-2.12-.34-3.17a8.9,8.9,0,0,1,.41-3c0-.08.26-.2.25,0S60,300.88,60,300.9Z" transform="translate(-17.17 -34.11)" style="fill:#D1CBED"></path><path d="M59.47,248.5a66,66,0,0,0-5.86,12.19,141,141,0,0,0-5.3,16.55,103.82,103.82,0,0,0-3,17.59,65.61,65.61,0,0,0,1,17,162.52,162.52,0,0,0,11.3,36.29c2.28,5.17,4.78,10.24,7.15,15.38,2.55,5.52,4.87,11.12,6.87,16.86,4.71,13.49,8.08,27.82,7.47,42.19a41,41,0,0,1-.63,5.74c0,.26-.43.38-.43,0,0-3.65.18-7.29,0-10.94A101.31,101.31,0,0,0,77,406.69,135.37,135.37,0,0,0,71.69,385,179.17,179.17,0,0,0,64.82,367c-2.35-5.24-4.89-10.39-7.28-15.62a172.33,172.33,0,0,1-12.08-36.21,72.65,72.65,0,0,1-1.8-17.2A92,92,0,0,1,46,280.58a98,98,0,0,1,11.75-30c.48-.79,1-1.56,1.51-2.32.16-.23.3.1.19.26Z" transform="translate(-17.17 -34.11)" style="fill:#D1CBED"></path></g><g id="freepik--leaves--inject-82" style="opacity:0.2"><path d="M27,312a18.57,18.57,0,0,0,1.71,6.53c1,2.15,2.89,5.2,3.56,7.56,1.18,4.19.89,7,.12,11.33a51.85,51.85,0,0,1-2.33,7.32.61.61,0,0,1-.63.45c-.29-.05-.31-.32-.23-.57a48.21,48.21,0,0,0,2.89-12.94,18.43,18.43,0,0,0-.92-6.28c-.73-2.35-2.05-4.34-3-6.59A15.81,15.81,0,0,1,26.87,312c0-.14.13-.12.14,0S27,312,27,312Z" transform="translate(-17.17 -34.11)" style="fill:#D1CBED"></path><path d="M27.85,309.94a11.87,11.87,0,0,1-.58,1.9c-.25.63-.57,1.26-.85,1.89-.58,1.29-1.29,2.5-1.78,3.83a33.53,33.53,0,0,0-1.94,7,22.12,22.12,0,0,0,.14,7.26,27.2,27.2,0,0,0,2.7,6.88c.63,1.24,1.46,2.44,2.21,3.62.38.6.81,1.18,1.2,1.76a7.77,7.77,0,0,1,.58.92c.15.31.3.65.43.93s-.07.87-.38.66a7.05,7.05,0,0,1-1.4-1.54A16.49,16.49,0,0,1,27,343.46a37.86,37.86,0,0,1-2.08-3.29,32.09,32.09,0,0,1-3-6.95,21.37,21.37,0,0,1-.42-7.56,28.85,28.85,0,0,1,2.15-7.33c.57-1.44,1.41-2.72,2.09-4.09.36-.73.74-1.43,1.07-2.16s.59-1.48.94-2.2c0-.07.08,0,.07.06S27.86,309.91,27.85,309.94Z" transform="translate(-17.17 -34.11)" style="fill:#D1CBED"></path><path d="M41.62,341.89a30.78,30.78,0,0,0,1.21,5.57,18.86,18.86,0,0,1,1,5.81,21.25,21.25,0,0,1-1.36,6,28.14,28.14,0,0,1-1.32,2.88c-.49,1-1.17,2.1-1.61,3.22a17.82,17.82,0,0,0-.91,3.59,13.39,13.39,0,0,0-.11,1.92,13.15,13.15,0,0,1,0,2.08c0,.2-.42.51-.53.2a8.37,8.37,0,0,1-.37-3.47,14.33,14.33,0,0,1,.62-3.28c.72-2.18,2-4.2,2.87-6.22a22.64,22.64,0,0,0,1.82-6,18.5,18.5,0,0,0-.46-5.85c-.18-1.09-.57-2.11-.74-3.18a15.46,15.46,0,0,1-.16-3.18c0-.08.1-.21.11-.09S41.63,341.92,41.62,341.89Z" transform="translate(-17.17 -34.11)" style="fill:#D1CBED"></path><path d="M41.5,342.74a5.58,5.58,0,0,1-.6,3.56c-.76,1.66-1.65,3.13-2.4,4.79a34.31,34.31,0,0,0-3,9.13,20.51,20.51,0,0,0,.29,5.58c0,.25-.43.58-.5.3a16.92,16.92,0,0,1-.1-8.93c.9-3.35,2.57-6.15,4.15-9.16.47-.91,1.06-1.7,1.5-2.58a4.64,4.64,0,0,0,.56-2.59s.08-.18.09-.1S41.5,342.72,41.5,342.74Z" transform="translate(-17.17 -34.11)" style="fill:#D1CBED"></path><path d="M40.75,351.41a42.94,42.94,0,0,1-2.36,7.28,24.44,24.44,0,0,0-1.64,7.48,16,16,0,0,0,.78,4.31c.06.25-.38.55-.49.28a12.77,12.77,0,0,1-.82-6.92A33.65,33.65,0,0,1,39,356a24.17,24.17,0,0,0,1.67-4.5c0-.06.11-.14.1,0S40.77,351.43,40.75,351.41Z" transform="translate(-17.17 -34.11)" style="fill:#D1CBED"></path><path d="M17.33,344.41a32.2,32.2,0,0,1,2.31,5.91c.32,1.08.56,2.17.89,3.26a25.4,25.4,0,0,0,1,3.25,15.33,15.33,0,0,0,3.93,5.82A26.83,26.83,0,0,0,32,366.28c1,.42,1.95.6,2.91,1.08a6.17,6.17,0,0,1,1.51,1,3.27,3.27,0,0,1,1.25,1.95.42.42,0,0,1-.65.35,12.52,12.52,0,0,1-1.68-1.49,5,5,0,0,0-1.19-.73c-.77-.36-1.6-.52-2.38-.86a28.6,28.6,0,0,1-6.7-3.65,15.11,15.11,0,0,1-4.23-5.79,30.26,30.26,0,0,1-1.59-6.26,37.83,37.83,0,0,0-2.09-7.27c0-.1.08-.33.15-.2S17.37,344.42,17.33,344.41Z" transform="translate(-17.17 -34.11)" style="fill:#D1CBED"></path><path d="M17.6,344.92a21.75,21.75,0,0,1,1.53,1.89c.51.65.92,1.38,1.46,2a19.51,19.51,0,0,0,3.68,3.4A43.25,43.25,0,0,1,32,358.6a11.25,11.25,0,0,1,1.44,2.28,7.61,7.61,0,0,1,.52,1.26,5.71,5.71,0,0,1,.3,1.32c0,.42-.5.61-.67.28a30.11,30.11,0,0,0-2.51-4.49,20,20,0,0,0-3.42-3.35c-2.62-2.08-5.28-3.84-7.48-6.37a18,18,0,0,1-1.34-2.11c-.46-.71-.89-1.54-1.36-2.27,0-.08,0-.33.13-.23S17.59,344.9,17.6,344.92Z" transform="translate(-17.17 -34.11)" style="fill:#D1CBED"></path><path d="M24.19,356.07a26.7,26.7,0,0,0,5.2,5.15A55,55,0,0,1,35,365.89a10,10,0,0,1,1.14,1.47,3.61,3.61,0,0,1,.4.78,2.77,2.77,0,0,1,.2.54,1.37,1.37,0,0,1,0,.57c0,.21-.18.49-.42.27a3.87,3.87,0,0,1-.6-.81c-.21-.31-.31-.55-.57-.92a13.36,13.36,0,0,0-1-1.25,26.93,26.93,0,0,0-2.42-2.35c-1.81-1.54-3.72-3-5.42-4.67a17.47,17.47,0,0,1-2.31-3.28c0-.07,0-.25.09-.17S24.22,356.09,24.19,356.07Z" transform="translate(-17.17 -34.11)" style="fill:#D1CBED"></path><path d="M27.59,325.38a58.1,58.1,0,0,0,.68,9.13c.5,3.85,1.1,7.68,1.88,11.49a115.79,115.79,0,0,0,7.66,24.35,66.86,66.86,0,0,0,6,10.79c2.81,4,5.83,8,8.79,11.89,3.93,5.2,8,10.32,11.94,15.49,3.63,4.73,7.18,9.54,10.41,14.56a16.18,16.18,0,0,1,1.23,2.19c.08.18-.17.62-.37.4A48.06,48.06,0,0,1,72.32,421c-.92-1.29-1.84-2.58-2.78-3.86-1.63-2.22-3.31-4.41-5-6.59-3.88-5-7.86-10-11.7-15q-4.37-5.73-8.6-11.55a72.5,72.5,0,0,1-6.57-10.71,107.28,107.28,0,0,1-8.31-24.21c-1.59-7.09-2.75-14.45-2.23-21.73.05-.64.1-1.28.16-1.92,0-.23.31-.34.3-.05Z" transform="translate(-17.17 -34.11)" style="fill:#D1CBED"></path></g><g id="freepik--plants--inject-82"><g id="freepik--leaves--inject-82"><path d="M44,393.41S42.34,385,32.54,378.09c-7.85-5.52-13.44-5.26-13.87-4.34s1.88,4.45,10.55,10.71C32.83,387.07,44,393.41,44,393.41Z" transform="translate(-17.17 -34.11)" style="fill:#D1CBED"></path><path d="M55.76,408.37c-.51-.85-7.37-7.59-16.39-12.35-4.81-2.53-8-2.4-8.11-1.2-.06.71,2.29,4.2,9.6,8S56.27,409.21,55.76,408.37Z" transform="translate(-17.17 -34.11)" style="fill:#D1CBED"></path><path d="M55.76,408.37c-.51-.85-7.37-7.59-16.39-12.35-4.81-2.53-8-2.4-8.11-1.2-.06.71,2.29,4.2,9.6,8S56.27,409.21,55.76,408.37Z" transform="translate(-17.17 -34.11)" style="fill:#fff;opacity:0.30000000000000004"></path><path d="M49.6,399.57c-.68-.76-1.68-4.06-2.38-9.74-.48-3.84-1.32-8.29-.13-8.73s4.14,3.57,4.7,8S50.28,400.34,49.6,399.57Z" transform="translate(-17.17 -34.11)" style="fill:#D1CBED"></path><path d="M60,414.57c-.67-1-1.09-7.73-1.26-10.84s.27-6.75,1.63-7.62,3.39,2.91,3.25,8.17S60.67,415.53,60,414.57Z" transform="translate(-17.17 -34.11)" style="fill:#D1CBED"></path><path d="M60,414.57c-.67-1-1.09-7.73-1.26-10.84s.27-6.75,1.63-7.62,3.39,2.91,3.25,8.17S60.67,415.53,60,414.57Z" transform="translate(-17.17 -34.11)" style="fill:#fff;opacity:0.30000000000000004"></path><path d="M61.62,417.74c-.14-.93-4.73-4.06-9.74-6.31-6.46-2.9-9.34-2.56-9.41-.57s2.76,5.08,8.29,6.84C58.71,420.22,61.77,418.66,61.62,417.74Z" transform="translate(-17.17 -34.11)" style="fill:#D1CBED"></path><path d="M24,376.37A103.58,103.58,0,0,1,41.32,390a123.18,123.18,0,0,1,14.49,16.76,113.56,113.56,0,0,1,11.54,20.92H65.58a133.41,133.41,0,0,0-10.83-20.19,121.09,121.09,0,0,0-14-16.92,103.54,103.54,0,0,0-16.88-14.09.08.08,0,0,1,.08-.14Z" transform="translate(-17.17 -34.11)" style="fill:#263238"></path></g><g id="freepik--leaves--inject-82"><path d="M56.67,364.5S57,355.92,49,347c-6.41-7.16-11.91-8.17-12.54-7.37s.82,4.76,7.86,12.82C47.26,355.81,56.67,364.5,56.67,364.5Z" transform="translate(-17.17 -34.11)" style="fill:#D1CBED"></path><path d="M64.78,381.74c-.31-.94-5.47-9.06-13.18-15.73-4.1-3.56-7.25-4.15-7.62-3-.22.68,1.28,4.6,7.53,10S65.08,382.68,64.78,381.74Z" transform="translate(-17.17 -34.11)" style="fill:#D1CBED"></path><path d="M64.78,381.74c-.31-.94-5.47-9.06-13.18-15.73-4.1-3.56-7.25-4.15-7.62-3-.22.68,1.28,4.6,7.53,10S65.08,382.68,64.78,381.74Z" transform="translate(-17.17 -34.11)" style="fill:#fff;opacity:0.30000000000000004"></path><path d="M60.66,371.44c-.58-.84-1.17-4.24-1.16-10,0-3.87.16-9.94,1.4-10.21,2.15-.47,3.21,5.59,3.22,10.07S61.24,372.28,60.66,371.44Z" transform="translate(-17.17 -34.11)" style="fill:#D1CBED"></path><path d="M60.66,371.44c-.58-.84-1.17-4.24-1.16-10,0-3.87.16-9.94,1.4-10.21,2.15-.47,3.21,5.59,3.22,10.07S61.24,372.28,60.66,371.44Z" transform="translate(-17.17 -34.11)" style="fill:#fff;opacity:0.30000000000000004"></path><path d="M64.81,381.07c-.44-1.08.68-7.77,1.23-10.84s1.78-6.51,3.3-7.05,2.65,3.59,1.32,8.69S65.24,382.16,64.81,381.07Z" transform="translate(-17.17 -34.11)" style="fill:#D1CBED"></path><path d="M69.06,396.83c.15-.92-3.36-5.49-7.07-9.53s-9.11-7.93-9.81-6.07,1.35,5.27,5.69,9.12C62.67,394.62,68.9,397.76,69.06,396.83Z" transform="translate(-17.17 -34.11)" style="fill:#D1CBED"></path><path d="M70.71,404.62c-.36-.48,1.68-4.92,3.42-9.64s2.46-6.68,4-6.63,2.79,3.23.37,8.25S71.07,405.1,70.71,404.62Z" transform="translate(-17.17 -34.11)" style="fill:#D1CBED"></path><path d="M67.92,427.72c2.1-6.79,2.4-18.94,1.49-25.89A91,91,0,0,0,64,380.69,121.3,121.3,0,0,0,54.18,361,102.82,102.82,0,0,0,40.92,343.5a.08.08,0,0,1,.12-.12,104.32,104.32,0,0,1,13.82,17.23,122.52,122.52,0,0,1,10.32,19.6A76.07,76.07,0,0,1,71,401.65c.66,7.1.09,19.51-2.79,26.05Z" transform="translate(-17.17 -34.11)" style="fill:#263238"></path></g></g></g></g></g><g id="freepik--Shadows--inject-82"><ellipse id="freepik--Shadow--inject-82" cx="226.79" cy="414.22" rx="69.45" ry="40.1" style="fill:#e0e0e0"></ellipse><ellipse id="freepik--shadow--inject-82" cx="354.9" cy="410.48" rx="69.45" ry="40.1" style="fill:#e0e0e0"></ellipse><ellipse id="freepik--shadow--inject-82" cx="107.78" cy="411.48" rx="69.45" ry="40.1" style="fill:#e0e0e0"></ellipse></g><g id="freepik--character-3--inject-82"><g id="freepik--Character--inject-82"><g id="freepik--Bottom--inject-82"><g id="freepik--bottom--inject-82"><polygon points="332.85 402.11 328.87 400.18 332.84 399.19 332.85 402.11" style="fill:#263238"></polygon><path d="M310.14,442.71s47.62-19.67,48.17-16.63a4.23,4.23,0,0,1-.06,1.82.65.65,0,0,0,.13-.16l-1,5.65a14.46,14.46,0,0,1-7.4,2.83c0-.27,0-2,0-2.92a23.86,23.86,0,0,0-4.2,2.05c-3.07,1.87-5.07,5.18-8.34,9-2.39,2.79-6.59,4.06-12.8,4.81-6.69.81-12.54-.48-14.17-2.21C309.2,445.59,309.9,443.1,310.14,442.71Z" transform="translate(-17.17 -34.11)" style="fill:#263238"></path><path d="M311.46,441.68c.47-.45,2.18-2.19,4.49-4.09,2-1.66,4.38-3.75,6.91-5.44a27.07,27.07,0,0,0,3.44-2.61c.83-.84,1.64-1.7,2.39-2.6a49.41,49.41,0,0,0,5.85-9.14,20.91,20.91,0,0,0,1.39-6.47c.37-7.3-1-20.56-1.62-25.58l25.26-1c-.71,3.41-2.27,16.71-2.68,20.6-.61,5.91-.87,9.11.09,12.18a24.25,24.25,0,0,1,1.47,5.85c.11,3-2.44,5.61-5.26,7.06-2.33,1.19-5,1.69-7.28,3a23.1,23.1,0,0,0-6,5.43c-1.62,1.91-2.93,4.18-5.19,5.51a21.35,21.35,0,0,1-7.75,2.43,43.12,43.12,0,0,1-10.36.36C311.73,446.68,308.1,444.93,311.46,441.68Z" transform="translate(-17.17 -34.11)" style="fill:#ffbda7"></path><path d="M330.07,432.66a9.33,9.33,0,0,0-7.33-.73c-3.52,2.58-6.45,4.88-8.51,6.48-2.51,1.95-4.7,3.73-4.64,6,.08,3.56,14.6,4.83,22.77,1.56a9.91,9.91,0,0,0,5.81-4.69S337.05,436.27,330.07,432.66Zm28.06-12.41c-.78-2.48-1.34-4-1.34-4-2.84,1.42-8.42,8.63-6.27,15.4a10.81,10.81,0,0,0,7.19-4.5C359.29,424.84,359,422.92,358.13,420.25Z" transform="translate(-17.17 -34.11)" style="fill:#37474f"></path><path d="M392.93,426.46c-1.38,2,.18,9.72-.24,15.17-.39,5-2,13.58-.48,18.51,1.78,5.85,5.52,12.66,12.86,7.37,4.56-3.29,8.75-8,9.52-15.16.53-5-1.41-11.86-3.07-18-1.95-7.15-2.66-11-2.66-11Z" transform="translate(-17.17 -34.11)" style="fill:#263238"></path><path d="M410.62,388.84c-.88,13.55-1.86,20.57-2.11,28a49.21,49.21,0,0,0,.9,10c.92,4.75,2.52,11.36,3.18,14.44.93,4.3,1.65,7,0,11.79a5.37,5.37,0,0,1-.54,1.07c-2.27,3.92-9.43,7.23-11.2,6.71a3.14,3.14,0,0,1-3.15,1,4.2,4.2,0,0,1-.59-.14c-.2-.07-.39-.15-.59-.24a5.82,5.82,0,0,1-2.88-3.7,10.07,10.07,0,0,1-.26-1.05c-1.16-6-.14-9.82,0-12.15a102.39,102.39,0,0,0,0-10.47,225.33,225.33,0,0,0-3.06-23.88c-.86-4.62-3-14.95-4.46-21.36Z" transform="translate(-17.17 -34.11)" style="fill:#ffbda7"></path><path d="M413.55,446.88c-4.34-1.91-18.58-2-20.73,3.82-.18,5.51-.3,9.24,3.28,14.1,4.75,6.47,12.81-.59,15.35-4.82S414.09,449.86,413.55,446.88Z" transform="translate(-17.17 -34.11)" style="fill:#37474f"></path><path d="M402.21,237.06c6,10.62,8.68,19,8.18,45.65-.59,30.91-.13,46.86-.06,50.64s2.26,10.31,2.82,29c.42,14-2.66,34.19-2.66,34.19s-3.86,3-11.4,3.54a30.65,30.65,0,0,1-12.66-1.88s-5.76-29.93-8.23-41.17-9.59-48.19-9.59-48.19l-5.8,26.28a122.38,122.38,0,0,1-.13,31.36c-2.36,16.29-3.84,25.55-3.84,25.55s-4.42,2.53-13.15,2.35a51.23,51.23,0,0,1-11.63-1.5s-6.65-49.48-7.2-61.86c-.82-18.48,3.74-65.64,4.67-92.94Z" transform="translate(-17.17 -34.11)" style="fill:#455a64"></path><path d="M342.68,264.88c2.84,7.67,13.5,13.16,18.2,14.29L366,308.43l-3.19,26.71,5.8-26.28-5.69-35.65S349.85,272.16,342.68,264.88Zm44.82-3.15c.73,3,1.38,6,2.08,9.07s1.38,6.06,2.13,9.11a57.43,57.43,0,0,0-.52-9.36,90.3,90.3,0,0,0-1.66-9.24,78.09,78.09,0,0,0-2.7-9,43.14,43.14,0,0,0-4.12-8.55c.94,3,1.78,6,2.57,9S386.8,258.71,387.5,261.73Zm5.64-5.71c1,1.83,2,3.67,3,5.52l2.93,5.64a23.89,23.89,0,0,0-1.43-6.23A40,40,0,0,0,395,255.1a46.56,46.56,0,0,0-3.57-5.39,34.44,34.44,0,0,0-4.41-4.8c1,1.94,2,3.78,3,5.62S392.14,254.19,393.14,256ZM387,340.42c-1.75-9.61-2.95-19.31-4.14-29s-2.29-19.44-3.58-29.16c.49,9.78,1.09,19.55,2,29.31s2,19.51,3.7,29.2,3.71,19.25,5.71,28.86,4,19.19,6.28,28.75q-2.15-14.53-4.68-29C390.59,359.69,388.8,350,387,340.42Zm-46.62-33.17,2.06-25.49c-1.52,8.41-2.72,16.87-3.68,25.36s-1.82,16.95-2,25.57c.18,8.59.75,17.07,1.37,25.58s1.39,17,2.32,25.49q-.18-12.79-.7-25.57l-.49-12.77c-.17-4.25-.38-8.52-.41-12.73s.31-8.46.58-12.7S340.07,311.5,340.38,307.25Z" transform="translate(-17.17 -34.11)" style="fill:#37474f"></path></g></g><g id="freepik--Top--inject-82"><g id="freepik--Arm--inject-82"><path d="M306.61,203.54s-21.46-11.5-24.27-13.27a22.9,22.9,0,0,1-2.75-2.47c-4.2-4.21-9.95-6.24-15.56-7.79l-2.89-.76a12.41,12.41,0,0,1-1.39-.41c-.42-.17-.79-.3-1.15.15a1.68,1.68,0,0,0-.27,1.16,4.88,4.88,0,0,0,2.06,3.35,23.57,23.57,0,0,0,3.54,2c.92.48-.14,1-.68,1.16-2.64.84-6.9-.23-9.55-.87a35.43,35.43,0,0,0-5.18-1.32,5.5,5.5,0,0,0-3.22.59c-.65.38-1.12,1-.57,1.71a3.72,3.72,0,0,0,1.43,1,4.07,4.07,0,0,1,2.4,2.3,9.43,9.43,0,0,0,.77,2.28c.55.86,1.55,1.34,2.19,2.14a23.11,23.11,0,0,1,1.13,2.36,7.42,7.42,0,0,0,2.56,1.8,24.12,24.12,0,0,0,6,2.37,46.9,46.9,0,0,0,9.74,1.25,13.1,13.1,0,0,1,5.34.95c1.66.84,4.51,3.3,6.32,4.7,19.51,15.33,24.53,16.75,28.64,16.82,2.9,0,5.05-1.67,11.64-8.19,8.44-8.37,21.71-22.75,21.71-22.75l6.35-26c-11.91,1.09-15.57,3.54-24.73,13.38C319.67,188.23,306.61,203.54,306.61,203.54Z" transform="translate(-17.17 -34.11)" style="fill:#ffbda7"></path><path d="M266.89,188.3a17.82,17.82,0,0,0,8,5.91,10.39,10.39,0,0,1-5.1-1.71C267.52,190.79,267.06,189.57,266.89,188.3Z" transform="translate(-17.17 -34.11)" style="fill:#f0997a"></path><path d="M306.61,203.54c5.88,3.43,6.34,11.81,6.34,11.81a12,12,0,0,0-5-13.46Z" transform="translate(-17.17 -34.11)" style="fill:#f0997a"></path><path d="M351.66,167.36a55,55,0,0,0-8.19,1c-5.42,1.34-10.52,4.4-16,10.78-3.21,3.78-14.5,16.64-14.5,16.64,3.55,1.76,11.56,5.89,15.13,15.73L345,193.94Z" transform="translate(-17.17 -34.11)" style="fill:#37474f"></path></g><g id="freepik--Chest--inject-82"><g id="freepik--Bikini--inject-82"><path d="M331.36,217.51a14.31,14.31,0,0,1-.89-7.09,18.74,18.74,0,0,1-4.13-19.66c2.88-7.58,8.37-11.43,14.73-16.19,5.35-4,10.54-7.2,10.54-7.2l2.24-.18c-2.5,2.64-2.2,7,5.09,7.85,10.77,1.22,14.57-3.36,18.76-8.13l5.2,1a64,64,0,0,0,1.8,19.27c2.63,11,10,13.14,10,13.14-.83,4.72-.53,9.94-1.11,13.51a14.2,14.2,0,0,0,1.2,8.42,112,112,0,0,0,6.63,11.85c4.52,7.2,5.86,11,5.86,11a35.43,35.43,0,0,1-16.05.45c-11.21,12.26-28.71,19.78-44,14.48s-16.81-15.75-16.81-15.75Z" transform="translate(-17.17 -34.11)" style="fill:#D1CBED"></path><path d="M331.36,217.51a14.31,14.31,0,0,1-.89-7.09,18.74,18.74,0,0,1-4.13-19.66c2.88-7.58,8.37-11.43,14.73-16.19,5.35-4,10.54-7.2,10.54-7.2l2.24-.18c-2.5,2.64-2.2,7,5.09,7.85,10.77,1.22,14.57-3.36,18.76-8.13l5.2,1a64,64,0,0,0,1.8,19.27c2.63,11,10,13.14,10,13.14-.83,4.72-.53,9.94-1.11,13.51a14.2,14.2,0,0,0,1.2,8.42,112,112,0,0,0,6.63,11.85c4.52,7.2,5.86,11,5.86,11a35.43,35.43,0,0,1-16.05.45c-11.21,12.26-28.71,19.78-44,14.48s-16.81-15.75-16.81-15.75Z" transform="translate(-17.17 -34.11)" style="opacity:0.35000000000000003"></path><path d="M349.7,206.48c4.2,5.74,11.41,7,18.47,5.49,5.57-1.19,11.15-5.19,12.66-9.75-.35,4.76-2.4,9.52-11.69,11.91C358.71,216.82,351.55,211.52,349.7,206.48Z" transform="translate(-17.17 -34.11)" style="opacity:0.2"></path></g></g><path d="M381.18,112.14c2.91,2,6.88,6.66,6,12.93,2.39.79,5.54,4.84,5.32,12.71s-.15,24.32-9.42,25.51a10.85,10.85,0,0,0,.22-7.6s.28,5.55-7.49,7.94c-7.19,2.21-21.73.47-26.77-2.53,3.4-2.3.29-11-1-13l5.64-3.58-7.1-6.25c-1.55-1.36-4.62-2.2-6.31-5.25a6.51,6.51,0,0,1-.53-5.36s-3.65-2.32.43-10.75S364.66,100.68,381.18,112.14Z" transform="translate(-17.17 -34.11)" style="fill:#e0e0e0"></path><path d="M381.18,112.14c2.91,2,6.88,6.66,6,12.93,2.39.79,5.54,4.84,5.32,12.71s-.15,24.32-9.42,25.51a10.85,10.85,0,0,0,.22-7.6s.28,5.55-7.49,7.94c-7.19,2.21-21.73.47-26.77-2.53,3.4-2.3.29-11-1-13l5.64-3.58-7.1-6.25c-1.55-1.36-4.62-2.2-6.31-5.25a6.51,6.51,0,0,1-.53-5.36s-3.65-2.32.43-10.75S364.66,100.68,381.18,112.14Z" transform="translate(-17.17 -34.11)" style="fill:#e0e0e0"></path><path d="M381.18,112.14c2.91,2,6.88,6.66,6,12.93,2.39.79,5.54,4.84,5.32,12.71s-.15,24.32-9.42,25.51a10.85,10.85,0,0,0,.22-7.6s.28,5.55-7.49,7.94c-7.19,2.21-21.73.47-26.77-2.53,3.4-2.3.29-11-1-13l5.64-3.58-7.1-6.25c-1.55-1.36-4.62-2.2-6.31-5.25a6.51,6.51,0,0,1-.53-5.36s-3.65-2.32.43-10.75S364.66,100.68,381.18,112.14Z" transform="translate(-17.17 -34.11)" style="fill:#e0e0e0"></path><path d="M383.1,163.29a10.85,10.85,0,0,0,.22-7.6s.28,5.55-7.49,7.94c-7.19,2.21-21.73.47-26.77-2.53,3.4-2.3.29-11-1-13l3-1.89,27.72,2.15-.7,6.16s2.91.66,5.46-3.47c1.94,2.08,3.31,7.47,3.31,7.47a12.93,12.93,0,0,0,4.61-6.86C390.41,157.49,388.13,162.64,383.1,163.29Z" transform="translate(-17.17 -34.11)" style="opacity:0.1"></path><path d="M349.69,117.41c-4,1.33-6.89,5.42-8.27,21.94-1.16,14,2.82,17.92,4.9,19.15s6.05,1.22,10.23.95c0,0-.23,5.51-.35,6.61s-2.35,1.13-2.35,1.13a4.21,4.21,0,0,0-1.64,4.72c.89,3.3,6.9,4.81,14.62,3.1,7.23-1.6,10.87-8.1,10.87-8.1a2,2,0,0,1-2-2.09c0-1.39.79-14.29.79-14.29a6,6,0,0,0,6.76-.17c3.69-2.72,4.51-7.82,2.18-10.88-1.76-2.3-4.74-3.51-7.16-1.38a7,7,0,0,0-1.57,2.2,6.45,6.45,0,0,1-.73,1.31,1.72,1.72,0,0,1-1.27.69,1.75,1.75,0,0,1-1.34-.85,10.22,10.22,0,0,1-.72-1.49c-2-4.12-7.28-5.73-10.83-8.07C353.73,126.53,349.94,122.43,349.69,117.41Z" transform="translate(-17.17 -34.11)" style="fill:#ffbda7"></path><path d="M363.4,136.08s0,.14.09.14a1.1,1.1,0,0,0,.26-.06l.24-.08.51-.14.52-.09.27,0a.86.86,0,0,0,.27,0c.09,0,.12-.26,0-.31a.68.68,0,0,0-.29,0h-.24a3,3,0,0,0-.51.08,3.53,3.53,0,0,0-.56.14,1.57,1.57,0,0,0-.51.23A.26.26,0,0,0,363.4,136.08Zm2.22,1s0-.1,0-.14-.24-.18-.38-.22a2.94,2.94,0,0,0-.58-.1,3.62,3.62,0,0,0-.57,0,2.19,2.19,0,0,0-.36,0,.45.45,0,0,0-.27.12.16.16,0,0,0,0,.17c.09.2.36.16.54.17l.53,0,.55,0C365.24,137.11,365.48,137.16,365.62,137Zm-2.24.72c0,.1,0,.21.13.22a5.41,5.41,0,0,1,.77.19,3.75,3.75,0,0,0,.81.23c.09,0,.11-.16.07-.22A1.37,1.37,0,0,0,365,138l-.18-.1-.38-.17a3.49,3.49,0,0,0-.85-.19C363.48,137.52,363.4,137.68,363.38,137.76Z" transform="translate(-17.17 -34.11)" style="fill:#f0997a"></path><path d="M344.84,133.79a1.58,1.58,0,0,0-.47-.28,5.14,5.14,0,0,0-.55-.2,4.07,4.07,0,0,0-.5-.13l-.24,0a.57.57,0,0,0-.29,0c-.1,0-.1.26,0,.31a1.19,1.19,0,0,0,.27.07l.26.07a4.84,4.84,0,0,1,.51.14,4.94,4.94,0,0,1,.49.19l.23.1a1.06,1.06,0,0,0,.25.09c.06,0,.1-.09.1-.13A.24.24,0,0,0,344.84,133.79Zm-1.7,1c.18,0,.36,0,.55,0l.53,0c.18,0,.45.08.55-.11a.17.17,0,0,0,0-.18.47.47,0,0,0-.26-.14l-.35-.07a3.64,3.64,0,0,0-.57,0,2.83,2.83,0,0,0-.58,0c-.15,0-.33,0-.41.19s0,.1,0,.13S343,134.82,343.14,134.83Zm1.42.59a4.22,4.22,0,0,0-.87.1l-.4.13a1,1,0,0,0-.18.09.65.65,0,0,0-.18.15c-.05.05-.05.23.05.23a4,4,0,0,0,.83-.15,5,5,0,0,1,.78-.1c.11,0,.16-.1.15-.21S344.67,135.41,344.56,135.42Z" transform="translate(-17.17 -34.11)" style="fill:#f0997a"></path><path d="M357.35,144a10.1,10.1,0,0,1,.49.92,5.74,5.74,0,0,0,.64.91,6.61,6.61,0,0,0,1.75,1.45,8.33,8.33,0,0,0,2.41.89,11.51,11.51,0,0,0,2.81.22s0,.07,0,.1a.16.16,0,0,1-.1,0,6,6,0,0,1-2.92.18l-.42-.12a8.14,8.14,0,0,1-.05.87,7.29,7.29,0,0,1-.28,1.39,5.72,5.72,0,0,1-1.41,2.46s0,0,0,0a9.09,9.09,0,0,0,1.12-2.38,6.62,6.62,0,0,0,.22-1.32,10.23,10.23,0,0,0,0-1.11,7.89,7.89,0,0,1-1.61-.69,6,6,0,0,1-1.7-1.5,3.78,3.78,0,0,1-.94-2.24S357.32,144,357.35,144Z" transform="translate(-17.17 -34.11)" style="fill:#f0997a"></path><path d="M362.1,137.17c-.05,1-1-.06-2-.11s-1.92.91-1.86-.12a1.82,1.82,0,0,1,1.93-1.73A2,2,0,0,1,362.1,137.17Z" transform="translate(-17.17 -34.11)"></path><path d="M349.12,135.74c-.05,1-1-.06-2-.11s-1.92.91-1.86-.12a1.82,1.82,0,0,1,1.93-1.73A2,2,0,0,1,349.12,135.74Z" transform="translate(-17.17 -34.11)"></path><path d="M344.69,129.65l5.11-.83a2.48,2.48,0,0,0-2.93-2.16A2.69,2.69,0,0,0,344.69,129.65Z" transform="translate(-17.17 -34.11)" style="fill:#e0e0e0"></path><path d="M358.52,148l-6.16,1.35A3.08,3.08,0,0,0,356,152,3.45,3.45,0,0,0,358.52,148Z" transform="translate(-17.17 -34.11)" style="fill:#b16668"></path><path d="M354.83,152a3.18,3.18,0,0,1,3.44-2.88l.24.05A3.35,3.35,0,0,1,356,152,2.89,2.89,0,0,1,354.83,152Z" transform="translate(-17.17 -34.11)" style="fill:#f0997a"></path><path d="M356.55,159.45c4.37-.13,13.84-2,15.61-5.51,0,0-.11,2.15-3.19,4.5-2.84,2.17-12.53,3-12.53,3Z" transform="translate(-17.17 -34.11)" style="fill:#f0997a"></path><polygon points="337.04 99.64 336.25 110.82 330.08 108.43 337.04 99.64" style="fill:#f0997a"></polygon></g><path d="M429,85.87a1.91,1.91,0,0,0-2.55-.39,2.41,2.41,0,0,0-3.86-2.82s1-2.6-1.18-3.68a2.41,2.41,0,0,0-3.28.74,2.84,2.84,0,0,0-1.92-3.5c-1.43-.56-3.06,0-4.86,4.64,0,0-2.35.55-3.21,1.82-.55.8-1.88,5.52-2.46,8.84-.28,1.61,1.07,4.94,2.68,7.37,1.16,1.72,1.31,3,1.43,6.11,0,7.93-3.37,28.86-4.38,35.28a7.66,7.66,0,0,1-1.12,3.19c-.61,1.06-17.31,24.14-17.31,24.14s-3.11,26.13,7.9,31c1.57-4.29,23.92-40.55,26-44.3a21.46,21.46,0,0,0,3-10.7c.42-7.37.93-25.91.66-36.65h0a14.8,14.8,0,0,1,1.94-6.52,14.31,14.31,0,0,0,2-5c.69-3,1.14-5.57,1.14-5.57S430.17,87,429,85.87Z" transform="translate(-17.17 -34.11)" style="fill:#ffbda7"></path><path d="M382.9,167.86c2.55-.33,5.47-3.36,7.94-6.44s8.9-11.81,8.9-11.81-2.18,10,4.4,14.32,9.42,2.7,9.42,2.7-2.94,5.39-7.33,12.91c-4,6.89-11.51,20.73-11.51,20.73s-9.43-.78-12.11-11.5C379.39,175.93,382.9,167.86,382.9,167.86Z" transform="translate(-17.17 -34.11)" style="fill:#37474f"></path><path d="M426.58,94.36l-.22.19a2.21,2.21,0,0,1-1.89.56,1.72,1.72,0,0,1-.8-1.27,7.27,7.27,0,0,1,.13-2.41s0-.07,0-.09-.16,0-.22,0c-.34.34-.57.77-.88,1.14a2,2,0,0,1-1.69.72c-1.33-.07-1.58-1.7-1.5-2.76,0-.35.07-.7.09-1.06,0,0,0-.11-.07-.11l0,0a1.57,1.57,0,0,0-.46.5,2.67,2.67,0,0,1-.51.55,1.56,1.56,0,0,1-.85.42c-.71.09-1-.56-1.2-1.11a5.49,5.49,0,0,1-.3-2.84s0-.06,0-.09l.25,0c2.55.44,3.54-2,2.75-2.7s-3.58-3.82-4.22-3.76a26.14,26.14,0,0,0-3.56.51l3.63-.24s4,3.85,3.78,4.39a1.93,1.93,0,0,1-2,1.27,16.24,16.24,0,0,1-3.73-.87c-.14,1-2.41,2.46-2.41,2.46A20.66,20.66,0,0,1,416,91.5a22.47,22.47,0,0,1,4.67,6.72,14,14,0,0,0-3.07-6.55,2,2,0,0,0,1.06-.36c-.06,1.47.13,2.87,2,3a2.38,2.38,0,0,0,2.2-.91,2,2,0,0,0,1.05,2,1.89,1.89,0,0,0,2.44-.42,2.87,2.87,0,0,0,.28-.48.16.16,0,0,0,0-.09S426.63,94.36,426.58,94.36Zm-13.43-8.21s.59.17,2.55.53a10.61,10.61,0,0,0-.55,1.24,2,2,0,0,1-.41.63,1,1,0,0,1-.17.12A19.75,19.75,0,0,0,412.23,87,2.06,2.06,0,0,0,413.15,86.15Z" transform="translate(-17.17 -34.11)" style="fill:#f0997a"></path><path d="M415.24,87.91h0C415.28,87.85,415.29,87.84,415.24,87.91Z" transform="translate(-17.17 -34.11)" style="fill:#f0997a"></path><path d="M419.13,72.09a1,1,0,0,1-.94-1l.2-7.76a1,1,0,0,1,1.94.06l-.2,7.76A1,1,0,0,1,419.13,72.09Z" transform="translate(-17.17 -34.11)" style="fill:#D1CBED"></path><path d="M410.29,74.31a1,1,0,0,1-.83-.51L405.73,67a1,1,0,0,1,1.71-.92l3.73,6.82a1,1,0,0,1-.39,1.31A1,1,0,0,1,410.29,74.31Z" transform="translate(-17.17 -34.11)" style="fill:#D1CBED"></path><path d="M403.61,80.27a.77.77,0,0,1-.38-.12l-6.66-4.05a.77.77,0,1,1,.81-1.32L404,78.84a.77.77,0,0,1,.26,1.06A.81.81,0,0,1,403.61,80.27Z" transform="translate(-17.17 -34.11)" style="fill:#D1CBED"></path><path d="M401,89l-7.81-.2a.78.78,0,0,1,0-1.55l7.81.21A.77.77,0,1,1,401,89Z" transform="translate(-17.17 -34.11)" style="fill:#D1CBED"></path><path d="M396.29,101.72a1,1,0,0,1-.44-1.82l6.86-3.7a1,1,0,0,1,1.32.39,1,1,0,0,1-.39,1.31l-6.87,3.7A1,1,0,0,1,396.29,101.72Z" transform="translate(-17.17 -34.11)" style="fill:#D1CBED"></path><path d="M427.85,74.77a1,1,0,0,1-.49-.14A1,1,0,0,1,427,73.3l4.08-6.62a1,1,0,0,1,1.34-.32,1,1,0,0,1,.32,1.33l-4.08,6.62A1,1,0,0,1,427.85,74.77Z" transform="translate(-17.17 -34.11)" style="fill:#D1CBED"></path><path d="M434.2,81.07a.77.77,0,0,1-.35-1.45l6.86-3.7a.77.77,0,0,1,.74,1.36L434.59,81A.68.68,0,0,1,434.2,81.07Z" transform="translate(-17.17 -34.11)" style="fill:#D1CBED"></path><path d="M444.14,90.12l-7.81-.21a.77.77,0,1,1,0-1.54l7.81.2a.78.78,0,0,1,0,1.55Z" transform="translate(-17.17 -34.11)" style="fill:#D1CBED"></path><path d="M440.39,102.88a1.1,1.1,0,0,1-.49-.14l-6.65-4.06a1,1,0,0,1-.32-1.33,1,1,0,0,1,1.33-.32l6.66,4.06a1,1,0,0,1,.32,1.33A1,1,0,0,1,440.39,102.88Z" transform="translate(-17.17 -34.11)" style="fill:#D1CBED"></path></g></g><g id="freepik--character-1--inject-82"><g id="freepik--character--inject-82"><g id="freepik--bottom--inject-82"><path d="M85.76,423.05c1-14.24-.57-25.15.62-47.38h0c.1-5.7.31-11.81.69-17.23,1.29-18.25,4.1-24.49,4.36-28,0,0-2-28-.77-67.89.56-18.78,5.91-25.66,10.26-35.63l54.23.77c5.77,24.6,10.66,71.56,9.2,103.36-.6,12.91-7.26,82.31-7.36,83.9-.37,5.64.12,7.87,2.33,10.24,4.63,5,11.35,9.7,17.15,14-.84,2.22-7.82,2.14-11.28.45a88.9,88.9,0,0,1-12.88-8.21c-4.77-3.53-10.92-6.3-11-11.67l-.21-1.65c-.09-3.14-7.29-48.76-7.9-59.5-.52-9.23.6-24.89.6-24.89l-6-39.09s-3.67,23.11-7.39,38.88c-3,12.85-8,34.76-11.41,50.56h0c-3.27,18.21-8.07,31.17-8.9,40.29-.25,2.17-2.71,23.53-3.73,28.42s-11.68,5-12.36-3.39C83.6,443.81,85.56,425.73,85.76,423.05Z" transform="translate(-17.17 -34.11)" style="fill:#ffa8a7"></path><path d="M127.85,294.65l4.35-28.2s16.83-2,23-7.88c0,0-7.72,10.89-19.14,12.67l-4.8,23.37,2.54,38.8Z" transform="translate(-17.17 -34.11)" style="fill:#f28f8f"></path><path d="M185.29,445.48c.29,0,.65,3-1,4.24-1.92,1.41-7.49,3.66-14.72,2.58s-11.1-3.26-13.94-5.56-6.8-5.57-10.07-6.33c-3-.71-6.3-2.07-7.25-3s-.7-4.71-.7-4.71Z" transform="translate(-17.17 -34.11)" style="fill:#263238"></path><path d="M141.1,418.13s-1,0-1.27.86c-.25,1-.59,4.1-1.13,5.81-.74,2.38-1.34,7.29-1,9.26s5.27,3.49,8.41,4.69A41.33,41.33,0,0,1,156.22,445c3.33,2.67,10.42,5.56,15.16,5.68,5.6.14,12-1.32,13.47-3.64,1.88-2.87,3.29-6.23-4.9-10-1.55-.71-7-3.86-8.83-5-5-3.08-8.49-5.87-10.67-11.11a2.21,2.21,0,0,0-2.76-1.8c-1.38.13-6.92.65-8.2,1.16-1.13.45-2.73,1-2.74,2.27a3.9,3.9,0,0,0,.27,1.33c.09.27.16.62-.1.77s-.56,0-.77-.22a19.83,19.83,0,0,1-2.16-2.52,8,8,0,0,0-1.28-1.26,15.08,15.08,0,0,1-1.4-.88C140.82,419.3,141.1,418.74,141.1,418.13Z" transform="translate(-17.17 -34.11)" style="fill:#455a64"></path><path d="M156.22,445c-1.41-1.13-2.92-2.23-4.43-3.22h0s9.59,5.72,13.61,3.38c2.59-1.5,1.45-3.46,1.4-4.07s9.07-4.68,11.54-4.87h0c.68.37,1.25.67,1.61.83,8.19,3.77,6.78,7.13,4.9,10-1.52,2.32-6.14,4-13.38,3.8C166.74,450.69,159.55,447.67,156.22,445Z" transform="translate(-17.17 -34.11)" style="fill:#37474f"></path><path d="M166.18,439.26c5.1,2.05,2.87,2.86,1.42,3s-10-4.75-15.17-8.74c-5.41-4.16-8.75-8.63-10.76-10.15-.75-.57-1.55-1.27-2.27-1.92.17-1,.31-2,.43-2.46.22-.88,1.27-.86,1.27-.86a13.74,13.74,0,0,1,.21,1.65,15.08,15.08,0,0,0,1.4.88,8,8,0,0,1,1.28,1.26,19.83,19.83,0,0,0,2.16,2.52C150.49,429.79,161.07,437.22,166.18,439.26Z" transform="translate(-17.17 -34.11)" style="fill:#37474f"></path><path d="M167.25,441.56a.66.66,0,0,1-.32-.12.45.45,0,0,1-.05-.66c1.51-1.58,8.53-5.22,12.32-4.72a.48.48,0,0,1,.44.53.5.5,0,0,1-.58.39c-3.53-.46-10.21,3.17-11.41,4.42A.54.54,0,0,1,167.25,441.56Z" transform="translate(-17.17 -34.11)" style="fill:#263238"></path><path d="M162.83,438.89a.49.49,0,0,1-.32-.12.43.43,0,0,1,0-.65c1.51-1.58,8.53-5.22,12.32-4.73a.48.48,0,0,1,.43.53.5.5,0,0,1-.57.4c-3.54-.46-10.21,3.16-11.41,4.41A.54.54,0,0,1,162.83,438.89Z" transform="translate(-17.17 -34.11)" style="fill:#263238"></path><path d="M158.4,436.36a.55.55,0,0,1-.32-.12.45.45,0,0,1-.05-.66c1.51-1.58,8.53-5.22,12.32-4.72a.49.49,0,0,1,.44.53.5.5,0,0,1-.58.39c-3.54-.45-10.21,3.17-11.41,4.42A.54.54,0,0,1,158.4,436.36Z" transform="translate(-17.17 -34.11)" style="fill:#263238"></path><path d="M154.31,433.49a.56.56,0,0,1-.32-.11.45.45,0,0,1-.05-.66c1.51-1.58,8.55-5.22,12.32-4.72a.48.48,0,0,1,.44.53.5.5,0,0,1-.58.39c-3.53-.45-10.21,3.16-11.4,4.42A.56.56,0,0,1,154.31,433.49Z" transform="translate(-17.17 -34.11)" style="fill:#263238"></path><path d="M150.31,430.63a.51.51,0,0,1-.31-.11.42.42,0,0,1-.06-.65c2.07-2.25,9.4-5.24,13.19-4.75a.48.48,0,0,1,.43.53.51.51,0,0,1-.57.4c-3.41-.45-10.43,2.43-12.27,4.42A.53.53,0,0,1,150.31,430.63Z" transform="translate(-17.17 -34.11)" style="fill:#263238"></path><path d="M101.72,456.94c-.26,4.87-1.08,8.08-3,10.87s-5.7,3.57-9.52,2.6-8.73-3.38-9.88-7.62-1-7.13-.18-11.63Z" transform="translate(-17.17 -34.11)" style="fill:#263238"></path><path d="M85.86,421.43c-1.57.06-1.76,6.24-2.56,12.77-.87,7-3.24,9.83-4,15.57-.89,6.55-.45,9.51,2.27,13.58s12.18,8.3,16.73,2.76c3.71-4.53,3.79-9.68,3.34-16.27a148,148,0,0,1-.6-16.76c.24-4.92.68-9.68-.69-10.28-.1.72-.18,1.64-.29,2.35-.07.54-.31,3.2-1.19,3.2a9.64,9.64,0,0,1,0-1.86,2,2,0,0,0-.45-1.61,3.33,3.33,0,0,0-1.75-.73c-1.55-.32-3.11-.61-4.68-.79-.78-.09-1.56-.15-2.35-.17a7.27,7.27,0,0,0-2,.18,1.28,1.28,0,0,0-.84.64,1.73,1.73,0,0,0-.07.75,5.11,5.11,0,0,1-.18,1.35c0,.19-.2.42-.43.37a.41.41,0,0,1-.26-.41C85.79,425.28,85.84,421.85,85.86,421.43Z" transform="translate(-17.17 -34.11)" style="fill:#455a64"></path><path d="M79.61,447.9c-.14,1-1,7.21,1,8.41,2.15,1.3,3.25-3.61,3.25-3.61s5-1.16,12.31,1.86c-.35,1,.82,4.42,2.81,3.77s2.65-7.83,2.66-7.92c.4,6.32.22,11.31-3.38,15.7-4.55,5.54-14,1.32-16.73-2.76s-3.16-7-2.27-13.58C79.37,449.11,79.48,448.49,79.61,447.9Z" transform="translate(-17.17 -34.11)" style="fill:#37474f"></path><path d="M84.46,453.15c0,2.38-2.72,1.48-2.89-1.89S83.41,440,83.3,434.2c.8-6.53,1-12.71,2.56-12.77,0,.08-.07,3.09-.07,3.09s0,1,0,1.55c0,4.86-.62,14.22-1,18.64A65.35,65.35,0,0,0,84.46,453.15Z" transform="translate(-17.17 -34.11)" style="fill:#37474f"></path><path d="M95.35,454.47a66.93,66.93,0,0,0,1.37-8.31c.47-4.38,1.7-13.56,2.7-18.32a12.05,12.05,0,0,0,.63-2.69c.09-.66.17-1.5.26-2.2l0-.14c1,.44,1,3.08.86,6.37-.17,1.9-.48,4.24-.94,7.08-1.26,5.62-.88,13.86-1.71,17.11S94.87,456.79,95.35,454.47Z" transform="translate(-17.17 -34.11)" style="fill:#37474f"></path><path d="M96.35,454.76a.83.83,0,0,1-.21-.06A21.44,21.44,0,0,0,84,453.2a.62.62,0,0,1-.72-.39.47.47,0,0,1,.4-.6,22.49,22.49,0,0,1,13,1.61.49.49,0,0,1,.25.69A.58.58,0,0,1,96.35,454.76Z" transform="translate(-17.17 -34.11)" style="fill:#263238"></path><path d="M97.58,449.64a.7.7,0,0,1-.19-.06,26.55,26.55,0,0,0-13.55-1.67.64.64,0,0,1-.71-.41.49.49,0,0,1,.43-.59,27.44,27.44,0,0,1,14.32,1.78.49.49,0,0,1,.28.68A.59.59,0,0,1,97.58,449.64Z" transform="translate(-17.17 -34.11)" style="fill:#263238"></path><path d="M84.15,443a.62.62,0,0,1-.5-.36A.47.47,0,0,1,84,442c7-1.83,14,1.52,14.3,1.66a.49.49,0,0,1,.25.69.62.62,0,0,1-.78.19c-.07,0-6.86-3.28-13.38-1.57A.49.49,0,0,1,84.15,443Z" transform="translate(-17.17 -34.11)" style="fill:#263238"></path><path d="M84.48,438.39A.57.57,0,0,1,84,438a.46.46,0,0,1,.34-.63A20.77,20.77,0,0,1,98.91,439a.47.47,0,0,1,.2.7.61.61,0,0,1-.79.14,19.86,19.86,0,0,0-13.59-1.51A.53.53,0,0,1,84.48,438.39Z" transform="translate(-17.17 -34.11)" style="fill:#263238"></path><path d="M84.88,433.21a.64.64,0,0,1-.49-.34.46.46,0,0,1,.33-.64c7.21-2.12,14.38,1.61,14.69,1.77a.48.48,0,0,1,.22.7.62.62,0,0,1-.79.16c-.07,0-7-3.64-13.7-1.67A.76.76,0,0,1,84.88,433.21Z" transform="translate(-17.17 -34.11)" style="fill:#263238"></path></g><g id="freepik--top--inject-82"><path d="M89.25,146.44c-1-1.54-1.39-4.66-.22-6.07a7.29,7.29,0,0,1,4.34-2.45c3.53-.89,3.23-3.49,3.28-4.35.18-3.33,1.19-5.25,3-6.51,4.9-3.39,17.77-3.48,17.2,5.11-.08,1.28-.55,2.67.11,3.77a4,4,0,0,0,1.2,1.13c2.19,1.55,4.53,3,6.26,5s2.75,5,1.81,7.47c-.89,2.36-3.34,4-3.82,6.48-.66,3.41,2.7,6.79,1.67,10.1-.82,2.66-3,3.18-5.34,3.47-2.72.33-3.72,3.64-6.81,3.36a16.76,16.76,0,0,0-4,.42,11.48,11.48,0,0,1-5-.16,6.27,6.27,0,0,1-3.85-3c-.72-1.36-.81-3-1.82-4.19-.85-1-2.09-1.54-3-2.47a5.68,5.68,0,0,1-1.88-3.47,3.49,3.49,0,0,1,.79-2.75,2.37,2.37,0,0,0-1.72,2.12,6.89,6.89,0,0,0,.44,2.86,6.05,6.05,0,0,1-2.3-8.83c.62-.92,1.54-1.76,1.56-2.87C91.22,148.89,90.23,148,89.25,146.44Z" transform="translate(-17.17 -34.11)" style="fill:#263238"></path><path d="M107.4,124.58c-4.86,2.52-4.69,11.84,1.17,16S114.72,120.24,107.4,124.58Z" transform="translate(-17.17 -34.11)" style="fill:#D1CBED"></path><g id="freepik--arm--inject-82"><path d="M186.77,203.54S208.22,192,211,190.27a22.9,22.9,0,0,0,2.75-2.47c4.2-4.21,9.94-6.24,15.56-7.79l2.89-.76a13.07,13.07,0,0,0,1.39-.41c.42-.17.79-.3,1.15.15a1.68,1.68,0,0,1,.27,1.16A4.86,4.86,0,0,1,233,183.5a23,23,0,0,1-3.53,2c-.92.48.14,1,.68,1.16,2.64.84,6.9-.23,9.54-.87a35.88,35.88,0,0,1,5.19-1.32,5.47,5.47,0,0,1,3.21.59c.66.38,1.12,1,.58,1.71a3.79,3.79,0,0,1-1.43,1,4,4,0,0,0-2.4,2.3,9.88,9.88,0,0,1-.77,2.28c-.55.86-1.55,1.34-2.19,2.14a23.11,23.11,0,0,0-1.13,2.36,7.52,7.52,0,0,1-2.56,1.8,24,24,0,0,1-6,2.37,46.81,46.81,0,0,1-9.73,1.25,13.18,13.18,0,0,0-5.35.95c-1.66.84-4.5,3.3-6.31,4.7-19.51,15.33-25,17.23-29.12,17.29-2.9,0-5.16-1.6-11.16-8.66-7.32-8.63-20-23.48-20-23.48l-3.28-24.5c11.91,1.09,15.15,5.08,21.22,12.64S186.77,203.54,186.77,203.54Z" transform="translate(-17.17 -34.11)" style="fill:#ffa8a7"></path><path d="M226.49,188.3a17.82,17.82,0,0,1-8,5.91,10.39,10.39,0,0,0,5.1-1.71C225.86,190.79,226.32,189.57,226.49,188.3Z" transform="translate(-17.17 -34.11)" style="fill:#f28f8f"></path><path d="M186.77,203.54c-5.88,3.43-6.34,11.81-6.34,11.81a12,12,0,0,1,5-13.46Z" transform="translate(-17.17 -34.11)" style="fill:#f28f8f"></path><path d="M146.54,168.11c2.51.14,4.11.21,6.2.51,4.12.6,9.13,4.13,14.56,10.51,3.21,3.78,13.06,16.64,13.06,16.64-3.56,1.76-11.56,5.23-15.14,15.07l-15.16-17.72Z" transform="translate(-17.17 -34.11)" style="fill:#37474f"></path></g><g id="freepik--top--inject-82"><path d="M92.27,246c4-13.2,9.85-21.18,10.14-25.31,0,0-3.29-23.91-3.63-28.83-.86-12.81,1.67-18.7,4.29-19.95a92.14,92.14,0,0,1,9.64-2.73c8.93-2.14,21.59-1.93,29.8-1.47,3.08.29,4,.44,4,.44a76.18,76.18,0,0,1,10.65,10.56c6.22,7.85,8.05,13,6.69,20.79a18.75,18.75,0,0,1-4.71,9c-.66,3.75-1.93,14.41-1.93,14.41-.07,4.2.48,10,2.18,20.21,0,0,4.05,29.64,5.69,50.75-18,14.35-59.81,12.72-75.91,5.34C89.38,273.52,88.9,257.16,92.27,246Z" transform="translate(-17.17 -34.11)" style="fill:#D1CBED"></path><path d="M92.27,246c4-13.2,9.85-21.18,10.14-25.31,0,0-3.29-23.91-3.63-28.83-.86-12.81,1.67-18.7,4.29-19.95a92.14,92.14,0,0,1,9.64-2.73c8.93-2.14,21.59-1.93,29.8-1.47,3.08.29,4,.44,4,.44a76.18,76.18,0,0,1,10.65,10.56c6.22,7.85,8.05,13,6.69,20.79a18.75,18.75,0,0,1-4.71,9c-.66,3.75-1.93,14.41-1.93,14.41-.07,4.2.48,10,2.18,20.21,0,0,4.05,29.64,5.69,50.75-18,14.35-59.81,12.72-75.91,5.34C89.38,273.52,88.9,257.16,92.27,246Z" transform="translate(-17.17 -34.11)" style="fill:#fff;opacity:0.2"></path><path d="M144.11,193.12a1.84,1.84,0,1,1-1.76-1.92A1.84,1.84,0,0,1,144.11,193.12Z" transform="translate(-17.17 -34.11)" style="fill:#fafafa"></path><path d="M145.46,204.84a1.84,1.84,0,1,1-1.76-1.92A1.84,1.84,0,0,1,145.46,204.84Z" transform="translate(-17.17 -34.11)" style="fill:#fafafa"></path><circle cx="125.95" cy="182.8" r="1.84" style="fill:#fafafa"></circle><circle cx="124.65" cy="200.95" r="1.84" style="fill:#fafafa"></circle><path d="M143.82,248.67a1.84,1.84,0,1,1-1.76-1.91A1.84,1.84,0,0,1,143.82,248.67Z" transform="translate(-17.17 -34.11)" style="fill:#fafafa"></path><path d="M144.43,260.78a1.84,1.84,0,1,1-1.76-1.92A1.84,1.84,0,0,1,144.43,260.78Z" transform="translate(-17.17 -34.11)" style="fill:#fafafa"></path><path d="M145.75,273.27a1.84,1.84,0,1,1-1.76-1.91A1.83,1.83,0,0,1,145.75,273.27Z" transform="translate(-17.17 -34.11)" style="fill:#fafafa"></path><path d="M147,287.48a1.84,1.84,0,1,1-1.76-1.91A1.84,1.84,0,0,1,147,287.48Z" transform="translate(-17.17 -34.11)" style="fill:#fafafa"></path><path d="M149.68,272.82c-.84-9.3-1.78-18.59-2.4-27.9A190.09,190.09,0,0,1,148,217c.19-2.33.39-4.66.46-7a68.53,68.53,0,0,0-.13-7,47.85,47.85,0,0,0-1-6.95A26.61,26.61,0,0,0,145,189.4a28.39,28.39,0,0,1,2.06,6.66,47.61,47.61,0,0,1,.8,6.93q.18,3.49,0,7c-.1,2.33-.34,4.64-.56,7a183.44,183.44,0,0,0-.87,28c.32,4.67.77,9.32,1.2,14s.89,9.3,1.39,13.94c1,9.29,2,18.58,3.15,27.85Z" transform="translate(-17.17 -34.11)" style="opacity:0.2"></path><path d="M102,217.74c8.61,5.92,42.08,9.43,55.56,2.39l-.25,3.72s-5.56,5.16-27.75,4.06c-20.9-1-27.3-6.28-27.3-6.28Z" transform="translate(-17.17 -34.11)" style="fill:#37474f"></path><path d="M138.41,165.05" transform="translate(-17.17 -34.11)" style="fill:#9a4a4d"></path></g><g id="freepik--Head--inject-82"><path d="M156.89,118.13c-.77-6.22-7.8-6.63-9.66-6.45a8.84,8.84,0,0,1-7.15-3.17,8.9,8.9,0,0,0-8.57-2.72c-5,1.2-3.9,3.31-8.15,4.66-3.79,1.2-6.56-.1-10.06,3.11a9.74,9.74,0,0,0-2.71,8.13c-2.6,1.54-6.23,10.94-1.15,21.42,2.61,5.4,5.82,7.95,9.8,12.45l3.93.09c1.35-3.32,4.68-2.63,7.77-3.33,2-.84,3.13-3,5.1-3.86s4.32-.14,6.47-.48c1.67-.26,3.38-1.22,5.1-.74,3.92,1.68,9.93-1.65,9.57-6.21-.12-1.38-.85-2.74-.56-4.1.38-1.78,2.3-2.73,3.35-4.22a4.75,4.75,0,0,0-.18-5.71C157,123.89,157.33,121.68,156.89,118.13Z" transform="translate(-17.17 -34.11)" style="fill:#263238"></path><path d="M142,167.63l-2.05-.29c-1.75-.25-1.56-2.24-1.69-4l-.11-2.68c4.11.22,6.29-.52,8.21-1.89,3.22-2.31,6.06-5.69,6.08-16.81,0-4.49-1.28-6.6-1.2-7.61.49-6,0-7.08-1.3-10.21-2.43-5-8.74-6.9-11.56-1.64-7.72-6.24-16.52,1.64-16.35,10.91.92,7.66-1.44,8-2.93,8-2.12-4.81-7.06-4.82-9.19-1.78-1.93,2.76-1.66,6.88,1.9,10.86s7.15,1.65,7.22.88c0,0,.4,10.32.44,12.38s-.2,3.26-2.77,4.06h0L113,169a9.11,9.11,0,0,0,.58.71c.91,1.09,2.89,3.5,6.24,7.6,8.64,3.41,19,8.14,25,11.91A114.38,114.38,0,0,0,149,175.88,49.55,49.55,0,0,0,142,167.63Z" transform="translate(-17.17 -34.11)" style="fill:#ffa8a7"></path><path d="M133.5,147.63l5.82,1.67a3,3,0,0,1-3.69,2.18A3.17,3.17,0,0,1,133.5,147.63Z" transform="translate(-17.17 -34.11)" style="fill:#b16668"></path><path d="M133.91,149a3.34,3.34,0,0,1,3.4,2.5,3,3,0,0,1-1.68,0,3.11,3.11,0,0,1-2.17-2.46C133.61,149,133.75,149,133.91,149Z" transform="translate(-17.17 -34.11)" style="fill:#f28f8f"></path><path d="M149.24,130.9l-4.17-2.05a2.24,2.24,0,0,1,3-1.12A2.44,2.44,0,0,1,149.24,130.9Z" transform="translate(-17.17 -34.11)" style="fill:#263238"></path><path d="M128.48,132.12l3.94-2.58a2.26,2.26,0,0,0-3.19-.74A2.48,2.48,0,0,0,128.48,132.12Z" transform="translate(-17.17 -34.11)" style="fill:#263238"></path><path d="M144.74,135.8a2,2,0,0,0,1.85,2.06,1.87,1.87,0,0,0,2-1.77,2,2,0,0,0-1.85-2.06A1.87,1.87,0,0,0,144.74,135.8Z" transform="translate(-17.17 -34.11)" style="fill:#263238"></path><path d="M130.72,136.57a2,2,0,0,0,1.85,2.06,1.87,1.87,0,0,0,2-1.77,2,2,0,0,0-1.84-2.06A1.87,1.87,0,0,0,130.72,136.57Z" transform="translate(-17.17 -34.11)" style="fill:#263238"></path><polygon points="129.05 108 123.02 111.11 121.42 99.35 129.05 108" style="fill:#f28f8f"></polygon><path d="M138.12,160.7c-7.39-.52-14.52-2.33-16.45-6.78a7.57,7.57,0,0,0,4.38,6.16,26.55,26.55,0,0,0,12.16,2.78Z" transform="translate(-17.17 -34.11)" style="fill:#f28f8f"></path></g></g><path d="M64.38,87.85a1.92,1.92,0,0,1,2.56-.39,2.41,2.41,0,0,1,3.85-2.82S69.8,82.05,72,81a2.41,2.41,0,0,1,3.27.74,2.83,2.83,0,0,1,1.92-3.49c1.44-.57,3.06,0,4.86,4.63,0,0,2.35.56,3.21,1.82.55.8,1.89,5.52,2.46,8.84.28,1.61-1.06,5-2.68,7.37-1.16,1.73-1.31,3-1.42,6.11,0,7.93,3.36,28.86,4.38,35.28a7.49,7.49,0,0,0,1.12,3.2c.6,1,17.3,24.13,17.3,24.13s4.23,24.89-6.78,29.79c-1.57-4.28-23.92-40.55-26-44.3a21.43,21.43,0,0,1-3-10.7c-.42-7.37-2-24.65-1.77-35.4h0a14.68,14.68,0,0,0-2-6.52,14.5,14.5,0,0,1-2-5c-.68-3-1.14-5.57-1.14-5.57S63.25,89,64.38,87.85Z" transform="translate(-17.17 -34.11)" style="fill:#ffa8a7"></path><path d="M109.4,170c-2.55-.33-4.34-3.49-6.81-6.57s-8.91-11.81-8.91-11.81,2.19,10-4.4,14.32-8.3,1.46-8.3,1.46,2.93,5.39,7.33,12.91c4,6.88,11.5,20.73,11.5,20.73s6.2-2.23,8.88-13C111.9,175.21,109.4,170,109.4,170Z" transform="translate(-17.17 -34.11)" style="fill:#37474f"></path><path d="M66.79,96.37a.24.24,0,0,0,0,.09,2.92,2.92,0,0,0,.29.48,1.89,1.89,0,0,0,2.44.42,2,2,0,0,0,1-2,2.36,2.36,0,0,0,2.21.91c1.86-.09,2-1.49,2-3a2,2,0,0,0,1.06.35,13.9,13.9,0,0,0-3.07,6.55,22.33,22.33,0,0,1,4.66-6.72,20.66,20.66,0,0,1,5.35-3.63s-2.27-1.46-2.41-2.46a16.11,16.11,0,0,1-3.72.87,1.94,1.94,0,0,1-2-1.27c-.21-.54,3.78-4.38,3.78-4.38l3.63.23a26.27,26.27,0,0,0-3.55-.51c-.65-.06-3.43,3.09-4.22,3.77s.19,3.13,2.74,2.69l.26,0v.08a5.49,5.49,0,0,1-.3,2.84c-.22.55-.49,1.2-1.2,1.12a1.65,1.65,0,0,1-.85-.43,3,3,0,0,1-.51-.55,1.69,1.69,0,0,0-.46-.5.05.05,0,0,0,0,0c-.05,0-.06.07-.06.12,0,.35.06.7.08,1,.08,1.06-.17,2.69-1.5,2.76a1.94,1.94,0,0,1-1.68-.72c-.31-.37-.55-.79-.89-1.14-.06-.06-.17-.11-.22,0a.28.28,0,0,0,0,.09,7.27,7.27,0,0,1,.14,2.41A1.73,1.73,0,0,1,69,97.09a2.15,2.15,0,0,1-1.89-.56l-.22-.19S66.79,96.36,66.79,96.37ZM81.19,89a18.38,18.38,0,0,0-2.33,1.65,1.88,1.88,0,0,1-.18-.12,2.21,2.21,0,0,1-.41-.63,11.41,11.41,0,0,0-.55-1.24c2-.35,2.56-.53,2.56-.53A2,2,0,0,0,81.19,89Z" transform="translate(-17.17 -34.11)" style="fill:#f28f8f"></path><path d="M78.18,89.89h0S78.14,89.82,78.18,89.89Z" transform="translate(-17.17 -34.11)" style="fill:#f28f8f"></path><path d="M74.29,74.07a1,1,0,0,0,.95-1L75,65.32a1,1,0,0,0-1.94.05l.2,7.76A1,1,0,0,0,74.29,74.07Z" transform="translate(-17.17 -34.11)" style="fill:#D1CBED"></path><path d="M83.13,76.29a1,1,0,0,0,.83-.5L87.69,69a1,1,0,0,0-.39-1.31A1,1,0,0,0,86,68l-3.72,6.82a1,1,0,0,0,.39,1.31A.84.84,0,0,0,83.13,76.29Z" transform="translate(-17.17 -34.11)" style="fill:#D1CBED"></path><path d="M89.81,82.25a.82.82,0,0,0,.39-.11l6.65-4.06A.77.77,0,1,0,96,76.76l-6.66,4.06a.77.77,0,0,0,.43,1.43Z" transform="translate(-17.17 -34.11)" style="fill:#D1CBED"></path><path d="M92.41,91l7.8-.2a.78.78,0,1,0,0-1.55l-7.8.21a.78.78,0,0,0-.76.79A.77.77,0,0,0,92.41,91Z" transform="translate(-17.17 -34.11)" style="fill:#D1CBED"></path><path d="M97.14,103.7a1,1,0,0,0,.44-1.82l-6.86-3.7a1,1,0,0,0-1.32.39,1,1,0,0,0,.39,1.31l6.86,3.7A.94.94,0,0,0,97.14,103.7Z" transform="translate(-17.17 -34.11)" style="fill:#D1CBED"></path><path d="M65.58,76.75a1,1,0,0,0,.48-.14,1,1,0,0,0,.32-1.33L62.3,68.67a1,1,0,0,0-1.66,1l4.08,6.61A1,1,0,0,0,65.58,76.75Z" transform="translate(-17.17 -34.11)" style="fill:#D1CBED"></path><path d="M59.22,83.06a.81.81,0,0,0,.67-.41.79.79,0,0,0-.31-1.05l-6.87-3.7a.78.78,0,0,0-1.05.31A.77.77,0,0,0,52,79.26L58.83,83A.81.81,0,0,0,59.22,83.06Z" transform="translate(-17.17 -34.11)" style="fill:#D1CBED"></path><path d="M49.29,92.1l7.8-.2a.79.79,0,0,0,.76-.8.78.78,0,0,0-.8-.75l-7.8.21a.77.77,0,1,0,0,1.54Z" transform="translate(-17.17 -34.11)" style="fill:#D1CBED"></path><path d="M53,104.86a1,1,0,0,0,.48-.14l6.66-4.06a1,1,0,0,0,.32-1.33A1,1,0,0,0,59.16,99l-6.66,4.06a1,1,0,0,0,.54,1.79Z" transform="translate(-17.17 -34.11)" style="fill:#D1CBED"></path></g></g><g id="freepik--character-2--inject-82"><g id="freepik--character--inject-82"><g id="freepik--bottom--inject-82"><path d="M203.07,424.48c1.35-14.25,0-25.22,1.68-47.48h0c.23-5.71.58-11.83,1.08-17.26,1.7-18.26,4.66-24.45,5-28,0,0,1.12-28.45,3.21-68.45,1-18.81,6.57-24.39,11.15-34.29L277,230.18c5.24,24.79,5.69,78.61,4.94,104-.37,13-7.15,82.16-7.29,83.75-.5,5.65-.06,7.89,2.11,10.32,4.53,5.09,11.15,10,16.87,14.45-.89,2.21-7.88,2-11.31.2a88.76,88.76,0,0,1-12.73-8.52c-4.7-3.65-10.75-6.62-10.71-12a5.85,5.85,0,0,0-.13-1c0-3.14-6.32-49.68-6.69-60.45-.32-9.26,1.16-24.94,1.16-24.94l-5.09-39.32s-4.2,23.08-8.28,38.81c-3.31,12.81-8.8,34.67-12.57,50.43h0c-3.68,18.18-8.79,31.07-9.82,40.19-.3,2.17-3.25,23.53-4.38,28.41s-11.82,4.78-12.32-3.68C200.44,445.25,202.81,427.17,203.07,424.48Z" transform="translate(-17.17 -34.11)" style="fill:#c8856a"></path><path d="M248.14,296.71l5-28.18s16.92-1.62,23.19-7.38c0,0-8,10.74-19.47,12.27l-5.34,23.32,1.68,38.95Z" transform="translate(-17.17 -34.11)" style="fill:#f28f8f"></path><path d="M303.42,448.63c.29,0,.7,3.28-.92,4.64-1.88,1.58-7.35,4.15-14.54,3.13s-11-3.28-13.91-5.73S267.21,444.78,264,444c-3-.71-6.29-2.11-7.24-3.06s-.78-5.1-.78-5.1Z" transform="translate(-17.17 -34.11)" style="fill:#263238"></path><path d="M258.64,419.9s-.54,0-.74,1c-.24,1.14-.51,4.47-1,6.34a33.72,33.72,0,0,0-.83,10.09c.37,2.14,5.29,3.67,8.42,4.91a39.83,39.83,0,0,1,10.13,6.56c3.35,2.83,10.43,5.71,15.12,5.83,7.16.19,11.82-1.7,13.28-4.25,1.81-3.17.44-5-7.74-8.94-1.55-.74-7-4-8.83-5.23a42.41,42.41,0,0,1-5.55-4.24,31,31,0,0,1-2.49-2.51,11.35,11.35,0,0,1-2-2.69c-.09-.21-.15-.47-.23-.7a11.7,11.7,0,0,1-.52-1.93c-.12-.69-.19-1.68-.84-2.1a5.43,5.43,0,0,0-2.94-.38,21.15,21.15,0,0,0-3.17.41c-1.22.26-2.62.35-3.35,1.48a6,6,0,0,0-.71,3c0,.48,0,1,0,1.44,0,.21.08.58-.2.49s-.57-.81-.67-1.05c-.23-.54-.37-1.12-.61-1.65a8.63,8.63,0,0,0-1-1.75,8.25,8.25,0,0,0-1.29-1.35,13.6,13.6,0,0,1-1.4-.93A3.32,3.32,0,0,1,258.64,419.9Z" transform="translate(-17.17 -34.11)" style="fill:#37474f"></path><path d="M296.59,442.06c-10.37.59-13.71,7-14.2,10.91a24.29,24.29,0,0,0,7.34,1.63c7.16.19,12.12-1.69,13.58-4.25C305,447.37,303.91,444.93,296.59,442.06Z" transform="translate(-17.17 -34.11)" style="fill:#fafafa"></path><path d="M281.05,442a.49.49,0,0,1-.32-.12.5.5,0,0,1-.06-.71,12.19,12.19,0,0,1,9.41-3.59.52.52,0,0,1,.45.57.52.52,0,0,1-.57.44,11.3,11.3,0,0,0-8.52,3.23A.5.5,0,0,1,281.05,442Z" transform="translate(-17.17 -34.11)" style="fill:#f0f0f0"></path><path d="M276.61,439.33a.47.47,0,0,1-.31-.12.5.5,0,0,1-.07-.71,12.19,12.19,0,0,1,9.42-3.59.51.51,0,0,1-.12,1,11.27,11.27,0,0,0-8.52,3.23A.52.52,0,0,1,276.61,439.33Z" transform="translate(-17.17 -34.11)" style="fill:#f0f0f0"></path><path d="M272.51,436.31a.51.51,0,0,1-.38-.83,12.23,12.23,0,0,1,9.42-3.59.51.51,0,0,1-.12,1,11.27,11.27,0,0,0-8.52,3.23A.52.52,0,0,1,272.51,436.31Z" transform="translate(-17.17 -34.11)" style="fill:#f0f0f0"></path><path d="M268.5,433.29a.54.54,0,0,1-.32-.11.5.5,0,0,1-.07-.71c2-2.49,6.52-4.09,10.28-3.63a.5.5,0,0,1-.12,1c-3.39-.4-7.59,1.06-9.38,3.26A.49.49,0,0,1,268.5,433.29Z" transform="translate(-17.17 -34.11)" style="fill:#f0f0f0"></path><path d="M216.36,458.45c-.39,4.88-1.22,8.11-3,10.93s-5.09,3.66-8.39,2.75-7.49-3.26-8.34-7.49-1.35-7.14-.49-11.66Z" transform="translate(-17.17 -34.11)" style="fill:#263238"></path><path d="M203.22,422.74c-1.37.08-1.91,6.63-2.85,13.19-1,7-3.17,9.89-4.05,15.65-1,6.58,0,9.55,2.24,13.59s10.32,8.14,14.48,2.51c3.39-4.58,3.64-9.74,3.49-16.34a147.22,147.22,0,0,1,.81-16.69c.38-4.93,1.59-9.89.41-10.46-.11.72-.22,1.64-.33,2.35a11.67,11.67,0,0,1-.5,2.62c-.14.37-.46.75-.57.15a4.22,4.22,0,0,1,0-1.23c.24-1.82-.67-2-1.16-2.14a59.83,59.83,0,0,0-6.32-1c-1-.09-4.64-.33-5.12.25a4.23,4.23,0,0,0-.5,1.9c-.14,1-.38,1.71-.41,1.4-.05-.71.13-2.56.16-3s.11-1,.13-1.44S203.18,423.16,203.22,422.74Z" transform="translate(-17.17 -34.11)" style="fill:#37474f"></path><path d="M195.85,455.39a16.54,16.54,0,0,0,2.33,10.09c2.23,4,11,8.16,15.14,2.54,2.07-2.8,2.69-6.15,3-9.57C214,454,199.75,451.73,195.85,455.39Z" transform="translate(-17.17 -34.11)" style="fill:#fafafa"></path><path d="M213.54,451.21l-.17,0c-.05,0-6.31-2.79-12.49-1.5a.52.52,0,0,1-.6-.39.5.5,0,0,1,.39-.6c6.54-1.36,12.92,1.46,13.16,1.58a.51.51,0,0,1-.29,1Z" transform="translate(-17.17 -34.11)" style="fill:#f0f0f0"></path><path d="M201.3,444.75a.51.51,0,0,1-.43-.35.52.52,0,0,1,.33-.64c6.17-1.93,12.9,1.33,13.15,1.47a.52.52,0,0,1,.2.69.53.53,0,0,1-.69.2c-.06,0-6.61-3.2-12.35-1.39A.5.5,0,0,1,201.3,444.75Z" transform="translate(-17.17 -34.11)" style="fill:#f0f0f0"></path><path d="M201.61,440.12a.51.51,0,0,1-.09-1c6.78-2.26,13.15,1.29,13.39,1.44a.5.5,0,0,1,.16.7.51.51,0,0,1-.7.15c-.06,0-6.22-3.43-12.53-1.33A.46.46,0,0,1,201.61,440.12Z" transform="translate(-17.17 -34.11)" style="fill:#f0f0f0"></path><path d="M202.05,435.56a.51.51,0,0,1-.1-1c6.36-2.22,13.22,1.42,13.48,1.58a.5.5,0,0,1,.17.69.51.51,0,0,1-.7.17c-.06,0-6.71-3.55-12.62-1.49A.46.46,0,0,1,202.05,435.56Z" transform="translate(-17.17 -34.11)" style="fill:#ebebeb"></path><path d="M218.49,229c-7.91,12.9-8.14,19.85-8.63,53.15-.54,35.95-.05,43-.27,47s-2.72,11.13-5.21,30.86-.59,43.34-.59,43.34,1.34,3.21,8.89,4.06c7,.78,10.47-1.76,10.47-1.76s10.42-38.29,13.34-50.14S248,304.67,248,304.67l3.85,31.86s-2.37,10.87-.63,28.25S256.27,400,256.27,400a31.64,31.64,0,0,0,10.67,2,18.15,18.15,0,0,0,9.46-2.25s7.08-51.46,7.52-71.11-.13-68.83-5.66-98.06Z" transform="translate(-17.17 -34.11)" style="fill:#37474f"></path><path d="M255,267,248,304.67l3.85,31.86-1.22-32.23,6.26-30.88c4.76-1,15.67-6.47,18.82-14.52C268.19,266.37,255,267,255,267Zm-33.13,101q-3.1,15.29-5.81,30.66,3.9-15.12,7.41-30.31c2.37-10.14,4.61-20.25,6.84-30.45s3.59-20.55,4.83-30.88,2.23-20.69,3.09-31.06c-1.66,10.27-3.18,20.56-4.71,30.84s-3.14,20.54-5.26,30.67S223.94,357.86,221.9,368.05Zm54.9-50.5c.11,4.51.27,9.05.1,13.51s-.57,9-.9,13.51l-1,13.54q-1,13.54-1.69,27.13,1.91-13.47,3.31-27c.95-9,1.84-18,2.35-27.12.18-9.17-.4-18.19-1-27.24s-1.53-18.07-2.72-27.06L276.36,304C276.51,308.51,276.7,313,276.8,317.55Z" transform="translate(-17.17 -34.11)" style="fill:#263238"></path></g><g id="freepik--top--inject-82"><g id="freepik--head--inject-82"><path d="M266.94,130.85a5.44,5.44,0,0,0,3,1.56c1.16.17,2.53,0,3.35.87a1.82,1.82,0,0,1,.43,1.75,1.84,1.84,0,0,1-1.31,1.25,3.7,3.7,0,0,0,3.09-5.78,21.09,21.09,0,0,1-1.51-1.91,2.77,2.77,0,0,1-.11-2.37c.49-1.16,1.35-1.67,1.9-2.8a5.82,5.82,0,0,0,.67-2.81,6.51,6.51,0,0,0-1.14-3.31c-1.52-2-5-3.07-7.41-3.44.54-1.59.55-4.46-2.79-7a8.73,8.73,0,0,0-9.37-.42,5.43,5.43,0,0,0-3.29-4.81,11.11,11.11,0,0,0-6.05-.65c-3.3.4-6.9,1.85-8.06,5a10,10,0,0,0-10.45,2.68,9.32,9.32,0,0,0-1,10.67c-6.85,3.61-6.75,11.45-4.94,17.46,1.55,5.19,4.29,8.08,8.33,13,.77.94,4.63,5.26,4.68,6.47Z" transform="translate(-17.17 -34.11)" style="fill:#263238"></path><path d="M256.79,115.73c-13.7-3.66-28.14,7.49-29.16,23.35-1.25-9.61.58-15.17,5.77-20C241.73,111.26,252.28,112.34,256.79,115.73Z" transform="translate(-17.17 -34.11)" style="fill:#D1CBED"></path><path d="M263.07,121.73s4.82,4.33,4.89,20.29c.05,11.46-2.15,15.72-5.67,17.51-2.1,1.08-4.77,1.46-8.36,1.48v5s11.68,11.83,2.42,13.31c-4.92.79-9.82-1.54-14.15-4.1a23.67,23.67,0,0,1-7.24-7.39v-14s-3.2,2.61-7-.5c-3.43-2.81-4.23-7.73-2-10.69s6-2.39,8.35,1.08c0,0,3.73,1.19,3.1-3.69,0,0,2.83-1.21,4.13-6.18.66-2.55-1.89-7.58.09-9.5,3-2.16,8.54,1.3,13.82,1.3C258.16,125.68,261.12,122.17,263.07,121.73Z" transform="translate(-17.17 -34.11)" style="fill:#c8856a"></path><path d="M251.11,148.28l5.68,1.77a2.92,2.92,0,0,1-3.67,2.06A3.12,3.12,0,0,1,251.11,148.28Z" transform="translate(-17.17 -34.11)" style="fill:#af6152"></path><path d="M251.74,149.75a2.52,2.52,0,0,1,2.75,2.28.75.75,0,0,1,0,.15,2.91,2.91,0,0,1-1.37-.07,3,3,0,0,1-2-2.2A3.16,3.16,0,0,1,251.74,149.75Z" transform="translate(-17.17 -34.11)" style="fill:#f28f8f"></path><path d="M265,134.19l-3.65-1.88a2,2,0,0,1,2.7-.93A2.14,2.14,0,0,1,265,134.19Z" transform="translate(-17.17 -34.11)" style="fill:#263238"></path><path d="M248.55,132.25l-3.45,2.22a2,2,0,0,1,.54-2.8A2.15,2.15,0,0,1,248.55,132.25Z" transform="translate(-17.17 -34.11)" style="fill:#263238"></path><polygon points="236.76 101.23 238.52 112.02 244.04 109.06 236.76 101.23" style="fill:#af6152"></polygon><path d="M253.93,161c-9.38-.67-13.94-2.87-15.77-6.12,0,0,.94,4.27,4,5.84a29,29,0,0,0,11.76,2.67Z" transform="translate(-17.17 -34.11)" style="fill:#af6152"></path><path d="M260.46,136.86a1.89,1.89,0,0,0,1.72,2,1.77,1.77,0,0,0,1.95-1.65,1.9,1.9,0,0,0-1.73-2A1.77,1.77,0,0,0,260.46,136.86Z" transform="translate(-17.17 -34.11)" style="fill:#263238"></path><path d="M246.65,137.1a1.88,1.88,0,0,0,1.72,2,1.77,1.77,0,0,0,1.95-1.65,1.9,1.9,0,0,0-1.73-2A1.78,1.78,0,0,0,246.65,137.1Z" transform="translate(-17.17 -34.11)" style="fill:#263238"></path><path d="M234.45,157a5.47,5.47,0,1,1-7.79-4.94,8.5,8.5,0,0,0,.7.78,4.47,4.47,0,1,0,6.09,4.16,4.52,4.52,0,0,0-.58-2.2,4.46,4.46,0,0,0-1.76-1.74.49.49,0,0,1-.21-.67.5.5,0,0,1,.68-.21,5.46,5.46,0,0,1,2.87,4.82Z" transform="translate(-17.17 -34.11)" style="fill:#D1CBED"></path></g><g id="freepik--arm--inject-82"><path d="M264,167.56c9.65,1.05,14,2.07,17.91,7.92s16.46,25.72,20.25,34.87l-20.44-1.67-16.09-23.53Z" transform="translate(-17.17 -34.11)" style="fill:#c8856a"></path><path d="M269.82,171.71c1.75-3,1.52-4.15,1.52-4.15s6.25.33,9.15,4.15,8,11.14,8,11.14a27.84,27.84,0,0,1-17.55,12Z" transform="translate(-17.17 -34.11)" style="fill:#D1CBED"></path></g><g id="freepik--chest--inject-82"><path d="M235,163.21c0,2.38.22,5.33-7.72,8.5-5.91,2.36-7.65,3-7.65,3-1.62,4.35-5.14,10.49-3.36,20.46s5,17.75,4.06,22.35-6.75,20.59-6.75,20.59,11.94,10,37.9,8.84S279,237.68,279,237.68s-1.46-15.74-2.2-20.45l.74-12.93s8.58-7.09,3.6-16.89C275.38,176,264,167.56,264,167.56c-4.63-1-10.06-.1-10.06-4.16Z" transform="translate(-17.17 -34.11)" style="fill:#c8856a"></path><path d="M269.82,171.71c-4.53,7.75-20.18,18.9-54.74,19.69-.54,5.36,3.36,21.76,3.9,26s-.86,5.63-2.48,10.1A177.92,177.92,0,0,0,211,246.23c14.11,8.73,48.86,15.2,69.47-.74-1.89-15.36-2.18-22.7-2.56-25.81s.11-14.89.11-14.89a14.89,14.89,0,0,0,5-14.41C281.18,181.25,269.82,171.71,269.82,171.71Z" transform="translate(-17.17 -34.11)" style="fill:#D1CBED"></path><path d="M269.82,171.71c-4.53,7.75-20.18,18.9-54.74,19.69-.54,5.36,3.36,21.76,3.9,26s-.86,5.63-2.48,10.1A177.92,177.92,0,0,0,211,246.23c14.11,8.73,48.86,15.2,69.47-.74-1.89-15.36-2.18-22.7-2.56-25.81s.11-14.89.11-14.89a14.89,14.89,0,0,0,5-14.41C281.18,181.25,269.82,171.71,269.82,171.71Z" transform="translate(-17.17 -34.11)" style="opacity:0.2"></path></g><g id="freepik--arm--inject-82"><path d="M274.47,233.77c-2.24-.3-8.46-1.58-15-2.37-3-.37-10.23-.73-15.57-1.18l-28.75-2.87,4.6-23.2s4.42-21.53-.2-29.42c-7.25,2.78-15.43,6.61-17.79,15.65-2.56,9.79-4.42,31.54-5.34,39.22-.86,7.1-.2,11.85,4.63,12.89,5.39,1.16,23.39-.93,36.39-1.94.57,0,1,0,1.34,0,2.07.16,5.51,2,8.82,1.9a41.74,41.74,0,0,0,10.06-1.86c2.26,0,3.82.27,6.74.22,3.15,0,4.19-.49,4.69-1.68,1.8-.13,3.92-.52,4-2.24C275.55,236.24,275.72,233.94,274.47,233.77Z" transform="translate(-17.17 -34.11)" style="fill:#c8856a"></path><path d="M269.14,239.13a.52.52,0,0,0-.09-.57,1.29,1.29,0,0,0-.55-.27,6.7,6.7,0,0,0-1.27-.18c-.87-.05-1.75-.14-2.63-.23a48.63,48.63,0,0,1-5.21-.82,51.58,51.58,0,0,1,5.27.32c.87.11,1.74.21,2.61.35a6.62,6.62,0,0,1,1.31.33,1.37,1.37,0,0,1,.57.41A.55.55,0,0,1,269.14,239.13Z" transform="translate(-17.17 -34.11)" style="fill:#af6152"></path><path d="M273.17,236.89a1,1,0,0,0-.84-1.11,9.24,9.24,0,0,0-1.58-.21c-1.08-.06-2.17-.16-3.24-.26-2.16-.22-4.32-.47-6.46-.88,2.18,0,4.34.18,6.5.39,1.08.11,2.16.22,3.24.37a8.57,8.57,0,0,1,1.62.36,1.34,1.34,0,0,1,.68.52A1.07,1.07,0,0,1,273.17,236.89Z" transform="translate(-17.17 -34.11)" style="fill:#af6152"></path><path d="M215.2,227.35a18.26,18.26,0,0,0-13.06,3.82c3.43-4.19,7.46-6.4,13.48-5.92Z" transform="translate(-17.17 -34.11)" style="fill:#af6152"></path><path d="M221.93,191.09a61.66,61.66,0,0,1-20.46-2.21l-4,14.82s1.39,2.09,10.91,3.69c9.92,1.67,13.56-.1,13.56-.1Z" transform="translate(-17.17 -34.11)" style="fill:#D1CBED"></path></g><g id="freepik--arm--inject-82"><path d="M302.15,210.35l-20.44-1.67-27.91,2.46c-5.34.37-12.52.62-15.58,1-6.5.7-12.74,1.89-15,2.15-1.26.15-1.12,2.45,1.25,3.14.09,1.72,2.2,2.15,4,2.3.48,1.2,1.51,1.66,4.66,1.75,2.92.09,4.48-.11,6.74-.13a41.22,41.22,0,0,0,10,2c3.3.12,6.77-1.64,8.84-1.77a12.69,12.69,0,0,1,1.34,0c13,1.2,31.23,2.64,36.69,1.9C303.93,222.49,304.89,217.75,302.15,210.35Z" transform="translate(-17.17 -34.11)" style="fill:#c8856a"></path><path d="M228.49,219.68a.55.55,0,0,1,0-.66,1.27,1.27,0,0,1,.57-.4,6.74,6.74,0,0,1,1.31-.31c.88-.13,1.75-.22,2.63-.31a48.68,48.68,0,0,1,5.27-.25,51.44,51.44,0,0,1-5.23.75c-.87.07-1.75.15-2.63.19a6.69,6.69,0,0,0-1.27.16,1.13,1.13,0,0,0-.55.26A.51.51,0,0,0,228.49,219.68Z" transform="translate(-17.17 -34.11)" style="fill:#af6152"></path><path d="M224.49,217.38a1.07,1.07,0,0,1,.09-.82,1.34,1.34,0,0,1,.69-.51,9.42,9.42,0,0,1,1.63-.33c1.08-.14,2.15-.23,3.23-.33,2.17-.17,4.33-.31,6.51-.29-2.15.37-4.3.6-6.46.79-1.08.08-2.17.16-3.25.21a9,9,0,0,0-1.58.18,1.17,1.17,0,0,0-.66.36A1.09,1.09,0,0,0,224.49,217.38Z" transform="translate(-17.17 -34.11)" style="fill:#af6152"></path><path d="M281.71,208.68c4.38-.57,10.44.26,12.84,2.35-2.62-3.74-8.42-4.36-14.06-4.13Z" transform="translate(-17.17 -34.11)" style="fill:#af6152"></path></g></g></g></g></svg>