<?xml version="1.0" encoding="UTF-8"?><svg xmlns="http://www.w3.org/2000/svg" xmlns:xlink="http://www.w3.org/1999/xlink" contentScriptType="text/ecmascript" width="810pt" zoomAndPan="magnify" contentStyleType="text/css" viewBox="0 0 810 809.999993" height="809.999993pt" preserveAspectRatio="xMidYMid meet" version="1.2"><defs><clipPath xml:id="clip1" id="clip1"><path d="M 0 59 L 792.808594 59 L 792.808594 773.570312 L 0 773.570312 Z M 0 59 "/></clipPath><clipPath xml:id="clip2" id="clip2"><path d="M 59 330.097656 L 809.9375 330.097656 L 809.9375 741 L 59 741 Z M 59 330.097656 "/></clipPath></defs><g xml:id="surface1" id="surface1"><path style=" stroke:none;fill-rule:nonzero;fill:rgb(81.959534%,79.60968%,92.939758%);fill-opacity:1;" d="M 645.480469 683.066406 L 658.324219 740.523438 L 604.152344 740.523438 L 599.25 718.582031 C 540.6875 754.058594 460.472656 772.121094 350.746094 761.269531 C 171.4375 743.53125 47.429688 628.425781 47.429688 448.269531 C 47.429688 268.109375 208.25 36.382812 388.429688 36.382812 C 568.617188 36.382812 754.738281 150.050781 754.738281 330.207031 C 754.738281 440.667969 740.824219 591.367188 645.480469 683.066406 "/><g clip-rule="nonzero" clip-path="url(#clip1)"><path style=" stroke:none;fill-rule:nonzero;fill:rgb(33.729553%,34.899902%,61.959839%);fill-opacity:1;" d="M 133.800781 403.199219 C 133.832031 404.035156 133.890625 404.875 134 405.703125 C 134.398438 409.292969 135.519531 412.789062 137.136719 416.027344 C 138.265625 418.269531 139.675781 420.371094 141.296875 422.304688 C 141.949219 420.179688 142.609375 418.082031 143.234375 416.035156 C 139.035156 412.675781 135.789062 408.1875 133.800781 403.199219 Z M 234.09375 436.054688 C 233.886719 437.28125 233.617188 438.503906 233.3125 439.71875 C 234.417969 437.917969 235.332031 435.996094 236.003906 433.988281 C 238.398438 426.730469 238.226562 418.898438 238.039062 411.160156 C 237.921875 403.382812 237.964844 395.585938 238.351562 387.808594 C 238.605469 382.351562 239.015625 376.902344 239.558594 371.464844 C 239.0625 371.378906 238.566406 371.289062 238.070312 371.179688 C 233.453125 381.085938 233.277344 392.441406 233.917969 403.347656 C 234.554688 414.261719 235.917969 425.277344 234.09375 436.054688 Z M 240.507812 371.628906 C 240.273438 375.546875 240.085938 379.464844 239.929688 383.382812 C 240.261719 379.449219 240.71875 375.546875 241.3125 371.714844 C 241.042969 371.679688 240.777344 371.667969 240.507812 371.628906 Z M 304.558594 298.355469 C 302.589844 301.394531 300.765625 304.570312 299.335938 307.875 C 313.96875 307.523438 331.882812 311.636719 353.699219 321.6875 C 353.386719 317.875 353.378906 314.019531 353.386719 310.195312 C 353.394531 307.488281 353.300781 304.601562 352.804688 301.890625 C 352.054688 301.464844 351.292969 301.074219 350.503906 300.769531 C 349.371094 300.339844 348.210938 299.992188 347.015625 299.804688 C 345.832031 299.589844 344.617188 299.523438 343.40625 299.550781 C 342.1875 299.589844 340.964844 299.777344 339.742188 300.050781 C 339.566406 300.097656 339.394531 299.984375 339.347656 299.816406 C 339.324219 299.671875 339.386719 299.535156 339.5 299.464844 C 340.640625 298.78125 341.9375 298.363281 343.261719 298.148438 C 344.589844 297.917969 345.960938 297.953125 347.289062 298.152344 C 348.621094 298.382812 349.929688 298.785156 351.117188 299.425781 C 351.585938 299.671875 352.023438 299.964844 352.453125 300.273438 C 352.089844 298.878906 351.59375 297.5625 350.914062 296.363281 C 350.667969 296.304688 350.414062 296.242188 350.164062 296.199219 C 349.375 296.0625 348.59375 295.9375 347.804688 295.890625 C 347.015625 295.828125 346.226562 295.839844 345.425781 295.867188 C 344.625 295.898438 343.820312 296.003906 342.980469 296.105469 C 342.804688 296.125 342.636719 296.003906 342.617188 295.828125 C 342.597656 295.695312 342.660156 295.578125 342.753906 295.507812 C 343.496094 295.003906 344.34375 294.679688 345.222656 294.472656 C 346.097656 294.25 347.011719 294.191406 347.910156 294.230469 C 348.488281 294.269531 349.0625 294.375 349.625 294.511719 C 349.238281 294.058594 348.808594 293.636719 348.339844 293.246094 C 347.171875 293.101562 346.011719 293.070312 344.878906 293.21875 C 343.679688 293.382812 342.503906 293.667969 341.398438 294.132812 C 340.273438 294.574219 339.230469 295.1875 338.253906 295.90625 C 337.28125 296.636719 336.421875 297.515625 335.652344 298.511719 C 335.542969 298.65625 335.339844 298.683594 335.195312 298.578125 C 335.085938 298.492188 335.046875 298.335938 335.09375 298.207031 C 336.023438 295.65625 338.242188 293.644531 340.757812 292.59375 C 342.035156 292.070312 343.398438 291.753906 344.773438 291.746094 C 345.125 291.738281 345.472656 291.753906 345.816406 291.777344 C 340.503906 289.863281 332.914062 293.070312 331.402344 298.507812 C 330.957031 293.683594 327.125 289.523438 322.527344 288.191406 C 322.90625 288.492188 323.292969 288.785156 323.644531 289.125 C 324.667969 290.140625 325.554688 291.296875 326.207031 292.574219 C 326.863281 293.851562 327.328125 295.226562 327.46875 296.636719 C 327.484375 296.8125 327.359375 296.96875 327.175781 296.988281 C 327.035156 297 326.902344 296.914062 326.851562 296.792969 C 326.328125 295.546875 325.722656 294.375 324.992188 293.292969 C 324.25 292.222656 323.429688 291.210938 322.484375 290.320312 C 321.558594 289.417969 320.519531 288.636719 319.417969 287.9375 C 319.3125 287.875 319.203125 287.820312 319.097656 287.761719 C 318.9375 287.769531 318.773438 287.761719 318.609375 287.777344 C 317.183594 287.894531 315.832031 288.265625 314.554688 288.824219 C 315.460938 288.902344 316.359375 289.078125 317.226562 289.347656 C 320.003906 290.234375 322.546875 292.148438 323.824219 294.746094 C 323.902344 294.902344 323.839844 295.097656 323.683594 295.175781 C 323.550781 295.238281 323.394531 295.199219 323.296875 295.101562 C 322.378906 294.105469 321.375 293.246094 320.265625 292.554688 C 319.152344 291.871094 317.972656 291.308594 316.726562 290.9375 C 315.492188 290.546875 314.203125 290.339844 312.90625 290.273438 C 312.578125 290.257812 312.257812 290.292969 311.933594 290.304688 C 311.097656 290.878906 310.296875 291.523438 309.539062 292.234375 C 309.996094 292.195312 310.453125 292.183594 310.902344 292.1875 C 311.777344 292.226562 312.652344 292.328125 313.484375 292.5625 C 314.328125 292.777344 315.148438 293.074219 315.902344 293.527344 C 316.054688 293.617188 316.105469 293.820312 316.015625 293.976562 C 315.949219 294.085938 315.832031 294.136719 315.707031 294.132812 L 313.265625 293.949219 C 312.457031 293.910156 311.667969 293.859375 310.871094 293.859375 C 310.074219 293.839844 309.28125 293.863281 308.476562 293.878906 L 307.917969 293.902344 C 306.671875 295.300781 305.550781 296.816406 304.558594 298.355469 Z M 131.6875 394.425781 C 130.96875 386.0625 133.820312 377.449219 139.386719 371.164062 C 145.222656 364.582031 153.945312 360.296875 157.5 352.246094 C 161.484375 343.210938 157.550781 332.898438 156.382812 323.09375 C 156.085938 320.59375 156 318.070312 156.097656 315.558594 C 155.769531 317.195312 155.550781 318.851562 155.457031 320.527344 C 154.988281 326.738281 155.757812 333.121094 154.804688 339.542969 C 154.316406 342.730469 153.386719 345.878906 151.820312 348.734375 C 150.242188 351.5625 147.949219 354.074219 145.046875 355.554688 C 144.890625 355.636719 144.695312 355.574219 144.617188 355.414062 C 144.539062 355.265625 144.597656 355.078125 144.738281 354.992188 C 147.433594 353.433594 149.464844 350.964844 150.824219 348.207031 C 152.21875 345.457031 153.03125 342.417969 153.410156 339.347656 C 154.167969 333.171875 153.410156 326.835938 153.796875 320.417969 C 154.082031 315.859375 155.230469 311.335938 157.167969 307.1875 C 160.160156 292.957031 169.125 279.914062 181.792969 272.683594 C 195.378906 264.925781 212.761719 262.40625 223.074219 250.636719 C 237.523438 234.160156 260.140625 225.214844 281.957031 227.347656 C 294.878906 228.609375 307.304688 233.765625 317.585938 241.679688 C 337.734375 229.367188 364.953125 244.328125 377.328125 258.921875 C 390.660156 274.640625 393.25 298.617188 383.574219 316.8125 C 380.761719 322.109375 376.949219 327.125 376.101562 333.0625 C 375.246094 339 379.445312 345.136719 385.445312 345.019531 C 380.671875 349.867188 372.449219 350.136719 366.550781 346.753906 C 364.09375 345.34375 362.023438 343.402344 360.296875 341.164062 C 359.757812 365.761719 360.792969 412.4375 374.914062 435.296875 C 394.617188 467.195312 373.019531 513.628906 373.019531 513.628906 C 373.019531 513.628906 268.355469 511.921875 251.222656 473.988281 C 246.460938 463.445312 241.410156 441.550781 239.765625 417.019531 C 239.753906 422.878906 239.375 428.804688 237.398438 434.46875 C 236.230469 437.722656 234.476562 440.761719 232.214844 443.375 C 229.4375 451.453125 224.339844 458.734375 216.777344 462.441406 C 208.863281 466.320312 199.511719 465.773438 190.855469 464.132812 C 182.203125 462.488281 173.609375 460.566406 164.832031 459.738281 C 155.457031 458.851562 148.246094 458.785156 138.570312 463.558594 C 136.167969 458.902344 135.652344 453.269531 136.386719 444.015625 C 136.929688 437.242188 138.898438 430.15625 140.972656 423.363281 C 138.976562 421.40625 137.269531 419.144531 135.898438 416.6875 C 134.039062 413.375 132.855469 409.6875 132.34375 405.90625 C 132.070312 403.5 132.109375 401.066406 132.398438 398.675781 C 132.070312 397.273438 131.8125 395.859375 131.6875 394.425781 Z M 684.382812 166.023438 L 684.382812 171.03125 L 705.234375 171.03125 L 705.234375 166.023438 Z M 684.382812 208.746094 L 712.199219 208.746094 L 712.199219 203.742188 L 684.382812 203.742188 Z M 705.679688 202.777344 L 725.746094 202.777344 L 725.746094 197.769531 L 705.679688 197.769531 Z M 684.382812 202.777344 L 705.234375 202.777344 L 705.234375 197.769531 L 684.382812 197.769531 Z M 684.382812 196.8125 L 721.945312 196.8125 L 721.945312 191.804688 L 684.382812 191.804688 Z M 684.382812 188.9375 L 712.199219 188.9375 L 712.199219 183.929688 L 684.382812 183.929688 Z M 730.304688 177.964844 L 705.679688 177.964844 L 705.679688 182.972656 L 730.304688 182.972656 Z M 684.382812 182.972656 L 705.234375 182.972656 L 705.234375 177.964844 L 684.382812 177.964844 Z M 684.382812 177 L 721.945312 177 L 721.945312 171.996094 L 684.382812 171.996094 Z M 630.851562 162.332031 L 672.210938 162.332031 L 672.210938 157.328125 L 630.851562 157.328125 Z M 668.410156 113.265625 L 630.851562 113.265625 L 630.851562 118.273438 L 668.410156 118.273438 Z M 630.851562 156.570312 L 658.664062 156.570312 L 658.664062 151.5625 L 630.851562 151.5625 Z M 672.210938 145.59375 L 652.136719 145.59375 L 652.136719 150.597656 L 672.210938 150.597656 Z M 630.851562 150.597656 L 651.695312 150.597656 L 651.695312 145.59375 L 630.851562 145.59375 Z M 630.851562 144.628906 L 668.410156 144.628906 L 668.410156 139.621094 L 630.851562 139.621094 Z M 630.851562 136.761719 L 658.664062 136.761719 L 658.664062 131.753906 L 630.851562 131.753906 Z M 676.769531 125.78125 L 652.136719 125.78125 L 652.136719 130.789062 L 676.769531 130.789062 Z M 630.851562 130.789062 L 651.695312 130.789062 L 651.695312 125.78125 L 630.851562 125.78125 Z M 630.851562 124.824219 L 668.410156 124.824219 L 668.410156 119.816406 L 630.851562 119.816406 Z M 723.078125 106.09375 L 685.519531 106.09375 L 685.519531 111.101562 L 723.078125 111.101562 Z M 713.332031 100.175781 L 685.519531 100.175781 L 685.519531 105.183594 L 713.332031 105.183594 Z M 706.804688 99.210938 L 726.878906 99.210938 L 726.878906 94.203125 L 706.804688 94.203125 Z M 706.367188 94.203125 L 685.519531 94.203125 L 685.519531 99.210938 L 706.367188 99.210938 Z M 723.078125 88.238281 L 685.519531 88.238281 L 685.519531 93.246094 L 723.078125 93.246094 Z M 713.332031 80.363281 L 685.519531 80.363281 L 685.519531 85.371094 L 713.332031 85.371094 Z M 706.804688 79.398438 L 731.4375 79.398438 L 731.4375 74.394531 L 706.804688 74.394531 Z M 706.367188 74.394531 L 685.519531 74.394531 L 685.519531 79.398438 L 706.367188 79.398438 Z M 723.078125 68.429688 L 685.519531 68.429688 L 685.519531 73.433594 L 723.078125 73.433594 Z M 728.398438 118.273438 L 688.558594 118.273438 L 688.558594 158.109375 L 728.398438 158.109375 Z M 733.40625 163.117188 L 683.550781 163.117188 L 683.550781 113.265625 L 733.40625 113.265625 Z M 674.859375 171.03125 L 635.023438 171.03125 L 635.023438 202.953125 L 674.859375 202.953125 Z M 679.867188 207.957031 L 630.015625 207.957031 L 630.015625 166.023438 L 679.867188 166.023438 Z M 674.859375 73.433594 L 635.023438 73.433594 L 635.023438 106.09375 L 674.859375 106.09375 Z M 679.867188 111.101562 L 630.015625 111.101562 L 630.015625 68.429688 L 679.867188 68.429688 Z M 717.511719 355.578125 L 689.699219 355.578125 L 689.699219 360.585938 L 717.511719 360.585938 Z M 735.617188 349.609375 L 710.984375 349.609375 L 710.984375 354.613281 L 735.617188 354.613281 Z M 689.699219 354.613281 L 710.542969 354.613281 L 710.542969 349.609375 L 689.699219 349.609375 Z M 727.257812 343.644531 L 689.699219 343.644531 L 689.699219 348.648438 L 727.257812 348.648438 Z M 689.699219 325.1875 L 717.511719 325.1875 L 717.511719 320.179688 L 689.699219 320.179688 Z M 735.617188 314.210938 L 710.984375 314.210938 L 710.984375 319.214844 L 735.617188 319.214844 Z M 689.699219 319.214844 L 710.542969 319.214844 L 710.542969 314.210938 L 689.699219 314.210938 Z M 727.257812 308.238281 L 689.699219 308.238281 L 689.699219 313.246094 L 727.257812 313.246094 Z M 689.699219 289.785156 L 717.511719 289.785156 L 717.511719 284.777344 L 689.699219 284.777344 Z M 735.617188 278.8125 L 710.984375 278.8125 L 710.984375 283.820312 L 735.617188 283.820312 Z M 689.699219 283.820312 L 710.542969 283.820312 L 710.542969 278.8125 L 689.699219 278.8125 Z M 727.257812 272.839844 L 689.699219 272.839844 L 689.699219 277.847656 L 727.257812 277.847656 Z M 658.253906 361.550781 L 677.121094 361.550781 L 677.121094 342.679688 L 658.253906 342.679688 Z M 653.246094 337.671875 L 682.128906 337.671875 L 682.128906 366.558594 L 653.246094 366.558594 Z M 677.121094 307.28125 L 658.253906 307.28125 L 658.253906 326.144531 L 677.121094 326.144531 Z M 682.128906 331.152344 L 653.246094 331.152344 L 653.246094 302.273438 L 682.128906 302.273438 Z M 677.121094 271.882812 L 658.253906 271.882812 L 658.253906 290.75 L 677.121094 290.75 Z M 682.128906 295.753906 L 653.246094 295.753906 L 653.246094 266.875 L 682.128906 266.875 Z M 626.722656 355.578125 L 598.914062 355.578125 L 598.914062 360.585938 L 626.722656 360.585938 Z M 620.203125 354.613281 L 644.835938 354.613281 L 644.835938 349.609375 L 620.203125 349.609375 Z M 619.761719 349.609375 L 598.914062 349.609375 L 598.914062 354.613281 L 619.761719 354.613281 Z M 636.476562 343.644531 L 598.914062 343.644531 L 598.914062 348.648438 L 636.476562 348.648438 Z M 626.722656 284.777344 L 598.914062 284.777344 L 598.914062 289.785156 L 626.722656 289.785156 Z M 620.203125 283.820312 L 644.835938 283.820312 L 644.835938 278.8125 L 620.203125 278.8125 Z M 619.761719 278.8125 L 598.914062 278.8125 L 598.914062 283.820312 L 619.761719 283.820312 Z M 636.476562 272.839844 L 598.914062 272.839844 L 598.914062 277.847656 L 636.476562 277.847656 Z M 567.472656 361.550781 L 586.339844 361.550781 L 586.339844 342.679688 L 567.472656 342.679688 Z M 562.464844 337.671875 L 591.347656 337.671875 L 591.347656 366.558594 L 562.464844 366.558594 Z M 586.339844 271.882812 L 567.472656 271.882812 L 567.472656 290.75 L 586.339844 290.75 Z M 591.347656 295.753906 L 562.464844 295.753906 L 562.464844 266.875 L 591.347656 266.875 Z M 582.394531 59.425781 L 458.660156 59.425781 L 458.660156 216.960938 L 582.394531 216.960938 Z M 792.808594 750.023438 C 792.808594 763.027344 615.332031 773.570312 396.402344 773.570312 C 177.476562 773.570312 0 763.027344 0 750.023438 C 0 738.628906 136.179688 729.125 317.105469 726.941406 L 276.046875 624.933594 C 275.1875 622.761719 276.25 620.304688 278.421875 619.445312 C 280.59375 618.582031 283.050781 619.644531 283.910156 621.816406 L 326.179688 726.835938 C 348.972656 726.59375 372.4375 726.46875 396.402344 726.46875 C 471.585938 726.46875 541.875 727.714844 601.773438 729.875 L 604.152344 740.523438 L 658.324219 740.523438 L 656.472656 732.246094 C 740 736.5625 792.808594 742.925781 792.808594 750.023438 "/></g><path style=" stroke:none;fill-rule:nonzero;fill:rgb(81.959534%,79.60968%,92.939758%);fill-opacity:1;" d="M 475.136719 201.382812 L 539.109375 201.382812 L 539.109375 199.710938 L 475.136719 199.710938 Z M 565.917969 189.535156 L 475.136719 189.535156 L 475.136719 191.207031 L 565.917969 191.207031 Z M 565.917969 179.355469 L 475.136719 179.355469 L 475.136719 181.023438 L 565.917969 181.023438 Z M 565.917969 169.179688 L 475.136719 169.179688 L 475.136719 170.847656 L 565.917969 170.847656 Z M 565.917969 158.996094 L 475.136719 158.996094 L 475.136719 160.664062 L 565.917969 160.664062 Z M 565.917969 148.8125 L 475.136719 148.8125 L 475.136719 150.480469 L 565.917969 150.480469 Z M 565.085938 79.835938 L 475.972656 79.835938 L 475.972656 137.359375 L 565.085938 137.359375 Z M 566.753906 139.027344 L 474.304688 139.027344 L 474.304688 78.167969 L 566.753906 78.167969 Z M 588.007812 270.214844 L 565.800781 270.214844 L 565.800781 292.417969 L 588.007812 292.417969 Z M 495.011719 311.335938 L 493.828125 310.15625 L 482.480469 321.503906 L 478.417969 317.4375 L 477.238281 318.617188 L 482.480469 323.863281 Z M 497.226562 327.816406 L 475.019531 327.816406 L 475.019531 305.613281 L 497.226562 305.613281 Z M 733.949219 280.480469 L 712.652344 280.480469 L 712.652344 282.148438 L 733.949219 282.148438 Z M 733.949219 315.878906 L 712.652344 315.878906 L 712.652344 317.546875 L 733.949219 317.546875 Z M 733.949219 351.277344 L 712.652344 351.277344 L 712.652344 352.945312 L 733.949219 352.945312 Z M 715.84375 357.246094 L 691.367188 357.246094 L 691.367188 358.917969 L 715.84375 358.917969 Z M 680.460938 268.546875 L 654.914062 268.546875 L 654.914062 294.085938 L 680.460938 294.085938 Z M 680.460938 303.941406 L 654.914062 303.941406 L 654.914062 329.484375 L 680.460938 329.484375 Z M 680.460938 339.339844 L 654.914062 339.339844 L 654.914062 364.886719 L 680.460938 364.886719 Z M 643.164062 280.480469 L 621.871094 280.480469 L 621.871094 282.148438 L 643.164062 282.148438 Z M 643.164062 315.878906 L 621.871094 315.878906 L 621.871094 317.546875 L 643.164062 317.546875 Z M 643.164062 351.277344 L 621.871094 351.277344 L 621.871094 352.945312 L 643.164062 352.945312 Z M 625.054688 357.246094 L 600.585938 357.246094 L 600.585938 358.917969 L 625.054688 358.917969 Z M 589.675781 268.546875 L 564.132812 268.546875 L 564.132812 294.085938 L 589.675781 294.085938 Z M 589.675781 303.941406 L 564.132812 303.941406 L 564.132812 329.484375 L 589.675781 329.484375 Z M 589.675781 339.339844 L 564.132812 339.339844 L 564.132812 364.886719 L 589.675781 364.886719 Z M 552.378906 280.480469 L 531.089844 280.480469 L 531.089844 282.148438 L 552.378906 282.148438 Z M 552.378906 315.878906 L 531.089844 315.878906 L 531.089844 317.546875 L 552.378906 317.546875 Z M 552.378906 351.277344 L 531.089844 351.277344 L 531.089844 352.945312 L 552.378906 352.945312 Z M 534.273438 357.246094 L 509.796875 357.246094 L 509.796875 358.917969 L 534.273438 358.917969 Z M 498.894531 268.546875 L 473.351562 268.546875 L 473.351562 294.085938 L 498.894531 294.085938 Z M 498.894531 303.941406 L 473.351562 303.941406 L 473.351562 329.484375 L 498.894531 329.484375 Z M 498.894531 339.339844 L 473.351562 339.339844 L 473.351562 364.886719 L 498.894531 364.886719 Z M 509.796875 352.945312 L 527.308594 352.945312 L 527.308594 351.277344 L 509.796875 351.277344 Z M 509.796875 346.980469 L 544.027344 346.980469 L 544.027344 345.3125 L 509.796875 345.3125 Z M 509.796875 323.519531 L 534.273438 323.519531 L 534.273438 321.851562 L 509.796875 321.851562 Z M 509.796875 317.546875 L 527.308594 317.546875 L 527.308594 315.878906 L 509.796875 315.878906 Z M 509.796875 311.578125 L 544.027344 311.578125 L 544.027344 309.90625 L 509.796875 309.90625 Z M 509.796875 288.113281 L 534.273438 288.113281 L 534.273438 286.445312 L 509.796875 286.445312 Z M 509.796875 282.148438 L 527.308594 282.148438 L 527.308594 280.480469 L 509.796875 280.480469 Z M 509.796875 276.179688 L 544.027344 276.179688 L 544.027344 274.511719 L 509.796875 274.511719 Z M 600.585938 352.945312 L 618.089844 352.945312 L 618.089844 351.277344 L 600.585938 351.277344 Z M 600.585938 346.980469 L 634.808594 346.980469 L 634.808594 345.3125 L 600.585938 345.3125 Z M 600.585938 323.519531 L 625.054688 323.519531 L 625.054688 321.851562 L 600.585938 321.851562 Z M 600.585938 317.546875 L 618.089844 317.546875 L 618.089844 315.878906 L 600.585938 315.878906 Z M 600.585938 311.578125 L 634.808594 311.578125 L 634.808594 309.90625 L 600.585938 309.90625 Z M 600.585938 288.113281 L 625.054688 288.113281 L 625.054688 286.445312 L 600.585938 286.445312 Z M 600.585938 282.148438 L 618.089844 282.148438 L 618.089844 280.480469 L 600.585938 280.480469 Z M 600.585938 276.179688 L 634.808594 276.179688 L 634.808594 274.511719 L 600.585938 274.511719 Z M 691.367188 352.945312 L 708.871094 352.945312 L 708.871094 351.277344 L 691.367188 351.277344 Z M 691.367188 346.980469 L 725.589844 346.980469 L 725.589844 345.3125 L 691.367188 345.3125 Z M 691.367188 323.519531 L 715.84375 323.519531 L 715.84375 321.851562 L 691.367188 321.851562 Z M 691.367188 317.546875 L 708.871094 317.546875 L 708.871094 315.878906 L 691.367188 315.878906 Z M 691.367188 311.578125 L 725.589844 311.578125 L 725.589844 309.90625 L 691.367188 309.90625 Z M 691.367188 288.113281 L 715.84375 288.113281 L 715.84375 286.445312 L 691.367188 286.445312 Z M 691.367188 282.148438 L 708.871094 282.148438 L 708.871094 280.480469 L 691.367188 280.480469 Z M 691.367188 276.179688 L 725.589844 276.179688 L 725.589844 274.511719 L 691.367188 274.511719 Z M 749.464844 380.984375 L 458.660156 380.984375 L 458.660156 247.742188 L 749.464844 247.742188 Z M 495.011719 346.734375 L 493.828125 345.554688 L 482.480469 356.902344 L 478.417969 352.839844 L 477.238281 354.019531 L 482.480469 359.261719 Z M 497.226562 363.21875 L 475.019531 363.21875 L 475.019531 341.007812 L 497.226562 341.007812 Z M 588.007812 341.007812 L 565.800781 341.007812 L 565.800781 363.21875 L 588.007812 363.21875 Z M 585.792969 311.335938 L 584.613281 310.15625 L 573.261719 321.503906 L 569.199219 317.4375 L 568.019531 318.617188 L 573.261719 323.863281 Z M 588.007812 327.816406 L 565.800781 327.816406 L 565.800781 305.613281 L 588.007812 305.613281 Z M 678.789062 341.007812 L 656.582031 341.007812 L 656.582031 363.21875 L 678.789062 363.21875 Z M 678.789062 305.613281 L 656.582031 305.613281 L 656.582031 327.816406 L 678.789062 327.816406 Z M 678.789062 270.214844 L 656.582031 270.214844 L 656.582031 292.417969 L 678.789062 292.417969 Z M 495.011719 275.9375 L 493.828125 274.757812 L 482.480469 286.101562 L 478.417969 282.039062 L 477.238281 283.21875 L 482.480469 288.460938 Z M 497.226562 292.417969 L 475.019531 292.417969 L 475.019531 270.214844 L 497.226562 270.214844 Z M 799.574219 407.757812 C 799.453125 407.664062 799.328125 407.578125 799.199219 407.496094 L 799.199219 407.488281 C 798.023438 406.679688 796.597656 406.191406 795.039062 406.191406 L 445.675781 406.191406 C 442.113281 406.191406 439.070312 408.734375 438.4375 412.234375 L 390.945312 676.425781 C 390.414062 679.410156 391.753906 682.226562 394.058594 683.796875 L 401.085938 688.757812 L 406.511719 685.074219 L 591.757812 685.074219 L 580.203125 633.375 L 634.371094 633.375 L 645.921875 685.074219 L 747.546875 685.074219 C 751.101562 685.074219 754.152344 682.527344 754.777344 679.027344 L 802.027344 416.191406 L 806.851562 412.90625 Z M 322.660156 626.941406 C 323.265625 626.941406 323.839844 626.671875 324.222656 626.214844 C 325.050781 625.246094 325.808594 624.136719 326.597656 622.734375 C 327.214844 621.648438 327.789062 620.410156 328.34375 618.933594 C 328.886719 617.4375 329.242188 616.164062 329.476562 614.945312 C 329.792969 613.394531 329.949219 612.023438 329.953125 610.753906 C 329.960938 609.886719 329.414062 609.117188 328.578125 608.84375 L 328.226562 608.753906 L 327.964844 608.753906 C 327.097656 608.753906 326.335938 609.304688 326.070312 610.128906 L 324.90625 613.699219 L 324.652344 614.425781 C 324.335938 615.347656 324.015625 616.269531 323.648438 617.199219 C 323.296875 618.140625 322.917969 619.066406 322.535156 619.992188 L 322.285156 620.597656 L 320.773438 624.089844 C 320.421875 624.925781 320.652344 625.878906 321.339844 626.457031 C 321.714844 626.769531 322.175781 626.941406 322.660156 626.941406 Z M 294.109375 647.148438 L 294.734375 646.242188 C 297.433594 642.324219 299.878906 638.355469 301.992188 634.441406 C 305.265625 628.40625 308.171875 621.824219 310.648438 614.867188 C 313.066406 607.839844 314.90625 600.878906 316.101562 594.183594 C 317.371094 587.179688 318.054688 580.015625 318.140625 572.90625 C 318.148438 571.84375 317.332031 570.96875 316.152344 570.898438 C 315.101562 570.898438 314.234375 571.710938 314.171875 572.753906 C 313.738281 579.546875 312.820312 586.457031 311.4375 593.289062 C 309.996094 600.328125 308.144531 607.03125 305.921875 613.222656 C 303.75 619.488281 301 625.871094 297.734375 632.195312 C 296.042969 635.445312 294.152344 638.792969 292.085938 642.136719 L 292.863281 644.058594 C 293.011719 644.398438 293.359375 645.296875 293.359375 645.296875 C 293.847656 646.398438 294.109375 647.148438 294.109375 647.148438 Z M 172.351562 584.5625 C 172.039062 584.371094 171.6875 584.273438 171.320312 584.273438 C 170.628906 584.273438 169.976562 584.640625 169.621094 585.230469 C 168.550781 587.003906 167.578125 588.796875 166.445312 590.929688 C 165.785156 592.167969 165.167969 593.421875 164.539062 594.679688 C 164.207031 595.351562 163.875 596.019531 163.511719 596.738281 L 162.664062 598.550781 C 162.03125 599.894531 161.398438 601.234375 160.796875 602.597656 C 159.96875 604.496094 159.089844 606.515625 158.300781 608.628906 C 157.960938 609.554688 158.328125 610.597656 159.167969 611.097656 C 159.488281 611.289062 159.851562 611.394531 160.222656 611.394531 C 160.941406 611.394531 161.613281 611.007812 161.976562 610.402344 C 163.144531 608.453125 164.222656 606.433594 165.140625 604.679688 C 165.816406 603.367188 166.476562 602.039062 167.128906 600.714844 L 168.042969 598.855469 C 168.355469 598.171875 168.675781 597.480469 168.992188 596.796875 C 169.582031 595.53125 170.167969 594.265625 170.722656 592.988281 C 171.6875 590.773438 172.476562 588.894531 173.191406 586.953125 C 173.519531 586.058594 173.167969 585.050781 172.351562 584.5625 Z M 178.550781 480.570312 C 175.0625 477.027344 171.097656 474.253906 166.761719 472.339844 L 166.3125 472.175781 L 165.960938 472.175781 C 165.207031 472.175781 164.5 472.613281 164.175781 473.289062 C 163.941406 473.765625 163.90625 474.308594 164.085938 474.808594 C 164.261719 475.3125 164.617188 475.714844 165.09375 475.949219 C 172.34375 479.464844 178.539062 486.007812 182.527344 494.367188 C 186.230469 502.148438 188.070312 510.917969 187.835938 519.75 C 187.679688 527.578125 186.101562 536.105469 183.011719 545.820312 C 180.304688 554.308594 176.777344 562.742188 173.375 570.902344 L 173.285156 571.117188 C 172.859375 572.136719 173.316406 573.296875 174.320312 573.757812 L 174.808594 573.949219 L 175.175781 573.949219 C 175.96875 573.949219 176.691406 573.484375 177.03125 572.761719 C 180.753906 564.738281 184.632812 556.15625 187.585938 547.3125 C 190.894531 537.457031 192.609375 528.472656 192.835938 519.847656 C 193 510.058594 190.914062 500.519531 186.785156 492.28125 C 184.535156 487.808594 181.765625 483.871094 178.550781 480.570312 Z M 288.421875 552.363281 L 288.683594 552.359375 L 288.8125 552.339844 C 289.6875 552.195312 290.429688 551.601562 290.75 550.773438 C 290.945312 550.277344 310.015625 500.851562 304.292969 453.230469 L 302.597656 453.121094 L 299.257812 452.972656 L 299.238281 453.140625 L 299.273438 453.367188 C 304.058594 492.027344 291.929688 532.078125 287.550781 544.875 L 218.667969 461.40625 C 218.054688 461.769531 217.421875 462.125 216.777344 462.441406 C 215.863281 462.886719 214.933594 463.269531 213.988281 463.601562 L 286.492188 551.457031 C 286.96875 552.03125 287.671875 552.363281 288.421875 552.363281 Z M 368.84375 728.671875 L 464.59375 764.402344 L 297.621094 764.402344 L 254.390625 733.394531 C 256.59375 733.503906 258.921875 733.476562 261.386719 733.222656 C 276.125 731.699219 279.769531 729.300781 280.5 728.671875 L 281.285156 728.671875 L 294.511719 732.078125 C 297.601562 732.871094 300.824219 731.449219 302.347656 728.671875 L 317.800781 728.671875 L 319.386719 732.597656 C 319.609375 733.152344 319.964844 733.640625 320.429688 734.011719 L 325.351562 737.984375 C 325.8125 738.355469 326.503906 738.082031 326.589844 737.492188 L 327.457031 731.222656 C 327.535156 730.636719 327.464844 730.035156 327.25 729.480469 L 326.917969 728.671875 L 368.84375 728.671875 "/><path style=" stroke:none;fill-rule:nonzero;fill:rgb(100%,100%,100%);fill-opacity:1;" d="M 389.441406 505.734375 C 381.84375 496.40625 376.851562 484.339844 370.730469 473.257812 C 375.070312 466.863281 376.324219 458.636719 380.957031 452.402344 C 386.234375 445.324219 395.277344 441.726562 400.285156 434.449219 C 404.253906 428.679688 405.152344 421.238281 404.207031 414.292969 C 403.882812 411.941406 403.355469 409.625 402.714844 407.34375 C 403.289062 405.246094 402.9375 402.558594 401.855469 400.792969 C 401.445312 400.851562 401.035156 400.917969 400.621094 400.984375 C 399.898438 399 399.121094 397.03125 398.335938 395.078125 C 398.652344 394.789062 398.902344 394.484375 399.050781 394.152344 C 400.082031 391.777344 398.984375 388.003906 396.601562 387 C 394.578125 386.152344 392.542969 385.351562 390.492188 384.585938 C 396.070312 385.226562 398.960938 378.988281 395.003906 374.351562 C 390.445312 369.007812 382.191406 364.699219 376.636719 360.3125 C 375.359375 359.292969 374.042969 358.265625 372.476562 357.808594 C 370.910156 357.359375 369.019531 357.613281 367.984375 358.871094 C 366.191406 361.023438 367.859375 364.214844 369.523438 366.464844 C 374.339844 372.992188 379.539062 379.757812 386.761719 383.285156 C 381.507812 381.476562 376.171875 379.921875 370.753906 378.675781 C 369.046875 379.964844 368.644531 382.496094 369.335938 384.523438 C 370.019531 386.554688 371.570312 388.171875 373.207031 389.5625 C 374.949219 391.046875 376.84375 392.351562 378.851562 393.460938 C 378.769531 393.5 378.675781 393.539062 378.59375 393.589844 C 377.242188 394.367188 375.992188 395.285156 374.832031 396.316406 C 375.027344 395.078125 374.890625 393.863281 374.25 392.800781 C 367.359375 393.921875 360.449219 393.257812 353.535156 392.3125 C 343.242188 413.753906 336.578125 436.929688 333.90625 460.558594 C 332.203125 465.332031 331.664062 470.089844 333.800781 473.84375 C 333.792969 473.84375 333.78125 473.84375 333.773438 473.84375 C 347.511719 504.496094 361.242188 535.148438 374.980469 565.800781 C 383.105469 583.949219 391.285156 602.136719 401.210938 619.339844 L 416.25 535.6875 C 406.855469 526.125 397.902344 516.125 389.441406 505.734375 Z M 676.527344 169.359375 L 633.355469 169.359375 L 633.355469 204.621094 L 676.527344 204.621094 Z M 731.738281 114.933594 L 685.21875 114.933594 L 685.21875 161.445312 L 731.738281 161.445312 Z M 728.632812 179.632812 L 707.347656 179.632812 L 707.347656 181.304688 L 728.632812 181.304688 Z M 724.078125 199.4375 L 707.347656 199.4375 L 707.347656 201.109375 L 724.078125 201.109375 Z M 686.054688 199.4375 L 686.054688 201.109375 L 703.566406 201.109375 L 703.566406 199.4375 Z M 686.054688 193.472656 L 686.054688 195.144531 L 720.277344 195.144531 L 720.277344 193.472656 Z M 686.054688 185.597656 L 686.054688 187.269531 L 710.527344 187.269531 L 710.527344 185.597656 Z M 686.054688 179.632812 L 686.054688 181.304688 L 703.566406 181.304688 L 703.566406 179.632812 Z M 703.566406 169.359375 L 703.566406 167.691406 L 686.054688 167.691406 L 686.054688 169.359375 Z M 686.054688 173.664062 L 686.054688 175.332031 L 720.277344 175.332031 L 720.277344 173.664062 Z M 710.527344 205.410156 L 686.054688 205.410156 L 686.054688 207.078125 L 710.527344 207.078125 Z M 678.195312 70.097656 L 631.683594 70.097656 L 631.683594 109.433594 L 678.195312 109.433594 Z M 632.519531 158.996094 L 632.519531 160.664062 L 670.542969 160.664062 L 670.542969 158.996094 Z M 632.519531 153.234375 L 632.519531 154.902344 L 656.996094 154.902344 L 656.996094 153.234375 Z M 632.519531 147.261719 L 632.519531 148.929688 L 650.023438 148.929688 L 650.023438 147.261719 Z M 653.804688 147.261719 L 653.804688 148.929688 L 670.542969 148.929688 L 670.542969 147.261719 Z M 632.519531 141.289062 L 632.519531 142.960938 L 666.742188 142.960938 L 666.742188 141.289062 Z M 632.519531 133.421875 L 632.519531 135.089844 L 656.996094 135.089844 L 656.996094 133.421875 Z M 632.519531 127.449219 L 632.519531 129.121094 L 650.023438 129.121094 L 650.023438 127.449219 Z M 632.519531 121.484375 L 632.519531 123.15625 L 666.742188 123.15625 L 666.742188 121.484375 Z M 653.804688 127.449219 L 653.804688 129.121094 L 675.101562 129.121094 L 675.101562 127.449219 Z M 666.742188 114.933594 L 632.519531 114.933594 L 632.519531 116.601562 L 666.742188 116.601562 Z M 678.195312 167.691406 L 631.683594 167.691406 L 631.683594 206.289062 L 678.195312 206.289062 Z M 687.1875 109.433594 L 721.410156 109.433594 L 721.410156 107.765625 L 687.1875 107.765625 Z M 687.1875 103.511719 L 711.664062 103.511719 L 711.664062 101.84375 L 687.1875 101.84375 Z M 687.1875 97.542969 L 704.699219 97.542969 L 704.699219 95.875 L 687.1875 95.875 Z M 708.476562 95.875 L 708.476562 97.542969 L 725.210938 97.542969 L 725.210938 95.875 Z M 687.1875 91.578125 L 721.410156 91.578125 L 721.410156 89.910156 L 687.1875 89.910156 Z M 687.1875 83.703125 L 711.664062 83.703125 L 711.664062 82.035156 L 687.1875 82.035156 Z M 687.1875 77.730469 L 704.699219 77.730469 L 704.699219 76.0625 L 687.1875 76.0625 Z M 708.476562 76.0625 L 708.476562 77.730469 L 729.769531 77.730469 L 729.769531 76.0625 Z M 687.1875 71.765625 L 721.410156 71.765625 L 721.410156 70.097656 L 687.1875 70.097656 Z M 741.730469 59.425781 L 741.730469 216.960938 L 618 216.960938 L 618 59.425781 Z M 730.070312 116.601562 L 686.886719 116.601562 L 686.886719 159.777344 L 730.070312 159.777344 Z M 676.527344 71.765625 L 633.355469 71.765625 L 633.355469 107.765625 L 676.527344 107.765625 Z M 310.996094 689.105469 L 315.101562 699.304688 C 314.816406 698.714844 314.476562 698.140625 314.027344 697.644531 L 300.472656 682.597656 C 298.941406 680.898438 296.984375 679.621094 294.804688 678.910156 L 271.953125 671.425781 C 267.089844 669.835938 261.746094 671.210938 258.261719 674.957031 L 240.308594 694.265625 L 119.613281 690.742188 L 135.96875 657.714844 L 133.226562 651.28125 C 122.332031 625.773438 99.191406 607.566406 71.835938 602.96875 C 71.835938 602.96875 31.71875 696.175781 34.4375 706.144531 C 37.15625 716.113281 43.5 744.457031 76.117188 744.457031 C 99.617188 744.457031 190.359375 735.191406 239.257812 730.011719 C 244.199219 732.082031 251.875 734.203125 261.386719 733.222656 C 278.460938 731.457031 280.664062 728.511719 280.664062 728.511719 L 294.511719 732.078125 C 297.679688 732.890625 300.988281 731.390625 302.46875 728.476562 L 303.710938 726.039062 C 304.476562 724.539062 305.96875 723.550781 307.648438 723.4375 L 308.492188 723.378906 C 314.164062 723.007812 317.820312 717.21875 315.726562 711.941406 L 315.773438 702.226562 C 315.78125 701.496094 315.644531 700.785156 315.421875 700.109375 L 315.429688 700.128906 C 321.746094 700.523438 326.667969 697.03125 322.761719 693.433594 C 320.371094 691.234375 315.335938 689.894531 310.996094 689.105469 Z M 304.3125 563.542969 C 304.3125 554.78125 297.1875 547.65625 288.421875 547.65625 C 279.660156 547.65625 272.527344 554.78125 272.527344 563.542969 C 272.527344 572.304688 279.660156 579.429688 288.421875 579.429688 C 297.1875 579.429688 304.3125 572.304688 304.3125 563.542969 Z M 239.558594 371.464844 C 239.0625 371.378906 238.566406 371.289062 238.070312 371.179688 C 233.453125 381.085938 233.277344 392.441406 233.917969 403.347656 C 234.554688 414.261719 235.917969 425.277344 234.09375 436.054688 C 233.886719 437.28125 233.617188 438.503906 233.3125 439.71875 C 234.417969 437.917969 235.332031 435.996094 236.003906 433.988281 C 238.398438 426.730469 238.226562 418.898438 238.039062 411.160156 C 237.921875 403.382812 237.964844 395.585938 238.351562 387.808594 C 238.605469 382.351562 239.015625 376.902344 239.558594 371.464844 Z M 277.242188 366.238281 C 280.625 364.058594 283.179688 360.703125 285.4375 357.261719 C 280.722656 361.414062 274.640625 363.800781 268.347656 362.9375 C 266.046875 364.914062 263.558594 366.597656 260.941406 367.964844 C 262.429688 368.226562 263.914062 368.460938 265.410156 368.585938 C 269.5625 368.980469 273.839844 368.503906 277.242188 366.238281 Z M 358.640625 338.742188 C 357.082031 336.179688 355.902344 333.355469 355.132812 330.46875 C 353.375 323.898438 353.375 317 353.386719 310.195312 C 353.394531 307.488281 353.300781 304.601562 352.804688 301.890625 C 352.054688 301.464844 351.292969 301.074219 350.503906 300.769531 C 349.371094 300.339844 348.210938 299.992188 347.015625 299.804688 C 345.832031 299.589844 344.617188 299.523438 343.40625 299.550781 C 342.1875 299.589844 340.964844 299.777344 339.742188 300.050781 C 339.566406 300.097656 339.394531 299.984375 339.347656 299.816406 C 339.324219 299.671875 339.386719 299.535156 339.5 299.464844 C 340.640625 298.78125 341.9375 298.363281 343.261719 298.148438 C 344.589844 297.917969 345.960938 297.953125 347.289062 298.152344 C 348.621094 298.382812 349.929688 298.785156 351.117188 299.425781 C 351.585938 299.671875 352.023438 299.964844 352.453125 300.273438 C 352.089844 298.878906 351.59375 297.5625 350.914062 296.363281 C 350.667969 296.304688 350.414062 296.242188 350.164062 296.199219 C 349.375 296.0625 348.59375 295.9375 347.804688 295.890625 C 347.015625 295.828125 346.226562 295.839844 345.425781 295.867188 C 344.625 295.898438 343.820312 296.003906 342.980469 296.105469 C 342.804688 296.125 342.636719 296.003906 342.617188 295.828125 C 342.597656 295.695312 342.660156 295.578125 342.753906 295.507812 C 343.496094 295.003906 344.34375 294.679688 345.222656 294.472656 C 346.097656 294.25 347.011719 294.191406 347.910156 294.230469 C 348.488281 294.269531 349.0625 294.375 349.625 294.511719 C 349.238281 294.058594 348.808594 293.636719 348.339844 293.246094 C 347.171875 293.101562 346.011719 293.070312 344.878906 293.21875 C 343.679688 293.382812 342.503906 293.667969 341.398438 294.132812 C 340.273438 294.574219 339.230469 295.1875 338.253906 295.90625 C 337.28125 296.636719 336.421875 297.515625 335.652344 298.511719 C 335.542969 298.65625 335.339844 298.683594 335.195312 298.578125 C 335.085938 298.492188 335.046875 298.335938 335.09375 298.207031 C 336.023438 295.65625 338.242188 293.644531 340.757812 292.59375 C 342.035156 292.070312 343.398438 291.753906 344.773438 291.746094 C 345.125 291.738281 345.472656 291.753906 345.816406 291.777344 C 340.503906 289.863281 332.914062 293.070312 331.402344 298.507812 C 330.957031 293.683594 327.125 289.523438 322.527344 288.191406 C 322.90625 288.492188 323.292969 288.785156 323.644531 289.125 C 324.667969 290.140625 325.554688 291.296875 326.207031 292.574219 C 326.863281 293.851562 327.328125 295.226562 327.46875 296.636719 C 327.484375 296.8125 327.359375 296.96875 327.175781 296.988281 C 327.035156 297 326.902344 296.914062 326.851562 296.792969 C 326.328125 295.546875 325.722656 294.375 324.992188 293.292969 C 324.25 292.222656 323.429688 291.210938 322.484375 290.320312 C 321.558594 289.417969 320.519531 288.636719 319.417969 287.9375 C 319.3125 287.875 319.203125 287.820312 319.097656 287.761719 C 318.9375 287.769531 318.773438 287.761719 318.609375 287.777344 C 317.183594 287.894531 315.832031 288.265625 314.554688 288.824219 C 315.460938 288.902344 316.359375 289.078125 317.226562 289.347656 C 320.003906 290.234375 322.546875 292.148438 323.824219 294.746094 C 323.902344 294.902344 323.839844 295.097656 323.683594 295.175781 C 323.550781 295.238281 323.394531 295.199219 323.296875 295.101562 C 322.378906 294.105469 321.375 293.246094 320.265625 292.554688 C 319.152344 291.871094 317.972656 291.308594 316.726562 290.9375 C 315.492188 290.546875 314.203125 290.339844 312.90625 290.273438 C 312.578125 290.257812 312.257812 290.292969 311.933594 290.304688 C 311.097656 290.878906 310.296875 291.523438 309.539062 292.234375 C 309.996094 292.195312 310.453125 292.183594 310.902344 292.1875 C 311.777344 292.226562 312.652344 292.328125 313.484375 292.5625 C 314.328125 292.777344 315.148438 293.074219 315.902344 293.527344 C 316.054688 293.617188 316.105469 293.820312 316.015625 293.976562 C 315.949219 294.085938 315.832031 294.136719 315.707031 294.132812 L 313.265625 293.949219 C 312.457031 293.910156 311.667969 293.859375 310.871094 293.859375 C 310.074219 293.839844 309.28125 293.863281 308.476562 293.878906 L 307.917969 293.902344 C 306.671875 295.300781 305.550781 296.816406 304.558594 298.355469 C 300.183594 305.109375 296.382812 312.535156 296.519531 320.585938 C 296.691406 330.363281 296.175781 340.515625 291.710938 349.214844 C 290.945312 350.714844 290.027344 352.128906 289.003906 353.460938 C 288.3125 354.921875 287.582031 356.359375 286.761719 357.761719 C 284.570312 361.492188 281.878906 365.078125 278.140625 367.621094 C 274.328125 370.179688 269.546875 370.59375 265.257812 370.078125 C 263.144531 369.824219 261.085938 369.390625 259.058594 368.882812 C 256.886719 369.867188 254.636719 370.644531 252.335938 371.164062 C 253.09375 373.589844 253.953125 375.976562 254.929688 378.316406 C 257.03125 383.335938 259.597656 388.152344 262.664062 392.644531 C 265.664062 397.175781 269.175781 401.367188 273.03125 405.207031 C 276.894531 409.035156 281.132812 412.5 285.703125 415.507812 C 285.855469 415.605469 285.894531 415.800781 285.796875 415.949219 C 285.703125 416.085938 285.523438 416.132812 285.371094 416.046875 C 280.574219 413.328125 276.085938 410.019531 272.050781 406.21875 C 268.003906 402.429688 264.421875 398.152344 261.28125 393.578125 C 258.203125 388.960938 255.570312 384.039062 253.5625 378.871094 C 252.609375 376.433594 251.800781 373.9375 251.128906 371.40625 C 247.660156 372.058594 244.09375 372.15625 240.507812 371.628906 C 240.183594 377.039062 239.914062 382.449219 239.757812 387.859375 C 239.550781 395.617188 239.492188 403.367188 239.699219 411.125 C 239.824219 418.851562 240.039062 426.902344 237.398438 434.46875 C 236.230469 437.722656 234.476562 440.761719 232.214844 443.375 C 230.105469 449.515625 226.640625 455.1875 221.785156 459.191406 C 229.550781 472.183594 238.535156 484.515625 249.960938 494.386719 C 263.277344 505.878906 280.273438 513.832031 297.863281 513.628906 C 301.914062 513.578125 306.054688 513.074219 309.644531 511.21875 C 313.238281 509.351562 316.203125 505.929688 316.660156 501.90625 C 317.339844 495.859375 312.460938 490.6875 307.578125 487.058594 C 302.695312 483.425781 294.460938 479.855469 294.824219 473.785156 C 295.828125 457.320312 296.613281 440.53125 297.617188 424.066406 C 306.136719 427.285156 315.578125 430.519531 324.113281 427.351562 C 331.832031 424.484375 336.808594 417.066406 340.660156 409.789062 C 352.214844 387.996094 358.347656 363.394531 358.640625 338.742188 Z M 156.371094 311.929688 L 119.773438 311.929688 L 119.773438 218.644531 C 119.214844 219.535156 118.652344 220.417969 118.105469 221.316406 L 118.105469 313.597656 L 156.242188 313.597656 C 156.285156 313.035156 156.304688 312.484375 156.371094 311.929688 Z M 246 233.625 C 246.546875 233.371094 247.105469 233.148438 247.667969 232.914062 L 247.667969 120.324219 L 200.164062 120.324219 C 199.566406 120.878906 198.976562 121.441406 198.382812 121.996094 L 246 121.996094 Z M 377.902344 259.660156 C 378.351562 260.207031 378.789062 260.761719 379.203125 261.328125 L 417.164062 261.328125 L 417.164062 68.058594 L 287.601562 68.058594 L 287.601562 228.179688 C 288.164062 228.277344 288.714844 228.410156 289.269531 228.53125 L 289.269531 69.726562 L 415.496094 69.726562 L 415.496094 259.660156 Z M 282.59375 227.4375 L 282.59375 63.050781 L 422.171875 63.050781 L 422.171875 266.335938 L 382.464844 266.335938 C 382.777344 266.890625 383.089844 267.445312 383.382812 268.003906 L 423.839844 268.003906 L 423.839844 61.382812 L 284.960938 61.382812 C 283.613281 62.035156 282.261719 62.6875 280.925781 63.355469 L 280.925781 227.28125 C 281.269531 227.308594 281.609375 227.3125 281.957031 227.347656 C 282.171875 227.371094 282.378906 227.410156 282.59375 227.4375 Z M 252.726562 230.9375 C 253.28125 230.742188 253.84375 230.558594 254.394531 230.378906 L 254.394531 113.652344 L 207.539062 113.652344 C 206.914062 114.203125 206.300781 114.765625 205.679688 115.320312 L 252.726562 115.320312 Z M 156.164062 320.273438 L 111.480469 320.273438 L 111.480469 232.398438 C 112.042969 231.445312 112.589844 230.488281 113.152344 229.535156 L 113.152344 318.605469 L 156.089844 318.605469 C 156.105469 319.15625 156.128906 319.710938 156.164062 320.273438 "/><g clip-rule="nonzero" clip-path="url(#clip2)"><path style=" stroke:none;fill-rule:nonzero;fill:rgb(33.729553%,34.899902%,61.959839%);fill-opacity:1;" d="M 287.808594 728.238281 C 287.121094 727.550781 286.441406 726.855469 285.835938 726.105469 C 285.207031 725.367188 284.65625 724.578125 284.105469 723.773438 C 283.566406 722.949219 283.089844 722.097656 282.59375 721.203125 C 282.535156 721.09375 282.410156 721.019531 282.273438 721.039062 C 282.097656 721.058594 281.96875 721.214844 281.988281 721.398438 C 282.105469 722.449219 282.429688 723.472656 282.867188 724.441406 C 283.050781 724.859375 283.273438 725.257812 283.507812 725.648438 C 283.410156 725.726562 283.304688 725.800781 283.21875 725.882812 C 282.886719 726.230469 282.667969 726.660156 282.507812 727.101562 C 282.378906 727.546875 282.292969 728.007812 282.347656 728.476562 C 282.386719 728.933594 282.496094 729.398438 282.765625 729.789062 C 282.808594 729.847656 282.867188 729.894531 282.941406 729.917969 C 283.121094 729.984375 283.316406 729.894531 283.390625 729.710938 L 283.394531 729.683594 C 283.539062 729.292969 283.632812 728.941406 283.75 728.609375 C 283.871094 728.277344 283.964844 727.957031 284.085938 727.644531 C 284.171875 727.394531 284.269531 727.160156 284.367188 726.914062 C 284.425781 726.992188 284.480469 727.082031 284.542969 727.160156 C 285.230469 727.988281 285.992188 728.746094 286.863281 729.371094 C 287.726562 729.992188 288.65625 730.523438 289.675781 730.851562 C 289.820312 730.898438 289.988281 730.851562 290.09375 730.726562 C 290.222656 730.5625 290.203125 730.324219 290.035156 730.1875 C 289.265625 729.539062 288.507812 728.914062 287.808594 728.238281 Z M 307.070312 701.640625 C 308.660156 703.355469 310.128906 705.1875 311.574219 707.03125 C 313.015625 708.882812 314.386719 710.792969 315.742188 712.730469 C 315.832031 712.851562 315.996094 712.898438 316.140625 712.832031 C 316.300781 712.753906 316.367188 712.566406 316.296875 712.410156 C 315.277344 710.246094 314.050781 708.183594 312.714844 706.203125 C 311.378906 704.214844 309.875 702.351562 308.316406 700.53125 C 306.699219 698.765625 305.015625 697.050781 303.203125 695.484375 C 301.390625 693.921875 299.488281 692.460938 297.460938 691.195312 C 297.308594 691.097656 297.101562 691.125 296.976562 691.269531 C 296.839844 691.425781 296.851562 691.667969 297.011719 691.804688 C 298.777344 693.367188 300.53125 694.933594 302.207031 696.574219 C 303.886719 698.203125 305.53125 699.875 307.070312 701.640625 Z M 280.972656 726.972656 C 280.894531 726.75 280.816406 726.527344 280.675781 726.320312 C 280.554688 726.105469 280.417969 725.882812 280.183594 725.667969 L 280.164062 725.65625 C 280.136719 725.628906 280.105469 725.601562 280.066406 725.582031 C 279.835938 725.464844 279.550781 725.558594 279.4375 725.785156 C 279.28125 726.085938 279.25 726.386719 279.25 726.671875 C 279.238281 726.964844 279.308594 727.246094 279.398438 727.519531 C 279.511719 727.78125 279.628906 728.042969 279.832031 728.257812 C 280.019531 728.484375 280.234375 728.6875 280.546875 728.824219 C 280.574219 728.835938 280.605469 728.851562 280.636719 728.851562 C 280.855469 728.890625 281.0625 728.746094 281.101562 728.53125 L 281.101562 728.515625 C 281.160156 728.199219 281.140625 727.9375 281.113281 727.683594 C 281.109375 727.429688 281.035156 727.199219 280.972656 726.972656 Z M 122.984375 690.863281 C 118.308594 690.015625 113.554688 689.605469 108.789062 689.539062 C 104.023438 689.480469 99.257812 689.828125 94.539062 690.464844 C 89.824219 691.175781 85.148438 692.160156 80.589844 693.550781 C 76.035156 694.933594 71.585938 696.652344 67.328125 698.765625 C 67.1875 698.835938 67.113281 699.011719 67.171875 699.167969 C 67.238281 699.332031 67.429688 699.410156 67.589844 699.34375 C 71.980469 697.617188 76.4375 696.113281 80.984375 694.90625 C 85.519531 693.699219 90.117188 692.722656 94.773438 692.117188 C 99.414062 691.429688 104.101562 691.097656 108.796875 691.019531 C 113.492188 690.9375 118.191406 691.15625 122.878906 691.613281 C 123.074219 691.632812 123.257812 691.496094 123.289062 691.300781 C 123.328125 691.097656 123.191406 690.902344 122.984375 690.863281 Z M 238.402344 729.421875 C 235.554688 727.789062 233.8125 724.28125 234.222656 720.8125 C 234.242188 720.636719 234.140625 720.460938 233.964844 720.402344 C 233.761719 720.335938 233.550781 720.445312 233.488281 720.648438 C 232.554688 723.53125 233.429688 726.855469 235.507812 729.15625 C 234.378906 728.980469 233.265625 728.671875 232.222656 728.21875 C 230.429688 727.433594 228.792969 726.175781 227.996094 724.34375 C 227.9375 724.207031 227.789062 724.125 227.640625 724.15625 C 227.46875 724.1875 227.351562 724.359375 227.386719 724.535156 C 227.59375 725.628906 228.191406 726.640625 228.929688 727.488281 C 229.691406 728.316406 230.605469 728.988281 231.582031 729.519531 C 233.550781 730.558594 235.777344 731.078125 238.03125 730.976562 C 238.304688 730.957031 238.574219 730.804688 238.714844 730.558594 C 238.945312 730.152344 238.800781 729.652344 238.402344 729.421875 Z M 370.167969 474.859375 C 369.359375 475.34375 368.589844 475.832031 367.800781 476.261719 C 367 476.6875 366.210938 477.109375 365.394531 477.46875 C 364.585938 477.847656 363.753906 478.167969 362.910156 478.484375 C 362.0625 478.796875 361.199219 479.058594 360.3125 479.351562 C 360.167969 479.398438 360.054688 479.527344 360.042969 479.683594 C 360.023438 479.894531 360.179688 480.082031 360.390625 480.101562 C 361.367188 480.199219 362.34375 480.101562 363.308594 479.90625 C 364.269531 479.722656 365.199219 479.390625 366.09375 478.980469 C 366.980469 478.558594 367.828125 478.054688 368.589844 477.4375 C 369.347656 476.824219 370.050781 476.132812 370.605469 475.324219 C 370.675781 475.226562 370.683594 475.082031 370.617188 474.972656 C 370.519531 474.820312 370.320312 474.769531 370.167969 474.859375 Z M 318.734375 407.515625 C 318.132812 407.488281 317.546875 407.507812 316.953125 407.507812 C 316.367188 407.519531 315.78125 407.515625 315.179688 407.546875 C 314.582031 407.574219 313.972656 407.585938 313.347656 407.671875 C 313.242188 407.683594 313.144531 407.75 313.09375 407.847656 C 313.003906 408.003906 313.0625 408.210938 313.222656 408.296875 C 313.796875 408.621094 314.417969 408.8125 315.042969 408.957031 C 315.667969 409.105469 316.316406 409.15625 316.953125 409.171875 C 317.597656 409.171875 318.246094 409.132812 318.871094 408.988281 C 319.503906 408.851562 320.121094 408.675781 320.703125 408.355469 C 320.808594 408.296875 320.890625 408.1875 320.90625 408.054688 C 320.929688 407.839844 320.773438 407.636719 320.558594 407.613281 C 319.925781 407.535156 319.328125 407.535156 318.734375 407.515625 Z M 320.371094 393.890625 L 310.761719 393.316406 L 302.921875 392.742188 C 304.652344 394.746094 306.878906 396.378906 309.253906 397.679688 C 310.707031 398.464844 312.234375 399.132812 313.8125 399.652344 C 315.351562 400.167969 317.089844 400.527344 318.578125 400.644531 L 318.6875 400.652344 C 321.433594 399.410156 324.078125 397.535156 326.207031 395.332031 C 326.464844 395.070312 326.777344 394.738281 326.96875 394.503906 C 327.039062 394.410156 327.074219 394.332031 327.09375 394.289062 C 327.019531 394.253906 326.734375 394.203125 326.375 394.203125 L 325.167969 394.144531 C 323.570312 394.074219 321.96875 393.988281 320.371094 393.890625 Z M 310.871094 391.660156 L 320.46875 392.363281 C 322.070312 392.476562 323.667969 392.605469 325.265625 392.75 L 326.464844 392.855469 C 326.832031 392.917969 327.371094 392.828125 328.003906 393.335938 C 328.324219 393.609375 328.460938 394.113281 328.371094 394.488281 C 328.285156 394.863281 328.117188 395.089844 327.960938 395.285156 C 327.625 395.65625 327.371094 395.898438 327.058594 396.199219 C 324.660156 398.484375 321.875 400.167969 318.703125 401.328125 L 318.578125 401.375 C 316.738281 401.339844 315.179688 401.042969 313.523438 400.597656 C 311.867188 400.136719 310.25 399.515625 308.699219 398.761719 C 307.15625 397.992188 305.667969 397.089844 304.285156 396.027344 C 302.902344 394.964844 301.613281 393.753906 300.574219 392.28125 C 300.328125 391.933594 300.414062 391.453125 300.757812 391.210938 C 300.910156 391.105469 301.078125 391.0625 301.246094 391.074219 L 301.265625 391.074219 Z M 327.945312 383.941406 C 329.023438 384.171875 330.167969 383.882812 331.121094 383.363281 C 332.074219 382.808594 332.863281 382.007812 333.4375 381.054688 C 334.570312 379.136719 334.695312 376.910156 334.570312 374.886719 C 334.414062 372.859375 334.054688 370.851562 333.421875 368.929688 C 332.808594 367.007812 331.980469 365.148438 330.894531 363.464844 C 330.808594 363.34375 330.652344 363.285156 330.507812 363.34375 C 330.339844 363.40625 330.261719 363.589844 330.324219 363.753906 C 331.03125 365.585938 331.636719 367.421875 332.066406 369.308594 C 332.492188 371.183594 332.796875 373.089844 332.90625 374.992188 C 333.039062 376.882812 332.90625 378.765625 332.136719 380.34375 C 331.375 381.875 329.824219 383.179688 328.023438 383.191406 C 327.847656 383.191406 327.683594 383.316406 327.652344 383.492188 C 327.605469 383.695312 327.738281 383.898438 327.945312 383.941406 Z M 289.726562 335.910156 C 292.113281 335.109375 294.546875 334.503906 297.011719 334.15625 C 299.472656 333.820312 301.964844 333.667969 304.441406 333.839844 C 306.917969 333.9375 309.382812 334.339844 311.796875 334.941406 C 314.210938 335.535156 316.554688 336.394531 318.851562 337.429688 C 319.015625 337.507812 319.222656 337.457031 319.320312 337.292969 C 319.4375 337.125 319.390625 336.890625 319.214844 336.773438 C 317.058594 335.351562 314.671875 334.28125 312.195312 333.519531 C 309.710938 332.75 307.121094 332.339844 304.527344 332.175781 C 301.925781 332.089844 299.3125 332.242188 296.773438 332.777344 C 294.230469 333.296875 291.753906 334.125 289.472656 335.324219 C 289.335938 335.394531 289.269531 335.558594 289.316406 335.710938 C 289.375 335.878906 289.558594 335.96875 289.726562 335.910156 Z M 341.496094 340.8125 C 342.734375 339.789062 344.023438 338.898438 345.414062 338.171875 C 346.796875 337.464844 348.242188 336.882812 349.742188 336.492188 C 351.234375 336.082031 352.773438 335.851562 354.324219 335.773438 C 355.882812 335.695312 357.449219 335.820312 359.019531 336.074219 C 359.1875 336.101562 359.367188 336.015625 359.4375 335.847656 C 359.523438 335.65625 359.429688 335.429688 359.234375 335.351562 C 357.695312 334.691406 356.015625 334.367188 354.324219 334.292969 C 352.636719 334.214844 350.933594 334.4375 349.296875 334.882812 C 347.675781 335.34375 346.097656 336.023438 344.695312 336.960938 C 343.289062 337.886719 342.007812 339.027344 341.03125 340.375 C 340.945312 340.496094 340.945312 340.65625 341.042969 340.773438 C 341.15625 340.910156 341.363281 340.925781 341.496094 340.8125 Z M 802.582031 411.53125 L 453.21875 411.53125 C 449.65625 411.53125 446.613281 414.074219 445.980469 417.578125 L 398.496094 681.765625 C 397.683594 686.273438 401.144531 690.414062 405.726562 690.414062 L 592.109375 690.414062 L 597.441406 713.894531 C 598.140625 716.914062 598.882812 719.917969 599.585938 722.929688 L 512.011719 722.929688 L 480.261719 740.523438 L 603.765625 740.523438 C 603.773438 740.550781 603.78125 740.582031 603.785156 740.609375 C 603.832031 740.804688 604.027344 740.929688 604.230469 740.890625 C 604.433594 740.851562 604.5625 740.648438 604.523438 740.445312 C 602.699219 731.476562 600.828125 722.519531 598.882812 713.574219 L 592.988281 686.769531 L 586.878906 660.003906 C 584.820312 651.113281 582.695312 642.238281 580.53125 633.375 L 634.070312 633.375 C 634.070312 633.394531 634.058594 633.414062 634.058594 633.4375 C 635.875 642.410156 637.742188 651.371094 639.671875 660.316406 L 645.53125 687.128906 L 651.617188 713.894531 C 653.667969 722.8125 655.789062 731.71875 657.953125 740.609375 C 658 740.804688 658.195312 740.929688 658.394531 740.890625 C 658.570312 740.859375 658.671875 740.695312 658.675781 740.523438 L 703.351562 740.523438 L 672.433594 722.929688 L 655.019531 722.929688 C 654.359375 719.816406 653.726562 716.691406 653.054688 713.574219 L 647.964844 690.414062 L 755.089844 690.414062 C 758.644531 690.414062 761.695312 687.867188 762.320312 684.363281 L 809.8125 420.175781 C 810.628906 415.667969 807.160156 411.53125 802.582031 411.53125 Z M 374.359375 480.101562 C 378.996094 489.132812 383.390625 498.304688 389.441406 505.734375 C 397.902344 516.125 406.855469 526.125 416.25 535.6875 L 418.316406 524.195312 C 407.003906 513.460938 396.148438 502.402344 389.394531 493.695312 C 385.523438 488.699219 380.273438 484.164062 374.359375 480.101562 Z M 328.285156 610.746094 C 328.285156 610.609375 328.199219 610.480469 328.0625 610.433594 C 327.894531 610.382812 327.710938 610.472656 327.660156 610.644531 L 326.484375 614.246094 C 326.070312 615.433594 325.671875 616.621094 325.214844 617.78125 C 324.777344 618.953125 324.296875 620.101562 323.820312 621.261719 L 322.308594 624.738281 C 322.246094 624.886719 322.28125 625.070312 322.417969 625.179688 C 322.574219 625.316406 322.816406 625.296875 322.953125 625.132812 C 323.800781 624.144531 324.503906 623.046875 325.144531 621.914062 C 325.789062 620.78125 326.316406 619.585938 326.773438 618.367188 C 327.214844 617.140625 327.601562 615.898438 327.84375 614.613281 C 328.101562 613.339844 328.277344 612.050781 328.285156 610.746094 Z M 191.167969 519.820312 C 191.324219 510.597656 189.433594 501.296875 185.300781 493.03125 C 183.21875 488.910156 180.585938 485.050781 177.359375 481.738281 C 174.125 478.453125 170.296875 475.726562 166.09375 473.871094 C 165.9375 473.796875 165.746094 473.863281 165.675781 474.019531 C 165.597656 474.175781 165.660156 474.367188 165.824219 474.445312 C 173.992188 478.40625 180.179688 485.585938 184.035156 493.648438 C 187.894531 501.757812 189.738281 510.8125 189.503906 519.78125 C 189.320312 528.796875 187.347656 537.703125 184.601562 546.320312 C 181.851562 554.957031 178.335938 563.355469 174.820312 571.757812 C 174.742188 571.941406 174.828125 572.160156 175.019531 572.246094 C 175.207031 572.332031 175.429688 572.246094 175.511719 572.058594 C 179.347656 563.796875 183.101562 555.46875 186.003906 546.785156 C 188.910156 538.113281 190.925781 529.046875 191.167969 519.820312 Z M 171.492188 585.988281 C 171.335938 585.898438 171.136719 585.941406 171.046875 586.09375 C 169.9375 587.9375 168.921875 589.820312 167.917969 591.710938 C 166.914062 593.601562 165.996094 595.539062 165.023438 597.441406 C 164.125 599.386719 163.191406 601.3125 162.324219 603.269531 C 161.464844 605.230469 160.617188 607.199219 159.867188 609.214844 C 159.808594 609.378906 159.871094 609.574219 160.027344 609.671875 C 160.210938 609.777344 160.445312 609.71875 160.550781 609.542969 C 161.660156 607.695312 162.664062 605.804688 163.652344 603.910156 C 164.644531 602.011719 165.570312 600.082031 166.523438 598.164062 C 167.410156 596.214844 168.339844 594.292969 169.1875 592.324219 C 170.042969 590.363281 170.882812 588.386719 171.621094 586.375 C 171.671875 586.230469 171.621094 586.066406 171.492188 585.988281 Z M 399.671875 616.613281 L 392.699219 622.5 C 384.8125 646.746094 365.109375 685.308594 365.109375 685.308594 L 365.109375 726.804688 L 326.167969 726.804688 L 315.429688 700.128906 C 321.746094 700.523438 326.667969 697.03125 322.761719 693.433594 C 320.371094 691.234375 315.335938 689.894531 310.988281 689.097656 L 293.359375 645.296875 C 295.945312 641.542969 298.351562 637.664062 300.523438 633.648438 C 303.882812 627.449219 306.703125 620.96875 309.070312 614.320312 C 311.367188 607.65625 313.21875 600.824219 314.457031 593.890625 C 315.714844 586.953125 316.394531 579.917969 316.472656 572.886719 C 316.472656 572.714844 316.339844 572.574219 316.171875 572.566406 C 315.996094 572.554688 315.84375 572.683594 315.832031 572.867188 C 315.390625 579.847656 314.457031 586.785156 313.074219 593.621094 C 311.679688 600.460938 309.855469 607.207031 307.5 613.773438 C 305.21875 620.355469 302.414062 626.765625 299.214844 632.957031 C 297.257812 636.746094 295.125 640.441406 292.863281 644.058594 L 283.910156 621.816406 C 283.050781 619.644531 280.59375 618.582031 278.421875 619.445312 C 276.25 620.304688 275.1875 622.761719 276.046875 624.933594 L 298.574219 680.902344 C 297.433594 680.042969 296.175781 679.359375 294.804688 678.910156 L 271.953125 671.425781 C 267.089844 669.835938 261.746094 671.210938 258.261719 674.957031 L 257.609375 675.664062 C 257.609375 675.664062 257.617188 675.664062 257.617188 675.664062 C 257.734375 675.78125 257.742188 675.960938 257.644531 676.085938 C 255.6875 678.640625 253.566406 681.066406 251.402344 683.445312 C 249.246094 685.824219 246.988281 688.113281 244.753906 690.414062 C 242.464844 692.664062 240.183594 694.925781 237.84375 697.117188 C 235.496094 699.304688 233.136719 701.476562 230.695312 703.570312 C 230.535156 703.707031 230.300781 703.6875 230.164062 703.53125 C 230.039062 703.378906 230.039062 703.164062 230.167969 703.027344 C 232.328125 700.648438 234.570312 698.355469 236.8125 696.058594 L 238.636719 694.214844 L 180.769531 692.527344 L 160.160156 610.566406 L 135.96875 657.714844 L 133.226562 651.28125 C 122.332031 625.773438 99.191406 607.566406 71.835938 602.96875 C 71.835938 602.96875 70.226562 606.71875 67.667969 612.789062 C 63.886719 605.753906 61.011719 598.023438 59.585938 589.535156 C 59.585938 589.535156 92.972656 492.148438 138.597656 463.550781 C 148.253906 458.792969 155.464844 458.851562 164.832031 459.738281 C 173.609375 460.566406 182.203125 462.488281 190.855469 464.132812 C 199.101562 465.695312 207.960938 466.257812 215.625 462.957031 L 286.957031 549.398438 C 279.789062 550.132812 274.195312 556.183594 274.195312 563.542969 C 274.195312 571.398438 280.566406 577.769531 288.421875 577.769531 C 296.28125 577.769531 302.644531 571.398438 302.644531 563.542969 C 302.644531 556.054688 296.847656 549.933594 289.492188 549.378906 C 291.878906 542.929688 308.003906 497.203125 302.597656 453.121094 C 307.253906 453.382812 311.746094 453.949219 315.792969 454.964844 L 315.785156 454.953125 C 315.785156 454.953125 323.375 456.863281 333.898438 460.570312 C 333.078125 462.878906 332.535156 465.1875 332.433594 467.378906 C 332.425781 467.5 332.417969 467.617188 332.417969 467.742188 C 332.40625 468.226562 332.414062 468.699219 332.445312 469.171875 C 332.453125 469.253906 332.464844 469.339844 332.472656 469.425781 C 332.511719 469.847656 332.574219 470.265625 332.652344 470.683594 C 332.671875 470.761719 332.6875 470.851562 332.707031 470.9375 C 332.804688 471.386719 332.933594 471.828125 333.089844 472.261719 C 333.121094 472.359375 333.164062 472.457031 333.203125 472.546875 C 333.378906 472.992188 333.566406 473.425781 333.808594 473.851562 C 333.800781 473.84375 333.789062 473.84375 333.773438 473.84375 C 347.511719 504.496094 361.242188 535.148438 374.980469 565.800781 C 376.433594 569.058594 377.902344 572.320312 379.375 575.570312 C 379.628906 576.132812 379.882812 576.699219 380.144531 577.261719 C 381.617188 580.511719 383.109375 583.753906 384.621094 586.992188 C 384.882812 587.546875 385.144531 588.101562 385.40625 588.65625 C 386.949219 591.933594 388.523438 595.199219 390.125 598.445312 C 390.300781 598.804688 390.484375 599.15625 390.660156 599.515625 C 392.160156 602.527344 393.691406 605.519531 395.261719 608.492188 C 396.699219 611.214844 398.15625 613.929688 399.671875 616.613281 Z M 293.359375 645.296875 L 293.265625 645.0625 Z M 238.058594 421.171875 C 236.0625 420.410156 234.933594 419.941406 234.933594 419.941406 C 234.933594 419.980469 234.933594 420.019531 234.933594 420.050781 C 234.980469 421.359375 235.007812 422.664062 235.007812 423.96875 C 235.007812 424.210938 234.992188 424.449219 234.988281 424.691406 C 234.980469 425.800781 234.96875 426.902344 234.914062 428.003906 C 234.894531 428.550781 234.835938 429.097656 234.804688 429.644531 C 234.753906 430.441406 234.707031 431.238281 234.628906 432.03125 C 234.492188 433.375 234.316406 434.71875 234.09375 436.054688 C 233.886719 437.28125 233.617188 438.503906 233.3125 439.71875 C 234.417969 437.917969 235.332031 435.996094 236.003906 433.988281 C 237.367188 429.863281 237.882812 425.546875 238.058594 421.171875 Z M 300.929688 453.160156 C 300.921875 453.113281 300.933594 453.074219 300.933594 453.03125 C 299.414062 452.972656 297.882812 452.933594 296.339844 452.933594 C 296.164062 451.0625 296.167969 449.90625 296.167969 449.90625 C 296.167969 449.90625 303.210938 444.429688 303.210938 440.011719 C 303.210938 435.597656 296.964844 435.296875 296.964844 435.296875 C 275.019531 434.28125 249.871094 425.628906 239.636719 421.777344 C 239.421875 426.0625 238.839844 430.335938 237.398438 434.46875 C 236.230469 437.722656 234.476562 440.761719 232.214844 443.375 C 232.214844 443.382812 232.214844 443.386719 232.210938 443.394531 C 231.871094 444.378906 231.5 445.351562 231.089844 446.300781 C 231.0625 446.359375 231.042969 446.414062 231.015625 446.464844 C 230.625 447.371094 230.207031 448.257812 229.75 449.117188 C 229.726562 449.175781 229.699219 449.234375 229.667969 449.289062 C 229.222656 450.128906 228.746094 450.9375 228.246094 451.738281 C 228.132812 451.921875 228.011719 452.097656 227.894531 452.28125 C 227.445312 452.972656 226.96875 453.640625 226.472656 454.292969 C 226.367188 454.425781 226.269531 454.5625 226.171875 454.691406 C 225.664062 455.324219 225.136719 455.9375 224.582031 456.53125 C 224.367188 456.765625 224.144531 456.992188 223.917969 457.222656 C 223.367188 457.78125 222.800781 458.324219 222.207031 458.832031 C 221.960938 459.039062 221.707031 459.230469 221.457031 459.425781 C 220.996094 459.800781 220.511719 460.15625 220.023438 460.5 C 219.730469 460.703125 219.4375 460.90625 219.128906 461.101562 C 218.5 461.496094 217.851562 461.875 217.175781 462.222656 L 288.144531 548.21875 C 291.121094 540.015625 306.195312 495.746094 300.929688 453.160156 Z M 305.628906 355.351562 C 306.429688 352.640625 305.738281 350.042969 304.097656 349.5625 C 302.453125 349.074219 300.472656 350.886719 299.667969 353.597656 C 298.875 356.308594 299.558594 358.898438 301.207031 359.386719 C 302.851562 359.867188 304.832031 358.0625 305.628906 355.351562 Z M 346.738281 349.5625 C 345.09375 349.074219 343.113281 350.886719 342.316406 353.597656 C 341.515625 356.308594 342.207031 358.898438 343.847656 359.386719 C 345.492188 359.867188 347.472656 358.0625 348.273438 355.351562 C 349.070312 352.640625 348.386719 350.042969 346.738281 349.5625 Z M 376.550781 330.878906 C 376.355469 331.597656 376.207031 332.320312 376.101562 333.0625 C 375.613281 336.472656 376.792969 339.941406 379.015625 342.253906 Z M 345.824219 399.015625 L 347.414062 406.359375 C 349.292969 401.609375 351.328125 396.921875 353.535156 392.3125 C 360.449219 393.257812 367.359375 393.921875 374.25 392.800781 C 376.246094 396.113281 373.410156 400.910156 370.390625 403.316406 C 367.363281 405.714844 363.40625 406.523438 359.613281 407.261719 C 360.179688 408.863281 360.675781 410.480469 361.15625 412.105469 C 360.820312 411.484375 360.472656 410.871094 360.09375 410.285156 C 360.011719 410.148438 359.835938 410.097656 359.691406 410.160156 C 359.527344 410.238281 359.457031 410.429688 359.535156 410.585938 C 360.878906 413.460938 361.980469 416.425781 362.769531 419.464844 C 363.550781 422.507812 364.09375 425.609375 364.253906 428.742188 C 364.496094 431.871094 364.371094 435.011719 363.980469 438.128906 C 363.601562 441.242188 362.890625 444.320312 361.941406 447.339844 C 361.882812 447.519531 361.964844 447.714844 362.144531 447.792969 C 362.332031 447.886719 362.558594 447.800781 362.644531 447.613281 C 363.996094 444.679688 364.902344 441.535156 365.441406 438.34375 C 365.867188 435.847656 366.027344 433.308594 365.988281 430.773438 L 387.667969 422.796875 C 386.8125 423.882812 386.011719 425.003906 385.328125 426.199219 C 384.460938 427.703125 383.703125 429.269531 383.164062 430.910156 C 383.109375 431.082031 383.175781 431.261719 383.324219 431.359375 C 383.507812 431.464844 383.742188 431.414062 383.855469 431.230469 C 384.734375 429.785156 385.613281 428.363281 386.574219 426.992188 C 387.539062 425.628906 388.527344 424.289062 389.597656 423.015625 C 389.980469 422.546875 390.386719 422.097656 390.789062 421.648438 L 395.816406 419.796875 L 395.242188 417.128906 C 395.707031 416.707031 396.167969 416.28125 396.644531 415.859375 C 396.75 415.769531 396.78125 415.605469 396.710938 415.46875 C 396.625 415.3125 396.4375 415.253906 396.28125 415.335938 C 395.84375 415.570312 395.4375 415.851562 395.023438 416.113281 L 394.710938 414.679688 C 393.933594 415.140625 393.25 415.5 392.765625 415.695312 C 387.695312 417.757812 381.675781 417.304688 376.960938 414.523438 C 374.523438 413.074219 372.242188 410.292969 373.273438 407.652344 C 374.199219 405.296875 377.117188 404.585938 379.621094 404.203125 C 383.476562 403.617188 387.320312 403.023438 391.175781 402.429688 C 391.457031 402.410156 391.742188 402.402344 392.023438 402.371094 C 393.390625 402.234375 394.761719 402.050781 396.109375 401.734375 C 396.265625 401.695312 396.390625 401.554688 396.398438 401.378906 C 396.410156 401.171875 396.246094 400.988281 396.039062 400.984375 C 394.671875 400.90625 393.3125 400.910156 391.957031 400.898438 L 391.722656 400.898438 L 390.953125 397.339844 C 390.453125 397.339844 389.996094 397.3125 389.617188 397.246094 C 383.59375 396.203125 377.863281 393.523438 373.207031 389.5625 C 371.570312 388.171875 370.019531 386.554688 369.335938 384.523438 C 368.644531 382.496094 369.046875 379.964844 370.753906 378.675781 C 376.171875 379.921875 381.507812 381.476562 386.761719 383.285156 C 386.214844 383.015625 385.691406 382.699219 385.164062 382.390625 L 390.125 385.039062 C 390.257812 385.109375 390.433594 385.078125 390.523438 384.953125 C 390.632812 384.816406 390.609375 384.613281 390.472656 384.507812 C 388.847656 383.207031 387.132812 382.027344 385.386719 380.898438 C 383.636719 379.765625 381.832031 378.734375 380.007812 377.742188 C 379.324219 377.382812 378.632812 377.039062 377.945312 376.695312 C 374.855469 373.578125 372.125 369.992188 369.523438 366.464844 C 367.859375 364.214844 366.191406 361.023438 367.984375 358.871094 C 369.019531 357.613281 370.910156 357.359375 372.476562 357.808594 C 374.042969 358.265625 375.359375 359.292969 376.636719 360.3125 C 378.820312 362.039062 381.429688 363.753906 384.054688 365.527344 L 380.300781 348.191406 C 375.894531 349.691406 370.65625 349.113281 366.550781 346.753906 C 363.238281 344.855469 360.625 342.011719 358.640625 338.742188 C 358.394531 359.410156 354.039062 380.042969 345.824219 399.015625 Z M 308.492188 723.378906 L 307.648438 723.4375 C 306.703125 723.503906 305.832031 723.871094 305.09375 724.421875 C 304.449219 723.335938 303.769531 722.265625 303.054688 721.230469 C 302.09375 719.820312 301.046875 718.484375 299.976562 717.167969 C 298.886719 715.863281 297.765625 714.585938 296.574219 713.378906 C 295.386719 712.167969 294.160156 710.988281 292.84375 709.914062 C 292.707031 709.800781 292.511719 709.796875 292.367188 709.90625 C 292.203125 710.03125 292.171875 710.269531 292.300781 710.433594 C 293.324219 711.785156 294.410156 713.066406 295.476562 714.363281 L 298.691406 718.230469 L 301.933594 722.082031 C 302.761719 723.054688 303.59375 724.027344 304.4375 724.992188 C 304.15625 725.304688 303.90625 725.648438 303.710938 726.039062 L 303.320312 726.804688 L 317.050781 726.804688 L 314.4375 720.308594 C 313.042969 722.03125 310.957031 723.21875 308.492188 723.378906 Z M 135.96875 657.722656 L 135.96875 657.714844 Z M 135.96875 657.722656 "/></g></g></svg>