<?xml version="1.0" encoding="UTF-8"?><svg xmlns="http://www.w3.org/2000/svg" xmlns:xlink="http://www.w3.org/1999/xlink" contentScriptType="text/ecmascript" width="810pt" zoomAndPan="magnify" contentStyleType="text/css" viewBox="0 0 810 809.999993" height="809.999993pt" preserveAspectRatio="xMidYMid meet" version="1.2"><defs><clipPath xml:id="clip1" id="clip1"><path d="M 327 199 L 809.613281 199 L 809.613281 393 L 327 393 Z M 327 199 "/></clipPath><clipPath xml:id="clip2" id="clip2"><path d="M 18.011719 77 L 705.957031 77 L 705.957031 780.871094 L 18.011719 780.871094 Z M 18.011719 77 "/></clipPath></defs><g xml:id="surface1" id="surface1"><path style=" stroke:none;fill-rule:nonzero;fill:rgb(100%,100%,100%);fill-opacity:1;" d="M 360.320312 621.785156 L 379.355469 756.730469 C 381.4375 758.527344 384.601562 760.929688 388.5 763.628906 C 402.289062 772.773438 420.121094 779.820312 422.070312 776.671875 C 423.269531 774.871094 419.074219 770.375 415.777344 766.925781 C 410.082031 760.628906 403.921875 757.328125 400.039062 755.679688 C 401.835938 709.648438 403.785156 663.765625 405.585938 617.734375 C 398.988281 618.183594 392.394531 618.785156 385.800781 619.382812 C 377.257812 620.132812 368.699219 620.882812 360.320312 621.785156 Z M 292.125 591.796875 C 265.28125 629.28125 238.46875 666.765625 211.640625 704.25 C 213.140625 707.847656 215.238281 713.246094 217.636719 719.695312 C 223.929688 737.6875 225.429688 747.285156 226.929688 747.132812 C 228.277344 746.984375 229.476562 739.785156 229.175781 708.300781 C 266.347656 675.011719 303.5 641.726562 340.6875 608.4375 C 335.441406 609.039062 325.097656 609.636719 313.109375 605.140625 C 302.753906 601.542969 295.871094 595.542969 292.125 591.796875 Z M 666.375 724.34375 C 668.621094 726.140625 674.019531 731.089844 676.265625 739.488281 C 679.699219 752.382812 672.820312 762.878906 671.769531 764.527344 C 681.199219 752.082031 690.804688 739.488281 700.246094 727.042969 L 683.011719 708 Z M 552.300781 737.085938 C 552.464844 744.585938 552.617188 752.230469 552.765625 759.730469 C 539.5625 765.726562 526.386719 771.574219 513.199219 777.570312 C 517.695312 773.523438 523.988281 766.777344 529.070312 757.03125 C 532.980469 749.382812 534.78125 742.484375 535.816406 737.238281 L 552.300781 737.085938 "/><path style=" stroke:none;fill-rule:nonzero;fill:rgb(33.729553%,34.899902%,61.959839%);fill-opacity:1;" d="M 142.386719 57.109375 L 139.542969 37.316406 C 132.796875 36.414062 120.808594 35.664062 107.472656 40.613281 C 81.539062 50.214844 70.894531 73.300781 68.648438 78.25 C 67.601562 78.550781 48.566406 83.796875 47.214844 94.742188 C 46.019531 104.636719 60.105469 113.785156 70.148438 120.378906 C 73.894531 122.78125 78.839844 125.933594 85.738281 128.328125 C 102.667969 134.027344 118.109375 130.875 125.902344 128.480469 C 126.957031 126.828125 128.148438 124.433594 128.898438 121.285156 C 130.398438 114.984375 128.753906 109.738281 127.851562 107.488281 C 132.796875 90.695312 137.59375 73.898438 142.386719 57.105469 Z M 234.121094 344.09375 L 357.773438 317.554688 L 336.191406 451 L 336.191406 598.390625 L 310.113281 598.390625 C 304.867188 571.550781 297.820312 551.160156 292.261719 537.214844 C 287.765625 526.121094 279.835938 508.128906 277.4375 485.488281 C 277.136719 482.488281 276.523438 476.339844 276.238281 468.84375 C 275.488281 455.046875 275.9375 443.652344 276.238281 435.554688 L 262 471.84375 L 284.632812 582.496094 C 283.582031 582.648438 282.683594 582.949219 281.632812 583.097656 C 283.132812 588.195312 284.765625 593.445312 286.265625 598.542969 C 273.992188 604.6875 261.699219 610.835938 249.546875 616.984375 C 248.511719 616.382812 247.160156 615.484375 246.546875 613.984375 C 245.363281 610.6875 249.410156 606.9375 253.15625 602.140625 C 255.707031 598.839844 259.003906 593.894531 262 587.296875 C 265.449219 586.546875 269.03125 585.796875 272.492188 585.046875 C 274.441406 584.597656 276.238281 584.296875 278.1875 583.847656 C 271.742188 585.195312 265.449219 586.546875 259.003906 587.894531 C 245.214844 554.007812 235.621094 530.617188 229.925781 516.523438 C 221.382812 495.832031 217.484375 486.535156 215.6875 471.992188 C 213.738281 456.546875 215.238281 444.851562 219.882812 418.464844 C 223.316406 398.070312 227.976562 373.03125 234.121094 344.09375 "/><path style=" stroke:none;fill-rule:nonzero;fill:rgb(100%,100%,100%);fill-opacity:1;" d="M 64.007812 468.246094 C 52.765625 467.046875 43.023438 464.195312 35.078125 461.199219 C 36.277344 469.894531 37.328125 478.589844 38.527344 487.289062 C 34.628906 498.683594 30.878906 512.027344 28.480469 527.171875 C 23.539062 557.910156 25.335938 584.449219 28.480469 603.941406 L 45.117188 603.941406 C 48.710938 582.199219 52.765625 564.804688 55.761719 552.8125 C 60.558594 533.917969 64.152344 523.574219 67.601562 504.679688 C 70.445312 489.6875 71.644531 477.242188 72.394531 468.996094 C 69.695312 468.695312 67.003906 468.542969 64.007812 468.246094 Z M 114.660156 459.25 C 104.472656 459.847656 96.375 462.546875 91.128906 464.796875 C 92.179688 471.84375 93.378906 479.039062 94.425781 486.085938 C 89.632812 498.683594 84.835938 513.375 81.242188 530.019531 C 75.09375 558.660156 74.34375 584 75.246094 603.789062 L 90.679688 603.789062 C 99.074219 577.101562 107.617188 556.257812 114.0625 541.714844 C 120.65625 526.871094 127.101562 513.976562 131.144531 494.335938 C 133.847656 480.539062 134.296875 468.84375 134.296875 460.898438 C 129.503906 459.847656 122.757812 458.796875 114.660156 459.25 Z M 110.46875 131.328125 C 116.609375 130.878906 122.007812 129.828125 126.054688 128.480469 C 128.453125 129.53125 131 130.433594 133.394531 131.480469 C 136.996094 133.578125 141.789062 137.027344 146.132812 142.277344 C 156.484375 155.171875 155.871094 169.5625 156.785156 193.40625 C 157.234375 205.550781 158.117188 223.09375 160.367188 244.535156 L 206.082031 160.71875 C 212.074219 144.824219 215.824219 137.179688 217.320312 137.476562 C 218.386719 137.777344 218.386719 141.679688 217.320312 149.320312 C 236.222656 134.625 240.117188 135.230469 241.167969 136.277344 C 243.714844 138.679688 238.304688 150.222656 230.527344 157.71875 C 223.78125 164.167969 216.136719 166.714844 211.492188 167.765625 C 211.492188 167.765625 186.460938 240.9375 171.324219 274.824219 C 156.183594 308.710938 142.386719 286.667969 142.386719 286.667969 C 106.269531 287.417969 70 288.316406 33.878906 289.066406 C 35.972656 266.425781 37.328125 248.734375 38.074219 237.9375 C 41.21875 193.257812 41.371094 171.515625 56.511719 149.925781 C 59.808594 145.273438 62.953125 141.824219 64.902344 139.875 C 71.945312 135.980469 78.996094 132.078125 86.039062 128.183594 C 91.429688 130.128906 99.976562 131.933594 110.46875 131.328125 "/><path style=" stroke:none;fill-rule:nonzero;fill:rgb(81.959534%,79.60968%,92.939758%);fill-opacity:1;" d="M 310.710938 99.542969 C 314.90625 95.492188 322.238281 87.546875 326.148438 75.101562 C 328.097656 69.101562 330.195312 62.058594 327.945312 54.261719 C 324.199219 41.363281 310.113281 33.867188 299.46875 31.617188 C 288.230469 29.367188 286.878906 34.316406 262 37.019531 C 242.800781 38.96875 234.273438 37.765625 232.308594 42.410156 C 231.273438 44.964844 231.875 49.609375 241.917969 59.210938 C 247.296875 61.90625 252.707031 64.605469 258.101562 67.457031 Z M 456.542969 586.097656 C 453.996094 588.945312 451.597656 591.496094 449.199219 593.746094 C 435.261719 607.089844 422.371094 612.9375 413.226562 615.785156 C 402.136719 619.234375 400.039062 617.285156 360.320312 621.785156 C 331.84375 624.933594 331.542969 626.132812 325.234375 624.78125 C 305.464844 620.585938 302.753906 608.140625 281.335938 603.941406 C 269.195312 601.691406 266.945312 604.992188 252.859375 603.941406 C 239.367188 603.042969 223.929688 598.691406 207.144531 587.898438 C 220.320312 557.160156 237.121094 523.273438 258.703125 488.035156 C 262.285156 482.1875 266.03125 476.191406 269.945312 470.195312 C 274.738281 462.847656 279.6875 455.5 284.929688 448.152344 C 299.320312 427.761719 313.859375 409.320312 328.097656 392.675781 L 404.234375 390.277344 C 420.574219 451.152344 436.894531 512.027344 453.097656 572.902344 C 454.128906 577.25 455.34375 581.75 456.542969 586.097656 Z M 580.941406 452.203125 C 572.25 463.148438 563.40625 475.742188 555.300781 490.4375 C 526.820312 541.714844 520.828125 591.796875 520.078125 624.183594 C 524.140625 661.21875 528.035156 698.253906 532.066406 735.4375 C 533.730469 736.488281 536.128906 737.6875 539.277344 738.4375 C 547.371094 740.238281 553.964844 736.636719 555.914062 735.4375 C 564.292969 684.457031 572.535156 633.628906 580.941406 582.648438 L 594.582031 639.175781 L 661.128906 725.390625 C 663.210938 725.242188 670.421875 724.644531 676.566406 718.796875 C 680.761719 714.898438 682.410156 710.398438 683.160156 708.148438 C 679.863281 698.402344 674.167969 683.257812 664.574219 666.015625 C 652.4375 644.273438 646.589844 641.425781 643.894531 629.582031 C 639.394531 609.339844 650.636719 594.042969 665.324219 566.90625 C 674.316406 550.113281 685.695312 524.773438 693.1875 489.835938 C 686.609375 473.792969 680.164062 457.898438 673.570312 441.855469 C 661.878906 446.203125 645.839844 450.851562 626.355469 452.800781 C 608.371094 454.75 592.769531 453.851562 580.941406 452.203125 Z M 74.1875 134.777344 C 70.746094 149.921875 71.496094 162.21875 72.542969 170.015625 C 73.886719 180.058594 75.386719 189.957031 83.179688 194.753906 C 87.675781 197.453125 93.074219 197.601562 94.871094 197.753906 C 95.621094 197.753906 103.414062 197.902344 109.40625 194.15625 C 115.257812 190.40625 117.652344 183.957031 121.253906 163.265625 C 122.898438 154.117188 124.703125 142.273438 126.199219 128.628906 C 130.09375 130.578125 133.992188 132.527344 137.886719 134.476562 C 136.386719 206.898438 140.738281 265.074219 144.933594 304.808594 C 150.777344 359.839844 164.273438 453.550781 142.382812 461.199219 C 135.636719 463.597656 128.746094 456.699219 110.464844 460 C 104.613281 461.046875 103.265625 462.097656 86.628906 465.996094 C 74.492188 468.84375 71.496094 469.144531 68.191406 468.996094 C 66.25 468.996094 64 468.695312 48.5625 464.796875 C 35.074219 461.347656 35.21875 461.199219 31.921875 460.597656 C 18.585938 458.5 11.839844 462.246094 8.691406 461.199219 C 0.300781 458.347656 1.945312 417.117188 38.367188 264.328125 L 64.597656 140.027344 L 74.1875 134.777344 "/><path style=" stroke:none;fill-rule:nonzero;fill:rgb(81.959534%,79.60968%,92.939758%);fill-opacity:1;" d="M 254.957031 146.773438 C 263.199219 136.875 272.027344 129.53125 279.984375 124.128906 C 291.375 123.980469 302.753906 123.980469 314.308594 123.980469 C 319.851562 127.128906 330.195312 134.027344 338.722656 146.621094 C 347.714844 159.96875 349.964844 172.859375 350.578125 179.308594 C 354.324219 224.742188 358.074219 270.023438 361.820312 315.457031 L 339.789062 327.300781 L 309.496094 382.628906 L 284.480469 371.984375 L 303.066406 338.097656 C 276.386719 340.496094 249.546875 342.894531 222.882812 345.292969 C 220.933594 299.113281 223.78125 260.578125 227.0625 232.390625 C 232.175781 188.457031 239.054688 166.113281 254.957031 146.773438 "/><path style=" stroke:none;fill-rule:nonzero;fill:rgb(100%,100%,100%);fill-opacity:1;" d="M 288.078125 373.332031 C 280.433594 380.828125 277.136719 385.476562 278.335938 387.277344 C 279.085938 388.476562 281.769531 388.476562 286.429688 387.277344 C 275.339844 405.121094 275.773438 408.570312 276.839844 409.46875 C 279.085938 411.417969 288.976562 404.070312 295.125 397.921875 C 301.253906 391.777344 304.867188 385.628906 306.964844 381.28125 C 300.503906 378.730469 294.222656 376.03125 288.078125 373.332031 Z M 262 60.257812 C 259.453125 64.007812 255.855469 70.304688 254.789062 78.703125 C 253.457031 89.949219 256.605469 107.039062 267.84375 111.382812 C 272.191406 113.035156 276.523438 112.4375 279.6875 111.382812 L 279.6875 123.832031 C 282.082031 125.480469 287.328125 128.78125 294.824219 129.230469 C 304.714844 129.980469 311.910156 125.332031 314.15625 123.832031 C 314.308594 117.082031 313.558594 111.382812 312.660156 107.488281 C 312.058594 104.941406 311.460938 102.242188 310.5625 99.390625 C 309.210938 95.042969 307.414062 91.296875 305.75 88.144531 C 307.863281 83.5 306.5 78.097656 302.753906 75.101562 C 299.46875 72.398438 294.824219 71.953125 290.925781 73.898438 C 290.011719 71.804688 287.480469 66.402344 281.484375 62.652344 C 272.777344 57.257812 263.5 59.808594 262 60.257812 Z M 140.140625 49.609375 C 141.636719 54.109375 143.441406 60.710938 144.335938 68.652344 C 145.238281 77.347656 147.488281 99.242188 136.390625 105.691406 C 134.59375 106.738281 131.453125 107.941406 126.648438 107.335938 C 125.007812 108.691406 123.355469 110.039062 121.710938 111.382812 C 122.605469 109.585938 123.507812 106.886719 123.957031 103.441406 C 124.554688 97.742188 122.757812 93.246094 121.710938 91.140625 C 123.652344 89.496094 127.253906 86.046875 129.503906 80.5 C 132.203125 73.601562 131.453125 67.601562 131 65.054688 C 132.203125 64.457031 133.546875 63.554688 134.894531 62.207031 C 139.542969 57.710938 139.992188 51.710938 140.140625 49.609375 "/><path style=" stroke:none;fill-rule:nonzero;fill:rgb(33.729553%,34.899902%,61.959839%);fill-opacity:1;" d="M 348.929688 238.085938 C 337.089844 234.9375 328.097656 225.640625 325.699219 213.945312 C 323.152344 201.050781 328.980469 187.707031 340.535156 180.660156 C 329.445312 181.710938 319.988281 174.8125 318.488281 166.417969 C 316.992188 157.117188 325.398438 149.617188 330.945312 146.621094 C 332.144531 146.023438 342.183594 140.777344 351.925781 146.175781 C 360.019531 150.671875 364.367188 160.417969 362.570312 170.609375 C 370.949219 165.214844 381.304688 165.066406 389.097656 170.015625 C 397.175781 175.261719 398.988281 184.109375 399.289062 185.757812 C 394.042969 200.75 388.648438 215.597656 383.402344 230.589844 Z M 723.027344 431.507812 C 723.027344 430.011719 720.914062 422.0625 716.734375 406.167969 C 715.386719 401.371094 711.636719 386.976562 701.296875 353.390625 C 691.554688 321.902344 690.054688 318.605469 686.308594 314.554688 C 674.769531 302.109375 657.964844 299.261719 647.476562 298.664062 C 642.542969 299.863281 636.847656 301.0625 630.402344 301.660156 C 622.910156 302.410156 616.164062 302.261719 610.621094 301.8125 C 606.871094 268.824219 603.125 235.988281 599.378906 203 C 600.878906 179.011719 601.328125 153.070312 600.261719 125.332031 C 599.679688 110.488281 598.765625 96.242188 597.429688 82.449219 C 593.832031 81.699219 589.335938 80.949219 583.941406 80.800781 C 578.246094 80.800781 573.449219 81.550781 569.703125 82.449219 C 566.703125 117.535156 564.90625 155.769531 564.90625 196.554688 C 565.042969 244.382812 567.753906 288.464844 572.101562 328.5 C 573.75 356.089844 572.398438 378.429688 570.453125 394.324219 C 568.351562 412.015625 566.105469 420.414062 571.652344 426.863281 C 576.597656 432.558594 585.589844 434.058594 627.855469 428.511719 C 646.441406 426.113281 661.878906 423.414062 673.417969 421.3125 L 673.417969 407.371094 L 688.105469 431.210938 L 639.695312 527.472656 L 653.933594 536.617188 C 660.214844 529.421875 668.773438 519.523438 678.515625 507.679688 C 719.28125 458.347656 723.476562 444.105469 723.027344 431.507812 "/><path style=" stroke:none;fill-rule:nonzero;fill:rgb(100%,100%,100%);fill-opacity:1;" d="M 644.042969 530.46875 C 641.046875 532.417969 635.648438 536.46875 631.601562 543.664062 C 628.90625 548.613281 627.707031 553.261719 627.242188 556.410156 C 626.492188 559.257812 626.804688 560.15625 627.242188 560.308594 C 628.90625 561.207031 633.851562 551.910156 643.726562 543.816406 C 647.789062 540.515625 651.535156 538.265625 654.21875 536.917969 C 650.785156 534.816406 647.339844 532.71875 644.042969 530.46875 Z M 574.199219 81.847656 C 570.75 78.101562 566.105469 72.402344 561.757812 64.757812 C 556.796875 56.0625 550.054688 41.21875 552.914062 39.117188 C 554.714844 37.914062 560.859375 41.21875 580.945312 62.960938 C 582.441406 56.210938 583.777344 52.761719 584.988281 52.910156 C 586.9375 53.0625 588.273438 62.507812 589.1875 81.25 C 584.242188 81.398438 579.144531 81.550781 574.199219 81.847656 "/><g clip-rule="nonzero" clip-path="url(#clip1)"><path style=" stroke:none;fill-rule:nonzero;fill:rgb(81.959534%,79.60968%,92.939758%);fill-opacity:1;" d="M 602.675781 264.027344 C 617.664062 271.523438 632.488281 279.019531 647.476562 286.515625 C 663.828125 289.816406 676.867188 288.917969 686.757812 286.96875 C 700.398438 284.269531 703.542969 280.371094 714.921875 279.769531 C 732.769531 279.019531 737.402344 288.015625 752.253906 289.667969 C 781.332031 292.816406 812.804688 263.425781 809.34375 251.582031 C 808.160156 247.53125 802.765625 245.734375 791.972656 242.136719 C 779.683594 238.085938 768.878906 237.488281 761.847656 237.785156 C 747.757812 223.242188 735.019531 218.59375 726.160156 216.796875 C 705.042969 212.597656 692.601562 222.792969 669.523438 217.996094 C 656.183594 215.144531 646.289062 208.847656 640.296875 204.351562 C 637.148438 203 616.75 194.304688 596.980469 204.648438 C 589.023438 208.847656 584.089844 214.546875 581.242188 218.59375 L 583.492188 233.289062 Z M 327.945312 392.675781 C 329.144531 366.585938 330.34375 340.644531 331.542969 314.554688 C 345.035156 309.90625 361.371094 305.558594 380.253906 302.410156 C 398.390625 299.5625 414.726562 298.511719 428.652344 298.664062 C 428.515625 311.855469 427.015625 329.851562 421.15625 350.242188 C 416.375 366.734375 409.914062 380.230469 404.234375 390.277344 L 327.945312 392.675781 "/></g><path style=" stroke:none;fill-rule:nonzero;fill:rgb(100%,100%,100%);fill-opacity:1;" d="M 512.582031 242.886719 C 510.5 253.378906 506.753906 261.628906 503.90625 267.023438 C 502.09375 280.21875 499.257812 298.960938 495.210938 321.753906 C 486.96875 368.535156 482.773438 379.78125 474.230469 382.480469 C 464.9375 385.476562 453.84375 376.78125 444.851562 369.734375 C 432.710938 360.289062 426.269531 349.34375 423.121094 342.746094 C 424.902344 328.050781 426.867188 313.355469 428.652344 298.8125 L 331.542969 314.554688 L 329.894531 392.675781 C 348.929688 377.230469 367.949219 361.789062 387 346.34375 C 395.542969 329.699219 400.789062 321.753906 402.886719 322.503906 C 403.921875 322.953125 404.085938 325.953125 403.335938 331.648438 C 419.222656 315.304688 422.519531 315.457031 423.570312 316.207031 C 426.117188 318.003906 421.769531 330.449219 414.128906 339.144531 C 406.917969 347.242188 398.242188 350.691406 393.144531 352.191406 C 389.996094 359.539062 384.75 369.882812 376.507812 381.128906 C 366.316406 394.773438 352.078125 408.867188 338.589844 418.015625 C 332.445312 422.214844 326.597656 425.363281 321.203125 427.160156 C 314.90625 429.261719 309.363281 429.410156 305.316406 427.011719 C 299.917969 423.863281 298.570312 416.367188 295.722656 401.371094 C 293.757812 391.175781 292.875 379.03125 295.257812 356.988281 C 296.621094 344.246094 299.320312 326.851562 304.714844 306.609375 C 310.5625 298.664062 317.605469 289.816406 326.148438 280.820312 C 333.941406 272.574219 341.585938 265.675781 348.78125 259.828125 C 348.929688 252.632812 349.078125 245.285156 349.214844 238.085938 L 355.523438 229.390625 C 353.710938 225.492188 354.777344 220.84375 357.921875 218.292969 C 360.457031 216.195312 364.203125 215.746094 367.367188 217.09375 C 371.113281 214.847656 375.160156 212.148438 379.191406 208.847656 C 388.796875 201.050781 395.242188 192.65625 399.425781 185.90625 C 401.238281 191.605469 403.484375 200.152344 403.785156 210.496094 C 404.234375 222.492188 404.671875 235.988281 396.292969 241.835938 C 394.492188 243.035156 389.398438 246.035156 379.65625 243.785156 C 378.757812 245.285156 377.109375 248.734375 377.257812 253.230469 C 377.40625 256.230469 378.15625 258.480469 378.90625 259.976562 C 388.347656 261.628906 397.925781 263.277344 407.382812 264.777344 C 411.128906 265.375 414.878906 265.976562 418.625 266.726562 C 422.070312 270.773438 425.519531 274.972656 428.964844 279.46875 C 445.886719 301.660156 457.742188 323.851562 466.121094 344.09375 C 474.828125 317.703125 483.523438 291.316406 492.351562 264.925781 C 493.265625 260.277344 494.464844 253.378906 494.761719 244.984375 C 495.210938 233.589844 494.011719 225.34375 495.210938 225.191406 C 495.8125 225.042969 496.847656 226.992188 499.558594 236.289062 C 507.054688 215.296875 510.5 211.398438 512.296875 211.699219 C 515.144531 212.148438 515.445312 228.941406 512.582031 242.886719 Z M 673.570312 421.613281 C 655.882812 425.660156 635.648438 428.960938 613.46875 430.609375 C 602.078125 431.507812 591.269531 431.808594 580.941406 431.808594 C 581.84375 434.207031 583.191406 438.558594 582.890625 443.953125 C 582.59375 447.402344 581.84375 450.253906 580.941406 452.351562 C 592.769531 454 608.371094 455.050781 626.355469 453.101562 C 645.691406 451.152344 661.714844 446.503906 673.570312 442.15625 C 672.820312 439.757812 672.070312 436.308594 671.921875 432.109375 C 671.921875 427.609375 672.820312 424.011719 673.570312 421.613281 Z M 633.402344 276.023438 C 622.460938 265.375 618.113281 253.230469 616.164062 246.632812 C 613.753906 246.933594 605.222656 247.53125 596.832031 241.835938 C 588.4375 236.136719 585.589844 228.039062 584.988281 225.792969 C 583.492188 230.890625 581.992188 237.488281 581.394531 245.433594 C 580.644531 255.628906 579.144531 277.222656 590.386719 284.71875 C 594.269531 287.417969 597.128906 286.515625 602.226562 290.714844 C 606.722656 294.3125 609.121094 298.8125 610.46875 301.960938 C 615.414062 302.410156 621.246094 302.410156 627.707031 301.960938 C 635.199219 301.363281 641.792969 300.160156 647.339844 298.8125 L 647.339844 286.515625 C 643.292969 284.117188 638.347656 280.820312 633.402344 276.023438 "/><path style=" stroke:none;fill-rule:nonzero;fill:rgb(81.959534%,79.60968%,92.939758%);fill-opacity:1;" d="M 391.347656 406.019531 C 385.351562 406.019531 380.554688 410.96875 380.554688 416.964844 C 380.554688 422.964844 385.351562 427.761719 391.347656 427.761719 C 397.339844 427.761719 402.136719 422.964844 402.136719 416.964844 C 402.136719 410.96875 397.339844 406.019531 391.347656 406.019531 Z M 368.863281 576.652344 C 362.867188 576.652344 358.074219 581.449219 358.074219 587.449219 C 358.074219 593.445312 362.867188 598.394531 368.863281 598.394531 C 374.859375 598.394531 379.804688 593.445312 379.804688 587.449219 C 379.804688 581.449219 374.859375 576.652344 368.863281 576.652344 Z M 249.109375 572.152344 C 243.117188 572.152344 238.304688 577.101562 238.304688 583.097656 C 238.304688 589.097656 243.117188 593.894531 249.109375 593.894531 C 255.105469 593.894531 260.035156 589.097656 260.035156 583.097656 C 260.035156 577.101562 255.105469 572.152344 249.109375 572.152344 Z M 391.347656 469.59375 C 385.351562 469.59375 380.554688 474.390625 380.554688 480.390625 C 380.554688 486.386719 385.351562 491.335938 391.347656 491.335938 C 397.339844 491.335938 402.136719 486.386719 402.136719 480.390625 C 402.136719 474.390625 397.339844 469.59375 391.347656 469.59375 Z M 453.097656 572.902344 C 451.882812 572.453125 450.546875 572.152344 449.199219 572.152344 C 443.203125 572.152344 438.394531 577.101562 438.394531 583.097656 C 438.394531 589.097656 443.203125 593.894531 449.199219 593.894531 L 449.347656 593.894531 C 451.746094 591.496094 454.296875 588.945312 456.691406 586.246094 C 455.34375 581.75 454.128906 577.25 453.097656 572.902344 Z M 320.902344 518.625 C 314.90625 518.625 309.960938 523.421875 309.960938 529.421875 C 309.960938 535.417969 314.742188 540.367188 320.902344 540.367188 C 326.898438 540.367188 331.695312 535.417969 331.695312 529.421875 C 331.695312 523.421875 326.898438 518.625 320.902344 518.625 Z M 269.945312 470.195312 L 258.703125 488.035156 C 260.652344 489.984375 263.347656 491.335938 266.496094 491.335938 C 272.492188 491.335938 277.4375 486.386719 277.4375 480.390625 C 277.136719 475.59375 274.140625 471.695312 269.945312 470.195312 Z M 598.628906 143.023438 C 598.480469 142.871094 598.328125 142.726562 598.179688 142.726562 L 598.015625 142.726562 C 597.878906 142.726562 597.878906 142.871094 597.730469 142.871094 C 596.515625 142.273438 593.832031 141.371094 593.519531 141.371094 C 590.683594 140.925781 587.835938 140.621094 584.988281 140.476562 C 579.144531 140.027344 572.851562 139.277344 567.15625 140.777344 C 565.957031 141.074219 565.789062 143.175781 567.15625 143.472656 C 575.097656 144.824219 583.941406 143.925781 592.019531 144.371094 C 592.335938 144.523438 599.679688 145.722656 598.628906 143.023438 Z M 600.425781 131.929688 C 593.382812 129.078125 586.640625 127.28125 578.996094 127.28125 C 575.996094 127.28125 567.15625 126.828125 565.503906 129.980469 C 564.90625 131.03125 565.957031 132.679688 567.15625 132.230469 L 567.289062 132.230469 C 567.453125 132.230469 567.453125 132.230469 567.605469 132.078125 C 570.285156 130.730469 573.898438 130.429688 577.347656 130.429688 C 579.59375 130.429688 581.84375 130.578125 583.777344 130.730469 C 589.1875 131.03125 594.730469 131.777344 599.976562 133.429688 C 601.011719 133.578125 601.328125 132.230469 600.425781 131.929688 Z M 597.878906 116.9375 C 588.738281 113.9375 577.347656 115.585938 568.203125 117.6875 C 566.253906 118.132812 567.003906 121.128906 569.101562 120.832031 C 578.695312 119.035156 588.4375 119.632812 598.015625 117.984375 C 598.328125 117.832031 598.179688 117.082031 597.878906 116.9375 Z M 599.078125 105.089844 C 589.335938 102.839844 579.59375 102.539062 569.703125 103.289062 C 567.453125 103.441406 567.453125 106.886719 569.703125 106.738281 C 579.445312 105.988281 589.1875 106.289062 598.929688 106.738281 C 599.679688 106.738281 599.976562 105.238281 599.078125 105.089844 Z M 597.429688 94.59375 C 588.4375 92.195312 578.394531 90.394531 569.253906 92.496094 C 567.753906 92.792969 568.203125 95.042969 569.539062 95.042969 C 578.84375 95.195312 587.6875 94.292969 597.128906 95.792969 C 597.878906 95.945312 598.328125 94.742188 597.429688 94.59375 Z M 597.878906 81.550781 C 594.882812 78.703125 589.769531 78.550781 585.738281 78.550781 C 580.34375 78.398438 574.949219 79 569.703125 80.347656 C 566.105469 81.25 568.503906 86.347656 571.199219 85.296875 C 575.996094 84.394531 580.777344 83.5 585.738281 83.5 C 589.636719 83.5 593.984375 84.394531 597.429688 82.894531 C 598.015625 82.597656 598.328125 82 597.878906 81.550781 Z M 685.859375 496.582031 C 678.066406 492.984375 670.871094 487.585938 663.675781 482.789062 C 662.027344 481.738281 660.378906 484.4375 662.027344 485.488281 C 666.675781 488.335938 671.171875 491.335938 675.816406 494.035156 C 678.816406 495.832031 681.8125 497.933594 685.558594 497.78125 C 686.160156 497.933594 686.445312 496.882812 685.859375 496.582031 Z M 678.949219 506.78125 C 672.519531 501.53125 666.210938 495.984375 659.78125 490.734375 C 658.132812 489.238281 655.582031 491.785156 657.21875 493.136719 C 663.675781 498.683594 670.570312 503.628906 677.914062 508.128906 C 678.664062 508.578125 679.699219 507.378906 678.949219 506.78125 Z M 672.820312 514.277344 C 669.957031 511.128906 666.824219 508.128906 663.675781 505.128906 C 661.128906 502.730469 658.582031 499.582031 655.285156 498.382812 C 654.382812 498.082031 653.785156 499.132812 654.085938 499.882812 C 655.71875 503.179688 659.78125 505.730469 662.628906 508.128906 C 665.625 510.679688 668.773438 513.226562 671.921875 515.476562 C 672.667969 515.925781 673.269531 514.875 672.820312 514.277344 Z M 666.824219 521.625 C 664.875 519.375 661.878906 517.875 659.332031 516.226562 C 656.46875 514.425781 653.46875 512.628906 650.472656 510.976562 C 648.972656 510.226562 647.789062 512.328125 649.136719 513.226562 L 658.132812 518.175781 C 660.828125 519.675781 663.378906 521.773438 666.210938 522.671875 C 666.960938 522.671875 667.273438 522.074219 666.824219 521.625 Z M 661.128906 527.019531 C 655.433594 524.171875 649.589844 521.773438 643.59375 519.375 C 642.230469 518.773438 641.644531 521.171875 642.976562 521.625 C 648.839844 523.722656 654.535156 525.972656 660.214844 528.519531 C 661.277344 528.96875 662.179688 527.472656 661.128906 527.019531 Z M 654.085938 535.867188 C 652.886719 533.917969 650.472656 532.570312 648.539062 531.519531 C 646.289062 530.171875 643.726562 529.269531 641.644531 527.769531 C 639.230469 525.972656 636.699219 530.171875 639.230469 531.96875 C 641.34375 533.320312 644.042969 534.367188 646.441406 535.417969 C 648.539062 536.316406 651.085938 537.667969 653.335938 537.515625 C 653.933594 537.21875 654.535156 536.46875 654.085938 535.867188 Z M 672.371094 418.914062 C 665.324219 421.015625 659.03125 423.5625 651.835938 424.761719 C 642.84375 426.261719 633.699219 427.160156 624.558594 427.910156 C 616.464844 428.660156 608.507812 429.109375 600.425781 429.261719 C 593.683594 429.410156 586.339844 428.359375 580.195312 431.058594 C 579.746094 431.210938 579.746094 432.109375 580.195312 432.410156 C 586.640625 435.558594 594.882812 434.507812 601.925781 434.507812 C 610.917969 434.359375 619.910156 433.910156 628.90625 433.160156 C 643.726562 431.960938 661.429688 431.359375 674.316406 423.113281 C 676.265625 421.914062 674.917969 418.164062 672.371094 418.914062 Z M 646.289062 298.363281 C 634.734375 298.960938 623.660156 303.910156 611.96875 300.3125 C 610.46875 299.863281 609.71875 301.960938 610.917969 302.859375 C 619.613281 309.007812 638.199219 307.058594 647.339844 302.410156 C 649.289062 301.363281 648.390625 298.210938 646.289062 298.363281 Z M 592.484375 298.960938 C 590.085938 302.410156 587.6875 305.710938 585.273438 309.007812 C 582.890625 312.308594 579.894531 315.457031 577.945312 318.90625 C 577.195312 320.253906 578.996094 321.601562 580.027344 320.554688 C 585.890625 315.15625 590.234375 306.757812 594.132812 299.863281 C 594.730469 298.8125 593.082031 297.914062 592.484375 298.960938 Z M 674.617188 405.570312 C 669.671875 385.777344 667.421875 365.835938 664.277344 345.742188 C 664.125 344.992188 662.777344 345.144531 662.925781 345.894531 C 663.675781 356.988281 664.710938 368.085938 665.625 379.179688 C 666.523438 388.476562 667.125 398.523438 671.921875 406.621094 C 672.820312 408.117188 675.066406 407.21875 674.617188 405.570312 Z M 338.4375 418.015625 C 332.292969 422.214844 326.449219 425.363281 321.050781 427.160156 C 321.351562 432.859375 325.984375 437.507812 331.84375 437.507812 C 337.839844 437.507812 342.636719 432.710938 342.636719 426.710938 C 342.636719 423.113281 340.972656 419.964844 338.4375 418.015625 "/><g clip-rule="nonzero" clip-path="url(#clip2)"><path style=" stroke:none;fill-rule:nonzero;fill:rgb(33.729553%,34.899902%,61.959839%);fill-opacity:1;" d="M 121.710938 323.703125 C 122.757812 322.652344 121.257812 321.152344 120.058594 322.054688 C 118.261719 323.550781 116.761719 325.203125 115.410156 327.152344 C 114.363281 328.800781 112.863281 331.050781 113.3125 333 C 113.464844 334.046875 114.8125 334.199219 115.5625 333.597656 C 116.90625 332.398438 117.214844 330.148438 118.109375 328.652344 C 119.011719 326.851562 120.210938 325.203125 121.710938 323.703125 Z M 41.523438 330.898438 C 42.570312 332.550781 44.070312 335.246094 46.167969 335.097656 C 47.070312 335.097656 47.664062 334.5 47.664062 333.597656 C 47.816406 331.648438 45.714844 330.148438 44.820312 328.652344 C 43.621094 326.851562 42.570312 325.050781 41.824219 323.253906 C 40.921875 321.304688 37.777344 322.652344 38.527344 324.601562 C 39.277344 326.703125 40.171875 328.800781 41.523438 330.898438 Z M 25.933594 431.507812 C 23.089844 434.207031 19.792969 437.808594 18.890625 441.855469 C 18.4375 443.65625 20.839844 444.855469 22.039062 443.203125 C 24.136719 440.054688 25.480469 436.609375 28.179688 433.757812 C 29.535156 432.257812 27.429688 430.160156 25.933594 431.507812 Z M 80.042969 447.253906 C 82.136719 445.453125 83.039062 442.457031 84.238281 440.054688 C 85.585938 437.355469 86.933594 434.507812 88.285156 431.808594 C 89.179688 430.160156 86.632812 428.660156 85.738281 430.308594 C 84.238281 433.160156 82.589844 436.007812 80.9375 438.707031 C 79.589844 441.105469 77.792969 443.503906 77.496094 446.203125 C 77.34375 447.554688 79.140625 448.003906 80.042969 447.253906 Z M 130.398438 420.714844 C 129.503906 418.765625 126.207031 420.113281 126.957031 422.214844 C 128.753906 427.460938 130.398438 433.308594 133.097656 438.257812 C 134.296875 440.507812 138.042969 439.007812 137.292969 436.457031 C 135.796875 431.058594 132.796875 425.660156 130.398438 420.714844 Z M 96.527344 396.273438 C 98.324219 394.625 99.226562 391.476562 100.421875 389.375 C 101.773438 386.828125 103.273438 384.429688 104.917969 382.027344 C 105.820312 380.828125 103.722656 379.179688 102.820312 380.378906 C 101.023438 382.777344 99.226562 385.179688 97.578125 387.726562 C 96.230469 389.976562 94.28125 392.675781 94.28125 395.375 C 94.28125 396.574219 95.625 397.023438 96.527344 396.273438 Z M 62.054688 403.921875 C 61.453125 402.722656 59.511719 403.621094 59.808594 404.820312 C 60.855469 408.570312 61.453125 413.066406 63.554688 416.367188 C 64.757812 418.316406 67.449219 416.964844 67.148438 414.867188 C 66.398438 410.96875 63.855469 407.371094 62.054688 403.921875 Z M 28.332031 405.71875 C 30.582031 404.21875 31.332031 401.371094 32.53125 399.121094 C 33.878906 396.273438 35.375 393.425781 36.722656 390.574219 C 37.472656 389.226562 35.375 388.027344 34.628906 389.375 C 32.976562 392.074219 31.332031 394.773438 29.832031 397.472656 C 28.480469 399.722656 26.535156 401.972656 26.535156 404.671875 C 26.382812 405.570312 27.429688 406.320312 28.332031 405.71875 Z M 127.253906 369.882812 C 125.753906 364.1875 121.855469 358.9375 118.710938 354.140625 C 117.65625 352.640625 115.5625 353.992188 116.3125 355.488281 C 118.859375 360.585938 120.65625 366.433594 123.652344 371.234375 C 124.851562 373.332031 127.851562 372.132812 127.253906 369.882812 Z M 74.644531 349.492188 C 72.847656 352.640625 70.894531 355.640625 69.097656 358.789062 C 67.449219 361.488281 65.351562 364.335938 64.601562 367.484375 C 64.304688 368.835938 65.949219 369.882812 67.003906 368.835938 C 69.253906 366.585938 70.597656 363.285156 72.097656 360.4375 C 73.75 357.289062 75.394531 353.992188 77.042969 350.839844 C 77.792969 349.34375 75.546875 347.992188 74.644531 349.492188 Z M 122.757812 219.792969 C 123.652344 221.59375 124.257812 223.84375 126.054688 224.890625 C 126.804688 225.34375 128.003906 224.890625 128.148438 223.992188 C 128.601562 221.894531 127.253906 219.945312 126.207031 218.144531 C 125.007812 216.046875 123.652344 213.945312 122.304688 211.996094 C 121.105469 210.347656 118.40625 211.847656 119.460938 213.648438 C 120.65625 215.746094 121.710938 217.695312 122.757812 219.792969 Z M 106.722656 293.714844 C 104.917969 296.414062 102.976562 299.113281 100.871094 301.660156 C 99.375 303.609375 97.125 305.410156 96.828125 307.808594 C 96.675781 308.558594 97.730469 309.160156 98.324219 309.007812 C 100.726562 308.257812 102.371094 305.261719 103.722656 303.3125 C 105.667969 300.613281 107.320312 297.914062 109.117188 295.0625 C 110.316406 293.566406 107.769531 292.214844 106.722656 293.714844 Z M 55.761719 296.261719 C 57.109375 298.511719 58.308594 301.363281 60.855469 302.410156 C 61.605469 302.710938 62.507812 301.960938 62.355469 301.210938 C 62.203125 298.511719 59.808594 296.261719 58.453125 294.015625 C 56.65625 291.316406 55.015625 288.464844 53.515625 285.46875 C 52.613281 283.820312 50.363281 285.316406 51.113281 286.96875 C 52.460938 290.117188 53.957031 293.265625 55.761719 296.261719 Z M 91.734375 259.828125 C 94.128906 258.628906 95.175781 255.179688 96.675781 253.082031 C 98.625 250.382812 100.871094 247.984375 103.417969 245.734375 C 104.472656 244.835938 102.976562 242.886719 101.921875 243.785156 C 99.226562 245.882812 96.527344 248.132812 94.28125 250.832031 C 92.484375 252.929688 89.484375 256.078125 89.785156 258.929688 C 89.929688 259.679688 90.832031 260.277344 91.734375 259.828125 Z M 64.601562 223.242188 C 66.398438 222.644531 67.601562 220.992188 68.648438 219.496094 C 70 217.84375 71.195312 216.046875 72.394531 214.246094 C 73.296875 213.046875 71.347656 211.546875 70.300781 212.597656 C 68.800781 214.097656 67.300781 215.746094 65.804688 217.394531 C 64.601562 218.894531 63.257812 220.242188 62.953125 222.191406 C 62.953125 222.792969 63.855469 223.394531 64.601562 223.242188 Z M 630.234375 284.417969 C 625.453125 288.015625 619.605469 288.617188 614.359375 291.015625 C 613.609375 291.316406 614.210938 292.363281 614.960938 292.363281 C 618.242188 291.914062 621.40625 290.714844 624.550781 289.816406 C 627.101562 289.066406 629.484375 288.316406 631.730469 286.96875 C 633.230469 285.917969 631.597656 283.367188 630.234375 284.417969 Z M 290.621094 108.386719 C 294.21875 108.089844 301.113281 107.339844 302.613281 103.140625 C 302.910156 102.390625 301.863281 101.640625 301.246094 102.09375 C 299.613281 103.292969 298.25 104.195312 296.167969 104.792969 C 294.066406 105.390625 292.121094 105.992188 290.171875 106.890625 C 289.570312 107.195312 289.871094 108.386719 290.621094 108.386719 Z M 292.71875 79.601562 C 294.96875 79.003906 297.5 77.957031 299.464844 79.753906 C 298.863281 80.203125 298.566406 80.953125 298.25 81.550781 C 297.964844 82.300781 297.367188 82.898438 296.914062 83.5 C 296.617188 83.800781 297.214844 84.25 297.5 84.101562 C 298.25 83.648438 298.863281 83.203125 299.464844 82.601562 C 299.75 82.300781 300.214844 82.003906 300.5 81.703125 C 300.8125 83.050781 300.664062 84.550781 300.5 85.898438 C 300.363281 87.550781 303.210938 87.703125 303.210938 85.898438 C 303.210938 83.050781 302.613281 79.601562 299.914062 78.101562 C 297.816406 76.902344 293.753906 76.601562 291.820312 78.101562 C 291.21875 78.851562 291.96875 79.753906 292.71875 79.601562 Z M 230.804688 223.394531 C 246.542969 220.996094 256.148438 191.160156 239.046875 184.261719 C 238.164062 183.8125 237.546875 185.3125 238.296875 185.910156 C 246.707031 191.308594 245.792969 201.203125 241.761719 209 C 238.914062 214.699219 235.015625 217.546875 229.304688 220.246094 C 227.671875 221.148438 229.171875 223.695312 230.804688 223.394531 Z M 229.46875 247.984375 C 247.90625 247.835938 258.996094 225.644531 262.59375 210.5 C 266.339844 194.90625 264.691406 172.417969 247.007812 165.816406 C 245.792969 165.367188 245.359375 167.019531 246.257812 167.769531 C 262.144531 178.261719 262.59375 196.257812 257.347656 213.050781 C 255.101562 220.398438 251.789062 227.445312 246.542969 233.292969 C 241.296875 239.140625 235.300781 241.238281 228.554688 244.386719 C 226.621094 245.136719 227.671875 247.984375 229.46875 247.984375 Z M 297.816406 327.304688 C 272.484375 327.753906 246.40625 332.550781 221.675781 337.5 C 218.679688 338.101562 219.878906 342.746094 223.027344 342.148438 C 247.90625 337.351562 273.234375 334.203125 298.113281 329.253906 C 299.164062 328.953125 298.863281 327.304688 297.816406 327.304688 Z M 294.816406 129.234375 C 301.5625 129.082031 307.707031 124.734375 314.152344 124.882812 C 315.484375 124.882812 316.398438 122.9375 315.351562 122.035156 C 311.902344 119.039062 308.605469 121.585938 304.859375 122.785156 C 296.617188 125.632812 289.121094 126.082031 281.015625 122.335938 C 279.828125 121.734375 278.332031 123.234375 279.515625 124.285156 C 283.578125 128.035156 289.257812 129.378906 294.816406 129.234375 Z M 306.65625 197.15625 C 306.492188 196.105469 304.996094 196.554688 305.160156 197.605469 C 307.855469 212.148438 310.40625 226.542969 312.488281 241.238281 C 314.601562 255.78125 315.484375 270.777344 318.796875 285.019531 C 319.097656 286.671875 321.796875 286.371094 321.796875 284.570312 C 321.347656 270.476562 318.050781 255.78125 315.484375 241.839844 C 312.804688 226.996094 309.804688 212 306.65625 197.15625 Z M 364.0625 273.925781 C 371.257812 274.523438 380.097656 268.976562 380.546875 261.332031 C 380.683594 259.832031 378.433594 259.679688 378.152344 261.03125 C 373.804688 274.824219 354.621094 273.175781 348.324219 262.230469 C 348.023438 261.78125 347.125 261.929688 347.277344 262.53125 C 348.023438 269.726562 357.765625 273.476562 364.0625 273.925781 Z M 426.261719 298.964844 C 421.464844 299.117188 416.519531 299.863281 411.722656 300.765625 C 411.273438 299.714844 410.660156 298.664062 410.226562 297.617188 C 409.476562 295.816406 409.027344 293.867188 408.574219 291.917969 C 408.410156 291.320312 407.378906 291.46875 407.378906 292.066406 C 407.660156 294.917969 408.277344 298.367188 409.476562 301.363281 C 400.03125 303.3125 390.425781 305.863281 381.148438 307.511719 C 364.660156 310.359375 348.175781 312.609375 331.6875 314.410156 C 331.539062 310.660156 331.222656 307.0625 330.789062 303.761719 C 330.789062 303.3125 330.039062 303.164062 330.039062 303.613281 C 328.976562 311.558594 327.792969 320.855469 328.976562 328.804688 C 329.140625 329.703125 330.472656 329.554688 330.640625 328.804688 C 331.386719 325.65625 331.6875 322.207031 331.835938 318.609375 C 347.875 316.808594 363.761719 314.558594 379.5 311.558594 C 394.789062 308.710938 412.472656 306.613281 426.710938 300.015625 C 426.863281 299.566406 426.710938 298.964844 426.261719 298.964844 Z M 675.660156 719.246094 C 678.808594 716.546875 681.804688 712.800781 682.253906 708.453125 C 682.40625 707.550781 681.058594 706.953125 680.308594 707.703125 C 677.609375 710.550781 675.511719 713.699219 672.511719 715.949219 C 670.863281 717.148438 669.203125 718.046875 667.269531 718.796875 C 665.769531 719.398438 664.570312 719.546875 663.820312 721.195312 C 663.371094 721.945312 663.671875 722.847656 664.421875 723.296875 C 667.867188 725.546875 673.113281 721.347656 675.660156 719.246094 Z M 532.375 736.640625 C 539.269531 740.839844 549.914062 741.738281 556.507812 736.191406 C 557.707031 735.140625 556.355469 733.492188 555.007812 733.792969 C 547.515625 735.589844 541.804688 736.339844 534.925781 732.441406 C 532.0625 730.792969 529.679688 734.839844 532.375 736.640625 Z M 614.496094 474.546875 C 613.160156 474.84375 612.5625 476.195312 612.410156 477.394531 C 612.246094 478.292969 612.996094 478.742188 613.746094 478.894531 C 614.0625 479.34375 614.660156 479.644531 615.246094 479.644531 C 615.992188 479.644531 617.058594 479.042969 617.207031 478.144531 C 617.359375 477.246094 617.359375 476.644531 617.207031 475.746094 C 616.742188 474.84375 615.558594 474.246094 614.496094 474.546875 Z M 616.742188 459.851562 C 615.410156 459.851562 614.359375 461.800781 615.558594 462.699219 L 615.710938 462.851562 C 616.308594 463.449219 617.207031 463.449219 617.808594 462.851562 L 617.957031 462.699219 C 618.992188 461.652344 618.105469 459.851562 616.742188 459.851562 Z M 673.863281 468.546875 C 670.117188 465.25 664.570312 463.898438 660.207031 461.050781 C 655.128906 457.753906 650.464844 453.703125 646.433594 449.207031 C 645.835938 448.457031 644.472656 449.503906 645.085938 450.253906 C 648.382812 455.203125 652.28125 459.550781 657.074219 463.148438 C 661.273438 466.296875 667.417969 470.945312 672.949219 470.796875 C 674.011719 470.945312 674.910156 469.449219 673.863281 468.546875 Z M 597.425781 455.054688 C 597.875 454.152344 596.675781 453.554688 596.226562 454.304688 C 592.011719 460.449219 588.265625 466.75 582.734375 471.695312 C 576.589844 477.246094 568.78125 480.542969 561.152344 483.390625 C 559.203125 484.140625 560.105469 487.289062 562.039062 486.539062 C 577.773438 480.242188 589.765625 470.496094 597.425781 455.054688 Z M 614.960938 504.234375 C 612.5625 503.484375 610 503.484375 607.617188 502.882812 C 607.464844 502.734375 607.167969 502.734375 607 502.734375 C 606.867188 502.734375 606.714844 502.585938 606.566406 502.585938 C 603.570312 501.382812 601.171875 499.433594 598.757812 497.1875 C 598.007812 496.4375 596.511719 497.484375 597.125 498.386719 C 598.921875 500.933594 601.921875 503.632812 605.367188 505.433594 C 599.671875 520.128906 594.578125 534.972656 589.332031 549.664062 C 584.683594 562.558594 577.191406 576.804688 581.238281 590.75 C 581.835938 592.996094 585.132812 592.097656 584.835938 589.699219 C 582.136719 574.855469 590.078125 558.8125 594.578125 545.015625 C 598.757812 532.121094 603.253906 519.226562 607.167969 506.183594 C 609.863281 507.230469 612.5625 507.53125 615.109375 506.78125 C 616.160156 506.332031 616.160156 504.535156 614.960938 504.234375 Z M 403.332031 388.03125 C 391.789062 389.980469 380.097656 389.230469 368.691406 390.730469 C 367.808594 390.878906 367.808594 392.378906 368.691406 392.527344 C 380.097656 394.925781 393.136719 394.476562 404.53125 392.226562 C 407.226562 391.777344 406.027344 387.578125 403.332031 388.03125 Z M 361.8125 235.390625 C 363.910156 239.289062 369.757812 241.089844 373.652344 242.585938 C 373.9375 242.738281 374.253906 242.136719 373.9375 241.988281 C 372.003906 240.789062 370.058594 239.738281 368.109375 238.539062 C 366.160156 237.339844 364.660156 235.691406 362.863281 234.339844 C 362.113281 233.890625 361.515625 234.789062 361.8125 235.390625 Z M 358.816406 225.34375 C 358.816406 224.445312 358.949219 223.546875 359.265625 222.796875 C 359.699219 223.246094 360.164062 223.394531 360.765625 223.695312 C 361.199219 223.996094 361.515625 224.144531 362.113281 224.144531 C 362.414062 224.144531 362.5625 223.695312 362.5625 223.546875 C 362.414062 223.09375 362.113281 222.796875 361.664062 222.496094 C 361.199219 222.195312 360.914062 221.746094 360.449219 221.445312 C 361.363281 220.847656 362.699219 220.097656 363.613281 220.546875 C 364.195312 220.847656 364.8125 220.246094 364.511719 219.648438 C 363.613281 217.996094 360.613281 219.195312 359.566406 219.945312 C 357.917969 221.144531 356.703125 223.394531 357.019531 225.644531 C 357.167969 226.695312 358.816406 226.394531 358.816406 225.34375 Z M 53.660156 608.589844 C 51.566406 607.84375 48.417969 606.492188 44.96875 603.792969 L 28.480469 603.792969 L 25.335938 618.039062 C 39.277344 618.335938 53.210938 618.636719 67.003906 618.9375 C 66.851562 617.136719 66.402344 614.589844 64.605469 612.640625 C 62.203125 609.941406 58.90625 610.390625 53.660156 608.589844 Z M 99.078125 607.691406 C 96.980469 606.941406 94.128906 605.894531 90.679688 603.792969 L 75.394531 603.792969 C 75.25 607.992188 74.941406 612.339844 74.796875 616.539062 C 86.039062 616.6875 97.125 616.6875 108.367188 616.839844 C 108.820312 615.339844 109.117188 613.238281 108.070312 611.441406 C 106.722656 609.191406 103.726562 609.191406 99.078125 607.691406 Z M 702.042969 721.945312 C 698.59375 719.699219 694.996094 719.996094 693.933594 720.148438 C 686.753906 738.441406 681.808594 747.285156 678.945312 746.6875 C 677.761719 746.386719 677.011719 744.585938 676.695312 741.289062 C 673.863281 746.988281 671.167969 751.335938 669.203125 754.332031 C 666.953125 757.78125 665.457031 759.582031 665.457031 762.28125 C 665.621094 766.179688 668.917969 769.175781 671.015625 770.828125 C 682.691406 755.832031 694.246094 740.988281 705.921875 725.996094 C 705.171875 724.945312 704.140625 723.296875 702.042969 721.945312 Z M 552.613281 752.234375 C 554.261719 757.480469 556.042969 762.582031 557.707031 767.828125 C 540.769531 772.175781 523.820312 776.523438 506.898438 780.871094 C 506.75 778.921875 506.75 776.375 507.949219 773.824219 C 510.332031 768.128906 516.789062 764.679688 524.433594 764.53125 C 526.066406 765.128906 527.730469 765.429688 529.066406 765.578125 C 541.519531 766.628906 551.113281 754.332031 552.613281 752.234375 "/></g></g></svg>